  0
SECTION
  2
HEADER
  9
$ACADVER
  1
AC1024
  9
$ACADMAINTVER
 70
     6
  9
$DWGCODEPAGE
  3
ANSI_1252
  9
$INSBASE
 10
0.0
 20
0.0
 30
0.0
  9
$EXTMIN
 10
1.000000000000000E+20
 20
1.000000000000000E+20
 30
1.000000000000000E+20
  9
$EXTMAX
 10
-1.000000000000000E+20
 20
-1.000000000000000E+20
 30
-1.000000000000000E+20
  9
$LIMMIN
 10
0.0
 20
0.0
  9
$LIMMAX
 10
12.0
 20
9.0
  9
$ORTHOMODE
 70
     0
  9
$REGENMODE
 70
     1
  9
$FILLMODE
 70
     1
  9
$QTEXTMODE
 70
     0
  9
$MIRRTEXT
 70
     1
  9
$LTSCALE
 40
1.0
  9
$ATTMODE
 70
     1
  9
$TEXTSIZE
 40
0.2
  9
$TRACEWID
 40
0.05
  9
$TEXTSTYLE
  7
Standard
  9
$CLAYER
  8
0
  9
$CELTYPE
  6
ByLayer
  9
$CECOLOR
 62
   256
  9
$CELTSCALE
 40
1.0
  9
$DISPSILH
 70
     0
  9
$DIMSCALE
 40
1.0
  9
$DIMASZ
 40
0.18
  9
$DIMEXO
 40
0.0625
  9
$DIMDLI
 40
0.38
  9
$DIMRND
 40
0.0
  9
$DIMDLE
 40
0.0
  9
$DIMEXE
 40
0.18
  9
$DIMTP
 40
0.0
  9
$DIMTM
 40
0.0
  9
$DIMTXT
 40
0.18
  9
$DIMCEN
 40
0.09
  9
$DIMTSZ
 40
0.0
  9
$DIMTOL
 70
     0
  9
$DIMLIM
 70
     0
  9
$DIMTIH
 70
     1
  9
$DIMTOH
 70
     1
  9
$DIMSE1
 70
     0
  9
$DIMSE2
 70
     0
  9
$DIMTAD
 70
     0
  9
$DIMZIN
 70
     0
  9
$DIMBLK
  1

  9
$DIMASO
 70
     1
  9
$DIMSHO
 70
     1
  9
$DIMPOST
  1

  9
$DIMAPOST
  1

  9
$DIMALT
 70
     0
  9
$DIMALTD
 70
     2
  9
$DIMALTF
 40
25.4
  9
$DIMLFAC
 40
1.0
  9
$DIMTOFL
 70
     0
  9
$DIMTVP
 40
0.0
  9
$DIMTIX
 70
     0
  9
$DIMSOXD
 70
     0
  9
$DIMSAH
 70
     0
  9
$DIMBLK1
  1

  9
$DIMBLK2
  1

  9
$DIMSTYLE
  2
Standard
  9
$DIMCLRD
 70
     0
  9
$DIMCLRE
 70
     0
  9
$DIMCLRT
 70
     0
  9
$DIMTFAC
 40
1.0
  9
$DIMGAP
 40
0.09
  9
$DIMJUST
 70
     0
  9
$DIMSD1
 70
     0
  9
$DIMSD2
 70
     0
  9
$DIMTOLJ
 70
     1
  9
$DIMTZIN
 70
     0
  9
$DIMALTZ
 70
     0
  9
$DIMALTTZ
 70
     0
  9
$DIMUPT
 70
     0
  9
$DIMDEC
 70
     4
  9
$DIMTDEC
 70
     4
  9
$DIMALTU
 70
     2
  9
$DIMALTTD
 70
     2
  9
$DIMTXSTY
  7
Standard
  9
$DIMAUNIT
 70
     0
  9
$DIMADEC
 70
     0
  9
$DIMALTRND
 40
0.0
  9
$DIMAZIN
 70
     0
  9
$DIMDSEP
 70
    46
  9
$DIMATFIT
 70
     3
  9
$DIMFRAC
 70
     0
  9
$DIMLDRBLK
  1

  9
$DIMLUNIT
 70
     2
  9
$DIMLWD
 70
    -2
  9
$DIMLWE
 70
    -2
  9
$DIMTMOVE
 70
     0
  9
$DIMFXL
 40
1.0
  9
$DIMFXLON
 70
     0
  9
$DIMJOGANG
 40
0.7853981633974483
  9
$DIMTFILL
 70
     0
  9
$DIMTFILLCLR
 70
     0
  9
$DIMARCSYM
 70
     0
  9
$DIMLTYPE
  6

  9
$DIMLTEX1
  6

  9
$DIMLTEX2
  6

  9
$DIMTXTDIRECTION
 70
     0
  9
$LUNITS
 70
     2
  9
$LUPREC
 70
     4
  9
$SKETCHINC
 40
0.1
  9
$FILLETRAD
 40
0.5
  9
$AUNITS
 70
     0
  9
$AUPREC
 70
     0
  9
$MENU
  1
.
  9
$ELEVATION
 40
0.0
  9
$PELEVATION
 40
0.0
  9
$THICKNESS
 40
0.0
  9
$LIMCHECK
 70
     0
  9
$CHAMFERA
 40
0.5
  9
$CHAMFERB
 40
0.5
  9
$CHAMFERC
 40
1.0
  9
$CHAMFERD
 40
0.0
  9
$SKPOLY
 70
     0
  9
$TDCREATE
 40
2458966.282948912
  9
$TDUCREATE
 40
2458966.491282245
  9
$TDUPDATE
 40
2458966.282948982
  9
$TDUUPDATE
 40
2458966.491282315
  9
$TDINDWG
 40
0.0000000116
  9
$TDUSRTIMER
 40
0.0000000116
  9
$USRTIMER
 70
     1
  9
$ANGBASE
 50
0.0
  9
$ANGDIR
 70
     0
  9
$PDMODE
 70
     0
  9
$PDSIZE
 40
0.0
  9
$PLINEWID
 40
0.0
  9
$SPLFRAME
 70
     0
  9
$SPLINETYPE
 70
     6
  9
$SPLINESEGS
 70
     8
  9
$HANDSEED
  5
10E
  9
$SURFTAB1
 70
     6
  9
$SURFTAB2
 70
     6
  9
$SURFTYPE
 70
     6
  9
$SURFU
 70
     6
  9
$SURFV
 70
     6
  9
$UCSBASE
  2

  9
$UCSNAME
  2

  9
$UCSORG
 10
0.0
 20
0.0
 30
0.0
  9
$UCSXDIR
 10
1.0
 20
0.0
 30
0.0
  9
$UCSYDIR
 10
0.0
 20
1.0
 30
0.0
  9
$UCSORTHOREF
  2

  9
$UCSORTHOVIEW
 70
     0
  9
$UCSORGTOP
 10
0.0
 20
0.0
 30
0.0
  9
$UCSORGBOTTOM
 10
0.0
 20
0.0
 30
0.0
  9
$UCSORGLEFT
 10
0.0
 20
0.0
 30
0.0
  9
$UCSORGRIGHT
 10
0.0
 20
0.0
 30
0.0
  9
$UCSORGFRONT
 10
0.0
 20
0.0
 30
0.0
  9
$UCSORGBACK
 10
0.0
 20
0.0
 30
0.0
  9
$PUCSBASE
  2

  9
$PUCSNAME
  2

  9
$PUCSORG
 10
0.0
 20
0.0
 30
0.0
  9
$PUCSXDIR
 10
1.0
 20
0.0
 30
0.0
  9
$PUCSYDIR
 10
0.0
 20
1.0
 30
0.0
  9
$PUCSORTHOREF
  2

  9
$PUCSORTHOVIEW
 70
     0
  9
$PUCSORGTOP
 10
0.0
 20
0.0
 30
0.0
  9
$PUCSORGBOTTOM
 10
0.0
 20
0.0
 30
0.0
  9
$PUCSORGLEFT
 10
0.0
 20
0.0
 30
0.0
  9
$PUCSORGRIGHT
 10
0.0
 20
0.0
 30
0.0
  9
$PUCSORGFRONT
 10
0.0
 20
0.0
 30
0.0
  9
$PUCSORGBACK
 10
0.0
 20
0.0
 30
0.0
  9
$USERI1
 70
     0
  9
$USERI2
 70
     0
  9
$USERI3
 70
     0
  9
$USERI4
 70
     0
  9
$USERI5
 70
     0
  9
$USERR1
 40
0.0
  9
$USERR2
 40
0.0
  9
$USERR3
 40
0.0
  9
$USERR4
 40
0.0
  9
$USERR5
 40
0.0
  9
$WORLDVIEW
 70
     1
  9
$SHADEDGE
 70
     3
  9
$SHADEDIF
 70
    70
  9
$TILEMODE
 70
     1
  9
$MAXACTVP
 70
    64
  9
$PINSBASE
 10
0.0
 20
0.0
 30
0.0
  9
$PLIMCHECK
 70
     0
  9
$PEXTMIN
 10
1.000000000000000E+20
 20
1.000000000000000E+20
 30
1.000000000000000E+20
  9
$PEXTMAX
 10
-1.000000000000000E+20
 20
-1.000000000000000E+20
 30
-1.000000000000000E+20
  9
$PLIMMIN
 10
0.0
 20
0.0
  9
$PLIMMAX
 10
12.0
 20
9.0
  9
$UNITMODE
 70
     0
  9
$VISRETAIN
 70
     1
  9
$PLINEGEN
 70
     0
  9
$PSLTSCALE
 70
     1
  9
$TREEDEPTH
 70
  3020
  9
$CMLSTYLE
  2
Standard
  9
$CMLJUST
 70
     0
  9
$CMLSCALE
 40
1.0
  9
$PROXYGRAPHICS
 70
     1
  9
$MEASUREMENT
 70
     0
  9
$CELWEIGHT
370
    -1
  9
$ENDCAPS
280
     0
  9
$JOINSTYLE
280
     0
  9
$LWDISPLAY
290
     1
  9
$INSUNITS
 70
     0
  9
$HYPERLINKBASE
  1

  9
$STYLESHEET
  1

  9
$XEDIT
290
     1
  9
$CEPSNTYPE
380
     0
  9
$PSTYLEMODE
290
     1
  9
$FINGERPRINTGUID
  2
{AAE4AF1F-9E74-4206-A6F7-FC9F941E9B7A}
  9
$VERSIONGUID
  2
{FAEB1C32-E019-11D5-929B-00C0DF256EC4}
  9
$EXTNAMES
290
     1
  9
$PSVPSCALE
 40
0.0
  9
$OLESTARTUP
290
     0
  9
$SORTENTS
280
   127
  9
$INDEXCTL
280
     0
  9
$HIDETEXT
280
     1
  9
$XCLIPFRAME
280
     2
  9
$HALOGAP
280
     0
  9
$OBSCOLOR
 70
   257
  9
$OBSLTYPE
280
     0
  9
$INTERSECTIONDISPLAY
280
     0
  9
$INTERSECTIONCOLOR
 70
   257
  9
$DIMASSOC
280
     2
  9
$PROJECTNAME
  1

  9
$CAMERADISPLAY
290
     0
  9
$LENSLENGTH
 40
50.0
  9
$CAMERAHEIGHT
 40
0.0
  9
$STEPSPERSEC
 40
2.0
  9
$STEPSIZE
 40
6.0
  9
$3DDWFPREC
 40
2.0
  9
$PSOLWIDTH
 40
0.25
  9
$PSOLHEIGHT
 40
4.0
  9
$LOFTANG1
 40
1.570796326794897
  9
$LOFTANG2
 40
1.570796326794897
  9
$LOFTMAG1
 40
0.0
  9
$LOFTMAG2
 40
0.0
  9
$LOFTPARAM
 70
     7
  9
$LOFTNORMALS
280
     1
  9
$LATITUDE
 40
37.795
  9
$LONGITUDE
 40
-122.394
  9
$NORTHDIRECTION
 40
0.0
  9
$TIMEZONE
 70
 -8000
  9
$LIGHTGLYPHDISPLAY
280
     1
  9
$TILEMODELIGHTSYNCH
280
     1
  9
$CMATERIAL
347
3C
  9
$SOLIDHIST
280
     1
  9
$SHOWHIST
280
     1
  9
$DWFFRAME
280
     2
  9
$DGNFRAME
280
     2
  9
$REALWORLDSCALE
290
     1
  9
$INTERFERECOLOR
 62
   256
  9
$CSHADOW
280
     0
  9
$SHADOWPLANELOCATION
 40
0.0
  0
ENDSEC
  0
SECTION
  2
CLASSES
  0
CLASS
  1
ACDBDICTIONARYWDFLT
  2
AcDbDictionaryWithDefault
  3
ObjectDBX Classes
 90
        0
 91
        4
280
     0
281
     0
  0
CLASS
  1
VISUALSTYLE
  2
AcDbVisualStyle
  3
ObjectDBX Classes
 90
     4095
 91
        4
280
     0
281
     0
  0
CLASS
  1
MATERIAL
  2
AcDbMaterial
  3
ObjectDBX Classes
 90
     1153
 91
        4
280
     0
281
     0
  0
CLASS
  1
SUN
  2
AcDbSun
  3
SCENEOE
 90
     1024
 91
        4
280
     0
281
     0
  0
ENDSEC
  0
SECTION
  2
TABLES
  0
TABLE
  2
VPORT
  5
8
330
0
100
AcDbSymbolTable
 70
     1
  0
VPORT
  5
29
330
8
100
AcDbSymbolTableRecord
100
AcDbViewportTableRecord
  2
*Active
 70
     0
 10
0.0
 20
0.0
 11
1.0
 21
1.0
 12
0.0
 22
0.0
 13
0.0
 23
0.0
 14
0.5
 24
0.5
 15
0.5
 25
0.5
 16
0.0
 26
0.0
 36
1.0
 17
306.0
 27
396.0
 37
0.0
 40
792.0
 41
0.7727272727272727
 42
50.0
 43
0.0
 44
0.0
 50
0.0
 51
0.0
 71
     0
 72
   100
 73
     1
 74
     3
 75
     0
 76
     0
 77
     0
 78
     0
281
     0
 65
     1
110
0.0
120
0.0
130
0.0
111
1.0
121
0.0
131
0.0
112
0.0
122
1.0
132
0.0
 79
     0
146
0.0
 60
     3
 61
     5
292
     1
282
     1
141
0.0
142
0.0
 63
   250
361
3F
  0
ENDTAB
  0
TABLE
  2
LTYPE
  5
5
330
0
100
AcDbSymbolTable
 70
    12
  0
LTYPE
  5
14
330
5
100
AcDbSymbolTableRecord
100
AcDbLinetypeTableRecord
  2
ByBlock
 70
     0
  3

 72
    65
 73
     0
 40
0.0
  0
LTYPE
  5
15
330
5
100
AcDbSymbolTableRecord
100
AcDbLinetypeTableRecord
  2
ByLayer
 70
     0
  3

 72
    65
 73
     0
 40
0.0
  0
LTYPE
  5
16
330
5
100
AcDbSymbolTableRecord
100
AcDbLinetypeTableRecord
  2
Continuous
 70
     0
  3
Solid line
 72
    65
 73
     0
 40
0.0
  0
LTYPE
  5
44
330
5
100
AcDbSymbolTableRecord
100
AcDbLinetypeTableRecord
  2
AI-Linetype-1
 70
     0
  3
Adobe Illustrator Linetype No. 1
 72
    65
 73
     2
 40
32.0
 49
16.0
 74
     0
 49
-16.0
 74
     0
  0
LTYPE
  5
49
330
5
100
AcDbSymbolTableRecord
100
AcDbLinetypeTableRecord
  2
AI-Linetype-2
 70
     0
  3
Adobe Illustrator Linetype No. 2
 72
    65
 73
     2
 40
20.0
 49
10.0
 74
     0
 49
-10.0
 74
     0
  0
LTYPE
  5
4E
330
5
100
AcDbSymbolTableRecord
100
AcDbLinetypeTableRecord
  2
AI-Linetype-3
 70
     0
  3
Adobe Illustrator Linetype No. 3
 72
    65
 73
     2
 40
20.0
 49
10.0
 74
     0
 49
-10.0
 74
     0
  0
LTYPE
  5
53
330
5
100
AcDbSymbolTableRecord
100
AcDbLinetypeTableRecord
  2
AI-Linetype-4
 70
     0
  3
Adobe Illustrator Linetype No. 4
 72
    65
 73
     2
 40
20.0
 49
10.0
 74
     0
 49
-10.0
 74
     0
  0
LTYPE
  5
58
330
5
100
AcDbSymbolTableRecord
100
AcDbLinetypeTableRecord
  2
AI-Linetype-5
 70
     0
  3
Adobe Illustrator Linetype No. 5
 72
    65
 73
     2
 40
20.0
 49
10.0
 74
     0
 49
-10.0
 74
     0
  0
LTYPE
  5
5D
330
5
100
AcDbSymbolTableRecord
100
AcDbLinetypeTableRecord
  2
AI-Linetype-6
 70
     0
  3
Adobe Illustrator Linetype No. 6
 72
    65
 73
     2
 40
20.0
 49
10.0
 74
     0
 49
-10.0
 74
     0
  0
LTYPE
  5
62
330
5
100
AcDbSymbolTableRecord
100
AcDbLinetypeTableRecord
  2
AI-Linetype-7
 70
     0
  3
Adobe Illustrator Linetype No. 7
 72
    65
 73
     2
 40
20.0
 49
10.0
 74
     0
 49
-10.0
 74
     0
  0
LTYPE
  5
F3
330
5
100
AcDbSymbolTableRecord
100
AcDbLinetypeTableRecord
  2
AI-Linetype-8
 70
     0
  3
Adobe Illustrator Linetype No. 8
 72
    65
 73
     2
 40
20.0
 49
10.0
 74
     0
 49
-10.0
 74
     0
  0
LTYPE
  5
F9
330
5
100
AcDbSymbolTableRecord
100
AcDbLinetypeTableRecord
  2
AI-Linetype-9
 70
     0
  3
Adobe Illustrator Linetype No. 9
 72
    65
 73
     2
 40
20.0
 49
10.0
 74
     0
 49
-10.0
 74
     0
  0
LTYPE
  5
FF
330
5
100
AcDbSymbolTableRecord
100
AcDbLinetypeTableRecord
  2
AI-Linetype-10
 70
     0
  3
Adobe Illustrator Linetype No. 10
 72
    65
 73
     2
 40
20.0
 49
10.0
 74
     0
 49
-10.0
 74
     0
  0
LTYPE
  5
106
330
5
100
AcDbSymbolTableRecord
100
AcDbLinetypeTableRecord
  2
AI-Linetype-11
 70
     0
  3
Adobe Illustrator Linetype No. 11
 72
    65
 73
     2
 40
20.0
 49
10.0
 74
     0
 49
-10.0
 74
     0
  0
ENDTAB
  0
TABLE
  2
LAYER
  5
2
330
0
100
AcDbSymbolTable
 70
     2
  0
LAYER
  5
10
330
2
100
AcDbSymbolTableRecord
100
AcDbLayerTableRecord
  2
0
 70
     0
 62
     7
  6
Continuous
370
    -3
390
F
347
3E
  0
LAYER
  5
40
330
2
100
AcDbSymbolTableRecord
100
AcDbLayerTableRecord
  2
Layer 2
 70
     0
 62
     7
  6
Continuous
370
    -3
390
F
347
3E
  0
ENDTAB
  0
TABLE
  2
STYLE
  5
3
330
0
100
AcDbSymbolTable
 70
     1
  0
STYLE
  5
11
330
3
100
AcDbSymbolTableRecord
100
AcDbTextStyleTableRecord
  2
Standard
 70
     0
 40
0.0
 41
1.0
 50
0.0
 71
     0
 42
0.2
  3
txt
  4

  0
ENDTAB
  0
TABLE
  2
VIEW
  5
6
330
0
100
AcDbSymbolTable
 70
     0
  0
ENDTAB
  0
TABLE
  2
UCS
  5
7
330
0
100
AcDbSymbolTable
 70
     0
  0
ENDTAB
  0
TABLE
  2
APPID
  5
9
330
0
100
AcDbSymbolTable
 70
     1
  0
APPID
  5
12
330
9
100
AcDbSymbolTableRecord
100
AcDbRegAppTableRecord
  2
ACAD
 70
     0
  0
ENDTAB
  0
TABLE
  2
DIMSTYLE
  5
A
330
0
100
AcDbSymbolTable
 70
     1
100
AcDbDimStyleTable
  0
DIMSTYLE
105
27
330
A
100
AcDbSymbolTableRecord
100
AcDbDimStyleTableRecord
  2
Standard
 70
     0
178
     0
340
11
  0
ENDTAB
  0
TABLE
  2
BLOCK_RECORD
  5
1
330
0
100
AcDbSymbolTable
 70
     3
  0
BLOCK_RECORD
  5
1F
330
1
100
AcDbSymbolTableRecord
100
AcDbBlockTableRecord
  2
*Model_Space
340
22
 70
     0
280
     1
281
     0
  0
BLOCK_RECORD
  5
1B
330
1
100
AcDbSymbolTableRecord
100
AcDbBlockTableRecord
  2
*Paper_Space
340
1E
 70
     0
280
     1
281
     0
  0
BLOCK_RECORD
  5
23
330
1
100
AcDbSymbolTableRecord
100
AcDbBlockTableRecord
  2
*Paper_Space0
340
26
 70
     0
280
     1
281
     0
  0
BLOCK_RECORD
  5
68
330
1
100
AcDbSymbolTableRecord
100
AcDbBlockTableRecord
  2
block 2
340
0
102
{BLKREFS
331
69
102
}
 70
     0
280
     1
281
     0
  0
BLOCK_RECORD
  5
94
330
1
100
AcDbSymbolTableRecord
100
AcDbBlockTableRecord
  2
block 3
340
0
102
{BLKREFS
331
95
102
}
 70
     0
280
     1
281
     0
  0
ENDTAB
  0
ENDSEC
  0
SECTION
  2
BLOCKS
  0
BLOCK
  5
20
330
1F
100
AcDbEntity
  8
0
100
AcDbBlockBegin
  2
*Model_Space
 70
     0
 10
0.0
 20
0.0
 30
0.0
  3
*Model_Space
  1

  0
ENDBLK
  5
21
330
1F
100
AcDbEntity
  8
0
100
AcDbBlockEnd
  0
BLOCK
  5
1C
330
1B
100
AcDbEntity
 67
     1
  8
0
100
AcDbBlockBegin
  2
*Paper_Space
 70
     0
 10
0.0
 20
0.0
 30
0.0
  3
*Paper_Space
  1

  0
ENDBLK
  5
1D
330
1B
100
AcDbEntity
 67
     1
  8
0
100
AcDbBlockEnd
  0
BLOCK
  5
24
330
23
100
AcDbEntity
  8
0
100
AcDbBlockBegin
  2
*Paper_Space0
 70
     0
 10
0.0
 20
0.0
 30
0.0
  3
*Paper_Space0
  1

  0
ENDBLK
  5
25
330
23
100
AcDbEntity
  8
0
100
AcDbBlockEnd
  0
BLOCK
  5
6A
330
68
100
AcDbEntity
  8
0
100
AcDbBlockBegin
  2
block 2
 70
     0
 10
0.0
 20
0.0
 30
0.0
  3
block 2
  1

  0
SPLINE
  5
6C
330
68
100
AcDbEntity
  8
Layer 2
370
     0
100
AcDbSpline
210
0.0
220
0.0
230
1.0
 70
    11
 71
     3
 72
    50
 73
    46
 74
     0
 42
0.0000000001
 43
0.0000000001
 12
1.0
 22
0.0
 32
0.0
 13
1.0
 23
0.0
 33
0.0
 40
0.0
 40
0.0
 40
0.0
 40
0.0
 40
1.0
 40
1.0
 40
1.0
 40
2.0
 40
2.0
 40
2.0
 40
3.0
 40
3.0
 40
3.0
 40
4.0
 40
4.0
 40
4.0
 40
5.0
 40
5.0
 40
5.0
 40
6.0
 40
6.0
 40
6.0
 40
7.0
 40
7.0
 40
7.0
 40
8.0
 40
8.0
 40
8.0
 40
9.0
 40
9.0
 40
9.0
 40
10.0
 40
10.0
 40
10.0
 40
11.0
 40
11.0
 40
11.0
 40
12.0
 40
12.0
 40
12.0
 40
13.0
 40
13.0
 40
13.0
 40
14.0
 40
14.0
 40
14.0
 40
15.0
 40
15.0
 40
15.0
 40
15.0
 10
135.27197265625
 20
313.224609375
 30
0.0
 10
134.376953125
 20
312.9033203125
 30
0.0
 10
132.60986328125
 20
312.375
 30
0.0
 10
130.521484375
 20
312.375
 30
0.0
 10
128.1806640625
 20
312.375
 30
0.0
 10
126.2529296875
 20
312.97265625
 30
0.0
 10
124.73828125
 20
314.41796875
 30
0.0
 10
123.4072265625
 20
315.703125
 30
0.0
 10
122.5810546875
 20
317.7685546875
 30
0.0
 10
122.5810546875
 20
320.177734375
 30
0.0
 10
122.60400390625
 20
324.791015625
 30
0.0
 10
125.77099609375
 20
328.1640625
 30
0.0
 10
130.95751953125
 20
328.1640625
 30
0.0
 10
132.74755859375
 20
328.1640625
 30
0.0
 10
134.1474609375
 20
327.7744140625
 30
0.0
 10
134.81298828125
 20
327.453125
 30
0.0
 10
134.81298828125
 20
327.453125
 30
0.0
 10
134.3310546875
 20
325.82421875
 30
0.0
 10
134.3310546875
 20
325.82421875
 30
0.0
 10
133.5048828125
 20
326.19140625
 30
0.0
 10
132.47216796875
 20
326.4892578125
 30
0.0
 10
130.91162109375
 20
326.4892578125
 30
0.0
 10
127.14794921875
 20
326.4892578125
 30
0.0
 10
124.6923828125
 20
324.1484375
 30
0.0
 10
124.6923828125
 20
320.26953125
 30
0.0
 10
124.6923828125
 20
316.345703125
 30
0.0
 10
127.05615234375
 20
314.02734375
 30
0.0
 10
130.6591796875
 20
314.02734375
 30
0.0
 10
131.96728515625
 20
314.02734375
 30
0.0
 10
132.8623046875
 20
314.2109375
 30
0.0
 10
133.3212890625
 20
314.44140625
 30
0.0
 10
133.3212890625
 20
314.44140625
 30
0.0
 10
133.3212890625
 20
319.0537109375
 30
0.0
 10
133.3212890625
 20
319.0537109375
 30
0.0
 10
133.3212890625
 20
319.0537109375
 30
0.0
 10
130.17724609375
 20
319.0537109375
 30
0.0
 10
130.17724609375
 20
319.0537109375
 30
0.0
 10
130.17724609375
 20
319.0537109375
 30
0.0
 10
130.17724609375
 20
320.66015625
 30
0.0
 10
130.17724609375
 20
320.66015625
 30
0.0
 10
130.17724609375
 20
320.66015625
 30
0.0
 10
135.27197265625
 20
320.66015625
 30
0.0
 10
135.27197265625
 20
320.66015625
 30
0.0
 10
135.27197265625
 20
320.66015625
 30
0.0
 10
135.27197265625
 20
313.224609375
 30
0.0
 10
135.27197265625
 20
313.224609375
 30
0.0
  0
HATCH
  5
6D
330
68
100
AcDbEntity
  8
Layer 2
 62
   250
420
  2301728
100
AcDbHatch
 10
0.0
 20
0.0
 30
0.0
210
0.0
220
0.0
230
1.0
  2
SOLID
 70
     1
 71
     0
 91
        1
 92
        1
 93
        1
 72
     4
 94
        3
 73
     0
 74
     1
 95
       50
 96
       46
 40
0.0
 40
0.0
 40
0.0
 40
0.0
 40
1.0
 40
1.0
 40
1.0
 40
2.0
 40
2.0
 40
2.0
 40
3.0
 40
3.0
 40
3.0
 40
4.0
 40
4.0
 40
4.0
 40
5.0
 40
5.0
 40
5.0
 40
6.0
 40
6.0
 40
6.0
 40
7.0
 40
7.0
 40
7.0
 40
8.0
 40
8.0
 40
8.0
 40
9.0
 40
9.0
 40
9.0
 40
10.0
 40
10.0
 40
10.0
 40
11.0
 40
11.0
 40
11.0
 40
12.0
 40
12.0
 40
12.0
 40
13.0
 40
13.0
 40
13.0
 40
14.0
 40
14.0
 40
14.0
 40
15.0
 40
15.0
 40
15.0
 40
15.0
 10
135.27197265625
 20
313.224609375
 10
134.376953125
 20
312.9033203125
 10
132.60986328125
 20
312.375
 10
130.521484375
 20
312.375
 10
128.1806640625
 20
312.375
 10
126.2529296875
 20
312.97265625
 10
124.73828125
 20
314.41796875
 10
123.4072265625
 20
315.703125
 10
122.5810546875
 20
317.7685546875
 10
122.5810546875
 20
320.177734375
 10
122.60400390625
 20
324.791015625
 10
125.77099609375
 20
328.1640625
 10
130.95751953125
 20
328.1640625
 10
132.74755859375
 20
328.1640625
 10
134.1474609375
 20
327.7744140625
 10
134.81298828125
 20
327.453125
 10
134.81298828125
 20
327.453125
 10
134.3310546875
 20
325.82421875
 10
134.3310546875
 20
325.82421875
 10
133.5048828125
 20
326.19140625
 10
132.47216796875
 20
326.4892578125
 10
130.91162109375
 20
326.4892578125
 10
127.14794921875
 20
326.4892578125
 10
124.6923828125
 20
324.1484375
 10
124.6923828125
 20
320.26953125
 10
124.6923828125
 20
316.345703125
 10
127.05615234375
 20
314.02734375
 10
130.6591796875
 20
314.02734375
 10
131.96728515625
 20
314.02734375
 10
132.8623046875
 20
314.2109375
 10
133.3212890625
 20
314.44140625
 10
133.3212890625
 20
314.44140625
 10
133.3212890625
 20
319.0537109375
 10
133.3212890625
 20
319.0537109375
 10
133.3212890625
 20
319.0537109375
 10
130.17724609375
 20
319.0537109375
 10
130.17724609375
 20
319.0537109375
 10
130.17724609375
 20
319.0537109375
 10
130.17724609375
 20
320.66015625
 10
130.17724609375
 20
320.66015625
 10
130.17724609375
 20
320.66015625
 10
135.27197265625
 20
320.66015625
 10
135.27197265625
 20
320.66015625
 10
135.27197265625
 20
320.66015625
 10
135.27197265625
 20
313.224609375
 10
135.27197265625
 20
313.224609375
 97
        0
 97
        0
 75
     2
 76
     1
 98
        0
  0
SPLINE
  5
6E
330
68
100
AcDbEntity
  8
Layer 2
370
     0
100
AcDbSpline
210
0.0
220
0.0
230
1.0
 70
    11
 71
     3
 72
    44
 73
    40
 74
     0
 42
0.0000000001
 43
0.0000000001
 12
1.0
 22
0.0
 32
0.0
 13
1.0
 23
0.0
 33
0.0
 40
0.0
 40
0.0
 40
0.0
 40
0.0
 40
1.0
 40
1.0
 40
1.0
 40
2.0
 40
2.0
 40
2.0
 40
3.0
 40
3.0
 40
3.0
 40
4.0
 40
4.0
 40
4.0
 40
5.0
 40
5.0
 40
5.0
 40
6.0
 40
6.0
 40
6.0
 40
7.0
 40
7.0
 40
7.0
 40
8.0
 40
8.0
 40
8.0
 40
9.0
 40
9.0
 40
9.0
 40
10.0
 40
10.0
 40
10.0
 40
11.0
 40
11.0
 40
11.0
 40
12.0
 40
12.0
 40
12.0
 40
13.0
 40
13.0
 40
13.0
 40
13.0
 10
138.251953125
 20
320.177734375
 30
0.0
 10
138.251953125
 20
321.486328125
 30
0.0
 10
138.22900390625
 20
322.611328125
 30
0.0
 10
138.16015625
 20
323.6435546875
 30
0.0
 10
138.16015625
 20
323.6435546875
 30
0.0
 10
139.92724609375
 20
323.6435546875
 30
0.0
 10
139.92724609375
 20
323.6435546875
 30
0.0
 10
139.92724609375
 20
323.6435546875
 30
0.0
 10
139.99609375
 20
321.462890625
 30
0.0
 10
139.99609375
 20
321.462890625
 30
0.0
 10
139.99609375
 20
321.462890625
 30
0.0
 10
140.087890625
 20
321.462890625
 30
0.0
 10
140.087890625
 20
321.462890625
 30
0.0
 10
140.5927734375
 20
322.955078125
 30
0.0
 10
141.80908203125
 20
323.896484375
 30
0.0
 10
143.1630859375
 20
323.896484375
 30
0.0
 10
143.392578125
 20
323.896484375
 30
0.0
 10
143.55322265625
 20
323.873046875
 30
0.0
 10
143.73681640625
 20
323.8271484375
 30
0.0
 10
143.73681640625
 20
323.8271484375
 30
0.0
 10
143.73681640625
 20
321.921875
 30
0.0
 10
143.73681640625
 20
321.921875
 30
0.0
 10
143.5302734375
 20
321.96875
 30
0.0
 10
143.32373046875
 20
321.9912109375
 30
0.0
 10
143.04833984375
 20
321.9912109375
 30
0.0
 10
141.62548828125
 20
321.9912109375
 30
0.0
 10
140.61572265625
 20
320.912109375
 30
0.0
 10
140.34033203125
 20
319.3984375
 30
0.0
 10
140.29443359375
 20
319.123046875
 30
0.0
 10
140.24853515625
 20
318.80078125
 30
0.0
 10
140.24853515625
 20
318.45703125
 30
0.0
 10
140.24853515625
 20
318.45703125
 30
0.0
 10
140.24853515625
 20
312.5361328125
 30
0.0
 10
140.24853515625
 20
312.5361328125
 30
0.0
 10
140.24853515625
 20
312.5361328125
 30
0.0
 10
138.251953125
 20
312.5361328125
 30
0.0
 10
138.251953125
 20
312.5361328125
 30
0.0
 10
138.251953125
 20
312.5361328125
 30
0.0
 10
138.251953125
 20
320.177734375
 30
0.0
 10
138.251953125
 20
320.177734375
 30
0.0
  0
HATCH
  5
6F
330
68
100
AcDbEntity
  8
Layer 2
 62
   250
420
  2301728
100
AcDbHatch
 10
0.0
 20
0.0
 30
0.0
210
0.0
220
0.0
230
1.0
  2
SOLID
 70
     1
 71
     0
 91
        1
 92
        1
 93
        1
 72
     4
 94
        3
 73
     0
 74
     1
 95
       44
 96
       40
 40
0.0
 40
0.0
 40
0.0
 40
0.0
 40
1.0
 40
1.0
 40
1.0
 40
2.0
 40
2.0
 40
2.0
 40
3.0
 40
3.0
 40
3.0
 40
4.0
 40
4.0
 40
4.0
 40
5.0
 40
5.0
 40
5.0
 40
6.0
 40
6.0
 40
6.0
 40
7.0
 40
7.0
 40
7.0
 40
8.0
 40
8.0
 40
8.0
 40
9.0
 40
9.0
 40
9.0
 40
10.0
 40
10.0
 40
10.0
 40
11.0
 40
11.0
 40
11.0
 40
12.0
 40
12.0
 40
12.0
 40
13.0
 40
13.0
 40
13.0
 40
13.0
 10
138.251953125
 20
320.177734375
 10
138.251953125
 20
321.486328125
 10
138.22900390625
 20
322.611328125
 10
138.16015625
 20
323.6435546875
 10
138.16015625
 20
323.6435546875
 10
139.92724609375
 20
323.6435546875
 10
139.92724609375
 20
323.6435546875
 10
139.92724609375
 20
323.6435546875
 10
139.99609375
 20
321.462890625
 10
139.99609375
 20
321.462890625
 10
139.99609375
 20
321.462890625
 10
140.087890625
 20
321.462890625
 10
140.087890625
 20
321.462890625
 10
140.5927734375
 20
322.955078125
 10
141.80908203125
 20
323.896484375
 10
143.1630859375
 20
323.896484375
 10
143.392578125
 20
323.896484375
 10
143.55322265625
 20
323.873046875
 10
143.73681640625
 20
323.8271484375
 10
143.73681640625
 20
323.8271484375
 10
143.73681640625
 20
321.921875
 10
143.73681640625
 20
321.921875
 10
143.5302734375
 20
321.96875
 10
143.32373046875
 20
321.9912109375
 10
143.04833984375
 20
321.9912109375
 10
141.62548828125
 20
321.9912109375
 10
140.61572265625
 20
320.912109375
 10
140.34033203125
 20
319.3984375
 10
140.29443359375
 20
319.123046875
 10
140.24853515625
 20
318.80078125
 10
140.24853515625
 20
318.45703125
 10
140.24853515625
 20
318.45703125
 10
140.24853515625
 20
312.5361328125
 10
140.24853515625
 20
312.5361328125
 10
140.24853515625
 20
312.5361328125
 10
138.251953125
 20
312.5361328125
 10
138.251953125
 20
312.5361328125
 10
138.251953125
 20
312.5361328125
 10
138.251953125
 20
320.177734375
 10
138.251953125
 20
320.177734375
 97
        0
 97
        0
 75
     2
 76
     1
 98
        0
  0
SPLINE
  5
70
330
68
100
AcDbEntity
  8
Layer 2
370
     0
100
AcDbSpline
210
0.0
220
0.0
230
1.0
 70
    11
 71
     3
 72
    47
 73
    43
 74
     0
 42
0.0000000001
 43
0.0000000001
 12
1.0
 22
0.0
 32
0.0
 13
1.0
 23
0.0
 33
0.0
 40
0.0
 40
0.0
 40
0.0
 40
0.0
 40
1.0
 40
1.0
 40
1.0
 40
2.0
 40
2.0
 40
2.0
 40
3.0
 40
3.0
 40
3.0
 40
4.0
 40
4.0
 40
4.0
 40
5.0
 40
5.0
 40
5.0
 40
6.0
 40
6.0
 40
6.0
 40
7.0
 40
7.0
 40
7.0
 40
8.0
 40
8.0
 40
8.0
 40
9.0
 40
9.0
 40
9.0
 40
10.0
 40
10.0
 40
10.0
 40
11.0
 40
11.0
 40
11.0
 40
12.0
 40
12.0
 40
12.0
 40
13.0
 40
13.0
 40
13.0
 40
14.0
 40
14.0
 40
14.0
 40
14.0
 10
151.79052734375
 20
312.5361328125
 30
0.0
 10
151.79052734375
 20
312.5361328125
 30
0.0
 10
151.6298828125
 20
313.935546875
 30
0.0
 10
151.6298828125
 20
313.935546875
 30
0.0
 10
151.6298828125
 20
313.935546875
 30
0.0
 10
151.56103515625
 20
313.935546875
 30
0.0
 10
151.56103515625
 20
313.935546875
 30
0.0
 10
150.94140625
 20
313.064453125
 30
0.0
 10
149.748046875
 20
312.283203125
 30
0.0
 10
148.16455078125
 20
312.283203125
 30
0.0
 10
145.91552734375
 20
312.283203125
 30
0.0
 10
144.76806640625
 20
313.8671875
 30
0.0
 10
144.76806640625
 20
315.4736328125
 30
0.0
 10
144.76806640625
 20
318.158203125
 30
0.0
 10
147.15478515625
 20
319.626953125
 30
0.0
 10
151.4462890625
 20
319.6044921875
 30
0.0
 10
151.4462890625
 20
319.6044921875
 30
0.0
 10
151.4462890625
 20
319.833984375
 30
0.0
 10
151.4462890625
 20
319.833984375
 30
0.0
 10
151.4462890625
 20
320.751953125
 30
0.0
 10
151.19384765625
 20
322.404296875
 30
0.0
 10
148.921875
 20
322.404296875
 30
0.0
 10
147.88916015625
 20
322.404296875
 30
0.0
 10
146.810546875
 20
322.0830078125
 30
0.0
 10
146.0302734375
 20
321.578125
 30
0.0
 10
146.0302734375
 20
321.578125
 30
0.0
 10
145.5712890625
 20
322.9091796875
 30
0.0
 10
145.5712890625
 20
322.9091796875
 30
0.0
 10
146.4892578125
 20
323.505859375
 30
0.0
 10
147.8203125
 20
323.896484375
 30
0.0
 10
149.22021484375
 20
323.896484375
 30
0.0
 10
152.61669921875
 20
323.896484375
 30
0.0
 10
153.44287109375
 20
321.578125
 30
0.0
 10
153.44287109375
 20
319.3515625
 30
0.0
 10
153.44287109375
 20
319.3515625
 30
0.0
 10
153.44287109375
 20
315.1982421875
 30
0.0
 10
153.44287109375
 20
315.1982421875
 30
0.0
 10
153.44287109375
 20
314.234375
 30
0.0
 10
153.48876953125
 20
313.29296875
 30
0.0
 10
153.62646484375
 20
312.5361328125
 30
0.0
 10
153.62646484375
 20
312.5361328125
 30
0.0
 10
151.79052734375
 20
312.5361328125
 30
0.0
 10
151.79052734375
 20
312.5361328125
 30
0.0
  0
SPLINE
  5
71
330
68
100
AcDbEntity
  8
Layer 2
370
     0
100
AcDbSpline
210
0.0
220
0.0
230
1.0
 70
    11
 71
     3
 72
    20
 73
    16
 74
     0
 42
0.0000000001
 43
0.0000000001
 12
1.0
 22
0.0
 32
0.0
 13
1.0
 23
0.0
 33
0.0
 40
0.0
 40
0.0
 40
0.0
 40
0.0
 40
1.0
 40
1.0
 40
1.0
 40
2.0
 40
2.0
 40
2.0
 40
3.0
 40
3.0
 40
3.0
 40
4.0
 40
4.0
 40
4.0
 40
5.0
 40
5.0
 40
5.0
 40
5.0
 10
151.4921875
 20
318.205078125
 30
0.0
 10
149.2890625
 20
318.25
 30
0.0
 10
146.78759765625
 20
317.8603515625
 30
0.0
 10
146.78759765625
 20
315.703125
 30
0.0
 10
146.78759765625
 20
314.39453125
 30
0.0
 10
147.65966796875
 20
313.775390625
 30
0.0
 10
148.6923828125
 20
313.775390625
 30
0.0
 10
150.13818359375
 20
313.775390625
 30
0.0
 10
151.05615234375
 20
314.693359375
 30
0.0
 10
151.37744140625
 20
315.634765625
 30
0.0
 10
151.4462890625
 20
315.8408203125
 30
0.0
 10
151.4921875
 20
316.0703125
 30
0.0
 10
151.4921875
 20
316.27734375
 30
0.0
 10
151.4921875
 20
316.27734375
 30
0.0
 10
151.4921875
 20
318.205078125
 30
0.0
 10
151.4921875
 20
318.205078125
 30
0.0
  0
HATCH
  5
72
330
68
100
AcDbEntity
  8
Layer 2
 62
   250
420
  2301728
100
AcDbHatch
 10
0.0
 20
0.0
 30
0.0
210
0.0
220
0.0
230
1.0
  2
SOLID
 70
     1
 71
     0
 91
        2
 92
        1
 93
        1
 72
     4
 94
        3
 73
     0
 74
     1
 95
       47
 96
       43
 40
0.0
 40
0.0
 40
0.0
 40
0.0
 40
1.0
 40
1.0
 40
1.0
 40
2.0
 40
2.0
 40
2.0
 40
3.0
 40
3.0
 40
3.0
 40
4.0
 40
4.0
 40
4.0
 40
5.0
 40
5.0
 40
5.0
 40
6.0
 40
6.0
 40
6.0
 40
7.0
 40
7.0
 40
7.0
 40
8.0
 40
8.0
 40
8.0
 40
9.0
 40
9.0
 40
9.0
 40
10.0
 40
10.0
 40
10.0
 40
11.0
 40
11.0
 40
11.0
 40
12.0
 40
12.0
 40
12.0
 40
13.0
 40
13.0
 40
13.0
 40
14.0
 40
14.0
 40
14.0
 40
14.0
 10
151.79052734375
 20
312.5361328125
 10
151.79052734375
 20
312.5361328125
 10
151.6298828125
 20
313.935546875
 10
151.6298828125
 20
313.935546875
 10
151.6298828125
 20
313.935546875
 10
151.56103515625
 20
313.935546875
 10
151.56103515625
 20
313.935546875
 10
150.94140625
 20
313.064453125
 10
149.748046875
 20
312.283203125
 10
148.16455078125
 20
312.283203125
 10
145.91552734375
 20
312.283203125
 10
144.76806640625
 20
313.8671875
 10
144.76806640625
 20
315.4736328125
 10
144.76806640625
 20
318.158203125
 10
147.15478515625
 20
319.626953125
 10
151.4462890625
 20
319.6044921875
 10
151.4462890625
 20
319.6044921875
 10
151.4462890625
 20
319.833984375
 10
151.4462890625
 20
319.833984375
 10
151.4462890625
 20
320.751953125
 10
151.19384765625
 20
322.404296875
 10
148.921875
 20
322.404296875
 10
147.88916015625
 20
322.404296875
 10
146.810546875
 20
322.0830078125
 10
146.0302734375
 20
321.578125
 10
146.0302734375
 20
321.578125
 10
145.5712890625
 20
322.9091796875
 10
145.5712890625
 20
322.9091796875
 10
146.4892578125
 20
323.505859375
 10
147.8203125
 20
323.896484375
 10
149.22021484375
 20
323.896484375
 10
152.61669921875
 20
323.896484375
 10
153.44287109375
 20
321.578125
 10
153.44287109375
 20
319.3515625
 10
153.44287109375
 20
319.3515625
 10
153.44287109375
 20
315.1982421875
 10
153.44287109375
 20
315.1982421875
 10
153.44287109375
 20
314.234375
 10
153.48876953125
 20
313.29296875
 10
153.62646484375
 20
312.5361328125
 10
153.62646484375
 20
312.5361328125
 10
151.79052734375
 20
312.5361328125
 10
151.79052734375
 20
312.5361328125
 97
        0
 97
        0
 92
        1
 93
        1
 72
     4
 94
        3
 73
     0
 74
     1
 95
       20
 96
       16
 40
0.0
 40
0.0
 40
0.0
 40
0.0
 40
1.0
 40
1.0
 40
1.0
 40
2.0
 40
2.0
 40
2.0
 40
3.0
 40
3.0
 40
3.0
 40
4.0
 40
4.0
 40
4.0
 40
5.0
 40
5.0
 40
5.0
 40
5.0
 10
151.4921875
 20
318.205078125
 10
149.2890625
 20
318.25
 10
146.78759765625
 20
317.8603515625
 10
146.78759765625
 20
315.703125
 10
146.78759765625
 20
314.39453125
 10
147.65966796875
 20
313.775390625
 10
148.6923828125
 20
313.775390625
 10
150.13818359375
 20
313.775390625
 10
151.05615234375
 20
314.693359375
 10
151.37744140625
 20
315.634765625
 10
151.4462890625
 20
315.8408203125
 10
151.4921875
 20
316.0703125
 10
151.4921875
 20
316.27734375
 10
151.4921875
 20
316.27734375
 10
151.4921875
 20
318.205078125
 10
151.4921875
 20
318.205078125
 97
        0
 97
        0
 75
     2
 76
     1
 98
        0
  0
SPLINE
  5
73
330
68
100
AcDbEntity
  8
Layer 2
370
     0
100
AcDbSpline
210
0.0
220
0.0
230
1.0
 70
    11
 71
     3
 72
    17
 73
    13
 74
     0
 42
0.0000000001
 43
0.0000000001
 12
1.0
 22
0.0
 32
0.0
 13
1.0
 23
0.0
 33
0.0
 40
0.0
 40
0.0
 40
0.0
 40
0.0
 40
1.0
 40
1.0
 40
1.0
 40
2.0
 40
2.0
 40
2.0
 40
3.0
 40
3.0
 40
3.0
 40
4.0
 40
4.0
 40
4.0
 40
4.0
 10
158.94775390625
 20
326.7646484375
 30
0.0
 10
158.970703125
 20
326.076171875
 30
0.0
 10
158.4658203125
 20
325.525390625
 30
0.0
 10
157.66259765625
 20
325.525390625
 30
0.0
 10
156.951171875
 20
325.525390625
 30
0.0
 10
156.4462890625
 20
326.076171875
 30
0.0
 10
156.4462890625
 20
326.7646484375
 30
0.0
 10
156.4462890625
 20
327.4765625
 30
0.0
 10
156.97412109375
 20
328.02734375
 30
0.0
 10
157.70849609375
 20
328.02734375
 30
0.0
 10
158.4658203125
 20
328.02734375
 30
0.0
 10
158.94775390625
 20
327.4765625
 30
0.0
 10
158.94775390625
 20
326.7646484375
 30
0.0
  0
POLYLINE
  5
74
330
68
100
AcDbEntity
  8
Layer 2
370
     0
100
AcDb2dPolyline
 66
     1
 10
0.0
 20
0.0
 30
0.0
  0
VERTEX
  5
75
330
74
100
AcDbEntity
  8
Layer 2
370
     0
100
AcDbVertex
100
AcDb2dVertex
 10
156.69873046875
 20
312.5361328125
 30
0.0
  0
VERTEX
  5
76
330
74
100
AcDbEntity
  8
Layer 2
370
     0
100
AcDbVertex
100
AcDb2dVertex
 10
156.69873046875
 20
323.6435546875
 30
0.0
  0
VERTEX
  5
77
330
74
100
AcDbEntity
  8
Layer 2
370
     0
100
AcDbVertex
100
AcDb2dVertex
 10
158.71826171875
 20
323.6435546875
 30
0.0
  0
VERTEX
  5
78
330
74
100
AcDbEntity
  8
Layer 2
370
     0
100
AcDbVertex
100
AcDb2dVertex
 10
158.71826171875
 20
312.5361328125
 30
0.0
  0
VERTEX
  5
79
330
74
100
AcDbEntity
  8
Layer 2
370
     0
100
AcDbVertex
100
AcDb2dVertex
 10
156.69873046875
 20
312.5361328125
 30
0.0
  0
SEQEND
  5
7A
330
74
100
AcDbEntity
  8
Layer 2
370
     0
  0
HATCH
  5
7B
330
68
100
AcDbEntity
  8
Layer 2
 62
   250
420
  2301728
100
AcDbHatch
 10
0.0
 20
0.0
 30
0.0
210
0.0
220
0.0
230
1.0
  2
SOLID
 70
     1
 71
     0
 91
        2
 92
        1
 93
        1
 72
     4
 94
        3
 73
     0
 74
     1
 95
       17
 96
       13
 40
0.0
 40
0.0
 40
0.0
 40
0.0
 40
1.0
 40
1.0
 40
1.0
 40
2.0
 40
2.0
 40
2.0
 40
3.0
 40
3.0
 40
3.0
 40
4.0
 40
4.0
 40
4.0
 40
4.0
 10
158.94775390625
 20
326.7646484375
 10
158.970703125
 20
326.076171875
 10
158.4658203125
 20
325.525390625
 10
157.66259765625
 20
325.525390625
 10
156.951171875
 20
325.525390625
 10
156.4462890625
 20
326.076171875
 10
156.4462890625
 20
326.7646484375
 10
156.4462890625
 20
327.4765625
 10
156.97412109375
 20
328.02734375
 10
157.70849609375
 20
328.02734375
 10
158.4658203125
 20
328.02734375
 10
158.94775390625
 20
327.4765625
 10
158.94775390625
 20
326.7646484375
 97
        0
 97
        0
 92
        1
 93
        4
 72
     1
 10
156.69873046875
 20
312.5361328125
 11
156.69873046875
 21
323.6435546875
 72
     1
 10
156.69873046875
 20
323.6435546875
 11
158.71826171875
 21
323.6435546875
 72
     1
 10
158.71826171875
 20
323.6435546875
 11
158.71826171875
 21
312.5361328125
 72
     1
 10
158.71826171875
 20
312.5361328125
 11
156.69873046875
 21
312.5361328125
 97
        0
 75
     2
 76
     1
 98
        0
  0
SPLINE
  5
7C
330
68
100
AcDbEntity
  8
Layer 2
370
     0
100
AcDbSpline
210
0.0
220
0.0
230
1.0
 70
    11
 71
     3
 72
    50
 73
    46
 74
     0
 42
0.0000000001
 43
0.0000000001
 12
1.0
 22
0.0
 32
0.0
 13
1.0
 23
0.0
 33
0.0
 40
0.0
 40
0.0
 40
0.0
 40
0.0
 40
1.0
 40
1.0
 40
1.0
 40
2.0
 40
2.0
 40
2.0
 40
3.0
 40
3.0
 40
3.0
 40
4.0
 40
4.0
 40
4.0
 40
5.0
 40
5.0
 40
5.0
 40
6.0
 40
6.0
 40
6.0
 40
7.0
 40
7.0
 40
7.0
 40
8.0
 40
8.0
 40
8.0
 40
9.0
 40
9.0
 40
9.0
 40
10.0
 40
10.0
 40
10.0
 40
11.0
 40
11.0
 40
11.0
 40
12.0
 40
12.0
 40
12.0
 40
13.0
 40
13.0
 40
13.0
 40
14.0
 40
14.0
 40
14.0
 40
15.0
 40
15.0
 40
15.0
 40
15.0
 10
162.06787109375
 20
320.63671875
 30
0.0
 10
162.06787109375
 20
321.78515625
 30
0.0
 10
162.044921875
 20
322.7255859375
 30
0.0
 10
161.97607421875
 20
323.6435546875
 30
0.0
 10
161.97607421875
 20
323.6435546875
 30
0.0
 10
163.76611328125
 20
323.6435546875
 30
0.0
 10
163.76611328125
 20
323.6435546875
 30
0.0
 10
163.76611328125
 20
323.6435546875
 30
0.0
 10
163.880859375
 20
321.8076171875
 30
0.0
 10
163.880859375
 20
321.8076171875
 30
0.0
 10
163.880859375
 20
321.8076171875
 30
0.0
 10
163.9267578125
 20
321.8076171875
 30
0.0
 10
163.9267578125
 20
321.8076171875
 30
0.0
 10
164.4775390625
 20
322.86328125
 30
0.0
 10
165.7626953125
 20
323.896484375
 30
0.0
 10
167.5986328125
 20
323.896484375
 30
0.0
 10
169.13623046875
 20
323.896484375
 30
0.0
 10
171.52294921875
 20
322.978515625
 30
0.0
 10
171.52294921875
 20
319.16796875
 30
0.0
 10
171.52294921875
 20
319.16796875
 30
0.0
 10
171.52294921875
 20
312.5361328125
 30
0.0
 10
171.52294921875
 20
312.5361328125
 30
0.0
 10
171.52294921875
 20
312.5361328125
 30
0.0
 10
169.50341796875
 20
312.5361328125
 30
0.0
 10
169.50341796875
 20
312.5361328125
 30
0.0
 10
169.50341796875
 20
312.5361328125
 30
0.0
 10
169.50341796875
 20
318.939453125
 30
0.0
 10
169.50341796875
 20
318.939453125
 30
0.0
 10
169.50341796875
 20
320.728515625
 30
0.0
 10
168.837890625
 20
322.220703125
 30
0.0
 10
166.93310546875
 20
322.220703125
 30
0.0
 10
165.60205078125
 20
322.220703125
 30
0.0
 10
164.5693359375
 20
321.279296875
 30
0.0
 10
164.22509765625
 20
320.1552734375
 30
0.0
 10
164.13330078125
 20
319.90234375
 30
0.0
 10
164.08740234375
 20
319.55859375
 30
0.0
 10
164.08740234375
 20
319.21484375
 30
0.0
 10
164.08740234375
 20
319.21484375
 30
0.0
 10
164.08740234375
 20
312.5361328125
 30
0.0
 10
164.08740234375
 20
312.5361328125
 30
0.0
 10
164.08740234375
 20
312.5361328125
 30
0.0
 10
162.06787109375
 20
312.5361328125
 30
0.0
 10
162.06787109375
 20
312.5361328125
 30
0.0
 10
162.06787109375
 20
312.5361328125
 30
0.0
 10
162.06787109375
 20
320.63671875
 30
0.0
 10
162.06787109375
 20
320.63671875
 30
0.0
  0
HATCH
  5
7D
330
68
100
AcDbEntity
  8
Layer 2
 62
   250
420
  2301728
100
AcDbHatch
 10
0.0
 20
0.0
 30
0.0
210
0.0
220
0.0
230
1.0
  2
SOLID
 70
     1
 71
     0
 91
        1
 92
        1
 93
        1
 72
     4
 94
        3
 73
     0
 74
     1
 95
       50
 96
       46
 40
0.0
 40
0.0
 40
0.0
 40
0.0
 40
1.0
 40
1.0
 40
1.0
 40
2.0
 40
2.0
 40
2.0
 40
3.0
 40
3.0
 40
3.0
 40
4.0
 40
4.0
 40
4.0
 40
5.0
 40
5.0
 40
5.0
 40
6.0
 40
6.0
 40
6.0
 40
7.0
 40
7.0
 40
7.0
 40
8.0
 40
8.0
 40
8.0
 40
9.0
 40
9.0
 40
9.0
 40
10.0
 40
10.0
 40
10.0
 40
11.0
 40
11.0
 40
11.0
 40
12.0
 40
12.0
 40
12.0
 40
13.0
 40
13.0
 40
13.0
 40
14.0
 40
14.0
 40
14.0
 40
15.0
 40
15.0
 40
15.0
 40
15.0
 10
162.06787109375
 20
320.63671875
 10
162.06787109375
 20
321.78515625
 10
162.044921875
 20
322.7255859375
 10
161.97607421875
 20
323.6435546875
 10
161.97607421875
 20
323.6435546875
 10
163.76611328125
 20
323.6435546875
 10
163.76611328125
 20
323.6435546875
 10
163.76611328125
 20
323.6435546875
 10
163.880859375
 20
321.8076171875
 10
163.880859375
 20
321.8076171875
 10
163.880859375
 20
321.8076171875
 10
163.9267578125
 20
321.8076171875
 10
163.9267578125
 20
321.8076171875
 10
164.4775390625
 20
322.86328125
 10
165.7626953125
 20
323.896484375
 10
167.5986328125
 20
323.896484375
 10
169.13623046875
 20
323.896484375
 10
171.52294921875
 20
322.978515625
 10
171.52294921875
 20
319.16796875
 10
171.52294921875
 20
319.16796875
 10
171.52294921875
 20
312.5361328125
 10
171.52294921875
 20
312.5361328125
 10
171.52294921875
 20
312.5361328125
 10
169.50341796875
 20
312.5361328125
 10
169.50341796875
 20
312.5361328125
 10
169.50341796875
 20
312.5361328125
 10
169.50341796875
 20
318.939453125
 10
169.50341796875
 20
318.939453125
 10
169.50341796875
 20
320.728515625
 10
168.837890625
 20
322.220703125
 10
166.93310546875
 20
322.220703125
 10
165.60205078125
 20
322.220703125
 10
164.5693359375
 20
321.279296875
 10
164.22509765625
 20
320.1552734375
 10
164.13330078125
 20
319.90234375
 10
164.08740234375
 20
319.55859375
 10
164.08740234375
 20
319.21484375
 10
164.08740234375
 20
319.21484375
 10
164.08740234375
 20
312.5361328125
 10
164.08740234375
 20
312.5361328125
 10
164.08740234375
 20
312.5361328125
 10
162.06787109375
 20
312.5361328125
 10
162.06787109375
 20
312.5361328125
 10
162.06787109375
 20
312.5361328125
 10
162.06787109375
 20
320.63671875
 10
162.06787109375
 20
320.63671875
 97
        0
 97
        0
 75
     2
 76
     1
 98
        0
  0
POLYLINE
  5
7E
330
68
100
AcDbEntity
  8
Layer 2
370
     0
100
AcDb2dPolyline
 66
     1
 10
0.0
 20
0.0
 30
0.0
  0
VERTEX
  5
7F
330
7E
100
AcDbEntity
  8
Layer 2
370
     0
100
AcDbVertex
100
AcDb2dVertex
 10
179.66552734375
 20
328.830078125
 30
0.0
  0
VERTEX
  5
80
330
7E
100
AcDbEntity
  8
Layer 2
370
     0
100
AcDbVertex
100
AcDb2dVertex
 10
181.68505859375
 20
328.830078125
 30
0.0
  0
VERTEX
  5
81
330
7E
100
AcDbEntity
  8
Layer 2
370
     0
100
AcDbVertex
100
AcDb2dVertex
 10
181.68505859375
 20
312.5361328125
 30
0.0
  0
VERTEX
  5
82
330
7E
100
AcDbEntity
  8
Layer 2
370
     0
100
AcDbVertex
100
AcDb2dVertex
 10
179.66552734375
 20
312.5361328125
 30
0.0
  0
VERTEX
  5
83
330
7E
100
AcDbEntity
  8
Layer 2
370
     0
100
AcDbVertex
100
AcDb2dVertex
 10
179.66552734375
 20
328.830078125
 30
0.0
  0
SEQEND
  5
84
330
7E
100
AcDbEntity
  8
Layer 2
370
     0
  0
HATCH
  5
85
330
68
100
AcDbEntity
  8
Layer 2
 62
   250
420
  2301728
100
AcDbHatch
 10
0.0
 20
0.0
 30
0.0
210
0.0
220
0.0
230
1.0
  2
SOLID
 70
     1
 71
     0
 91
        1
 92
        1
 93
        4
 72
     1
 10
179.66552734375
 20
328.830078125
 11
181.68505859375
 21
328.830078125
 72
     1
 10
181.68505859375
 20
328.830078125
 11
181.68505859375
 21
312.5361328125
 72
     1
 10
181.68505859375
 20
312.5361328125
 11
179.66552734375
 21
312.5361328125
 72
     1
 10
179.66552734375
 20
312.5361328125
 11
179.66552734375
 21
328.830078125
 97
        0
 75
     2
 76
     1
 98
        0
  0
SPLINE
  5
86
330
68
100
AcDbEntity
  8
Layer 2
370
     0
100
AcDbSpline
210
0.0
220
0.0
230
1.0
 70
    11
 71
     3
 72
    17
 73
    13
 74
     0
 42
0.0000000001
 43
0.0000000001
 12
1.0
 22
0.0
 32
0.0
 13
1.0
 23
0.0
 33
0.0
 40
0.0
 40
0.0
 40
0.0
 40
0.0
 40
1.0
 40
1.0
 40
1.0
 40
2.0
 40
2.0
 40
2.0
 40
3.0
 40
3.0
 40
3.0
 40
4.0
 40
4.0
 40
4.0
 40
4.0
 10
187.3291015625
 20
326.7646484375
 30
0.0
 10
187.35205078125
 20
326.076171875
 30
0.0
 10
186.84716796875
 20
325.525390625
 30
0.0
 10
186.0439453125
 20
325.525390625
 30
0.0
 10
185.33251953125
 20
325.525390625
 30
0.0
 10
184.82763671875
 20
326.076171875
 30
0.0
 10
184.82763671875
 20
326.7646484375
 30
0.0
 10
184.82763671875
 20
327.4765625
 30
0.0
 10
185.35546875
 20
328.02734375
 30
0.0
 10
186.08984375
 20
328.02734375
 30
0.0
 10
186.84716796875
 20
328.02734375
 30
0.0
 10
187.3291015625
 20
327.4765625
 30
0.0
 10
187.3291015625
 20
326.7646484375
 30
0.0
  0
POLYLINE
  5
87
330
68
100
AcDbEntity
  8
Layer 2
370
     0
100
AcDb2dPolyline
 66
     1
 10
0.0
 20
0.0
 30
0.0
  0
VERTEX
  5
88
330
87
100
AcDbEntity
  8
Layer 2
370
     0
100
AcDbVertex
100
AcDb2dVertex
 10
185.080078125
 20
312.5361328125
 30
0.0
  0
VERTEX
  5
89
330
87
100
AcDbEntity
  8
Layer 2
370
     0
100
AcDbVertex
100
AcDb2dVertex
 10
185.080078125
 20
323.6435546875
 30
0.0
  0
VERTEX
  5
8A
330
87
100
AcDbEntity
  8
Layer 2
370
     0
100
AcDbVertex
100
AcDb2dVertex
 10
187.099609375
 20
323.6435546875
 30
0.0
  0
VERTEX
  5
8B
330
87
100
AcDbEntity
  8
Layer 2
370
     0
100
AcDbVertex
100
AcDb2dVertex
 10
187.099609375
 20
312.5361328125
 30
0.0
  0
VERTEX
  5
8C
330
87
100
AcDbEntity
  8
Layer 2
370
     0
100
AcDbVertex
100
AcDb2dVertex
 10
185.080078125
 20
312.5361328125
 30
0.0
  0
SEQEND
  5
8D
330
87
100
AcDbEntity
  8
Layer 2
370
     0
  0
HATCH
  5
8E
330
68
100
AcDbEntity
  8
Layer 2
 62
   250
420
  2301728
100
AcDbHatch
 10
0.0
 20
0.0
 30
0.0
210
0.0
220
0.0
230
1.0
  2
SOLID
 70
     1
 71
     0
 91
        2
 92
        1
 93
        1
 72
     4
 94
        3
 73
     0
 74
     1
 95
       17
 96
       13
 40
0.0
 40
0.0
 40
0.0
 40
0.0
 40
1.0
 40
1.0
 40
1.0
 40
2.0
 40
2.0
 40
2.0
 40
3.0
 40
3.0
 40
3.0
 40
4.0
 40
4.0
 40
4.0
 40
4.0
 10
187.3291015625
 20
326.7646484375
 10
187.35205078125
 20
326.076171875
 10
186.84716796875
 20
325.525390625
 10
186.0439453125
 20
325.525390625
 10
185.33251953125
 20
325.525390625
 10
184.82763671875
 20
326.076171875
 10
184.82763671875
 20
326.7646484375
 10
184.82763671875
 20
327.4765625
 10
185.35546875
 20
328.02734375
 10
186.08984375
 20
328.02734375
 10
186.84716796875
 20
328.02734375
 10
187.3291015625
 20
327.4765625
 10
187.3291015625
 20
326.7646484375
 97
        0
 97
        0
 92
        1
 93
        4
 72
     1
 10
185.080078125
 20
312.5361328125
 11
185.080078125
 21
323.6435546875
 72
     1
 10
185.080078125
 20
323.6435546875
 11
187.099609375
 21
323.6435546875
 72
     1
 10
187.099609375
 20
323.6435546875
 11
187.099609375
 21
312.5361328125
 72
     1
 10
187.099609375
 20
312.5361328125
 11
185.080078125
 21
312.5361328125
 97
        0
 75
     2
 76
     1
 98
        0
  0
SPLINE
  5
8F
330
68
100
AcDbEntity
  8
Layer 2
370
     0
100
AcDbSpline
210
0.0
220
0.0
230
1.0
 70
    11
 71
     3
 72
    50
 73
    46
 74
     0
 42
0.0000000001
 43
0.0000000001
 12
1.0
 22
0.0
 32
0.0
 13
1.0
 23
0.0
 33
0.0
 40
0.0
 40
0.0
 40
0.0
 40
0.0
 40
1.0
 40
1.0
 40
1.0
 40
2.0
 40
2.0
 40
2.0
 40
3.0
 40
3.0
 40
3.0
 40
4.0
 40
4.0
 40
4.0
 40
5.0
 40
5.0
 40
5.0
 40
6.0
 40
6.0
 40
6.0
 40
7.0
 40
7.0
 40
7.0
 40
8.0
 40
8.0
 40
8.0
 40
9.0
 40
9.0
 40
9.0
 40
10.0
 40
10.0
 40
10.0
 40
11.0
 40
11.0
 40
11.0
 40
12.0
 40
12.0
 40
12.0
 40
13.0
 40
13.0
 40
13.0
 40
14.0
 40
14.0
 40
14.0
 40
15.0
 40
15.0
 40
15.0
 40
15.0
 10
190.44873046875
 20
320.63671875
 30
0.0
 10
190.44873046875
 20
321.78515625
 30
0.0
 10
190.42578125
 20
322.7255859375
 30
0.0
 10
190.35693359375
 20
323.6435546875
 30
0.0
 10
190.35693359375
 20
323.6435546875
 30
0.0
 10
192.14697265625
 20
323.6435546875
 30
0.0
 10
192.14697265625
 20
323.6435546875
 30
0.0
 10
192.14697265625
 20
323.6435546875
 30
0.0
 10
192.26171875
 20
321.8076171875
 30
0.0
 10
192.26171875
 20
321.8076171875
 30
0.0
 10
192.26171875
 20
321.8076171875
 30
0.0
 10
192.3076171875
 20
321.8076171875
 30
0.0
 10
192.3076171875
 20
321.8076171875
 30
0.0
 10
192.8583984375
 20
322.86328125
 30
0.0
 10
194.1435546875
 20
323.896484375
 30
0.0
 10
195.9794921875
 20
323.896484375
 30
0.0
 10
197.51708984375
 20
323.896484375
 30
0.0
 10
199.90380859375
 20
322.978515625
 30
0.0
 10
199.90380859375
 20
319.16796875
 30
0.0
 10
199.90380859375
 20
319.16796875
 30
0.0
 10
199.90380859375
 20
312.5361328125
 30
0.0
 10
199.90380859375
 20
312.5361328125
 30
0.0
 10
199.90380859375
 20
312.5361328125
 30
0.0
 10
197.88427734375
 20
312.5361328125
 30
0.0
 10
197.88427734375
 20
312.5361328125
 30
0.0
 10
197.88427734375
 20
312.5361328125
 30
0.0
 10
197.88427734375
 20
318.939453125
 30
0.0
 10
197.88427734375
 20
318.939453125
 30
0.0
 10
197.88427734375
 20
320.728515625
 30
0.0
 10
197.21875
 20
322.220703125
 30
0.0
 10
195.31396484375
 20
322.220703125
 30
0.0
 10
193.98291015625
 20
322.220703125
 30
0.0
 10
192.9501953125
 20
321.279296875
 30
0.0
 10
192.60595703125
 20
320.1552734375
 30
0.0
 10
192.51416015625
 20
319.90234375
 30
0.0
 10
192.46826171875
 20
319.55859375
 30
0.0
 10
192.46826171875
 20
319.21484375
 30
0.0
 10
192.46826171875
 20
319.21484375
 30
0.0
 10
192.46826171875
 20
312.5361328125
 30
0.0
 10
192.46826171875
 20
312.5361328125
 30
0.0
 10
192.46826171875
 20
312.5361328125
 30
0.0
 10
190.44873046875
 20
312.5361328125
 30
0.0
 10
190.44873046875
 20
312.5361328125
 30
0.0
 10
190.44873046875
 20
312.5361328125
 30
0.0
 10
190.44873046875
 20
320.63671875
 30
0.0
 10
190.44873046875
 20
320.63671875
 30
0.0
  0
HATCH
  5
90
330
68
100
AcDbEntity
  8
Layer 2
 62
   250
420
  2301728
100
AcDbHatch
 10
0.0
 20
0.0
 30
0.0
210
0.0
220
0.0
230
1.0
  2
SOLID
 70
     1
 71
     0
 91
        1
 92
        1
 93
        1
 72
     4
 94
        3
 73
     0
 74
     1
 95
       50
 96
       46
 40
0.0
 40
0.0
 40
0.0
 40
0.0
 40
1.0
 40
1.0
 40
1.0
 40
2.0
 40
2.0
 40
2.0
 40
3.0
 40
3.0
 40
3.0
 40
4.0
 40
4.0
 40
4.0
 40
5.0
 40
5.0
 40
5.0
 40
6.0
 40
6.0
 40
6.0
 40
7.0
 40
7.0
 40
7.0
 40
8.0
 40
8.0
 40
8.0
 40
9.0
 40
9.0
 40
9.0
 40
10.0
 40
10.0
 40
10.0
 40
11.0
 40
11.0
 40
11.0
 40
12.0
 40
12.0
 40
12.0
 40
13.0
 40
13.0
 40
13.0
 40
14.0
 40
14.0
 40
14.0
 40
15.0
 40
15.0
 40
15.0
 40
15.0
 10
190.44873046875
 20
320.63671875
 10
190.44873046875
 20
321.78515625
 10
190.42578125
 20
322.7255859375
 10
190.35693359375
 20
323.6435546875
 10
190.35693359375
 20
323.6435546875
 10
192.14697265625
 20
323.6435546875
 10
192.14697265625
 20
323.6435546875
 10
192.14697265625
 20
323.6435546875
 10
192.26171875
 20
321.8076171875
 10
192.26171875
 20
321.8076171875
 10
192.26171875
 20
321.8076171875
 10
192.3076171875
 20
321.8076171875
 10
192.3076171875
 20
321.8076171875
 10
192.8583984375
 20
322.86328125
 10
194.1435546875
 20
323.896484375
 10
195.9794921875
 20
323.896484375
 10
197.51708984375
 20
323.896484375
 10
199.90380859375
 20
322.978515625
 10
199.90380859375
 20
319.16796875
 10
199.90380859375
 20
319.16796875
 10
199.90380859375
 20
312.5361328125
 10
199.90380859375
 20
312.5361328125
 10
199.90380859375
 20
312.5361328125
 10
197.88427734375
 20
312.5361328125
 10
197.88427734375
 20
312.5361328125
 10
197.88427734375
 20
312.5361328125
 10
197.88427734375
 20
318.939453125
 10
197.88427734375
 20
318.939453125
 10
197.88427734375
 20
320.728515625
 10
197.21875
 20
322.220703125
 10
195.31396484375
 20
322.220703125
 10
193.98291015625
 20
322.220703125
 10
192.9501953125
 20
321.279296875
 10
192.60595703125
 20
320.1552734375
 10
192.51416015625
 20
319.90234375
 10
192.46826171875
 20
319.55859375
 10
192.46826171875
 20
319.21484375
 10
192.46826171875
 20
319.21484375
 10
192.46826171875
 20
312.5361328125
 10
192.46826171875
 20
312.5361328125
 10
192.46826171875
 20
312.5361328125
 10
190.44873046875
 20
312.5361328125
 10
190.44873046875
 20
312.5361328125
 10
190.44873046875
 20
312.5361328125
 10
190.44873046875
 20
320.63671875
 10
190.44873046875
 20
320.63671875
 97
        0
 97
        0
 75
     2
 76
     1
 98
        0
  0
SPLINE
  5
91
330
68
100
AcDbEntity
  8
Layer 2
370
     0
100
AcDbSpline
210
0.0
220
0.0
230
1.0
 70
    11
 71
     3
 72
    32
 73
    28
 74
     0
 42
0.0000000001
 43
0.0000000001
 12
1.0
 22
0.0
 32
0.0
 13
1.0
 23
0.0
 33
0.0
 40
0.0
 40
0.0
 40
0.0
 40
0.0
 40
1.0
 40
1.0
 40
1.0
 40
2.0
 40
2.0
 40
2.0
 40
3.0
 40
3.0
 40
3.0
 40
4.0
 40
4.0
 40
4.0
 40
5.0
 40
5.0
 40
5.0
 40
6.0
 40
6.0
 40
6.0
 40
7.0
 40
7.0
 40
7.0
 40
8.0
 40
8.0
 40
8.0
 40
9.0
 40
9.0
 40
9.0
 40
9.0
 10
204.30712890625
 20
317.72265625
 30
0.0
 10
204.35302734375
 20
314.9921875
 30
0.0
 10
206.09716796875
 20
313.8671875
 30
0.0
 10
208.11669921875
 20
313.8671875
 30
0.0
 10
209.5625
 20
313.8671875
 30
0.0
 10
210.4345703125
 20
314.119140625
 30
0.0
 10
211.19189453125
 20
314.44140625
 30
0.0
 10
211.19189453125
 20
314.44140625
 30
0.0
 10
211.5361328125
 20
312.9951171875
 30
0.0
 10
211.5361328125
 20
312.9951171875
 30
0.0
 10
210.82470703125
 20
312.673828125
 30
0.0
 10
209.6083984375
 20
312.306640625
 30
0.0
 10
207.84130859375
 20
312.306640625
 30
0.0
 10
204.421875
 20
312.306640625
 30
0.0
 10
202.37939453125
 20
314.5556640625
 30
0.0
 10
202.37939453125
 20
317.90625
 30
0.0
 10
202.37939453125
 20
321.2568359375
 30
0.0
 10
204.35302734375
 20
323.896484375
 30
0.0
 10
207.5888671875
 20
323.896484375
 30
0.0
 10
211.21484375
 20
323.896484375
 30
0.0
 10
212.1787109375
 20
320.7060546875
 30
0.0
 10
212.1787109375
 20
318.6640625
 30
0.0
 10
212.1787109375
 20
318.25
 30
0.0
 10
212.1328125
 20
317.9296875
 30
0.0
 10
212.10986328125
 20
317.72265625
 30
0.0
 10
212.10986328125
 20
317.72265625
 30
0.0
 10
204.30712890625
 20
317.72265625
 30
0.0
 10
204.30712890625
 20
317.72265625
 30
0.0
  0
SPLINE
  5
92
330
68
100
AcDbEntity
  8
Layer 2
370
     0
100
AcDbSpline
210
0.0
220
0.0
230
1.0
 70
    11
 71
     3
 72
    14
 73
    10
 74
     0
 42
0.0000000001
 43
0.0000000001
 12
1.0
 22
0.0
 32
0.0
 13
1.0
 23
0.0
 33
0.0
 40
0.0
 40
0.0
 40
0.0
 40
0.0
 40
1.0
 40
1.0
 40
1.0
 40
2.0
 40
2.0
 40
2.0
 40
3.0
 40
3.0
 40
3.0
 40
3.0
 10
210.22802734375
 20
319.16796875
 30
0.0
 10
210.2509765625
 20
320.453125
 30
0.0
 10
209.7001953125
 20
322.4501953125
 30
0.0
 10
207.42822265625
 20
322.4501953125
 30
0.0
 10
205.3857421875
 20
322.4501953125
 30
0.0
 10
204.49072265625
 20
320.568359375
 30
0.0
 10
204.330078125
 20
319.16796875
 30
0.0
 10
204.330078125
 20
319.16796875
 30
0.0
 10
210.22802734375
 20
319.16796875
 30
0.0
 10
210.22802734375
 20
319.16796875
 30
0.0
  0
HATCH
  5
93
330
68
100
AcDbEntity
  8
Layer 2
 62
   250
420
  2301728
100
AcDbHatch
 10
0.0
 20
0.0
 30
0.0
210
0.0
220
0.0
230
1.0
  2
SOLID
 70
     1
 71
     0
 91
        2
 92
        1
 93
        1
 72
     4
 94
        3
 73
     0
 74
     1
 95
       32
 96
       28
 40
0.0
 40
0.0
 40
0.0
 40
0.0
 40
1.0
 40
1.0
 40
1.0
 40
2.0
 40
2.0
 40
2.0
 40
3.0
 40
3.0
 40
3.0
 40
4.0
 40
4.0
 40
4.0
 40
5.0
 40
5.0
 40
5.0
 40
6.0
 40
6.0
 40
6.0
 40
7.0
 40
7.0
 40
7.0
 40
8.0
 40
8.0
 40
8.0
 40
9.0
 40
9.0
 40
9.0
 40
9.0
 10
204.30712890625
 20
317.72265625
 10
204.35302734375
 20
314.9921875
 10
206.09716796875
 20
313.8671875
 10
208.11669921875
 20
313.8671875
 10
209.5625
 20
313.8671875
 10
210.4345703125
 20
314.119140625
 10
211.19189453125
 20
314.44140625
 10
211.19189453125
 20
314.44140625
 10
211.5361328125
 20
312.9951171875
 10
211.5361328125
 20
312.9951171875
 10
210.82470703125
 20
312.673828125
 10
209.6083984375
 20
312.306640625
 10
207.84130859375
 20
312.306640625
 10
204.421875
 20
312.306640625
 10
202.37939453125
 20
314.5556640625
 10
202.37939453125
 20
317.90625
 10
202.37939453125
 20
321.2568359375
 10
204.35302734375
 20
323.896484375
 10
207.5888671875
 20
323.896484375
 10
211.21484375
 20
323.896484375
 10
212.1787109375
 20
320.7060546875
 10
212.1787109375
 20
318.6640625
 10
212.1787109375
 20
318.25
 10
212.1328125
 20
317.9296875
 10
212.10986328125
 20
317.72265625
 10
212.10986328125
 20
317.72265625
 10
204.30712890625
 20
317.72265625
 10
204.30712890625
 20
317.72265625
 97
        0
 97
        0
 92
        1
 93
        1
 72
     4
 94
        3
 73
     0
 74
     1
 95
       14
 96
       10
 40
0.0
 40
0.0
 40
0.0
 40
0.0
 40
1.0
 40
1.0
 40
1.0
 40
2.0
 40
2.0
 40
2.0
 40
3.0
 40
3.0
 40
3.0
 40
3.0
 10
210.22802734375
 20
319.16796875
 10
210.2509765625
 20
320.453125
 10
209.7001953125
 20
322.4501953125
 10
207.42822265625
 20
322.4501953125
 10
205.3857421875
 20
322.4501953125
 10
204.49072265625
 20
320.568359375
 10
204.330078125
 20
319.16796875
 10
204.330078125
 20
319.16796875
 10
210.22802734375
 20
319.16796875
 10
210.22802734375
 20
319.16796875
 97
        0
 97
        0
 75
     2
 76
     1
 98
        0
  0
ENDBLK
  5
6B
330
68
100
AcDbEntity
  8
0
100
AcDbBlockEnd
  0
BLOCK
  5
96
330
94
100
AcDbEntity
  8
0
100
AcDbBlockBegin
  2
block 3
 70
     0
 10
0.0
 20
0.0
 30
0.0
  3
block 3
  1

  0
POLYLINE
  5
98
330
94
100
AcDbEntity
  8
Layer 2
370
     0
100
AcDb2dPolyline
 66
     1
 10
0.0
 20
0.0
 30
0.0
  0
VERTEX
  5
99
330
98
100
AcDbEntity
  8
Layer 2
370
     0
100
AcDbVertex
100
AcDb2dVertex
 10
167.2373046875
 20
433.279296875
 30
0.0
  0
VERTEX
  5
9A
330
98
100
AcDbEntity
  8
Layer 2
370
     0
100
AcDbVertex
100
AcDb2dVertex
 10
190.4287109375
 20
433.279296875
 30
0.0
  0
VERTEX
  5
9B
330
98
100
AcDbEntity
  8
Layer 2
370
     0
100
AcDbVertex
100
AcDb2dVertex
 10
190.4287109375
 20
430.2861328125
 30
0.0
  0
VERTEX
  5
9C
330
98
100
AcDbEntity
  8
Layer 2
370
     0
100
AcDbVertex
100
AcDb2dVertex
 10
167.2373046875
 20
430.2861328125
 30
0.0
  0
VERTEX
  5
9D
330
98
100
AcDbEntity
  8
Layer 2
370
     0
100
AcDbVertex
100
AcDb2dVertex
 10
167.2373046875
 20
433.279296875
 30
0.0
  0
SEQEND
  5
9E
330
98
100
AcDbEntity
  8
Layer 2
370
     0
  0
HATCH
  5
9F
330
94
100
AcDbEntity
  8
Layer 2
 62
   250
420
  2301728
100
AcDbHatch
 10
0.0
 20
0.0
 30
0.0
210
0.0
220
0.0
230
1.0
  2
SOLID
 70
     1
 71
     0
 91
        1
 92
        1
 93
        4
 72
     1
 10
167.2373046875
 20
433.279296875
 11
190.4287109375
 21
433.279296875
 72
     1
 10
190.4287109375
 20
433.279296875
 11
190.4287109375
 21
430.2861328125
 72
     1
 10
190.4287109375
 20
430.2861328125
 11
167.2373046875
 21
430.2861328125
 72
     1
 10
167.2373046875
 20
430.2861328125
 11
167.2373046875
 21
433.279296875
 97
        0
 75
     2
 76
     1
 98
        0
  0
POLYLINE
  5
A0
330
94
100
AcDbEntity
  8
Layer 2
370
     0
100
AcDb2dPolyline
 66
     1
 10
0.0
 20
0.0
 30
0.0
  0
VERTEX
  5
A1
330
A0
100
AcDbEntity
  8
Layer 2
370
     0
100
AcDbVertex
100
AcDb2dVertex
 10
165.99853515625
 20
438.751953125
 30
0.0
  0
VERTEX
  5
A2
330
A0
100
AcDbEntity
  8
Layer 2
370
     0
100
AcDbVertex
100
AcDb2dVertex
 10
165.99853515625
 20
441.77978515625
 30
0.0
  0
VERTEX
  5
A3
330
A0
100
AcDbEntity
  8
Layer 2
370
     0
100
AcDbVertex
100
AcDb2dVertex
 10
190.4287109375
 20
441.77978515625
 30
0.0
  0
VERTEX
  5
A4
330
A0
100
AcDbEntity
  8
Layer 2
370
     0
100
AcDbVertex
100
AcDb2dVertex
 10
190.4287109375
 20
438.751953125
 30
0.0
  0
VERTEX
  5
A5
330
A0
100
AcDbEntity
  8
Layer 2
370
     0
100
AcDbVertex
100
AcDb2dVertex
 10
165.99853515625
 20
438.751953125
 30
0.0
  0
SEQEND
  5
A6
330
A0
100
AcDbEntity
  8
Layer 2
370
     0
  0
HATCH
  5
A7
330
94
100
AcDbEntity
  8
Layer 2
 62
   250
420
  2301728
100
AcDbHatch
 10
0.0
 20
0.0
 30
0.0
210
0.0
220
0.0
230
1.0
  2
SOLID
 70
     1
 71
     0
 91
        1
 92
        1
 93
        4
 72
     1
 10
165.99853515625
 20
438.751953125
 11
165.99853515625
 21
441.77978515625
 72
     1
 10
165.99853515625
 20
441.77978515625
 11
190.4287109375
 21
441.77978515625
 72
     1
 10
190.4287109375
 20
441.77978515625
 11
190.4287109375
 21
438.751953125
 72
     1
 10
190.4287109375
 20
438.751953125
 11
165.99853515625
 21
438.751953125
 97
        0
 75
     2
 76
     1
 98
        0
  0
POLYLINE
  5
A8
330
94
100
AcDbEntity
  8
Layer 2
370
     0
100
AcDb2dPolyline
 66
     1
 10
0.0
 20
0.0
 30
0.0
  0
VERTEX
  5
A9
330
A8
100
AcDbEntity
  8
Layer 2
370
     0
100
AcDbVertex
100
AcDb2dVertex
 10
165.99853515625
 20
446.8740234375
 30
0.0
  0
VERTEX
  5
AA
330
A8
100
AcDbEntity
  8
Layer 2
370
     0
100
AcDbVertex
100
AcDb2dVertex
 10
165.99853515625
 20
449.90185546875
 30
0.0
  0
VERTEX
  5
AB
330
A8
100
AcDbEntity
  8
Layer 2
370
     0
100
AcDbVertex
100
AcDb2dVertex
 10
190.4287109375
 20
449.90185546875
 30
0.0
  0
VERTEX
  5
AC
330
A8
100
AcDbEntity
  8
Layer 2
370
     0
100
AcDbVertex
100
AcDb2dVertex
 10
190.4287109375
 20
446.8740234375
 30
0.0
  0
VERTEX
  5
AD
330
A8
100
AcDbEntity
  8
Layer 2
370
     0
100
AcDbVertex
100
AcDb2dVertex
 10
165.99853515625
 20
446.8740234375
 30
0.0
  0
SEQEND
  5
AE
330
A8
100
AcDbEntity
  8
Layer 2
370
     0
  0
HATCH
  5
AF
330
94
100
AcDbEntity
  8
Layer 2
 62
   250
420
  2301728
100
AcDbHatch
 10
0.0
 20
0.0
 30
0.0
210
0.0
220
0.0
230
1.0
  2
SOLID
 70
     1
 71
     0
 91
        1
 92
        1
 93
        4
 72
     1
 10
165.99853515625
 20
446.8740234375
 11
165.99853515625
 21
449.90185546875
 72
     1
 10
165.99853515625
 20
449.90185546875
 11
190.4287109375
 21
449.90185546875
 72
     1
 10
190.4287109375
 20
449.90185546875
 11
190.4287109375
 21
446.8740234375
 72
     1
 10
190.4287109375
 20
446.8740234375
 11
165.99853515625
 21
446.8740234375
 97
        0
 75
     2
 76
     1
 98
        0
  0
SPLINE
  5
B0
330
94
100
AcDbEntity
  8
Layer 2
370
     0
100
AcDbSpline
210
0.0
220
0.0
230
1.0
 70
    11
 71
     3
 72
    17
 73
    13
 74
     0
 42
0.0000000001
 43
0.0000000001
 12
1.0
 22
0.0
 32
0.0
 13
1.0
 23
0.0
 33
0.0
 40
0.0
 40
0.0
 40
0.0
 40
0.0
 40
1.0
 40
1.0
 40
1.0
 40
2.0
 40
2.0
 40
2.0
 40
3.0
 40
3.0
 40
3.0
 40
4.0
 40
4.0
 40
4.0
 40
4.0
 10
169.09521484375
 20
458.36767578125
 30
0.0
 10
170.12744140625
 20
458.40234375
 30
0.0
 10
170.95361328125
 20
457.64501953125
 30
0.0
 10
170.95361328125
 20
456.44091796875
 30
0.0
 10
170.95361328125
 20
455.3740234375
 30
0.0
 10
170.12744140625
 20
454.6171875
 30
0.0
 10
169.09521484375
 20
454.6171875
 30
0.0
 10
168.02880859375
 20
454.6171875
 30
0.0
 10
167.203125
 20
455.40869140625
 30
0.0
 10
167.203125
 20
456.509765625
 30
0.0
 10
167.203125
 20
457.64501953125
 30
0.0
 10
168.02880859375
 20
458.36767578125
 30
0.0
 10
169.09521484375
 20
458.36767578125
 30
0.0
  0
POLYLINE
  5
B1
330
94
100
AcDbEntity
  8
Layer 2
370
     0
100
AcDb2dPolyline
 66
     1
 10
0.0
 20
0.0
 30
0.0
  0
VERTEX
  5
B2
330
B1
100
AcDbEntity
  8
Layer 2
370
     0
100
AcDbVertex
100
AcDb2dVertex
 10
190.4287109375
 20
454.99560546875
 30
0.0
  0
VERTEX
  5
B3
330
B1
100
AcDbEntity
  8
Layer 2
370
     0
100
AcDbVertex
100
AcDb2dVertex
 10
173.77490234375
 20
454.99560546875
 30
0.0
  0
VERTEX
  5
B4
330
B1
100
AcDbEntity
  8
Layer 2
370
     0
100
AcDbVertex
100
AcDb2dVertex
 10
173.77490234375
 20
458.0234375
 30
0.0
  0
VERTEX
  5
B5
330
B1
100
AcDbEntity
  8
Layer 2
370
     0
100
AcDbVertex
100
AcDb2dVertex
 10
190.4287109375
 20
458.0234375
 30
0.0
  0
VERTEX
  5
B6
330
B1
100
AcDbEntity
  8
Layer 2
370
     0
100
AcDbVertex
100
AcDb2dVertex
 10
190.4287109375
 20
454.99560546875
 30
0.0
  0
SEQEND
  5
B7
330
B1
100
AcDbEntity
  8
Layer 2
370
     0
  0
HATCH
  5
B8
330
94
100
AcDbEntity
  8
Layer 2
 62
   250
420
  2301728
100
AcDbHatch
 10
0.0
 20
0.0
 30
0.0
210
0.0
220
0.0
230
1.0
  2
SOLID
 70
     1
 71
     0
 91
        2
 92
        1
 93
        1
 72
     4
 94
        3
 73
     0
 74
     1
 95
       17
 96
       13
 40
0.0
 40
0.0
 40
0.0
 40
0.0
 40
1.0
 40
1.0
 40
1.0
 40
2.0
 40
2.0
 40
2.0
 40
3.0
 40
3.0
 40
3.0
 40
4.0
 40
4.0
 40
4.0
 40
4.0
 10
169.09521484375
 20
458.36767578125
 10
170.12744140625
 20
458.40234375
 10
170.95361328125
 20
457.64501953125
 10
170.95361328125
 20
456.44091796875
 10
170.95361328125
 20
455.3740234375
 10
170.12744140625
 20
454.6171875
 10
169.09521484375
 20
454.6171875
 10
168.02880859375
 20
454.6171875
 10
167.203125
 20
455.40869140625
 10
167.203125
 20
456.509765625
 10
167.203125
 20
457.64501953125
 10
168.02880859375
 20
458.36767578125
 10
169.09521484375
 20
458.36767578125
 97
        0
 97
        0
 92
        1
 93
        4
 72
     1
 10
190.4287109375
 20
454.99560546875
 11
173.77490234375
 21
454.99560546875
 72
     1
 10
173.77490234375
 20
454.99560546875
 11
173.77490234375
 21
458.0234375
 72
     1
 10
173.77490234375
 20
458.0234375
 11
190.4287109375
 21
458.0234375
 72
     1
 10
190.4287109375
 20
458.0234375
 11
190.4287109375
 21
454.99560546875
 97
        0
 75
     2
 76
     1
 98
        0
  0
SPLINE
  5
B9
330
94
100
AcDbEntity
  8
Layer 2
370
     0
100
AcDbSpline
210
0.0
220
0.0
230
1.0
 70
    11
 71
     3
 72
    50
 73
    46
 74
     0
 42
0.0000000001
 43
0.0000000001
 12
1.0
 22
0.0
 32
0.0
 13
1.0
 23
0.0
 33
0.0
 40
0.0
 40
0.0
 40
0.0
 40
0.0
 40
1.0
 40
1.0
 40
1.0
 40
2.0
 40
2.0
 40
2.0
 40
3.0
 40
3.0
 40
3.0
 40
4.0
 40
4.0
 40
4.0
 40
5.0
 40
5.0
 40
5.0
 40
6.0
 40
6.0
 40
6.0
 40
7.0
 40
7.0
 40
7.0
 40
8.0
 40
8.0
 40
8.0
 40
9.0
 40
9.0
 40
9.0
 40
10.0
 40
10.0
 40
10.0
 40
11.0
 40
11.0
 40
11.0
 40
12.0
 40
12.0
 40
12.0
 40
13.0
 40
13.0
 40
13.0
 40
14.0
 40
14.0
 40
14.0
 40
15.0
 40
15.0
 40
15.0
 40
15.0
 10
178.28271484375
 20
463.048828125
 30
0.0
 10
176.56201171875
 20
463.048828125
 30
0.0
 10
175.1513671875
 20
463.0146484375
 30
0.0
 10
173.77490234375
 20
462.9111328125
 30
0.0
 10
173.77490234375
 20
462.9111328125
 30
0.0
 10
173.77490234375
 20
465.59521484375
 30
0.0
 10
173.77490234375
 20
465.59521484375
 30
0.0
 10
173.77490234375
 20
465.59521484375
 30
0.0
 10
176.52783203125
 20
465.76708984375
 30
0.0
 10
176.52783203125
 20
465.76708984375
 30
0.0
 10
176.52783203125
 20
465.76708984375
 30
0.0
 10
176.52783203125
 20
465.8359375
 30
0.0
 10
176.52783203125
 20
465.8359375
 30
0.0
 10
174.94482421875
 20
466.66162109375
 30
0.0
 10
173.396484375
 20
468.5888671875
 30
0.0
 10
173.396484375
 20
471.34130859375
 30
0.0
 10
173.396484375
 20
473.64697265625
 30
0.0
 10
174.77294921875
 20
477.22509765625
 30
0.0
 10
180.48486328125
 20
477.22509765625
 30
0.0
 10
180.48486328125
 20
477.22509765625
 30
0.0
 10
190.4287109375
 20
477.22509765625
 30
0.0
 10
190.4287109375
 20
477.22509765625
 30
0.0
 10
190.4287109375
 20
477.22509765625
 30
0.0
 10
190.4287109375
 20
474.197265625
 30
0.0
 10
190.4287109375
 20
474.197265625
 30
0.0
 10
190.4287109375
 20
474.197265625
 30
0.0
 10
180.82861328125
 20
474.197265625
 30
0.0
 10
180.82861328125
 20
474.197265625
 30
0.0
 10
178.14501953125
 20
474.197265625
 30
0.0
 10
175.908203125
 20
473.19921875
 30
0.0
 10
175.908203125
 20
470.34375
 30
0.0
 10
175.908203125
 20
468.34765625
 30
0.0
 10
177.31884765625
 20
466.79931640625
 30
0.0
 10
179.0048828125
 20
466.283203125
 30
0.0
 10
179.3837890625
 20
466.1455078125
 30
0.0
 10
179.89990234375
 20
466.07666015625
 30
0.0
 10
180.416015625
 20
466.07666015625
 30
0.0
 10
180.416015625
 20
466.07666015625
 30
0.0
 10
190.4287109375
 20
466.07666015625
 30
0.0
 10
190.4287109375
 20
466.07666015625
 30
0.0
 10
190.4287109375
 20
466.07666015625
 30
0.0
 10
190.4287109375
 20
463.048828125
 30
0.0
 10
190.4287109375
 20
463.048828125
 30
0.0
 10
190.4287109375
 20
463.048828125
 30
0.0
 10
178.28271484375
 20
463.048828125
 30
0.0
 10
178.28271484375
 20
463.048828125
 30
0.0
  0
HATCH
  5
BA
330
94
100
AcDbEntity
  8
Layer 2
 62
   250
420
  2301728
100
AcDbHatch
 10
0.0
 20
0.0
 30
0.0
210
0.0
220
0.0
230
1.0
  2
SOLID
 70
     1
 71
     0
 91
        1
 92
        1
 93
        1
 72
     4
 94
        3
 73
     0
 74
     1
 95
       50
 96
       46
 40
0.0
 40
0.0
 40
0.0
 40
0.0
 40
1.0
 40
1.0
 40
1.0
 40
2.0
 40
2.0
 40
2.0
 40
3.0
 40
3.0
 40
3.0
 40
4.0
 40
4.0
 40
4.0
 40
5.0
 40
5.0
 40
5.0
 40
6.0
 40
6.0
 40
6.0
 40
7.0
 40
7.0
 40
7.0
 40
8.0
 40
8.0
 40
8.0
 40
9.0
 40
9.0
 40
9.0
 40
10.0
 40
10.0
 40
10.0
 40
11.0
 40
11.0
 40
11.0
 40
12.0
 40
12.0
 40
12.0
 40
13.0
 40
13.0
 40
13.0
 40
14.0
 40
14.0
 40
14.0
 40
15.0
 40
15.0
 40
15.0
 40
15.0
 10
178.28271484375
 20
463.048828125
 10
176.56201171875
 20
463.048828125
 10
175.1513671875
 20
463.0146484375
 10
173.77490234375
 20
462.9111328125
 10
173.77490234375
 20
462.9111328125
 10
173.77490234375
 20
465.59521484375
 10
173.77490234375
 20
465.59521484375
 10
173.77490234375
 20
465.59521484375
 10
176.52783203125
 20
465.76708984375
 10
176.52783203125
 20
465.76708984375
 10
176.52783203125
 20
465.76708984375
 10
176.52783203125
 20
465.8359375
 10
176.52783203125
 20
465.8359375
 10
174.94482421875
 20
466.66162109375
 10
173.396484375
 20
468.5888671875
 10
173.396484375
 20
471.34130859375
 10
173.396484375
 20
473.64697265625
 10
174.77294921875
 20
477.22509765625
 10
180.48486328125
 20
477.22509765625
 10
180.48486328125
 20
477.22509765625
 10
190.4287109375
 20
477.22509765625
 10
190.4287109375
 20
477.22509765625
 10
190.4287109375
 20
477.22509765625
 10
190.4287109375
 20
474.197265625
 10
190.4287109375
 20
474.197265625
 10
190.4287109375
 20
474.197265625
 10
180.82861328125
 20
474.197265625
 10
180.82861328125
 20
474.197265625
 10
178.14501953125
 20
474.197265625
 10
175.908203125
 20
473.19921875
 10
175.908203125
 20
470.34375
 10
175.908203125
 20
468.34765625
 10
177.31884765625
 20
466.79931640625
 10
179.0048828125
 20
466.283203125
 10
179.3837890625
 20
466.1455078125
 10
179.89990234375
 20
466.07666015625
 10
180.416015625
 20
466.07666015625
 10
180.416015625
 20
466.07666015625
 10
190.4287109375
 20
466.07666015625
 10
190.4287109375
 20
466.07666015625
 10
190.4287109375
 20
466.07666015625
 10
190.4287109375
 20
463.048828125
 10
190.4287109375
 20
463.048828125
 10
190.4287109375
 20
463.048828125
 10
178.28271484375
 20
463.048828125
 10
178.28271484375
 20
463.048828125
 97
        0
 97
        0
 75
     2
 76
     1
 98
        0
  0
SPLINE
  5
BB
330
94
100
AcDbEntity
  8
Layer 2
370
     0
100
AcDbSpline
210
0.0
220
0.0
230
1.0
 70
    11
 71
     3
 72
    17
 73
    13
 74
     0
 42
0.0000000001
 43
0.0000000001
 12
1.0
 22
0.0
 32
0.0
 13
1.0
 23
0.0
 33
0.0
 40
0.0
 40
0.0
 40
0.0
 40
0.0
 40
1.0
 40
1.0
 40
1.0
 40
2.0
 40
2.0
 40
2.0
 40
3.0
 40
3.0
 40
3.0
 40
4.0
 40
4.0
 40
4.0
 40
4.0
 10
181.96435546875
 20
497.220703125
 30
0.0
 10
188.12353515625
 20
497.220703125
 30
0.0
 10
190.80712890625
 20
492.95361328125
 30
0.0
 10
190.80712890625
 20
488.92822265625
 30
0.0
 10
190.80712890625
 20
484.42041015625
 30
0.0
 10
187.50390625
 20
480.9453125
 30
0.0
 10
182.2392578125
 20
480.9453125
 30
0.0
 10
176.6650390625
 20
480.9453125
 30
0.0
 10
173.396484375
 20
484.5927734375
 30
0.0
 10
173.396484375
 20
489.203125
 30
0.0
 10
173.396484375
 20
493.98583984375
 30
0.0
 10
176.87158203125
 20
497.220703125
 30
0.0
 10
181.96435546875
 20
497.220703125
 30
0.0
  0
SPLINE
  5
BC
330
94
100
AcDbEntity
  8
Layer 2
370
     0
100
AcDbSpline
210
0.0
220
0.0
230
1.0
 70
    11
 71
     3
 72
    17
 73
    13
 74
     0
 42
0.0000000001
 43
0.0000000001
 12
1.0
 22
0.0
 32
0.0
 13
1.0
 23
0.0
 33
0.0
 40
0.0
 40
0.0
 40
0.0
 40
0.0
 40
1.0
 40
1.0
 40
1.0
 40
2.0
 40
2.0
 40
2.0
 40
3.0
 40
3.0
 40
3.0
 40
4.0
 40
4.0
 40
4.0
 40
4.0
 10
182.13623046875
 20
484.0078125
 30
0.0
 10
185.78369140625
 20
484.0078125
 30
0.0
 10
188.5361328125
 20
486.1064453125
 30
0.0
 10
188.5361328125
 20
489.0654296875
 30
0.0
 10
188.5361328125
 20
491.9560546875
 30
0.0
 10
185.81787109375
 20
494.12353515625
 30
0.0
 10
182.0673828125
 20
494.12353515625
 30
0.0
 10
179.24609375
 20
494.12353515625
 30
0.0
 10
175.66748046875
 20
492.712890625
 30
0.0
 10
175.66748046875
 20
489.13427734375
 30
0.0
 10
175.66748046875
 20
485.55615234375
 30
0.0
 10
178.970703125
 20
484.0078125
 30
0.0
 10
182.13623046875
 20
484.0078125
 30
0.0
  0
HATCH
  5
BD
330
94
100
AcDbEntity
  8
Layer 2
 62
   250
420
  2301728
100
AcDbHatch
 10
0.0
 20
0.0
 30
0.0
210
0.0
220
0.0
230
1.0
  2
SOLID
 70
     1
 71
     0
 91
        2
 92
        1
 93
        1
 72
     4
 94
        3
 73
     0
 74
     1
 95
       17
 96
       13
 40
0.0
 40
0.0
 40
0.0
 40
0.0
 40
1.0
 40
1.0
 40
1.0
 40
2.0
 40
2.0
 40
2.0
 40
3.0
 40
3.0
 40
3.0
 40
4.0
 40
4.0
 40
4.0
 40
4.0
 10
181.96435546875
 20
497.220703125
 10
188.12353515625
 20
497.220703125
 10
190.80712890625
 20
492.95361328125
 10
190.80712890625
 20
488.92822265625
 10
190.80712890625
 20
484.42041015625
 10
187.50390625
 20
480.9453125
 10
182.2392578125
 20
480.9453125
 10
176.6650390625
 20
480.9453125
 10
173.396484375
 20
484.5927734375
 10
173.396484375
 20
489.203125
 10
173.396484375
 20
493.98583984375
 10
176.87158203125
 20
497.220703125
 10
181.96435546875
 20
497.220703125
 97
        0
 97
        0
 92
        1
 93
        1
 72
     4
 94
        3
 73
     0
 74
     1
 95
       17
 96
       13
 40
0.0
 40
0.0
 40
0.0
 40
0.0
 40
1.0
 40
1.0
 40
1.0
 40
2.0
 40
2.0
 40
2.0
 40
3.0
 40
3.0
 40
3.0
 40
4.0
 40
4.0
 40
4.0
 40
4.0
 10
182.13623046875
 20
484.0078125
 10
185.78369140625
 20
484.0078125
 10
188.5361328125
 20
486.1064453125
 10
188.5361328125
 20
489.0654296875
 10
188.5361328125
 20
491.9560546875
 10
185.81787109375
 20
494.12353515625
 10
182.0673828125
 20
494.12353515625
 10
179.24609375
 20
494.12353515625
 10
175.66748046875
 20
492.712890625
 10
175.66748046875
 20
489.13427734375
 10
175.66748046875
 20
485.55615234375
 10
178.970703125
 20
484.0078125
 10
182.13623046875
 20
484.0078125
 97
        0
 97
        0
 75
     2
 76
     1
 98
        0
  0
SPLINE
  5
BE
330
94
100
AcDbEntity
  8
Layer 2
370
     0
100
AcDbSpline
210
0.0
220
0.0
230
1.0
 70
    11
 71
     3
 72
    17
 73
    13
 74
     0
 42
0.0000000001
 43
0.0000000001
 12
1.0
 22
0.0
 32
0.0
 13
1.0
 23
0.0
 33
0.0
 40
0.0
 40
0.0
 40
0.0
 40
0.0
 40
1.0
 40
1.0
 40
1.0
 40
2.0
 40
2.0
 40
2.0
 40
3.0
 40
3.0
 40
3.0
 40
4.0
 40
4.0
 40
4.0
 40
4.0
 10
169.09521484375
 20
504.416015625
 30
0.0
 10
170.12744140625
 20
504.45068359375
 30
0.0
 10
170.95361328125
 20
503.693359375
 30
0.0
 10
170.95361328125
 20
502.4892578125
 30
0.0
 10
170.95361328125
 20
501.42236328125
 30
0.0
 10
170.12744140625
 20
500.66552734375
 30
0.0
 10
169.09521484375
 20
500.66552734375
 30
0.0
 10
168.02880859375
 20
500.66552734375
 30
0.0
 10
167.203125
 20
501.45703125
 30
0.0
 10
167.203125
 20
502.55810546875
 30
0.0
 10
167.203125
 20
503.693359375
 30
0.0
 10
168.02880859375
 20
504.416015625
 30
0.0
 10
169.09521484375
 20
504.416015625
 30
0.0
  0
POLYLINE
  5
BF
330
94
100
AcDbEntity
  8
Layer 2
370
     0
100
AcDb2dPolyline
 66
     1
 10
0.0
 20
0.0
 30
0.0
  0
VERTEX
  5
C0
330
BF
100
AcDbEntity
  8
Layer 2
370
     0
100
AcDbVertex
100
AcDb2dVertex
 10
190.4287109375
 20
501.0439453125
 30
0.0
  0
VERTEX
  5
C1
330
BF
100
AcDbEntity
  8
Layer 2
370
     0
100
AcDbVertex
100
AcDb2dVertex
 10
173.77490234375
 20
501.0439453125
 30
0.0
  0
VERTEX
  5
C2
330
BF
100
AcDbEntity
  8
Layer 2
370
     0
100
AcDbVertex
100
AcDb2dVertex
 10
173.77490234375
 20
504.07177734375
 30
0.0
  0
VERTEX
  5
C3
330
BF
100
AcDbEntity
  8
Layer 2
370
     0
100
AcDbVertex
100
AcDb2dVertex
 10
190.4287109375
 20
504.07177734375
 30
0.0
  0
VERTEX
  5
C4
330
BF
100
AcDbEntity
  8
Layer 2
370
     0
100
AcDbVertex
100
AcDb2dVertex
 10
190.4287109375
 20
501.0439453125
 30
0.0
  0
SEQEND
  5
C5
330
BF
100
AcDbEntity
  8
Layer 2
370
     0
  0
HATCH
  5
C6
330
94
100
AcDbEntity
  8
Layer 2
 62
   250
420
  2301728
100
AcDbHatch
 10
0.0
 20
0.0
 30
0.0
210
0.0
220
0.0
230
1.0
  2
SOLID
 70
     1
 71
     0
 91
        2
 92
        1
 93
        1
 72
     4
 94
        3
 73
     0
 74
     1
 95
       17
 96
       13
 40
0.0
 40
0.0
 40
0.0
 40
0.0
 40
1.0
 40
1.0
 40
1.0
 40
2.0
 40
2.0
 40
2.0
 40
3.0
 40
3.0
 40
3.0
 40
4.0
 40
4.0
 40
4.0
 40
4.0
 10
169.09521484375
 20
504.416015625
 10
170.12744140625
 20
504.45068359375
 10
170.95361328125
 20
503.693359375
 10
170.95361328125
 20
502.4892578125
 10
170.95361328125
 20
501.42236328125
 10
170.12744140625
 20
500.66552734375
 10
169.09521484375
 20
500.66552734375
 10
168.02880859375
 20
500.66552734375
 10
167.203125
 20
501.45703125
 10
167.203125
 20
502.55810546875
 10
167.203125
 20
503.693359375
 10
168.02880859375
 20
504.416015625
 10
169.09521484375
 20
504.416015625
 97
        0
 97
        0
 92
        1
 93
        4
 72
     1
 10
190.4287109375
 20
501.0439453125
 11
173.77490234375
 21
501.0439453125
 72
     1
 10
173.77490234375
 20
501.0439453125
 11
173.77490234375
 21
504.07177734375
 72
     1
 10
173.77490234375
 20
504.07177734375
 11
190.4287109375
 21
504.07177734375
 72
     1
 10
190.4287109375
 20
504.07177734375
 11
190.4287109375
 21
501.0439453125
 97
        0
 75
     2
 76
     1
 98
        0
  0
SPLINE
  5
C7
330
94
100
AcDbEntity
  8
Layer 2
370
     0
100
AcDbSpline
210
0.0
220
0.0
230
1.0
 70
    11
 71
     3
 72
    47
 73
    43
 74
     0
 42
0.0000000001
 43
0.0000000001
 12
1.0
 22
0.0
 32
0.0
 13
1.0
 23
0.0
 33
0.0
 40
0.0
 40
0.0
 40
0.0
 40
0.0
 40
1.0
 40
1.0
 40
1.0
 40
2.0
 40
2.0
 40
2.0
 40
3.0
 40
3.0
 40
3.0
 40
4.0
 40
4.0
 40
4.0
 40
5.0
 40
5.0
 40
5.0
 40
6.0
 40
6.0
 40
6.0
 40
7.0
 40
7.0
 40
7.0
 40
8.0
 40
8.0
 40
8.0
 40
9.0
 40
9.0
 40
9.0
 40
10.0
 40
10.0
 40
10.0
 40
11.0
 40
11.0
 40
11.0
 40
12.0
 40
12.0
 40
12.0
 40
13.0
 40
13.0
 40
13.0
 40
14.0
 40
14.0
 40
14.0
 40
14.0
 10
187.33203125
 20
508.68408203125
 30
0.0
 10
187.9169921875
 20
509.57861328125
 30
0.0
 10
188.5361328125
 20
511.1611328125
 30
0.0
 10
188.5361328125
 20
512.67529296875
 30
0.0
 10
188.5361328125
 20
514.87744140625
 30
0.0
 10
187.43505859375
 20
515.90966796875
 30
0.0
 10
186.05859375
 20
515.90966796875
 30
0.0
 10
184.61376953125
 20
515.90966796875
 30
0.0
 10
183.822265625
 20
515.04931640625
 30
0.0
 10
182.99658203125
 20
512.81298828125
 30
0.0
 10
181.9296875
 20
509.8193359375
 30
0.0
 10
180.2783203125
 20
508.40869140625
 30
0.0
 10
178.28271484375
 20
508.40869140625
 30
0.0
 10
175.5986328125
 20
508.40869140625
 30
0.0
 10
173.396484375
 20
510.576171875
 30
0.0
 10
173.396484375
 20
514.15478515625
 30
0.0
 10
173.396484375
 20
515.8408203125
 30
0.0
 10
173.87841796875
 20
517.3203125
 30
0.0
 10
174.4287109375
 20
518.24951171875
 30
0.0
 10
174.4287109375
 20
518.24951171875
 30
0.0
 10
176.630859375
 20
517.49267578125
 30
0.0
 10
176.630859375
 20
517.49267578125
 30
0.0
 10
176.2177734375
 20
516.8388671875
 30
0.0
 10
175.66748046875
 20
515.63427734375
 30
0.0
 10
175.66748046875
 20
514.0859375
 30
0.0
 10
175.66748046875
 20
512.296875
 30
0.0
 10
176.69970703125
 20
511.298828125
 30
0.0
 10
177.9384765625
 20
511.298828125
 30
0.0
 10
179.31494140625
 20
511.298828125
 30
0.0
 10
179.93408203125
 20
512.296875
 30
0.0
 10
180.759765625
 20
514.46435546875
 30
0.0
 10
181.86083984375
 20
517.35498046875
 30
0.0
 10
183.30615234375
 20
518.83447265625
 30
0.0
 10
185.78369140625
 20
518.83447265625
 30
0.0
 10
188.70849609375
 20
518.83447265625
 30
0.0
 10
190.77294921875
 20
516.5634765625
 30
0.0
 10
190.77294921875
 20
512.6064453125
 30
0.0
 10
190.77294921875
 20
510.78271484375
 30
0.0
 10
190.32568359375
 20
509.0966796875
 30
0.0
 10
189.63720703125
 20
507.9267578125
 30
0.0
 10
189.63720703125
 20
507.9267578125
 30
0.0
 10
187.33203125
 20
508.68408203125
 30
0.0
 10
187.33203125
 20
508.68408203125
 30
0.0
  0
HATCH
  5
C8
330
94
100
AcDbEntity
  8
Layer 2
 62
   250
420
  2301728
100
AcDbHatch
 10
0.0
 20
0.0
 30
0.0
210
0.0
220
0.0
230
1.0
  2
SOLID
 70
     1
 71
     0
 91
        1
 92
        1
 93
        1
 72
     4
 94
        3
 73
     0
 74
     1
 95
       47
 96
       43
 40
0.0
 40
0.0
 40
0.0
 40
0.0
 40
1.0
 40
1.0
 40
1.0
 40
2.0
 40
2.0
 40
2.0
 40
3.0
 40
3.0
 40
3.0
 40
4.0
 40
4.0
 40
4.0
 40
5.0
 40
5.0
 40
5.0
 40
6.0
 40
6.0
 40
6.0
 40
7.0
 40
7.0
 40
7.0
 40
8.0
 40
8.0
 40
8.0
 40
9.0
 40
9.0
 40
9.0
 40
10.0
 40
10.0
 40
10.0
 40
11.0
 40
11.0
 40
11.0
 40
12.0
 40
12.0
 40
12.0
 40
13.0
 40
13.0
 40
13.0
 40
14.0
 40
14.0
 40
14.0
 40
14.0
 10
187.33203125
 20
508.68408203125
 10
187.9169921875
 20
509.57861328125
 10
188.5361328125
 20
511.1611328125
 10
188.5361328125
 20
512.67529296875
 10
188.5361328125
 20
514.87744140625
 10
187.43505859375
 20
515.90966796875
 10
186.05859375
 20
515.90966796875
 10
184.61376953125
 20
515.90966796875
 10
183.822265625
 20
515.04931640625
 10
182.99658203125
 20
512.81298828125
 10
181.9296875
 20
509.8193359375
 10
180.2783203125
 20
508.40869140625
 10
178.28271484375
 20
508.40869140625
 10
175.5986328125
 20
508.40869140625
 10
173.396484375
 20
510.576171875
 10
173.396484375
 20
514.15478515625
 10
173.396484375
 20
515.8408203125
 10
173.87841796875
 20
517.3203125
 10
174.4287109375
 20
518.24951171875
 10
174.4287109375
 20
518.24951171875
 10
176.630859375
 20
517.49267578125
 10
176.630859375
 20
517.49267578125
 10
176.2177734375
 20
516.8388671875
 10
175.66748046875
 20
515.63427734375
 10
175.66748046875
 20
514.0859375
 10
175.66748046875
 20
512.296875
 10
176.69970703125
 20
511.298828125
 10
177.9384765625
 20
511.298828125
 10
179.31494140625
 20
511.298828125
 10
179.93408203125
 20
512.296875
 10
180.759765625
 20
514.46435546875
 10
181.86083984375
 20
517.35498046875
 10
183.30615234375
 20
518.83447265625
 10
185.78369140625
 20
518.83447265625
 10
188.70849609375
 20
518.83447265625
 10
190.77294921875
 20
516.5634765625
 10
190.77294921875
 20
512.6064453125
 10
190.77294921875
 20
510.78271484375
 10
190.32568359375
 20
509.0966796875
 10
189.63720703125
 20
507.9267578125
 10
189.63720703125
 20
507.9267578125
 10
187.33203125
 20
508.68408203125
 10
187.33203125
 20
508.68408203125
 97
        0
 97
        0
 75
     2
 76
     1
 98
        0
  0
SPLINE
  5
C9
330
94
100
AcDbEntity
  8
Layer 2
370
     0
100
AcDbSpline
210
0.0
220
0.0
230
1.0
 70
    11
 71
     3
 72
    41
 73
    37
 74
     0
 42
0.0000000001
 43
0.0000000001
 12
1.0
 22
0.0
 32
0.0
 13
1.0
 23
0.0
 33
0.0
 40
0.0
 40
0.0
 40
0.0
 40
0.0
 40
1.0
 40
1.0
 40
1.0
 40
2.0
 40
2.0
 40
2.0
 40
3.0
 40
3.0
 40
3.0
 40
4.0
 40
4.0
 40
4.0
 40
5.0
 40
5.0
 40
5.0
 40
6.0
 40
6.0
 40
6.0
 40
7.0
 40
7.0
 40
7.0
 40
8.0
 40
8.0
 40
8.0
 40
9.0
 40
9.0
 40
9.0
 40
10.0
 40
10.0
 40
10.0
 40
11.0
 40
11.0
 40
11.0
 40
12.0
 40
12.0
 40
12.0
 40
12.0
 10
179.21142578125
 20
522.7255859375
 30
0.0
 10
177.078125
 20
522.7255859375
 30
0.0
 10
175.35791015625
 20
522.65673828125
 30
0.0
 10
173.77490234375
 20
522.587890625
 30
0.0
 10
173.77490234375
 20
522.587890625
 30
0.0
 10
173.77490234375
 20
525.30615234375
 30
0.0
 10
173.77490234375
 20
525.30615234375
 30
0.0
 10
173.77490234375
 20
525.30615234375
 30
0.0
 10
176.630859375
 20
525.44384765625
 30
0.0
 10
176.630859375
 20
525.44384765625
 30
0.0
 10
176.630859375
 20
525.44384765625
 30
0.0
 10
176.630859375
 20
525.5126953125
 30
0.0
 10
176.630859375
 20
525.5126953125
 30
0.0
 10
174.6005859375
 20
526.75146484375
 30
0.0
 10
173.396484375
 20
528.712890625
 30
0.0
 10
173.396484375
 20
531.43115234375
 30
0.0
 10
173.396484375
 20
535.45703125
 30
0.0
 10
176.802734375
 20
538.48486328125
 30
0.0
 10
181.86083984375
 20
538.48486328125
 30
0.0
 10
187.84814453125
 20
538.48486328125
 30
0.0
 10
190.80712890625
 20
534.83740234375
 30
0.0
 10
190.80712890625
 20
530.9150390625
 30
0.0
 10
190.80712890625
 20
528.712890625
 30
0.0
 10
189.84375
 20
526.7861328125
 30
0.0
 10
188.1923828125
 20
525.7880859375
 30
0.0
 10
188.1923828125
 20
525.7880859375
 30
0.0
 10
188.1923828125
 20
525.71923828125
 30
0.0
 10
188.1923828125
 20
525.71923828125
 30
0.0
 10
188.1923828125
 20
525.71923828125
 30
0.0
 10
197.24169921875
 20
525.71923828125
 30
0.0
 10
197.24169921875
 20
525.71923828125
 30
0.0
 10
197.24169921875
 20
525.71923828125
 30
0.0
 10
197.24169921875
 20
522.7255859375
 30
0.0
 10
197.24169921875
 20
522.7255859375
 30
0.0
 10
197.24169921875
 20
522.7255859375
 30
0.0
 10
179.21142578125
 20
522.7255859375
 30
0.0
 10
179.21142578125
 20
522.7255859375
 30
0.0
  0
SPLINE
  5
CA
330
94
100
AcDbEntity
  8
Layer 2
370
     0
100
AcDbSpline
210
0.0
220
0.0
230
1.0
 70
    11
 71
     3
 72
    26
 73
    22
 74
     0
 42
0.0000000001
 43
0.0000000001
 12
1.0
 22
0.0
 32
0.0
 13
1.0
 23
0.0
 33
0.0
 40
0.0
 40
0.0
 40
0.0
 40
0.0
 40
1.0
 40
1.0
 40
1.0
 40
2.0
 40
2.0
 40
2.0
 40
3.0
 40
3.0
 40
3.0
 40
4.0
 40
4.0
 40
4.0
 40
5.0
 40
5.0
 40
5.0
 40
6.0
 40
6.0
 40
6.0
 40
7.0
 40
7.0
 40
7.0
 40
7.0
 10
183.650390625
 20
525.71923828125
 30
0.0
 10
184.09765625
 20
525.71923828125
 30
0.0
 10
184.51025390625
 20
525.7880859375
 30
0.0
 10
184.88916015625
 20
525.85693359375
 30
0.0
 10
186.98779296875
 20
526.4072265625
 30
0.0
 10
188.43310546875
 20
528.23095703125
 30
0.0
 10
188.43310546875
 20
530.39892578125
 30
0.0
 10
188.43310546875
 20
533.5986328125
 30
0.0
 10
185.81787109375
 20
535.45703125
 30
0.0
 10
181.99853515625
 20
535.45703125
 30
0.0
 10
178.6611328125
 20
535.45703125
 30
0.0
 10
175.80517578125
 20
533.7021484375
 30
0.0
 10
175.80517578125
 20
530.501953125
 30
0.0
 10
175.80517578125
 20
528.4375
 30
0.0
 10
177.28466796875
 20
526.5107421875
 30
0.0
 10
179.5556640625
 20
525.92578125
 30
0.0
 10
179.93408203125
 20
525.822265625
 30
0.0
 10
180.38134765625
 20
525.71923828125
 30
0.0
 10
180.79443359375
 20
525.71923828125
 30
0.0
 10
180.79443359375
 20
525.71923828125
 30
0.0
 10
183.650390625
 20
525.71923828125
 30
0.0
 10
183.650390625
 20
525.71923828125
 30
0.0
  0
HATCH
  5
CB
330
94
100
AcDbEntity
  8
Layer 2
 62
   250
420
  2301728
100
AcDbHatch
 10
0.0
 20
0.0
 30
0.0
210
0.0
220
0.0
230
1.0
  2
SOLID
 70
     1
 71
     0
 91
        2
 92
        1
 93
        1
 72
     4
 94
        3
 73
     0
 74
     1
 95
       41
 96
       37
 40
0.0
 40
0.0
 40
0.0
 40
0.0
 40
1.0
 40
1.0
 40
1.0
 40
2.0
 40
2.0
 40
2.0
 40
3.0
 40
3.0
 40
3.0
 40
4.0
 40
4.0
 40
4.0
 40
5.0
 40
5.0
 40
5.0
 40
6.0
 40
6.0
 40
6.0
 40
7.0
 40
7.0
 40
7.0
 40
8.0
 40
8.0
 40
8.0
 40
9.0
 40
9.0
 40
9.0
 40
10.0
 40
10.0
 40
10.0
 40
11.0
 40
11.0
 40
11.0
 40
12.0
 40
12.0
 40
12.0
 40
12.0
 10
179.21142578125
 20
522.7255859375
 10
177.078125
 20
522.7255859375
 10
175.35791015625
 20
522.65673828125
 10
173.77490234375
 20
522.587890625
 10
173.77490234375
 20
522.587890625
 10
173.77490234375
 20
525.30615234375
 10
173.77490234375
 20
525.30615234375
 10
173.77490234375
 20
525.30615234375
 10
176.630859375
 20
525.44384765625
 10
176.630859375
 20
525.44384765625
 10
176.630859375
 20
525.44384765625
 10
176.630859375
 20
525.5126953125
 10
176.630859375
 20
525.5126953125
 10
174.6005859375
 20
526.75146484375
 10
173.396484375
 20
528.712890625
 10
173.396484375
 20
531.43115234375
 10
173.396484375
 20
535.45703125
 10
176.802734375
 20
538.48486328125
 10
181.86083984375
 20
538.48486328125
 10
187.84814453125
 20
538.48486328125
 10
190.80712890625
 20
534.83740234375
 10
190.80712890625
 20
530.9150390625
 10
190.80712890625
 20
528.712890625
 10
189.84375
 20
526.7861328125
 10
188.1923828125
 20
525.7880859375
 10
188.1923828125
 20
525.7880859375
 10
188.1923828125
 20
525.71923828125
 10
188.1923828125
 20
525.71923828125
 10
188.1923828125
 20
525.71923828125
 10
197.24169921875
 20
525.71923828125
 10
197.24169921875
 20
525.71923828125
 10
197.24169921875
 20
525.71923828125
 10
197.24169921875
 20
522.7255859375
 10
197.24169921875
 20
522.7255859375
 10
197.24169921875
 20
522.7255859375
 10
179.21142578125
 20
522.7255859375
 10
179.21142578125
 20
522.7255859375
 97
        0
 97
        0
 92
        1
 93
        1
 72
     4
 94
        3
 73
     0
 74
     1
 95
       26
 96
       22
 40
0.0
 40
0.0
 40
0.0
 40
0.0
 40
1.0
 40
1.0
 40
1.0
 40
2.0
 40
2.0
 40
2.0
 40
3.0
 40
3.0
 40
3.0
 40
4.0
 40
4.0
 40
4.0
 40
5.0
 40
5.0
 40
5.0
 40
6.0
 40
6.0
 40
6.0
 40
7.0
 40
7.0
 40
7.0
 40
7.0
 10
183.650390625
 20
525.71923828125
 10
184.09765625
 20
525.71923828125
 10
184.51025390625
 20
525.7880859375
 10
184.88916015625
 20
525.85693359375
 10
186.98779296875
 20
526.4072265625
 10
188.43310546875
 20
528.23095703125
 10
188.43310546875
 20
530.39892578125
 10
188.43310546875
 20
533.5986328125
 10
185.81787109375
 20
535.45703125
 10
181.99853515625
 20
535.45703125
 10
178.6611328125
 20
535.45703125
 10
175.80517578125
 20
533.7021484375
 10
175.80517578125
 20
530.501953125
 10
175.80517578125
 20
528.4375
 10
177.28466796875
 20
526.5107421875
 10
179.5556640625
 20
525.92578125
 10
179.93408203125
 20
525.822265625
 10
180.38134765625
 20
525.71923828125
 10
180.79443359375
 20
525.71923828125
 10
180.79443359375
 20
525.71923828125
 10
183.650390625
 20
525.71923828125
 10
183.650390625
 20
525.71923828125
 97
        0
 97
        0
 75
     2
 76
     1
 98
        0
  0
SPLINE
  5
CC
330
94
100
AcDbEntity
  8
Layer 2
370
     0
100
AcDbSpline
210
0.0
220
0.0
230
1.0
 70
    11
 71
     3
 72
    41
 73
    37
 74
     0
 42
0.0000000001
 43
0.0000000001
 12
1.0
 22
0.0
 32
0.0
 13
1.0
 23
0.0
 33
0.0
 40
0.0
 40
0.0
 40
0.0
 40
0.0
 40
1.0
 40
1.0
 40
1.0
 40
2.0
 40
2.0
 40
2.0
 40
3.0
 40
3.0
 40
3.0
 40
4.0
 40
4.0
 40
4.0
 40
5.0
 40
5.0
 40
5.0
 40
6.0
 40
6.0
 40
6.0
 40
7.0
 40
7.0
 40
7.0
 40
8.0
 40
8.0
 40
8.0
 40
9.0
 40
9.0
 40
9.0
 40
10.0
 40
10.0
 40
10.0
 40
11.0
 40
11.0
 40
11.0
 40
12.0
 40
12.0
 40
12.0
 40
12.0
 10
179.21142578125
 20
542.3076171875
 30
0.0
 10
177.078125
 20
542.3076171875
 30
0.0
 10
175.35791015625
 20
542.23876953125
 30
0.0
 10
173.77490234375
 20
542.169921875
 30
0.0
 10
173.77490234375
 20
542.169921875
 30
0.0
 10
173.77490234375
 20
544.88818359375
 30
0.0
 10
173.77490234375
 20
544.88818359375
 30
0.0
 10
173.77490234375
 20
544.88818359375
 30
0.0
 10
176.630859375
 20
545.02587890625
 30
0.0
 10
176.630859375
 20
545.02587890625
 30
0.0
 10
176.630859375
 20
545.02587890625
 30
0.0
 10
176.630859375
 20
545.0947265625
 30
0.0
 10
176.630859375
 20
545.0947265625
 30
0.0
 10
174.6005859375
 20
546.33349609375
 30
0.0
 10
173.396484375
 20
548.294921875
 30
0.0
 10
173.396484375
 20
551.01318359375
 30
0.0
 10
173.396484375
 20
555.0390625
 30
0.0
 10
176.802734375
 20
558.06689453125
 30
0.0
 10
181.86083984375
 20
558.06689453125
 30
0.0
 10
187.84814453125
 20
558.06689453125
 30
0.0
 10
190.80712890625
 20
554.41943359375
 30
0.0
 10
190.80712890625
 20
550.4970703125
 30
0.0
 10
190.80712890625
 20
548.294921875
 30
0.0
 10
189.84375
 20
546.3681640625
 30
0.0
 10
188.1923828125
 20
545.3701171875
 30
0.0
 10
188.1923828125
 20
545.3701171875
 30
0.0
 10
188.1923828125
 20
545.30126953125
 30
0.0
 10
188.1923828125
 20
545.30126953125
 30
0.0
 10
188.1923828125
 20
545.30126953125
 30
0.0
 10
197.24169921875
 20
545.30126953125
 30
0.0
 10
197.24169921875
 20
545.30126953125
 30
0.0
 10
197.24169921875
 20
545.30126953125
 30
0.0
 10
197.24169921875
 20
542.3076171875
 30
0.0
 10
197.24169921875
 20
542.3076171875
 30
0.0
 10
197.24169921875
 20
542.3076171875
 30
0.0
 10
179.21142578125
 20
542.3076171875
 30
0.0
 10
179.21142578125
 20
542.3076171875
 30
0.0
  0
SPLINE
  5
CD
330
94
100
AcDbEntity
  8
Layer 2
370
     0
100
AcDbSpline
210
0.0
220
0.0
230
1.0
 70
    11
 71
     3
 72
    26
 73
    22
 74
     0
 42
0.0000000001
 43
0.0000000001
 12
1.0
 22
0.0
 32
0.0
 13
1.0
 23
0.0
 33
0.0
 40
0.0
 40
0.0
 40
0.0
 40
0.0
 40
1.0
 40
1.0
 40
1.0
 40
2.0
 40
2.0
 40
2.0
 40
3.0
 40
3.0
 40
3.0
 40
4.0
 40
4.0
 40
4.0
 40
5.0
 40
5.0
 40
5.0
 40
6.0
 40
6.0
 40
6.0
 40
7.0
 40
7.0
 40
7.0
 40
7.0
 10
183.650390625
 20
545.30126953125
 30
0.0
 10
184.09765625
 20
545.30126953125
 30
0.0
 10
184.51025390625
 20
545.3701171875
 30
0.0
 10
184.88916015625
 20
545.43896484375
 30
0.0
 10
186.98779296875
 20
545.9892578125
 30
0.0
 10
188.43310546875
 20
547.81298828125
 30
0.0
 10
188.43310546875
 20
549.98095703125
 30
0.0
 10
188.43310546875
 20
553.1806640625
 30
0.0
 10
185.81787109375
 20
555.0390625
 30
0.0
 10
181.99853515625
 20
555.0390625
 30
0.0
 10
178.6611328125
 20
555.0390625
 30
0.0
 10
175.80517578125
 20
553.2841796875
 30
0.0
 10
175.80517578125
 20
550.083984375
 30
0.0
 10
175.80517578125
 20
548.01953125
 30
0.0
 10
177.28466796875
 20
546.0927734375
 30
0.0
 10
179.5556640625
 20
545.5078125
 30
0.0
 10
179.93408203125
 20
545.404296875
 30
0.0
 10
180.38134765625
 20
545.30126953125
 30
0.0
 10
180.79443359375
 20
545.30126953125
 30
0.0
 10
180.79443359375
 20
545.30126953125
 30
0.0
 10
183.650390625
 20
545.30126953125
 30
0.0
 10
183.650390625
 20
545.30126953125
 30
0.0
  0
HATCH
  5
CE
330
94
100
AcDbEntity
  8
Layer 2
 62
   250
420
  2301728
100
AcDbHatch
 10
0.0
 20
0.0
 30
0.0
210
0.0
220
0.0
230
1.0
  2
SOLID
 70
     1
 71
     0
 91
        2
 92
        1
 93
        1
 72
     4
 94
        3
 73
     0
 74
     1
 95
       41
 96
       37
 40
0.0
 40
0.0
 40
0.0
 40
0.0
 40
1.0
 40
1.0
 40
1.0
 40
2.0
 40
2.0
 40
2.0
 40
3.0
 40
3.0
 40
3.0
 40
4.0
 40
4.0
 40
4.0
 40
5.0
 40
5.0
 40
5.0
 40
6.0
 40
6.0
 40
6.0
 40
7.0
 40
7.0
 40
7.0
 40
8.0
 40
8.0
 40
8.0
 40
9.0
 40
9.0
 40
9.0
 40
10.0
 40
10.0
 40
10.0
 40
11.0
 40
11.0
 40
11.0
 40
12.0
 40
12.0
 40
12.0
 40
12.0
 10
179.21142578125
 20
542.3076171875
 10
177.078125
 20
542.3076171875
 10
175.35791015625
 20
542.23876953125
 10
173.77490234375
 20
542.169921875
 10
173.77490234375
 20
542.169921875
 10
173.77490234375
 20
544.88818359375
 10
173.77490234375
 20
544.88818359375
 10
173.77490234375
 20
544.88818359375
 10
176.630859375
 20
545.02587890625
 10
176.630859375
 20
545.02587890625
 10
176.630859375
 20
545.02587890625
 10
176.630859375
 20
545.0947265625
 10
176.630859375
 20
545.0947265625
 10
174.6005859375
 20
546.33349609375
 10
173.396484375
 20
548.294921875
 10
173.396484375
 20
551.01318359375
 10
173.396484375
 20
555.0390625
 10
176.802734375
 20
558.06689453125
 10
181.86083984375
 20
558.06689453125
 10
187.84814453125
 20
558.06689453125
 10
190.80712890625
 20
554.41943359375
 10
190.80712890625
 20
550.4970703125
 10
190.80712890625
 20
548.294921875
 10
189.84375
 20
546.3681640625
 10
188.1923828125
 20
545.3701171875
 10
188.1923828125
 20
545.3701171875
 10
188.1923828125
 20
545.30126953125
 10
188.1923828125
 20
545.30126953125
 10
188.1923828125
 20
545.30126953125
 10
197.24169921875
 20
545.30126953125
 10
197.24169921875
 20
545.30126953125
 10
197.24169921875
 20
545.30126953125
 10
197.24169921875
 20
542.3076171875
 10
197.24169921875
 20
542.3076171875
 10
197.24169921875
 20
542.3076171875
 10
179.21142578125
 20
542.3076171875
 10
179.21142578125
 20
542.3076171875
 97
        0
 97
        0
 92
        1
 93
        1
 72
     4
 94
        3
 73
     0
 74
     1
 95
       26
 96
       22
 40
0.0
 40
0.0
 40
0.0
 40
0.0
 40
1.0
 40
1.0
 40
1.0
 40
2.0
 40
2.0
 40
2.0
 40
3.0
 40
3.0
 40
3.0
 40
4.0
 40
4.0
 40
4.0
 40
5.0
 40
5.0
 40
5.0
 40
6.0
 40
6.0
 40
6.0
 40
7.0
 40
7.0
 40
7.0
 40
7.0
 10
183.650390625
 20
545.30126953125
 10
184.09765625
 20
545.30126953125
 10
184.51025390625
 20
545.3701171875
 10
184.88916015625
 20
545.43896484375
 10
186.98779296875
 20
545.9892578125
 10
188.43310546875
 20
547.81298828125
 10
188.43310546875
 20
549.98095703125
 10
188.43310546875
 20
553.1806640625
 10
185.81787109375
 20
555.0390625
 10
181.99853515625
 20
555.0390625
 10
178.6611328125
 20
555.0390625
 10
175.80517578125
 20
553.2841796875
 10
175.80517578125
 20
550.083984375
 10
175.80517578125
 20
548.01953125
 10
177.28466796875
 20
546.0927734375
 10
179.5556640625
 20
545.5078125
 10
179.93408203125
 20
545.404296875
 10
180.38134765625
 20
545.30126953125
 10
180.79443359375
 20
545.30126953125
 10
180.79443359375
 20
545.30126953125
 10
183.650390625
 20
545.30126953125
 10
183.650390625
 20
545.30126953125
 97
        0
 97
        0
 75
     2
 76
     1
 98
        0
  0
SPLINE
  5
CF
330
94
100
AcDbEntity
  8
Layer 2
370
     0
100
AcDbSpline
210
0.0
220
0.0
230
1.0
 70
    11
 71
     3
 72
    32
 73
    28
 74
     0
 42
0.0000000001
 43
0.0000000001
 12
1.0
 22
0.0
 32
0.0
 13
1.0
 23
0.0
 33
0.0
 40
0.0
 40
0.0
 40
0.0
 40
0.0
 40
1.0
 40
1.0
 40
1.0
 40
2.0
 40
2.0
 40
2.0
 40
3.0
 40
3.0
 40
3.0
 40
4.0
 40
4.0
 40
4.0
 40
5.0
 40
5.0
 40
5.0
 40
6.0
 40
6.0
 40
6.0
 40
7.0
 40
7.0
 40
7.0
 40
8.0
 40
8.0
 40
8.0
 40
9.0
 40
9.0
 40
9.0
 40
9.0
 10
182.65234375
 20
563.57568359375
 30
0.0
 10
186.7470703125
 20
563.64453125
 30
0.0
 10
188.43310546875
 20
566.259765625
 30
0.0
 10
188.43310546875
 20
569.28759765625
 30
0.0
 10
188.43310546875
 20
571.45556640625
 30
0.0
 10
188.0546875
 20
572.7626953125
 30
0.0
 10
187.57275390625
 20
573.8984375
 30
0.0
 10
187.57275390625
 20
573.8984375
 30
0.0
 10
189.74072265625
 20
574.41455078125
 30
0.0
 10
189.74072265625
 20
574.41455078125
 30
0.0
 10
190.22216796875
 20
573.34765625
 30
0.0
 10
190.77294921875
 20
571.52392578125
 30
0.0
 10
190.77294921875
 20
568.87451171875
 30
0.0
 10
190.77294921875
 20
563.748046875
 30
0.0
 10
187.40087890625
 20
560.685546875
 30
0.0
 10
182.376953125
 20
560.685546875
 30
0.0
 10
177.353515625
 20
560.685546875
 30
0.0
 10
173.396484375
 20
563.64453125
 30
0.0
 10
173.396484375
 20
568.49609375
 30
0.0
 10
173.396484375
 20
573.9326171875
 30
0.0
 10
178.17919921875
 20
575.3779296875
 30
0.0
 10
181.24169921875
 20
575.3779296875
 30
0.0
 10
181.86083984375
 20
575.3779296875
 30
0.0
 10
182.3427734375
 20
575.30908203125
 30
0.0
 10
182.65234375
 20
575.27490234375
 30
0.0
 10
182.65234375
 20
575.27490234375
 30
0.0
 10
182.65234375
 20
563.57568359375
 30
0.0
 10
182.65234375
 20
563.57568359375
 30
0.0
  0
SPLINE
  5
D0
330
94
100
AcDbEntity
  8
Layer 2
370
     0
100
AcDbSpline
210
0.0
220
0.0
230
1.0
 70
    11
 71
     3
 72
    14
 73
    10
 74
     0
 42
0.0000000001
 43
0.0000000001
 12
1.0
 22
0.0
 32
0.0
 13
1.0
 23
0.0
 33
0.0
 40
0.0
 40
0.0
 40
0.0
 40
0.0
 40
1.0
 40
1.0
 40
1.0
 40
2.0
 40
2.0
 40
2.0
 40
3.0
 40
3.0
 40
3.0
 40
3.0
 10
180.48486328125
 20
572.453125
 30
0.0
 10
178.5576171875
 20
572.48779296875
 30
0.0
 10
175.564453125
 20
571.66162109375
 30
0.0
 10
175.564453125
 20
568.25537109375
 30
0.0
 10
175.564453125
 20
565.19287109375
 30
0.0
 10
178.3857421875
 20
563.85107421875
 30
0.0
 10
180.48486328125
 20
563.6103515625
 30
0.0
 10
180.48486328125
 20
563.6103515625
 30
0.0
 10
180.48486328125
 20
572.453125
 30
0.0
 10
180.48486328125
 20
572.453125
 30
0.0
  0
HATCH
  5
D1
330
94
100
AcDbEntity
  8
Layer 2
 62
   250
420
  2301728
100
AcDbHatch
 10
0.0
 20
0.0
 30
0.0
210
0.0
220
0.0
230
1.0
  2
SOLID
 70
     1
 71
     0
 91
        2
 92
        1
 93
        1
 72
     4
 94
        3
 73
     0
 74
     1
 95
       32
 96
       28
 40
0.0
 40
0.0
 40
0.0
 40
0.0
 40
1.0
 40
1.0
 40
1.0
 40
2.0
 40
2.0
 40
2.0
 40
3.0
 40
3.0
 40
3.0
 40
4.0
 40
4.0
 40
4.0
 40
5.0
 40
5.0
 40
5.0
 40
6.0
 40
6.0
 40
6.0
 40
7.0
 40
7.0
 40
7.0
 40
8.0
 40
8.0
 40
8.0
 40
9.0
 40
9.0
 40
9.0
 40
9.0
 10
182.65234375
 20
563.57568359375
 10
186.7470703125
 20
563.64453125
 10
188.43310546875
 20
566.259765625
 10
188.43310546875
 20
569.28759765625
 10
188.43310546875
 20
571.45556640625
 10
188.0546875
 20
572.7626953125
 10
187.57275390625
 20
573.8984375
 10
187.57275390625
 20
573.8984375
 10
189.74072265625
 20
574.41455078125
 10
189.74072265625
 20
574.41455078125
 10
190.22216796875
 20
573.34765625
 10
190.77294921875
 20
571.52392578125
 10
190.77294921875
 20
568.87451171875
 10
190.77294921875
 20
563.748046875
 10
187.40087890625
 20
560.685546875
 10
182.376953125
 20
560.685546875
 10
177.353515625
 20
560.685546875
 10
173.396484375
 20
563.64453125
 10
173.396484375
 20
568.49609375
 10
173.396484375
 20
573.9326171875
 10
178.17919921875
 20
575.3779296875
 10
181.24169921875
 20
575.3779296875
 10
181.86083984375
 20
575.3779296875
 10
182.3427734375
 20
575.30908203125
 10
182.65234375
 20
575.27490234375
 10
182.65234375
 20
575.27490234375
 10
182.65234375
 20
563.57568359375
 10
182.65234375
 20
563.57568359375
 97
        0
 97
        0
 92
        1
 93
        1
 72
     4
 94
        3
 73
     0
 74
     1
 95
       14
 96
       10
 40
0.0
 40
0.0
 40
0.0
 40
0.0
 40
1.0
 40
1.0
 40
1.0
 40
2.0
 40
2.0
 40
2.0
 40
3.0
 40
3.0
 40
3.0
 40
3.0
 10
180.48486328125
 20
572.453125
 10
178.5576171875
 20
572.48779296875
 10
175.564453125
 20
571.66162109375
 10
175.564453125
 20
568.25537109375
 10
175.564453125
 20
565.19287109375
 10
178.3857421875
 20
563.85107421875
 10
180.48486328125
 20
563.6103515625
 10
180.48486328125
 20
563.6103515625
 10
180.48486328125
 20
572.453125
 10
180.48486328125
 20
572.453125
 97
        0
 97
        0
 75
     2
 76
     1
 98
        0
  0
SPLINE
  5
D2
330
94
100
AcDbEntity
  8
Layer 2
370
     0
100
AcDbSpline
210
0.0
220
0.0
230
1.0
 70
    11
 71
     3
 72
    17
 73
    13
 74
     0
 42
0.0000000001
 43
0.0000000001
 12
1.0
 22
0.0
 32
0.0
 13
1.0
 23
0.0
 33
0.0
 40
0.0
 40
0.0
 40
0.0
 40
0.0
 40
1.0
 40
1.0
 40
1.0
 40
2.0
 40
2.0
 40
2.0
 40
3.0
 40
3.0
 40
3.0
 40
4.0
 40
4.0
 40
4.0
 40
4.0
 10
188.6396484375
 20
577.99658203125
 30
0.0
 10
187.3662109375
 20
577.99658203125
 30
0.0
 10
186.4716796875
 20
578.85693359375
 30
0.0
 10
186.4716796875
 20
580.0615234375
 30
0.0
 10
186.4716796875
 20
581.265625
 30
0.0
 10
187.3662109375
 20
582.09130859375
 30
0.0
 10
188.6396484375
 20
582.09130859375
 30
0.0
 10
189.8779296875
 20
582.09130859375
 30
0.0
 10
190.80712890625
 20
581.2998046875
 30
0.0
 10
190.80712890625
 20
580.02685546875
 30
0.0
 10
190.80712890625
 20
578.82275390625
 30
0.0
 10
189.8779296875
 20
577.99658203125
 30
0.0
 10
188.6396484375
 20
577.99658203125
 30
0.0
  0
HATCH
  5
D3
330
94
100
AcDbEntity
  8
Layer 2
 62
   250
420
  2301728
100
AcDbHatch
 10
0.0
 20
0.0
 30
0.0
210
0.0
220
0.0
230
1.0
  2
SOLID
 70
     1
 71
     0
 91
        1
 92
        1
 93
        1
 72
     4
 94
        3
 73
     0
 74
     1
 95
       17
 96
       13
 40
0.0
 40
0.0
 40
0.0
 40
0.0
 40
1.0
 40
1.0
 40
1.0
 40
2.0
 40
2.0
 40
2.0
 40
3.0
 40
3.0
 40
3.0
 40
4.0
 40
4.0
 40
4.0
 40
4.0
 10
188.6396484375
 20
577.99658203125
 10
187.3662109375
 20
577.99658203125
 10
186.4716796875
 20
578.85693359375
 10
186.4716796875
 20
580.0615234375
 10
186.4716796875
 20
581.265625
 10
187.3662109375
 20
582.09130859375
 10
188.6396484375
 20
582.09130859375
 10
189.8779296875
 20
582.09130859375
 10
190.80712890625
 20
581.2998046875
 10
190.80712890625
 20
580.02685546875
 10
190.80712890625
 20
578.82275390625
 10
189.8779296875
 20
577.99658203125
 10
188.6396484375
 20
577.99658203125
 97
        0
 97
        0
 75
     2
 76
     1
 98
        0
  0
SPLINE
  5
D4
330
94
100
AcDbEntity
  8
Layer 2
370
     0
100
AcDbSpline
210
0.0
220
0.0
230
1.0
 70
    11
 71
     3
 72
    17
 73
    13
 74
     0
 42
0.0000000001
 43
0.0000000001
 12
1.0
 22
0.0
 32
0.0
 13
1.0
 23
0.0
 33
0.0
 40
0.0
 40
0.0
 40
0.0
 40
0.0
 40
1.0
 40
1.0
 40
1.0
 40
2.0
 40
2.0
 40
2.0
 40
3.0
 40
3.0
 40
3.0
 40
4.0
 40
4.0
 40
4.0
 40
4.0
 10
181.96435546875
 20
600.9140625
 30
0.0
 10
188.12353515625
 20
600.9140625
 30
0.0
 10
190.80712890625
 20
596.64697265625
 30
0.0
 10
190.80712890625
 20
592.62158203125
 30
0.0
 10
190.80712890625
 20
588.11376953125
 30
0.0
 10
187.50390625
 20
584.638671875
 30
0.0
 10
182.2392578125
 20
584.638671875
 30
0.0
 10
176.6650390625
 20
584.638671875
 30
0.0
 10
173.396484375
 20
588.2861328125
 30
0.0
 10
173.396484375
 20
592.896484375
 30
0.0
 10
173.396484375
 20
597.67919921875
 30
0.0
 10
176.87158203125
 20
600.9140625
 30
0.0
 10
181.96435546875
 20
600.9140625
 30
0.0
  0
SPLINE
  5
D5
330
94
100
AcDbEntity
  8
Layer 2
370
     0
100
AcDbSpline
210
0.0
220
0.0
230
1.0
 70
    11
 71
     3
 72
    17
 73
    13
 74
     0
 42
0.0000000001
 43
0.0000000001
 12
1.0
 22
0.0
 32
0.0
 13
1.0
 23
0.0
 33
0.0
 40
0.0
 40
0.0
 40
0.0
 40
0.0
 40
1.0
 40
1.0
 40
1.0
 40
2.0
 40
2.0
 40
2.0
 40
3.0
 40
3.0
 40
3.0
 40
4.0
 40
4.0
 40
4.0
 40
4.0
 10
182.13623046875
 20
587.701171875
 30
0.0
 10
185.78369140625
 20
587.701171875
 30
0.0
 10
188.5361328125
 20
589.7998046875
 30
0.0
 10
188.5361328125
 20
592.7587890625
 30
0.0
 10
188.5361328125
 20
595.6494140625
 30
0.0
 10
185.81787109375
 20
597.81689453125
 30
0.0
 10
182.0673828125
 20
597.81689453125
 30
0.0
 10
179.24609375
 20
597.81689453125
 30
0.0
 10
175.66748046875
 20
596.40625
 30
0.0
 10
175.66748046875
 20
592.82763671875
 30
0.0
 10
175.66748046875
 20
589.24951171875
 30
0.0
 10
178.970703125
 20
587.701171875
 30
0.0
 10
182.13623046875
 20
587.701171875
 30
0.0
  0
HATCH
  5
D6
330
94
100
AcDbEntity
  8
Layer 2
 62
   250
420
  2301728
100
AcDbHatch
 10
0.0
 20
0.0
 30
0.0
210
0.0
220
0.0
230
1.0
  2
SOLID
 70
     1
 71
     0
 91
        2
 92
        1
 93
        1
 72
     4
 94
        3
 73
     0
 74
     1
 95
       17
 96
       13
 40
0.0
 40
0.0
 40
0.0
 40
0.0
 40
1.0
 40
1.0
 40
1.0
 40
2.0
 40
2.0
 40
2.0
 40
3.0
 40
3.0
 40
3.0
 40
4.0
 40
4.0
 40
4.0
 40
4.0
 10
181.96435546875
 20
600.9140625
 10
188.12353515625
 20
600.9140625
 10
190.80712890625
 20
596.64697265625
 10
190.80712890625
 20
592.62158203125
 10
190.80712890625
 20
588.11376953125
 10
187.50390625
 20
584.638671875
 10
182.2392578125
 20
584.638671875
 10
176.6650390625
 20
584.638671875
 10
173.396484375
 20
588.2861328125
 10
173.396484375
 20
592.896484375
 10
173.396484375
 20
597.67919921875
 10
176.87158203125
 20
600.9140625
 10
181.96435546875
 20
600.9140625
 97
        0
 97
        0
 92
        1
 93
        1
 72
     4
 94
        3
 73
     0
 74
     1
 95
       17
 96
       13
 40
0.0
 40
0.0
 40
0.0
 40
0.0
 40
1.0
 40
1.0
 40
1.0
 40
2.0
 40
2.0
 40
2.0
 40
3.0
 40
3.0
 40
3.0
 40
4.0
 40
4.0
 40
4.0
 40
4.0
 10
182.13623046875
 20
587.701171875
 10
185.78369140625
 20
587.701171875
 10
188.5361328125
 20
589.7998046875
 10
188.5361328125
 20
592.7587890625
 10
188.5361328125
 20
595.6494140625
 10
185.81787109375
 20
597.81689453125
 10
182.0673828125
 20
597.81689453125
 10
179.24609375
 20
597.81689453125
 10
175.66748046875
 20
596.40625
 10
175.66748046875
 20
592.82763671875
 10
175.66748046875
 20
589.24951171875
 10
178.970703125
 20
587.701171875
 10
182.13623046875
 20
587.701171875
 97
        0
 97
        0
 75
     2
 76
     1
 98
        0
  0
SPLINE
  5
D7
330
94
100
AcDbEntity
  8
Layer 2
370
     0
100
AcDbSpline
210
0.0
220
0.0
230
1.0
 70
    11
 71
     3
 72
    44
 73
    40
 74
     0
 42
0.0000000001
 43
0.0000000001
 12
1.0
 22
0.0
 32
0.0
 13
1.0
 23
0.0
 33
0.0
 40
0.0
 40
0.0
 40
0.0
 40
0.0
 40
1.0
 40
1.0
 40
1.0
 40
2.0
 40
2.0
 40
2.0
 40
3.0
 40
3.0
 40
3.0
 40
4.0
 40
4.0
 40
4.0
 40
5.0
 40
5.0
 40
5.0
 40
6.0
 40
6.0
 40
6.0
 40
7.0
 40
7.0
 40
7.0
 40
8.0
 40
8.0
 40
8.0
 40
9.0
 40
9.0
 40
9.0
 40
10.0
 40
10.0
 40
10.0
 40
11.0
 40
11.0
 40
11.0
 40
12.0
 40
12.0
 40
12.0
 40
13.0
 40
13.0
 40
13.0
 40
13.0
 10
178.970703125
 20
604.73681640625
 30
0.0
 10
177.00927734375
 20
604.73681640625
 30
0.0
 10
175.3232421875
 20
604.70263671875
 30
0.0
 10
173.77490234375
 20
604.59912109375
 30
0.0
 10
173.77490234375
 20
604.59912109375
 30
0.0
 10
173.77490234375
 20
607.24853515625
 30
0.0
 10
173.77490234375
 20
607.24853515625
 30
0.0
 10
173.77490234375
 20
607.24853515625
 30
0.0
 10
177.0439453125
 20
607.35205078125
 30
0.0
 10
177.0439453125
 20
607.35205078125
 30
0.0
 10
177.0439453125
 20
607.35205078125
 30
0.0
 10
177.0439453125
 20
607.48974609375
 30
0.0
 10
177.0439453125
 20
607.48974609375
 30
0.0
 10
174.80712890625
 20
608.24658203125
 30
0.0
 10
173.396484375
 20
610.0703125
 30
0.0
 10
173.396484375
 20
612.1005859375
 30
0.0
 10
173.396484375
 20
612.4443359375
 30
0.0
 10
173.4306640625
 20
612.685546875
 30
0.0
 10
173.49951171875
 20
612.96044921875
 30
0.0
 10
173.49951171875
 20
612.96044921875
 30
0.0
 10
176.35546875
 20
612.96044921875
 30
0.0
 10
176.35546875
 20
612.96044921875
 30
0.0
 10
176.28662109375
 20
612.65087890625
 30
0.0
 10
176.25244140625
 20
612.34130859375
 30
0.0
 10
176.25244140625
 20
611.92822265625
 30
0.0
 10
176.25244140625
 20
609.794921875
 30
0.0
 10
177.86962890625
 20
608.28125
 30
0.0
 10
180.140625
 20
607.8681640625
 30
0.0
 10
180.55322265625
 20
607.79931640625
 30
0.0
 10
181.03515625
 20
607.73046875
 30
0.0
 10
181.55126953125
 20
607.73046875
 30
0.0
 10
181.55126953125
 20
607.73046875
 30
0.0
 10
190.4287109375
 20
607.73046875
 30
0.0
 10
190.4287109375
 20
607.73046875
 30
0.0
 10
190.4287109375
 20
607.73046875
 30
0.0
 10
190.4287109375
 20
604.73681640625
 30
0.0
 10
190.4287109375
 20
604.73681640625
 30
0.0
 10
190.4287109375
 20
604.73681640625
 30
0.0
 10
178.970703125
 20
604.73681640625
 30
0.0
 10
178.970703125
 20
604.73681640625
 30
0.0
  0
HATCH
  5
D8
330
94
100
AcDbEntity
  8
Layer 2
 62
   250
420
  2301728
100
AcDbHatch
 10
0.0
 20
0.0
 30
0.0
210
0.0
220
0.0
230
1.0
  2
SOLID
 70
     1
 71
     0
 91
        1
 92
        1
 93
        1
 72
     4
 94
        3
 73
     0
 74
     1
 95
       44
 96
       40
 40
0.0
 40
0.0
 40
0.0
 40
0.0
 40
1.0
 40
1.0
 40
1.0
 40
2.0
 40
2.0
 40
2.0
 40
3.0
 40
3.0
 40
3.0
 40
4.0
 40
4.0
 40
4.0
 40
5.0
 40
5.0
 40
5.0
 40
6.0
 40
6.0
 40
6.0
 40
7.0
 40
7.0
 40
7.0
 40
8.0
 40
8.0
 40
8.0
 40
9.0
 40
9.0
 40
9.0
 40
10.0
 40
10.0
 40
10.0
 40
11.0
 40
11.0
 40
11.0
 40
12.0
 40
12.0
 40
12.0
 40
13.0
 40
13.0
 40
13.0
 40
13.0
 10
178.970703125
 20
604.73681640625
 10
177.00927734375
 20
604.73681640625
 10
175.3232421875
 20
604.70263671875
 10
173.77490234375
 20
604.59912109375
 10
173.77490234375
 20
604.59912109375
 10
173.77490234375
 20
607.24853515625
 10
173.77490234375
 20
607.24853515625
 10
173.77490234375
 20
607.24853515625
 10
177.0439453125
 20
607.35205078125
 10
177.0439453125
 20
607.35205078125
 10
177.0439453125
 20
607.35205078125
 10
177.0439453125
 20
607.48974609375
 10
177.0439453125
 20
607.48974609375
 10
174.80712890625
 20
608.24658203125
 10
173.396484375
 20
610.0703125
 10
173.396484375
 20
612.1005859375
 10
173.396484375
 20
612.4443359375
 10
173.4306640625
 20
612.685546875
 10
173.49951171875
 20
612.96044921875
 10
173.49951171875
 20
612.96044921875
 10
176.35546875
 20
612.96044921875
 10
176.35546875
 20
612.96044921875
 10
176.28662109375
 20
612.65087890625
 10
176.25244140625
 20
612.34130859375
 10
176.25244140625
 20
611.92822265625
 10
176.25244140625
 20
609.794921875
 10
177.86962890625
 20
608.28125
 10
180.140625
 20
607.8681640625
 10
180.55322265625
 20
607.79931640625
 10
181.03515625
 20
607.73046875
 10
181.55126953125
 20
607.73046875
 10
181.55126953125
 20
607.73046875
 10
190.4287109375
 20
607.73046875
 10
190.4287109375
 20
607.73046875
 10
190.4287109375
 20
607.73046875
 10
190.4287109375
 20
604.73681640625
 10
190.4287109375
 20
604.73681640625
 10
190.4287109375
 20
604.73681640625
 10
178.970703125
 20
604.73681640625
 10
178.970703125
 20
604.73681640625
 97
        0
 97
        0
 75
     2
 76
     1
 98
        0
  0
SPLINE
  5
D9
330
94
100
AcDbEntity
  8
Layer 2
370
     0
100
AcDbSpline
210
0.0
220
0.0
230
1.0
 70
    11
 71
     3
 72
    56
 73
    52
 74
     0
 42
0.0000000001
 43
0.0000000001
 12
1.0
 22
0.0
 32
0.0
 13
1.0
 23
0.0
 33
0.0
 40
0.0
 40
0.0
 40
0.0
 40
0.0
 40
1.0
 40
1.0
 40
1.0
 40
2.0
 40
2.0
 40
2.0
 40
3.0
 40
3.0
 40
3.0
 40
4.0
 40
4.0
 40
4.0
 40
5.0
 40
5.0
 40
5.0
 40
6.0
 40
6.0
 40
6.0
 40
7.0
 40
7.0
 40
7.0
 40
8.0
 40
8.0
 40
8.0
 40
9.0
 40
9.0
 40
9.0
 40
10.0
 40
10.0
 40
10.0
 40
11.0
 40
11.0
 40
11.0
 40
12.0
 40
12.0
 40
12.0
 40
13.0
 40
13.0
 40
13.0
 40
14.0
 40
14.0
 40
14.0
 40
15.0
 40
15.0
 40
15.0
 40
16.0
 40
16.0
 40
16.0
 40
17.0
 40
17.0
 40
17.0
 40
17.0
 10
173.77490234375
 20
630.064453125
 30
0.0
 10
174.9794921875
 20
629.99560546875
 30
0.0
 10
176.3212890625
 20
629.9267578125
 30
0.0
 10
178.35107421875
 20
629.9267578125
 30
0.0
 10
178.35107421875
 20
629.9267578125
 30
0.0
 10
188.02001953125
 20
629.9267578125
 30
0.0
 10
188.02001953125
 20
629.9267578125
 30
0.0
 10
191.83935546875
 20
629.9267578125
 30
0.0
 10
194.17919921875
 20
629.169921875
 30
0.0
 10
195.62451171875
 20
627.55224609375
 30
0.0
 10
197.13818359375
 20
625.93505859375
 30
0.0
 10
197.6201171875
 20
623.595703125
 30
0.0
 10
197.6201171875
 20
621.49658203125
 30
0.0
 10
197.6201171875
 20
619.5009765625
 30
0.0
 10
197.13818359375
 20
617.298828125
 30
0.0
 10
196.24365234375
 20
615.95703125
 30
0.0
 10
196.24365234375
 20
615.95703125
 30
0.0
 10
193.9384765625
 20
616.7138671875
 30
0.0
 10
193.9384765625
 20
616.7138671875
 30
0.0
 10
194.62646484375
 20
617.81494140625
 30
0.0
 10
195.24609375
 20
619.53515625
 30
0.0
 10
195.24609375
 20
621.599609375
 30
0.0
 10
195.24609375
 20
624.69677734375
 30
0.0
 10
193.62890625
 20
626.9677734375
 30
0.0
 10
189.4306640625
 20
626.9677734375
 30
0.0
 10
189.4306640625
 20
626.9677734375
 30
0.0
 10
187.57275390625
 20
626.9677734375
 30
0.0
 10
187.57275390625
 20
626.9677734375
 30
0.0
 10
187.57275390625
 20
626.9677734375
 30
0.0
 10
187.57275390625
 20
626.89892578125
 30
0.0
 10
187.57275390625
 20
626.89892578125
 30
0.0
 10
189.12109375
 20
625.9697265625
 30
0.0
 10
190.35986328125
 20
624.1806640625
 30
0.0
 10
190.35986328125
 20
621.599609375
 30
0.0
 10
190.35986328125
 20
617.470703125
 30
0.0
 10
186.85009765625
 20
614.51171875
 30
0.0
 10
182.2392578125
 20
614.51171875
 30
0.0
 10
176.5966796875
 20
614.51171875
 30
0.0
 10
173.396484375
 20
618.193359375
 30
0.0
 10
173.396484375
 20
622.0126953125
 30
0.0
 10
173.396484375
 20
624.90283203125
 30
0.0
 10
174.91064453125
 20
626.48583984375
 30
0.0
 10
176.28662109375
 20
627.20849609375
 30
0.0
 10
176.28662109375
 20
627.20849609375
 30
0.0
 10
176.28662109375
 20
627.27734375
 30
0.0
 10
176.28662109375
 20
627.27734375
 30
0.0
 10
176.28662109375
 20
627.27734375
 30
0.0
 10
173.77490234375
 20
627.4150390625
 30
0.0
 10
173.77490234375
 20
627.4150390625
 30
0.0
 10
173.77490234375
 20
627.4150390625
 30
0.0
 10
173.77490234375
 20
630.064453125
 30
0.0
 10
173.77490234375
 20
630.064453125
 30
0.0
  0
SPLINE
  5
DA
330
94
100
AcDbEntity
  8
Layer 2
370
     0
100
AcDbSpline
210
0.0
220
0.0
230
1.0
 70
    11
 71
     3
 72
    26
 73
    22
 74
     0
 42
0.0000000001
 43
0.0000000001
 12
1.0
 22
0.0
 32
0.0
 13
1.0
 23
0.0
 33
0.0
 40
0.0
 40
0.0
 40
0.0
 40
0.0
 40
1.0
 40
1.0
 40
1.0
 40
2.0
 40
2.0
 40
2.0
 40
3.0
 40
3.0
 40
3.0
 40
4.0
 40
4.0
 40
4.0
 40
5.0
 40
5.0
 40
5.0
 40
6.0
 40
6.0
 40
6.0
 40
7.0
 40
7.0
 40
7.0
 40
7.0
 10
180.34716796875
 20
626.93310546875
 30
0.0
 10
179.8310546875
 20
626.93310546875
 30
0.0
 10
179.3837890625
 20
626.89892578125
 30
0.0
 10
178.970703125
 20
626.76123046875
 30
0.0
 10
177.2158203125
 20
626.21044921875
 30
0.0
 10
175.7705078125
 20
624.73095703125
 30
0.0
 10
175.7705078125
 20
622.52880859375
 30
0.0
 10
175.7705078125
 20
619.638671875
 30
0.0
 10
178.2138671875
 20
617.57421875
 30
0.0
 10
182.0673828125
 20
617.57421875
 30
0.0
 10
185.33642578125
 20
617.57421875
 30
0.0
 10
188.0546875
 20
619.2255859375
 30
0.0
 10
188.0546875
 20
622.49462890625
 30
0.0
 10
188.0546875
 20
624.3525390625
 30
0.0
 10
186.884765625
 20
626.03857421875
 30
0.0
 10
184.95751953125
 20
626.6923828125
 30
0.0
 10
184.44140625
 20
626.8642578125
 30
0.0
 10
183.8564453125
 20
626.93310546875
 30
0.0
 10
183.34033203125
 20
626.93310546875
 30
0.0
 10
183.34033203125
 20
626.93310546875
 30
0.0
 10
180.34716796875
 20
626.93310546875
 30
0.0
 10
180.34716796875
 20
626.93310546875
 30
0.0
  0
HATCH
  5
DB
330
94
100
AcDbEntity
  8
Layer 2
 62
   250
420
  2301728
100
AcDbHatch
 10
0.0
 20
0.0
 30
0.0
210
0.0
220
0.0
230
1.0
  2
SOLID
 70
     1
 71
     0
 91
        2
 92
        1
 93
        1
 72
     4
 94
        3
 73
     0
 74
     1
 95
       56
 96
       52
 40
0.0
 40
0.0
 40
0.0
 40
0.0
 40
1.0
 40
1.0
 40
1.0
 40
2.0
 40
2.0
 40
2.0
 40
3.0
 40
3.0
 40
3.0
 40
4.0
 40
4.0
 40
4.0
 40
5.0
 40
5.0
 40
5.0
 40
6.0
 40
6.0
 40
6.0
 40
7.0
 40
7.0
 40
7.0
 40
8.0
 40
8.0
 40
8.0
 40
9.0
 40
9.0
 40
9.0
 40
10.0
 40
10.0
 40
10.0
 40
11.0
 40
11.0
 40
11.0
 40
12.0
 40
12.0
 40
12.0
 40
13.0
 40
13.0
 40
13.0
 40
14.0
 40
14.0
 40
14.0
 40
15.0
 40
15.0
 40
15.0
 40
16.0
 40
16.0
 40
16.0
 40
17.0
 40
17.0
 40
17.0
 40
17.0
 10
173.77490234375
 20
630.064453125
 10
174.9794921875
 20
629.99560546875
 10
176.3212890625
 20
629.9267578125
 10
178.35107421875
 20
629.9267578125
 10
178.35107421875
 20
629.9267578125
 10
188.02001953125
 20
629.9267578125
 10
188.02001953125
 20
629.9267578125
 10
191.83935546875
 20
629.9267578125
 10
194.17919921875
 20
629.169921875
 10
195.62451171875
 20
627.55224609375
 10
197.13818359375
 20
625.93505859375
 10
197.6201171875
 20
623.595703125
 10
197.6201171875
 20
621.49658203125
 10
197.6201171875
 20
619.5009765625
 10
197.13818359375
 20
617.298828125
 10
196.24365234375
 20
615.95703125
 10
196.24365234375
 20
615.95703125
 10
193.9384765625
 20
616.7138671875
 10
193.9384765625
 20
616.7138671875
 10
194.62646484375
 20
617.81494140625
 10
195.24609375
 20
619.53515625
 10
195.24609375
 20
621.599609375
 10
195.24609375
 20
624.69677734375
 10
193.62890625
 20
626.9677734375
 10
189.4306640625
 20
626.9677734375
 10
189.4306640625
 20
626.9677734375
 10
187.57275390625
 20
626.9677734375
 10
187.57275390625
 20
626.9677734375
 10
187.57275390625
 20
626.9677734375
 10
187.57275390625
 20
626.89892578125
 10
187.57275390625
 20
626.89892578125
 10
189.12109375
 20
625.9697265625
 10
190.35986328125
 20
624.1806640625
 10
190.35986328125
 20
621.599609375
 10
190.35986328125
 20
617.470703125
 10
186.85009765625
 20
614.51171875
 10
182.2392578125
 20
614.51171875
 10
176.5966796875
 20
614.51171875
 10
173.396484375
 20
618.193359375
 10
173.396484375
 20
622.0126953125
 10
173.396484375
 20
624.90283203125
 10
174.91064453125
 20
626.48583984375
 10
176.28662109375
 20
627.20849609375
 10
176.28662109375
 20
627.20849609375
 10
176.28662109375
 20
627.27734375
 10
176.28662109375
 20
627.27734375
 10
176.28662109375
 20
627.27734375
 10
173.77490234375
 20
627.4150390625
 10
173.77490234375
 20
627.4150390625
 10
173.77490234375
 20
627.4150390625
 10
173.77490234375
 20
630.064453125
 10
173.77490234375
 20
630.064453125
 97
        0
 97
        0
 92
        1
 93
        1
 72
     4
 94
        3
 73
     0
 74
     1
 95
       26
 96
       22
 40
0.0
 40
0.0
 40
0.0
 40
0.0
 40
1.0
 40
1.0
 40
1.0
 40
2.0
 40
2.0
 40
2.0
 40
3.0
 40
3.0
 40
3.0
 40
4.0
 40
4.0
 40
4.0
 40
5.0
 40
5.0
 40
5.0
 40
6.0
 40
6.0
 40
6.0
 40
7.0
 40
7.0
 40
7.0
 40
7.0
 10
180.34716796875
 20
626.93310546875
 10
179.8310546875
 20
626.93310546875
 10
179.3837890625
 20
626.89892578125
 10
178.970703125
 20
626.76123046875
 10
177.2158203125
 20
626.21044921875
 10
175.7705078125
 20
624.73095703125
 10
175.7705078125
 20
622.52880859375
 10
175.7705078125
 20
619.638671875
 10
178.2138671875
 20
617.57421875
 10
182.0673828125
 20
617.57421875
 10
185.33642578125
 20
617.57421875
 10
188.0546875
 20
619.2255859375
 10
188.0546875
 20
622.49462890625
 10
188.0546875
 20
624.3525390625
 10
186.884765625
 20
626.03857421875
 10
184.95751953125
 20
626.6923828125
 10
184.44140625
 20
626.8642578125
 10
183.8564453125
 20
626.93310546875
 10
183.34033203125
 20
626.93310546875
 10
183.34033203125
 20
626.93310546875
 10
180.34716796875
 20
626.93310546875
 10
180.34716796875
 20
626.93310546875
 97
        0
 97
        0
 75
     2
 76
     1
 98
        0
  0
ENDBLK
  5
97
330
94
100
AcDbEntity
  8
0
100
AcDbBlockEnd
  0
ENDSEC
  0
SECTION
  2
ENTITIES
  0
POLYLINE
  5
41
330
1F
100
AcDbEntity
  8
Layer 2
  6
AI-Linetype-1
 62
     7
420
 16777215
370
    30
100
AcDb2dPolyline
 66
     1
 10
0.0
 20
0.0
 30
0.0
  0
VERTEX
  5
42
330
41
100
AcDbEntity
  8
Layer 2
  6
AI-Linetype-1
 62
     7
420
 16777215
370
    30
100
AcDbVertex
100
AcDb2dVertex
 10
555.4568828936608
 20
396.1523771755255
 30
0.0
  0
VERTEX
  5
43
330
41
100
AcDbEntity
  8
Layer 2
  6
AI-Linetype-1
 62
     7
420
 16777215
370
    30
100
AcDbVertex
100
AcDb2dVertex
 10
39.39443572703112
 20
397.7062041885101
 30
0.0
  0
SEQEND
  5
45
330
41
100
AcDbEntity
  8
Layer 2
  6
AI-Linetype-1
 62
     7
420
 16777215
370
    30
  0
POLYLINE
  5
46
330
1F
100
AcDbEntity
  8
Layer 2
  6
AI-Linetype-2
 62
     7
420
 16777215
370
    30
100
AcDb2dPolyline
 66
     1
 10
0.0
 20
0.0
 30
0.0
  0
VERTEX
  5
47
330
46
100
AcDbEntity
  8
Layer 2
  6
AI-Linetype-2
 62
     7
420
 16777215
370
    30
100
AcDbVertex
100
AcDb2dVertex
 10
220.31661328676
 20
729.5388661054258
 30
0.0
  0
VERTEX
  5
48
330
46
100
AcDbEntity
  8
Layer 2
  6
AI-Linetype-2
 62
     7
420
 16777215
370
    30
100
AcDbVertex
100
AcDb2dVertex
 10
219.0339862280989
 20
65.6274540305858
 30
0.0
  0
SEQEND
  5
4A
330
46
100
AcDbEntity
  8
Layer 2
  6
AI-Linetype-2
 62
     7
420
 16777215
370
    30
  0
POLYLINE
  5
4B
330
1F
100
AcDbEntity
  8
Layer 2
  6
AI-Linetype-3
 62
     7
420
 16777215
370
    30
100
AcDb2dPolyline
 66
     1
 10
0.0
 20
0.0
 30
0.0
  0
VERTEX
  5
4C
330
4B
100
AcDbEntity
  8
Layer 2
  6
AI-Linetype-3
 62
     7
420
 16777215
370
    30
100
AcDbVertex
100
AcDb2dVertex
 10
255.0578556087812
 20
735.9441722050369
 30
0.0
  0
VERTEX
  5
4D
330
4B
100
AcDbEntity
  8
Layer 2
  6
AI-Linetype-3
 62
     7
420
 16777215
370
    30
100
AcDbVertex
100
AcDb2dVertex
 10
253.3758210182104
 20
58.48844764128808
 30
0.0
  0
SEQEND
  5
4F
330
4B
100
AcDbEntity
  8
Layer 2
  6
AI-Linetype-3
 62
     7
420
 16777215
370
    30
  0
POLYLINE
  5
50
330
1F
100
AcDbEntity
  8
Layer 2
  6
AI-Linetype-4
 62
     7
420
 16777215
370
    30
100
AcDb2dPolyline
 66
     1
 10
0.0
 20
0.0
 30
0.0
  0
VERTEX
  5
51
330
50
100
AcDbEntity
  8
Layer 2
  6
AI-Linetype-4
 62
     7
420
 16777215
370
    30
100
AcDbVertex
100
AcDb2dVertex
 10
314.7376827258049
 20
724.1730918939484
 30
0.0
  0
VERTEX
  5
52
330
50
100
AcDbEntity
  8
Layer 2
  6
AI-Linetype-4
 62
     7
420
 16777215
370
    30
100
AcDbVertex
100
AcDb2dVertex
 10
313.8044852022249
 20
69.66228869265251
 30
0.0
  0
SEQEND
  5
54
330
50
100
AcDbEntity
  8
Layer 2
  6
AI-Linetype-4
 62
     7
420
 16777215
370
    30
  0
POLYLINE
  5
55
330
1F
100
AcDbEntity
  8
Layer 2
  6
AI-Linetype-5
 62
     7
420
 16777215
370
    30
100
AcDb2dPolyline
 66
     1
 10
0.0
 20
0.0
 30
0.0
  0
VERTEX
  5
56
330
55
100
AcDbEntity
  8
Layer 2
  6
AI-Linetype-5
 62
     7
420
 16777215
370
    30
100
AcDbVertex
100
AcDb2dVertex
 10
349.6741970790572
 20
731.3191489361689
 30
0.0
  0
VERTEX
  5
57
330
55
100
AcDbEntity
  8
Layer 2
  6
AI-Linetype-5
 62
     7
420
 16777215
370
    30
100
AcDbVertex
100
AcDb2dVertex
 10
348.1476863520129
 20
62.52029738683632
 30
0.0
  0
SEQEND
  5
59
330
55
100
AcDbEntity
  8
Layer 2
  6
AI-Linetype-5
 62
     7
420
 16777215
370
    30
  0
POLYLINE
  5
5A
330
1F
100
AcDbEntity
  8
Layer 2
  6
AI-Linetype-6
 62
     7
420
 16777215
370
    30
100
AcDb2dPolyline
 66
     1
 10
0.0
 20
0.0
 30
0.0
  0
VERTEX
  5
5B
330
5A
100
AcDbEntity
  8
Layer 2
  6
AI-Linetype-6
 62
     7
420
 16777215
370
    30
100
AcDbVertex
100
AcDb2dVertex
 10
409.1320090962436
 20
718.9252621067153
 30
0.0
  0
VERTEX
  5
5C
330
5A
100
AcDbEntity
  8
Layer 2
  6
AI-Linetype-6
 62
     7
420
 16777215
370
    30
100
AcDbVertex
100
AcDb2dVertex
 10
408.5175974814247
 20
73.69725600300444
 30
0.0
  0
SEQEND
  5
5E
330
5A
100
AcDbEntity
  8
Layer 2
  6
AI-Linetype-6
 62
     7
420
 16777215
370
    30
  0
POLYLINE
  5
5F
330
1F
100
AcDbEntity
  8
Layer 2
  6
AI-Linetype-7
 62
     7
420
 16777215
370
    30
100
AcDb2dPolyline
 66
     1
 10
0.0
 20
0.0
 30
0.0
  0
VERTEX
  5
60
330
5F
100
AcDbEntity
  8
Layer 2
  6
AI-Linetype-7
 62
     7
420
 16777215
370
    30
100
AcDbVertex
100
AcDb2dVertex
 10
444.5531914893618
 20
726.9819155054947
 30
0.0
  0
VERTEX
  5
61
330
5F
100
AcDbEntity
  8
Layer 2
  6
AI-Linetype-7
 62
     7
420
 16777215
370
    30
100
AcDbVertex
100
AcDb2dVertex
 10
442.9164018820557
 20
66.50928234178355
 30
0.0
  0
SEQEND
  5
63
330
5F
100
AcDbEntity
  8
Layer 2
  6
AI-Linetype-7
 62
     7
420
 16777215
370
    30
  0
POLYLINE
  5
64
330
1F
100
AcDbEntity
  8
Layer 2
 62
     7
420
 16777215
370
    30
100
AcDb2dPolyline
 66
     1
 10
0.0
 20
0.0
 30
0.0
  0
VERTEX
  5
65
330
64
100
AcDbEntity
  8
Layer 2
 62
     7
420
 16777215
370
    30
100
AcDbVertex
100
AcDb2dVertex
 10
207.7750079905163
 20
347.1005394342865
 30
0.0
  0
VERTEX
  5
66
330
64
100
AcDbEntity
  8
Layer 2
 62
     7
420
 16777215
370
    30
100
AcDbVertex
100
AcDb2dVertex
 10
106.4566860932282
 20
347.4056067766178
 30
0.0
  0
SEQEND
  5
67
330
64
100
AcDbEntity
  8
Layer 2
 62
     7
420
 16777215
370
    30
  0
INSERT
  5
69
330
1F
100
AcDbEntity
  8
Layer 2
100
AcDbBlockReference
  2
block 2
 10
0.0
 20
0.0
 30
0.0
  0
INSERT
  5
95
330
1F
100
AcDbEntity
  8
Layer 2
100
AcDbBlockReference
  2
block 3
 10
0.0
 20
0.0
 30
0.0
  0
POLYLINE
  5
DC
330
1F
100
AcDbEntity
  8
Layer 2
 62
     7
420
 16777215
370
    30
100
AcDb2dPolyline
 66
     1
 10
0.0
 20
0.0
 30
0.0
  0
VERTEX
  5
DD
330
DC
100
AcDbEntity
  8
Layer 2
 62
     7
420
 16777215
370
    30
100
AcDbVertex
100
AcDb2dVertex
 10
177.7522084081638
 20
391.4225329204855
 30
0.0
  0
VERTEX
  5
DE
330
DC
100
AcDbEntity
  8
Layer 2
 62
     7
420
 16777215
370
    30
100
AcDbVertex
100
AcDb2dVertex
 10
169.2586889178938
 20
397.8349463898567
 30
0.0
  0
VERTEX
  5
DF
330
DC
100
AcDbEntity
  8
Layer 2
 62
     7
420
 16777215
370
    30
100
AcDbVertex
100
AcDb2dVertex
 10
177.3747256941288
 20
403.111217415697
 30
0.0
  0
VERTEX
  5
E0
330
DC
100
AcDbEntity
  8
Layer 2
 62
     7
420
 16777215
370
    30
100
AcDbVertex
100
AcDb2dVertex
 10
177.7522084081638
 20
391.4225329204855
 30
0.0
  0
SEQEND
  5
E1
330
DC
100
AcDbEntity
  8
Layer 2
 62
     7
420
 16777215
370
    30
  0
POLYLINE
  5
E2
330
1F
100
AcDbEntity
  8
Layer 2
 62
     7
420
 16777215
370
    30
100
AcDb2dPolyline
 66
     1
 10
0.0
 20
0.0
 30
0.0
  0
VERTEX
  5
E3
330
E2
100
AcDbEntity
  8
Layer 2
 62
     7
420
 16777215
370
    30
100
AcDbVertex
100
AcDb2dVertex
 10
486.2824881081597
 20
390.8306029089563
 30
0.0
  0
VERTEX
  5
E4
330
E2
100
AcDbEntity
  8
Layer 2
 62
     7
420
 16777215
370
    30
100
AcDbVertex
100
AcDb2dVertex
 10
494.7280018682832
 20
397.3061119361591
 30
0.0
  0
VERTEX
  5
E5
330
E2
100
AcDbEntity
  8
Layer 2
 62
     7
420
 16777215
370
    30
100
AcDbVertex
100
AcDb2dVertex
 10
486.5728840869851
 20
402.5217751599967
 30
0.0
  0
VERTEX
  5
E6
330
E2
100
AcDbEntity
  8
Layer 2
 62
     7
420
 16777215
370
    30
100
AcDbVertex
100
AcDb2dVertex
 10
486.2824881081597
 20
390.8306029089563
 30
0.0
  0
SEQEND
  5
E7
330
E2
100
AcDbEntity
  8
Layer 2
 62
     7
420
 16777215
370
    30
  0
POLYLINE
  5
E8
330
1F
100
AcDbEntity
  8
Layer 2
 62
     7
420
 16777215
370
    30
100
AcDb2dPolyline
 66
     1
 10
0.0
 20
0.0
 30
0.0
  0
VERTEX
  5
E9
330
E8
100
AcDbEntity
  8
Layer 2
 62
     7
420
 16777215
370
    30
100
AcDbVertex
100
AcDb2dVertex
 10
39.39443572703112
 20
397.7062041885101
 30
0.0
  0
VERTEX
  5
109
330
E8
100
AcDbEntity
  8
0
100
AcDbVertex
100
AcDb2dVertex
 10
39.39443572703112
 20
397.7062041885101
 30
0.0
  0
SEQEND
  5
EA
330
E8
100
AcDbEntity
  8
Layer 2
 62
     7
420
 16777215
370
    30
  0
POLYLINE
  5
EB
330
1F
100
AcDbEntity
  8
Layer 2
  6
AI-Linetype-8
 62
     7
420
 16777215
370
    30
100
AcDb2dPolyline
 66
     1
 10
0.0
 20
0.0
 30
0.0
  0
VERTEX
  5
EC
330
EB
100
AcDbEntity
  8
Layer 2
  6
AI-Linetype-8
 62
     7
420
 16777215
370
    30
100
AcDbVertex
100
AcDb2dVertex
 10
75.44700179122174
 20
397.7311075249727
 30
0.0
  0
VERTEX
  5
ED
330
EB
100
AcDbEntity
  8
Layer 2
  6
AI-Linetype-8
 62
     7
420
 16777215
370
    30
100
AcDbVertex
100
AcDb2dVertex
 10
168.48814735427
 20
705.7330096402875
 30
0.0
  0
VERTEX
  5
EE
330
EB
100
AcDbEntity
  8
Layer 2
  6
AI-Linetype-8
 62
     7
420
 16777215
370
    30
100
AcDbVertex
100
AcDb2dVertex
 10
490.6411677239939
 20
690.2305714395916
 30
0.0
  0
VERTEX
  5
EF
330
EB
100
AcDbEntity
  8
Layer 2
  6
AI-Linetype-8
 62
     7
420
 16777215
370
    30
100
AcDbVertex
100
AcDb2dVertex
 10
521.1325940311581
 20
396.5366947206321
 30
0.0
  0
VERTEX
  5
F0
330
EB
100
AcDbEntity
  8
Layer 2
  6
AI-Linetype-8
 62
     7
420
 16777215
370
    30
100
AcDbVertex
100
AcDb2dVertex
 10
489.5931442108085
 20
103.0090573282305
 30
0.0
  0
VERTEX
  5
F1
330
EB
100
AcDbEntity
  8
Layer 2
  6
AI-Linetype-8
 62
     7
420
 16777215
370
    30
100
AcDbVertex
100
AcDb2dVertex
 10
167.3616311800079
 20
89.2334757887329
 30
0.0
  0
VERTEX
  5
F2
330
EB
100
AcDbEntity
  8
Layer 2
  6
AI-Linetype-8
 62
     7
420
 16777215
370
    30
100
AcDbVertex
100
AcDb2dVertex
 10
75.44700179122174
 20
397.7311075249727
 30
0.0
  0
SEQEND
  5
F4
330
EB
100
AcDbEntity
  8
Layer 2
  6
AI-Linetype-8
 62
     7
420
 16777215
370
    30
  0
POLYLINE
  5
F5
330
1F
100
AcDbEntity
  8
Layer 2
  6
AI-Linetype-9
 62
     7
420
 16777215
370
    30
100
AcDb2dPolyline
 66
     1
 10
0.0
 20
0.0
 30
0.0
  0
VERTEX
  5
F6
330
F5
100
AcDbEntity
  8
Layer 2
  6
AI-Linetype-9
 62
     7
420
 16777215
370
    30
100
AcDbVertex
100
AcDb2dVertex
 10
65.99464340645318
 20
454.0117606709973
 30
0.0
  0
VERTEX
  5
F7
330
F5
100
AcDbEntity
  8
Layer 2
  6
AI-Linetype-9
 62
     7
420
 16777215
370
    30
100
AcDbVertex
100
AcDb2dVertex
 10
169.2586889178938
 20
397.8349463898567
 30
0.0
  0
VERTEX
  5
F8
330
F5
100
AcDbEntity
  8
Layer 2
  6
AI-Linetype-9
 62
     7
420
 16777215
370
    30
100
AcDbVertex
100
AcDb2dVertex
 10
66.22573980472225
 20
341.5891690620483
 30
0.0
  0
SEQEND
  5
FA
330
F5
100
AcDbEntity
  8
Layer 2
  6
AI-Linetype-9
 62
     7
420
 16777215
370
    30
  0
POLYLINE
  5
FB
330
1F
100
AcDbEntity
  8
Layer 2
  6
AI-Linetype-10
 62
     7
420
 16777215
370
    30
100
AcDb2dPolyline
 66
     1
 10
0.0
 20
0.0
 30
0.0
  0
VERTEX
  5
FC
330
FB
100
AcDbEntity
  8
Layer 2
  6
AI-Linetype-10
 62
     7
420
 16777215
370
    30
100
AcDbVertex
100
AcDb2dVertex
 10
540.8739078644721
 20
345.7172203062182
 30
0.0
  0
VERTEX
  5
FD
330
FB
100
AcDbEntity
  8
Layer 2
  6
AI-Linetype-10
 62
     7
420
 16777215
370
    30
100
AcDbVertex
100
AcDb2dVertex
 10
494.7280018682832
 20
397.3061119361591
 30
0.0
  0
VERTEX
  5
FE
330
FB
100
AcDbEntity
  8
Layer 2
  6
AI-Linetype-10
 62
     7
420
 16777215
370
    30
100
AcDbVertex
100
AcDb2dVertex
 10
541.471107081994
 20
448.6838042225045
 30
0.0
  0
SEQEND
  5
100
330
FB
100
AcDbEntity
  8
Layer 2
  6
AI-Linetype-10
 62
     7
420
 16777215
370
    30
  0
POLYLINE
  5
101
330
1F
100
AcDbEntity
  8
Layer 2
 62
     7
420
 16777215
370
    30
100
AcDb2dPolyline
 66
     1
 10
0.0
 20
0.0
 30
0.0
  0
VERTEX
  5
102
330
101
100
AcDbEntity
  8
Layer 2
 62
     7
420
 16777215
370
    30
100
AcDbVertex
100
AcDb2dVertex
 10
555.7205133069474
 20
396.444001004752
 30
0.0
  0
VERTEX
  5
10A
330
101
100
AcDbEntity
  8
0
100
AcDbVertex
100
AcDb2dVertex
 10
555.7205133069474
 20
396.444001004752
 30
0.0
  0
SEQEND
  5
103
330
101
100
AcDbEntity
  8
Layer 2
 62
     7
420
 16777215
370
    30
  0
POLYLINE
  5
104
330
1F
100
AcDbEntity
  8
Layer 2
  6
AI-Linetype-11
 62
     7
420
 16777215
370
    30
100
AcDb2dPolyline
 66
     1
 10
0.0
 20
0.0
 30
0.0
  0
VERTEX
  5
105
330
104
100
AcDbEntity
  8
Layer 2
  6
AI-Linetype-11
 62
     7
420
 16777215
370
    30
100
AcDbVertex
100
AcDb2dVertex
 10
39.39767799152287
 20
397.6385149024536
 30
0.0
  0
VERTEX
  5
10B
330
104
100
AcDbEntity
  8
0
100
AcDbVertex
100
AcDb2dVertex
 10
39.39767799152287
 20
397.6385149024536
 30
0.0
  0
SEQEND
  5
107
330
104
100
AcDbEntity
  8
Layer 2
  6
AI-Linetype-11
 62
     7
420
 16777215
370
    30
  0
SPLINE
  5
108
330
1F
100
AcDbEntity
  8
Layer 2
 62
     7
420
 16777215
370
    30
100
AcDbSpline
210
0.0
220
0.0
230
1.0
 70
    11
 71
     3
 72
   173
 73
   169
 74
     0
 42
0.0000000001
 43
0.0000000001
 12
1.0
 22
0.0
 32
0.0
 13
1.0
 23
0.0
 33
0.0
 40
0.0
 40
0.0
 40
0.0
 40
0.0
 40
1.0
 40
1.0
 40
1.0
 40
2.0
 40
2.0
 40
2.0
 40
3.0
 40
3.0
 40
3.0
 40
4.0
 40
4.0
 40
4.0
 40
5.0
 40
5.0
 40
5.0
 40
6.0
 40
6.0
 40
6.0
 40
7.0
 40
7.0
 40
7.0
 40
8.0
 40
8.0
 40
8.0
 40
9.0
 40
9.0
 40
9.0
 40
10.0
 40
10.0
 40
10.0
 40
11.0
 40
11.0
 40
11.0
 40
12.0
 40
12.0
 40
12.0
 40
13.0
 40
13.0
 40
13.0
 40
14.0
 40
14.0
 40
14.0
 40
15.0
 40
15.0
 40
15.0
 40
16.0
 40
16.0
 40
16.0
 40
17.0
 40
17.0
 40
17.0
 40
18.0
 40
18.0
 40
18.0
 40
19.0
 40
19.0
 40
19.0
 40
20.0
 40
20.0
 40
20.0
 40
21.0
 40
21.0
 40
21.0
 40
22.0
 40
22.0
 40
22.0
 40
23.0
 40
23.0
 40
23.0
 40
24.0
 40
24.0
 40
24.0
 40
25.0
 40
25.0
 40
25.0
 40
26.0
 40
26.0
 40
26.0
 40
27.0
 40
27.0
 40
27.0
 40
28.0
 40
28.0
 40
28.0
 40
29.0
 40
29.0
 40
29.0
 40
30.0
 40
30.0
 40
30.0
 40
31.0
 40
31.0
 40
31.0
 40
32.0
 40
32.0
 40
32.0
 40
33.0
 40
33.0
 40
33.0
 40
34.0
 40
34.0
 40
34.0
 40
35.0
 40
35.0
 40
35.0
 40
36.0
 40
36.0
 40
36.0
 40
37.0
 40
37.0
 40
37.0
 40
38.0
 40
38.0
 40
38.0
 40
39.0
 40
39.0
 40
39.0
 40
40.0
 40
40.0
 40
40.0
 40
41.0
 40
41.0
 40
41.0
 40
42.0
 40
42.0
 40
42.0
 40
43.0
 40
43.0
 40
43.0
 40
44.0
 40
44.0
 40
44.0
 40
45.0
 40
45.0
 40
45.0
 40
46.0
 40
46.0
 40
46.0
 40
47.0
 40
47.0
 40
47.0
 40
48.0
 40
48.0
 40
48.0
 40
49.0
 40
49.0
 40
49.0
 40
50.0
 40
50.0
 40
50.0
 40
51.0
 40
51.0
 40
51.0
 40
52.0
 40
52.0
 40
52.0
 40
53.0
 40
53.0
 40
53.0
 40
54.0
 40
54.0
 40
54.0
 40
55.0
 40
55.0
 40
55.0
 40
56.0
 40
56.0
 40
56.0
 40
56.0
 10
549.1961196497541
 20
337.3633192994694
 30
0.0
 10
549.1961196497541
 20
337.3633192994694
 30
0.0
 10
540.8739078644721
 20
345.7172203062182
 30
0.0
 10
540.8739078644721
 20
345.7172203062182
 30
0.0
 10
540.8739078644721
 20
345.7172203062182
 30
0.0
 10
550.4357488958194
 20
350.3914604364145
 30
0.0
 10
550.4357488958194
 20
350.3914604364145
 30
0.0
 10
550.4382334066922
 20
350.4138130575557
 30
0.0
 10
555.7847734549559
 20
395.883155388763
 30
0.0
 10
555.8011908714034
 20
396.0310363574408
 30
0.0
 10
555.8023325754839
 20
396.2131204543784
 30
0.0
 10
555.8000491673229
 20
395.8489522604996
 30
0.0
 10
555.8011908714034
 20
396.0310363574408
 30
0.0
 10
555.7051257338026
 20
396.978943532029
 30
0.0
 10
550.6762219982211
 20
444.3054367683035
 30
0.0
 10
550.6629737858675
 20
444.4360846519212
 30
0.0
 10
550.6629737858675
 20
444.4360846519212
 30
0.0
 10
541.471107081994
 20
448.6838042225045
 30
0.0
 10
541.471107081994
 20
448.6838042225045
 30
0.0
 10
541.471107081994
 20
448.6838042225045
 30
0.0
 10
549.370195009571
 20
456.8515567603372
 30
0.0
 10
549.370195009571
 20
456.8515567603372
 30
0.0
 10
549.370195009571
 20
456.8515567603372
 30
0.0
 10
521.8714547334075
 20
723.1907394134942
 30
0.0
 10
521.8714547334075
 20
723.1907394134942
 30
0.0
 10
521.8714547334075
 20
723.1907394134942
 30
0.0
 10
485.2149950098792
 20
725.0587747430591
 30
0.0
 10
485.2149950098792
 20
725.0587747430591
 30
0.0
 10
485.2149950098792
 20
725.0587747430591
 30
0.0
 10
478.9746467910845
 20
716.3869382001776
 30
0.0
 10
478.9746467910845
 20
716.3869382001776
 30
0.0
 10
478.9746467910845
 20
716.3869382001776
 30
0.0
 10
472.9990461726084
 20
725.663498665579
 30
0.0
 10
472.9990461726084
 20
725.663498665579
 30
0.0
 10
472.9990461726084
 20
725.663498665579
 30
0.0
 10
416.284048245454
 20
728.277080188127
 30
0.0
 10
416.284048245454
 20
728.277080188127
 30
0.0
 10
416.284048245454
 20
728.277080188127
 30
0.0
 10
409.1320090962436
 20
718.9252621067153
 30
0.0
 10
409.1320090962436
 20
718.9252621067153
 30
0.0
 10
409.1320090962436
 20
718.9252621067153
 30
0.0
 10
404.0678512008308
 20
728.8817172164017
 30
0.0
 10
404.0678512008308
 20
728.8817172164017
 30
0.0
 10
404.0678512008308
 20
728.8817172164017
 30
0.0
 10
390.7258814410015
 20
729.2969483051602
 30
0.0
 10
390.7258814410015
 20
729.2969483051602
 30
0.0
 10
390.7258814410015
 20
729.2969483051602
 30
0.0
 10
384.2228351570338
 20
720.9962276506076
 30
0.0
 10
384.2228351570338
 20
720.9962276506076
 30
0.0
 10
384.2228351570338
 20
720.9962276506076
 30
0.0
 10
378.5094363372355
 20
729.9015567886108
 30
0.0
 10
378.5094363372355
 20
729.9015567886108
 30
0.0
 10
378.5094363372355
 20
729.9015567886108
 30
0.0
 10
321.536580366108
 20
732.8197833792565
 30
0.0
 10
321.536580366108
 20
732.8197833792565
 30
0.0
 10
321.536580366108
 20
732.8197833792565
 30
0.0
 10
314.7376827258049
 20
724.1730918939484
 30
0.0
 10
314.7376827258049
 20
724.1730918939484
 30
0.0
 10
314.7376827258049
 20
724.1730918939484
 30
0.0
 10
309.3203687341265
 20
733.4244204445822
 30
0.0
 10
309.3203687341265
 20
733.4244204445822
 30
0.0
 10
309.3203687341265
 20
733.4244204445822
 30
0.0
 10
295.9748231003141
 20
733.8995331845827
 30
0.0
 10
295.9748231003141
 20
733.8995331845827
 30
0.0
 10
295.9748231003141
 20
733.8995331845827
 30
0.0
 10
289.4146819077496
 20
725.5989575520452
 30
0.0
 10
289.4146819077496
 20
725.5989575520452
 30
0.0
 10
289.4146819077496
 20
725.5989575520452
 30
0.0
 10
283.7586405689399
 20
734.5041410010945
 30
0.0
 10
283.7586405689399
 20
734.5041410010945
 30
0.0
 10
283.7586405689399
 20
734.5041410010945
 30
0.0
 10
226.7893313711902
 20
737.3625151893157
 30
0.0
 10
226.7893313711902
 20
737.3625151893157
 30
0.0
 10
226.7893313711902
 20
737.3625151893157
 30
0.0
 10
220.2862559125124
 20
729.0617946088669
 30
0.0
 10
220.2862559125124
 20
729.0617946088669
 30
0.0
 10
220.2862559125124
 20
729.0617946088669
 30
0.0
 10
214.5731197392124
 20
737.9671522546396
 30
0.0
 10
214.5731197392124
 20
737.9671522546396
 30
0.0
 10
214.5731197392124
 20
737.9671522546396
 30
0.0
 10
143.3404281060566
 20
741.3602408298966
 30
0.0
 10
143.3404281060566
 20
741.3602408298966
 30
0.0
 10
143.3404281060566
 20
741.3602408298966
 30
0.0
 10
59.33377836518594
 20
463.9334082879686
 30
0.0
 10
59.33377836518594
 20
463.9334082879686
 30
0.0
 10
59.33377836518594
 20
463.9334082879686
 30
0.0
 10
65.99464340645318
 20
454.0117606709973
 30
0.0
 10
65.99464340645318
 20
454.0117606709973
 30
0.0
 10
65.99464340645318
 20
454.0117606709973
 30
0.0
 10
55.34565257851409
 20
451.0347887719672
 30
0.0
 10
55.34565257851409
 20
451.0347887719672
 30
0.0
 10
55.34147306457271
 20
451.0208178058074
 30
0.0
 10
39.42904341696976
 20
397.7432968336379
 30
0.0
 10
39.39767799152287
 20
397.6385149024536
 30
0.0
 10
39.39744224593233
 20
397.7852368043841
 30
0.0
 10
39.39720599633893
 20
397.9319281929002
 30
0.0
 10
39.39697025074838
 20
398.0786500948343
 30
0.0
 10
39.44749952669099
 20
397.9094880831726
 30
0.0
 10
55.50859960328307
 20
344.4720930457552
 30
0.0
 10
55.51538534831707
 20
344.4493643531114
 30
0.0
 10
55.51538534831707
 20
344.4493643531114
 30
0.0
 10
66.22573980472225
 20
341.5891690620483
 30
0.0
 10
66.22573980472225
 20
341.5891690620483
 30
0.0
 10
66.22573980472225
 20
341.5891690620483
 30
0.0
 10
59.22891686361618
 20
331.4574539378336
 30
0.0
 10
59.22891686361618
 20
331.4574539378336
 30
0.0
 10
59.22891686361618
 20
331.4574539378336
 30
0.0
 10
142.0232874886424
 20
53.74160281701916
 30
0.0
 10
142.0232874886424
 20
53.74160281701916
 30
0.0
 10
142.0232874886424
 20
53.74160281701916
 30
0.0
 10
213.2729381549143
 20
56.75284660244506
 30
0.0
 10
213.2729381549143
 20
56.75284660244506
 30
0.0
 10
213.2729381549143
 20
56.75284660244506
 30
0.0
 10
219.0339862280989
 20
65.6274540305858
 30
0.0
 10
219.0339862280989
 20
65.6274540305858
 30
0.0
 10
219.0339862280989
 20
65.6274540305858
 30
0.0
 10
225.4924776488306
 20
57.29199716582661
 30
0.0
 10
225.4924776488306
 20
57.29199716582661
 30
0.0
 10
225.4924776488306
 20
57.29199716582661
 30
0.0
 10
281.8821561862214
 20
59.71163016332503
 30
0.0
 10
281.8821561862214
 20
59.71163016332503
 30
0.0
 10
281.8821561862214
 20
59.71163016332503
 30
0.0
 10
287.585875996122
 20
68.58639924989802
 30
0.0
 10
287.585875996122
 20
68.58639924989802
 30
0.0
 10
287.585875996122
 20
68.58639924989802
 30
0.0
 10
294.1014331079414
 20
60.25078146712622
 30
0.0
 10
294.1014331079414
 20
60.25078146712622
 30
0.0
 10
294.1014331079414
 20
60.25078146712622
 30
0.0
 10
308.0436703620144
 20
60.78762225698665
 30
0.0
 10
308.0436703620144
 20
60.78762225698665
 30
0.0
 10
308.0436703620144
 20
60.78762225698665
 30
0.0
 10
313.8044852022249
 20
69.66228869265251
 30
0.0
 10
313.8044852022249
 20
69.66228869265251
 30
0.0
 10
313.8044852022249
 20
69.66228869265251
 30
0.0
 10
320.2627140507611
 20
61.3268325683166
 30
0.0
 10
320.2627140507611
 20
61.3268325683166
 30
0.0
 10
320.2627140507611
 20
61.3268325683166
 30
0.0
 10
376.7841244338688
 20
63.74592461748762
 30
0.0
 10
376.7841244338688
 20
63.74592461748762
 30
0.0
 10
376.7841244338688
 20
63.74592461748762
 30
0.0
 10
382.5449099348571
 20
72.62053278604799
 30
0.0
 10
382.5449099348571
 20
72.62053278604799
 30
0.0
 10
382.5449099348571
 20
72.62053278604799
 30
0.0
 10
389.0031096087023
 20
64.28507674397952
 30
0.0
 10
389.0031096087023
 20
64.28507674397952
 30
0.0
 10
389.0031096087023
 20
64.28507674397952
 30
0.0
 10
402.8141399969136
 20
64.82239865194606
 30
0.0
 10
402.8141399969136
 20
64.82239865194606
 30
0.0
 10
402.8141399969136
 20
64.82239865194606
 30
0.0
 10
408.5175974814247
 20
73.69725600300444
 30
0.0
 10
408.5175974814247
 20
73.69725600300444
 30
0.0
 10
408.5175974814247
 20
73.69725600300444
 30
0.0
 10
415.033402331288
 20
65.36154999688006
 30
0.0
 10
415.033402331288
 20
65.36154999688006
 30
0.0
 10
415.033402331288
 20
65.36154999688006
 30
0.0
 10
471.2520709604742
 20
67.67564766975192
 30
0.0
 10
471.2520709604742
 20
67.67564766975192
 30
0.0
 10
471.2520709604742
 20
67.67564766975192
 30
0.0
 10
477.0128858829557
 20
76.55034328011061
 30
0.0
 10
477.0128858829557
 20
76.55034328011061
 30
0.0
 10
477.0128858829557
 20
76.55034328011061
 30
0.0
 10
483.4713332948486
 20
68.21479901468956
 30
0.0
 10
483.4713332948486
 20
68.21479901468956
 30
0.0
 10
483.4713332948486
 20
68.21479901468956
 30
0.0
 10
520.6463210295406
 20
69.88197310666328
 30
0.0
 10
520.6463210295406
 20
69.88197310666328
 30
0.0
 10
520.6463210295406
 20
69.88197310666328
 30
0.0
 10
549.1961196497541
 20
337.3633192994694
 30
0.0
 10
549.1961196497541
 20
337.3633192994694
 30
0.0
  0
ENDSEC
  0
SECTION
  2
OBJECTS
  0
DICTIONARY
  5
C
330
0
100
AcDbDictionary
281
     1
  3
ACAD_GROUP
350
D
  3
ACAD_LAYOUT
350
1A
  3
ACAD_MATERIAL
350
3B
  3
ACAD_MLEADERSTYLE
350
10D
  3
ACAD_MLINESTYLE
350
17
  3
ACAD_PLOTSETTINGS
350
19
  3
ACAD_PLOTSTYLENAME
350
E
  3
ACAD_TABLESTYLE
350
10C
  3
ACAD_VISUALSTYLE
350
2A
  0
SUN
  5
3F
330
29
100
AcDbSun
 90
        1
290
     0
 63
     7
421
 16777215
 40
1.0
291
     1
 91
  2455826
 92
 54000000
292
     0
 70
     2
 71
   256
280
     1
  0
DICTIONARY
  5
D
102
{ACAD_REACTORS
330
C
102
}
330
C
100
AcDbDictionary
281
     1
  0
DICTIONARY
  5
1A
102
{ACAD_REACTORS
330
C
102
}
330
C
100
AcDbDictionary
281
     1
  3
Layout1
350
1E
  3
Layout2
350
26
  3
Model
350
22
  0
DICTIONARY
  5
3B
102
{ACAD_REACTORS
330
C
102
}
330
C
100
AcDbDictionary
281
     1
  3
ByBlock
350
3D
  3
ByLayer
350
3C
  3
Global
350
3E
  0
DICTIONARY
  5
10D
102
{ACAD_REACTORS
330
C
102
}
330
C
100
AcDbDictionary
281
     1
  0
DICTIONARY
  5
17
102
{ACAD_REACTORS
330
C
102
}
330
C
100
AcDbDictionary
281
     1
  3
Standard
350
18
  0
DICTIONARY
  5
19
102
{ACAD_REACTORS
330
C
102
}
330
C
100
AcDbDictionary
281
     1
  0
ACDBDICTIONARYWDFLT
  5
E
102
{ACAD_REACTORS
330
C
102
}
330
C
100
AcDbDictionary
281
     1
  3
Normal
350
F
100
AcDbDictionaryWithDefault
340
F
  0
DICTIONARY
  5
10C
102
{ACAD_REACTORS
330
C
102
}
330
C
100
AcDbDictionary
281
     1
  0
DICTIONARY
  5
2A
102
{ACAD_REACTORS
330
C
102
}
330
C
100
AcDbDictionary
281
     1
  3
2dWireframe
350
2F
  3
3D Hidden
350
31
  3
3dWireframe
350
30
  3
Basic
350
32
  3
Brighten
350
36
  3
ColorChange
350
3A
  3
Conceptual
350
34
  3
Dim
350
35
  3
Facepattern
350
39
  3
Flat
350
2B
  3
FlatWithEdges
350
2C
  3
Gouraud
350
2D
  3
GouraudWithEdges
350
2E
  3
Linepattern
350
38
  3
Realistic
350
33
  3
Thicken
350
37
  0
LAYOUT
  5
1E
102
{ACAD_REACTORS
330
1A
102
}
330
1A
100
AcDbPlotSettings
  1

  2
none_device
  4

  6

 40
0.0
 41
0.0
 42
0.0
 43
0.0
 44
0.0
 45
0.0
 46
0.0
 47
0.0
 48
0.0
 49
0.0
140
0.0
141
0.0
142
1.0
143
1.0
 70
   688
 72
     0
 73
     0
 74
     5
  7

 75
    16
 76
     0
 77
     2
 78
   300
147
1.0
148
0.0
149
0.0
100
AcDbLayout
  1
Layout1
 70
     1
 71
     1
 10
0.0
 20
0.0
 11
12.0
 21
9.0
 12
0.0
 22
0.0
 32
0.0
 14
1.000000000000000E+20
 24
1.000000000000000E+20
 34
1.000000000000000E+20
 15
-1.000000000000000E+20
 25
-1.000000000000000E+20
 35
-1.000000000000000E+20
146
0.0
 13
0.0
 23
0.0
 33
0.0
 16
1.0
 26
0.0
 36
0.0
 17
0.0
 27
1.0
 37
0.0
 76
     0
330
1B
  0
LAYOUT
  5
26
102
{ACAD_REACTORS
330
1A
102
}
330
1A
100
AcDbPlotSettings
  1

  2
none_device
  4

  6

 40
0.0
 41
0.0
 42
0.0
 43
0.0
 44
0.0
 45
0.0
 46
0.0
 47
0.0
 48
0.0
 49
0.0
140
0.0
141
0.0
142
1.0
143
1.0
 70
   688
 72
     0
 73
     0
 74
     5
  7

 75
    16
 76
     0
 77
     2
 78
   300
147
1.0
148
0.0
149
0.0
100
AcDbLayout
  1
Layout2
 70
     1
 71
     2
 10
0.0
 20
0.0
 11
0.0
 21
0.0
 12
0.0
 22
0.0
 32
0.0
 14
0.0
 24
0.0
 34
0.0
 15
0.0
 25
0.0
 35
0.0
146
0.0
 13
0.0
 23
0.0
 33
0.0
 16
1.0
 26
0.0
 36
0.0
 17
0.0
 27
1.0
 37
0.0
 76
     0
330
23
  0
LAYOUT
  5
22
102
{ACAD_REACTORS
330
1A
102
}
330
1A
100
AcDbPlotSettings
  1

  2
none_device
  4

  6

 40
0.0
 41
0.0
 42
0.0
 43
0.0
 44
0.0
 45
0.0
 46
0.0
 47
0.0
 48
0.0
 49
0.0
140
0.0
141
0.0
142
1.0
143
1.0
 70
  1712
 72
     0
 73
     0
 74
     0
  7

 75
     0
 76
     0
 77
     2
 78
   300
147
1.0
148
0.0
149
0.0
100
AcDbLayout
  1
Model
 70
     1
 71
     0
 10
0.0
 20
0.0
 11
12.0
 21
9.0
 12
0.0
 22
0.0
 32
0.0
 14
1.000000000000000E+20
 24
1.000000000000000E+20
 34
1.000000000000000E+20
 15
-1.000000000000000E+20
 25
-1.000000000000000E+20
 35
-1.000000000000000E+20
146
0.0
 13
0.0
 23
0.0
 33
0.0
 16
1.0
 26
0.0
 36
0.0
 17
0.0
 27
1.0
 37
0.0
 76
     0
330
1F
331
29
  0
MATERIAL
  5
3D
102
{ACAD_REACTORS
330
3B
102
}
330
3B
100
AcDbMaterial
  1
ByBlock
 72
     1
 94
      127
  0
MATERIAL
  5
3C
102
{ACAD_REACTORS
330
3B
102
}
330
3B
100
AcDbMaterial
  1
ByLayer
 72
     1
 94
      127
  0
MATERIAL
  5
3E
102
{ACAD_REACTORS
330
3B
102
}
330
3B
100
AcDbMaterial
  1
Global
 72
     1
 94
      127
  0
MLINESTYLE
  5
18
102
{ACAD_REACTORS
330
17
102
}
330
17
100
AcDbMlineStyle
  2
Standard
 70
     0
  3

 62
   256
 51
90.0
 52
90.0
 71
     2
 49
0.5
 62
   256
  6
BYLAYER
 49
-0.5
 62
   256
  6
BYLAYER
  0
ACDBPLACEHOLDER
  5
F
102
{ACAD_REACTORS
330
E
102
}
330
E
  0
VISUALSTYLE
  5
2F
102
{ACAD_REACTORS
330
2A
102
}
330
2A
100
AcDbVisualStyle
  2
2dWireframe
 70
     4
177
     2
291
     0
 71
     0
176
     1
 72
     2
176
     1
 73
     0
176
     1
 90
        0
176
     1
 40
-0.6
176
     1
 41
-30.0
176
     1
 62
     5
 63
     7
421
 16777215
176
     1
 74
     1
176
     1
 91
        4
176
     1
 64
     7
176
     1
 65
   257
176
     1
 75
     1
176
     1
175
     1
176
     1
 42
1.0
176
     1
 92
        0
176
     1
 66
   257
176
     1
 43
1.0
176
     1
 76
     1
176
     1
 77
     6
176
     1
 78
     2
176
     1
 67
     7
176
     1
 79
     5
176
     1
170
     0
176
     1
171
     0
176
     1
290
     0
176
     1
 93
        1
176
     1
 44
0.0
176
     1
173
     0
176
     1
  0
VISUALSTYLE
  5
31
102
{ACAD_REACTORS
330
2A
102
}
330
2A
100
AcDbVisualStyle
  2
3D Hidden
 70
     6
177
     2
291
     0
 71
     1
176
     1
 72
     2
176
     1
 73
     2
176
     1
 90
        0
176
     1
 40
-0.6
176
     1
 41
-30.0
176
     1
 62
     5
 63
     7
421
 16777215
176
     1
 74
     2
176
     1
 91
        2
176
     1
 64
     7
176
     1
 65
   257
176
     1
 75
     2
176
     1
175
     1
176
     1
 42
40.0
176
     1
 92
        0
176
     1
 66
   257
176
     1
 43
1.0
176
     1
 76
     1
176
     1
 77
     6
176
     1
 78
     2
176
     1
 67
     7
176
     1
 79
     3
176
     1
170
     0
176
     1
171
     0
176
     1
290
     0
176
     1
 93
        1
176
     1
 44
0.0
176
     1
173
     0
176
     1
  0
VISUALSTYLE
  5
30
102
{ACAD_REACTORS
330
2A
102
}
330
2A
100
AcDbVisualStyle
  2
3dWireframe
 70
     5
177
     2
291
     0
 71
     0
176
     1
 72
     2
176
     1
 73
     0
176
     1
 90
        0
176
     1
 40
-0.6
176
     1
 41
-30.0
176
     1
 62
     5
 63
     7
421
 16777215
176
     1
 74
     1
176
     1
 91
        4
176
     1
 64
     7
176
     1
 65
   257
176
     1
 75
     1
176
     1
175
     1
176
     1
 42
1.0
176
     1
 92
        0
176
     1
 66
   257
176
     1
 43
1.0
176
     1
 76
     1
176
     1
 77
     6
176
     1
 78
     2
176
     1
 67
     7
176
     1
 79
     5
176
     1
170
     0
176
     1
171
     0
176
     1
290
     0
176
     1
 93
        1
176
     1
 44
0.0
176
     1
173
     0
176
     1
  0
VISUALSTYLE
  5
32
102
{ACAD_REACTORS
330
2A
102
}
330
2A
100
AcDbVisualStyle
  2
Basic
 70
     7
177
     2
291
     1
 71
     1
176
     1
 72
     0
176
     1
 73
     1
176
     1
 90
        0
176
     1
 40
-0.6
176
     1
 41
-30.0
176
     1
 62
     5
 63
     7
421
 16777215
176
     1
 74
     0
176
     1
 91
        4
176
     1
 64
     7
176
     1
 65
   257
176
     1
 75
     1
176
     1
175
     1
176
     1
 42
1.0
176
     1
 92
        8
176
     1
 66
     7
176
     1
 43
1.0
176
     1
 76
     1
176
     1
 77
     6
176
     1
 78
     2
176
     1
 67
     7
176
     1
 79
     5
176
     1
170
     0
176
     1
171
     0
176
     1
290
     0
176
     1
 93
        1
176
     1
 44
0.0
176
     1
173
     0
176
     1
  0
VISUALSTYLE
  5
36
102
{ACAD_REACTORS
330
2A
102
}
330
2A
100
AcDbVisualStyle
  2
Brighten
 70
    12
177
     2
291
     1
 71
     2
176
     1
 72
     2
176
     1
 73
     0
176
     1
 90
        0
176
     1
 40
-0.6
176
     1
 41
-30.0
176
     1
 62
     5
 63
     7
421
 16777215
176
     1
 74
     1
176
     1
 91
        4
176
     1
 64
     7
176
     1
 65
   257
176
     1
 75
     1
176
     1
175
     1
176
     1
 42
1.0
176
     1
 92
        8
176
     1
 66
     7
176
     1
 43
1.0
176
     1
 76
     1
176
     1
 77
     6
176
     1
 78
     2
176
     1
 67
     7
176
     1
 79
     5
176
     1
170
     0
176
     1
171
     0
176
     1
290
     0
176
     1
 93
        1
176
     1
 44
50.0
176
     1
173
     0
176
     1
  0
VISUALSTYLE
  5
3A
102
{ACAD_REACTORS
330
2A
102
}
330
2A
100
AcDbVisualStyle
  2
ColorChange
 70
    16
177
     2
291
     1
 71
     2
176
     1
 72
     2
176
     1
 73
     3
176
     1
 90
        0
176
     1
 40
-0.6
176
     1
 41
-30.0
176
     1
 62
     5
 63
     8
421
  8421504
176
     1
 74
     1
176
     1
 91
        4
176
     1
 64
     7
176
     1
 65
   257
176
     1
 75
     1
176
     1
175
     1
176
     1
 42
1.0
176
     1
 92
        8
176
     1
 66
     8
424
  8421504
176
     1
 43
1.0
176
     1
 76
     1
176
     1
 77
     6
176
     1
 78
     2
176
     1
 67
     7
176
     1
 79
     5
176
     1
170
     0
176
     1
171
     0
176
     1
290
     0
176
     1
 93
        1
176
     1
 44
0.0
176
     1
173
     0
176
     1
  0
VISUALSTYLE
  5
34
102
{ACAD_REACTORS
330
2A
102
}
330
2A
100
AcDbVisualStyle
  2
Conceptual
 70
     9
177
     2
291
     0
 71
     3
176
     1
 72
     2
176
     1
 73
     0
176
     1
 90
        0
176
     1
 40
-0.6
176
     1
 41
-30.0
176
     1
 62
     5
 63
     7
421
 16777215
176
     1
 74
     2
176
     1
 91
        2
176
     1
 64
     7
176
     1
 65
   257
176
     1
 75
     1
176
     1
175
     1
176
     1
 42
40.0
176
     1
 92
        8
176
     1
 66
     7
176
     1
 43
1.0
176
     1
 76
     1
176
     1
 77
     6
176
     1
 78
     2
176
     1
 67
     7
176
     1
 79
     3
176
     1
170
     0
176
     1
171
     0
176
     1
290
     0
176
     1
 93
        1
176
     1
 44
0.0
176
     1
173
     0
176
     1
  0
VISUALSTYLE
  5
35
102
{ACAD_REACTORS
330
2A
102
}
330
2A
100
AcDbVisualStyle
  2
Dim
 70
    11
177
     2
291
     1
 71
     2
176
     1
 72
     2
176
     1
 73
     0
176
     1
 90
        0
176
     1
 40
-0.6
176
     1
 41
-30.0
176
     1
 62
     5
 63
     7
421
 16777215
176
     1
 74
     1
176
     1
 91
        4
176
     1
 64
     7
176
     1
 65
   257
176
     1
 75
     1
176
     1
175
     1
176
     1
 42
1.0
176
     1
 92
        8
176
     1
 66
     7
176
     1
 43
1.0
176
     1
 76
     1
176
     1
 77
     6
176
     1
 78
     2
176
     1
 67
     7
176
     1
 79
     5
176
     1
170
     0
176
     1
171
     0
176
     1
290
     0
176
     1
 93
        1
176
     1
 44
-50.0
176
     1
173
     0
176
     1
  0
VISUALSTYLE
  5
39
102
{ACAD_REACTORS
330
2A
102
}
330
2A
100
AcDbVisualStyle
  2
Facepattern
 70
    15
177
     2
291
     1
 71
     2
176
     1
 72
     2
176
     1
 73
     0
176
     1
 90
        0
176
     1
 40
-0.6
176
     1
 41
-30.0
176
     1
 62
     5
 63
     7
421
 16777215
176
     1
 74
     1
176
     1
 91
        4
176
     1
 64
     7
176
     1
 65
   257
176
     1
 75
     1
176
     1
175
     1
176
     1
 42
1.0
176
     1
 92
        8
176
     1
 66
     7
176
     1
 43
1.0
176
     1
 76
     1
176
     1
 77
     6
176
     1
 78
     2
176
     1
 67
     7
176
     1
 79
     5
176
     1
170
     0
176
     1
171
     0
176
     1
290
     0
176
     1
 93
        1
176
     1
 44
0.0
176
     1
173
     0
176
     1
  0
VISUALSTYLE
  5
2B
102
{ACAD_REACTORS
330
2A
102
}
330
2A
100
AcDbVisualStyle
  2
Flat
 70
     0
177
     2
291
     1
 71
     2
176
     1
 72
     1
176
     1
 73
     1
176
     1
 90
        2
176
     1
 40
-0.6
176
     1
 41
30.0
176
     1
 62
     5
 63
     7
421
 16777215
176
     1
 74
     0
176
     1
 91
        4
176
     1
 64
     7
176
     1
 65
   257
176
     1
 75
     1
176
     1
175
     1
176
     1
 42
1.0
176
     1
 92
        8
176
     1
 66
     7
176
     1
 43
1.0
176
     1
 76
     1
176
     1
 77
     6
176
     1
 78
     2
176
     1
 67
     7
176
     1
 79
     5
176
     1
170
     0
176
     1
171
     0
176
     1
290
     0
176
     1
 93
       13
176
     1
 44
0.0
176
     1
173
     0
176
     1
  0
VISUALSTYLE
  5
2C
102
{ACAD_REACTORS
330
2A
102
}
330
2A
100
AcDbVisualStyle
  2
FlatWithEdges
 70
     1
177
     2
291
     1
 71
     2
176
     1
 72
     1
176
     1
 73
     1
176
     1
 90
        2
176
     1
 40
-0.6
176
     1
 41
30.0
176
     1
 62
     5
 63
     7
421
 16777215
176
     1
 74
     1
176
     1
 91
        4
176
     1
 64
     7
176
     1
 65
   257
176
     1
 75
     1
176
     1
175
     1
176
     1
 42
1.0
176
     1
 92
        0
176
     1
 66
   257
176
     1
 43
1.0
176
     1
 76
     1
176
     1
 77
     6
176
     1
 78
     2
176
     1
 67
     7
176
     1
 79
     5
176
     1
170
     0
176
     1
171
     0
176
     1
290
     0
176
     1
 93
       13
176
     1
 44
0.0
176
     1
173
     0
176
     1
  0
VISUALSTYLE
  5
2D
102
{ACAD_REACTORS
330
2A
102
}
330
2A
100
AcDbVisualStyle
  2
Gouraud
 70
     2
177
     2
291
     1
 71
     2
176
     1
 72
     2
176
     1
 73
     1
176
     1
 90
        2
176
     1
 40
-0.6
176
     1
 41
30.0
176
     1
 62
     5
 63
     7
421
 16777215
176
     1
 74
     0
176
     1
 91
        4
176
     1
 64
     7
176
     1
 65
   257
176
     1
 75
     1
176
     1
175
     1
176
     1
 42
1.0
176
     1
 92
        0
176
     1
 66
     7
176
     1
 43
1.0
176
     1
 76
     1
176
     1
 77
     6
176
     1
 78
     2
176
     1
 67
     7
176
     1
 79
     5
176
     1
170
     0
176
     1
171
     0
176
     1
290
     0
176
     1
 93
       13
176
     1
 44
0.0
176
     1
173
     0
176
     1
  0
VISUALSTYLE
  5
2E
102
{ACAD_REACTORS
330
2A
102
}
330
2A
100
AcDbVisualStyle
  2
GouraudWithEdges
 70
     3
177
     2
291
     1
 71
     2
176
     1
 72
     2
176
     1
 73
     1
176
     1
 90
        2
176
     1
 40
-0.6
176
     1
 41
30.0
176
     1
 62
     5
 63
     7
421
 16777215
176
     1
 74
     1
176
     1
 91
        4
176
     1
 64
     7
176
     1
 65
   257
176
     1
 75
     1
176
     1
175
     1
176
     1
 42
1.0
176
     1
 92
        0
176
     1
 66
   257
176
     1
 43
1.0
176
     1
 76
     1
176
     1
 77
     6
176
     1
 78
     2
176
     1
 67
     7
176
     1
 79
     5
176
     1
170
     0
176
     1
171
     0
176
     1
290
     0
176
     1
 93
       13
176
     1
 44
0.0
176
     1
173
     0
176
     1
  0
VISUALSTYLE
  5
38
102
{ACAD_REACTORS
330
2A
102
}
330
2A
100
AcDbVisualStyle
  2
Linepattern
 70
    14
177
     2
291
     1
 71
     2
176
     1
 72
     2
176
     1
 73
     0
176
     1
 90
        0
176
     1
 40
-0.6
176
     1
 41
-30.0
176
     1
 62
     5
 63
     7
421
 16777215
176
     1
 74
     1
176
     1
 91
        4
176
     1
 64
     7
176
     1
 65
   257
176
     1
 75
     7
176
     1
175
     7
176
     1
 42
1.0
176
     1
 92
        8
176
     1
 66
     7
176
     1
 43
1.0
176
     1
 76
     1
176
     1
 77
     6
176
     1
 78
     2
176
     1
 67
     7
176
     1
 79
     5
176
     1
170
     0
176
     1
171
     0
176
     1
290
     0
176
     1
 93
        1
176
     1
 44
0.0
176
     1
173
     0
176
     1
  0
VISUALSTYLE
  5
33
102
{ACAD_REACTORS
330
2A
102
}
330
2A
100
AcDbVisualStyle
  2
Realistic
 70
     8
177
     2
291
     0
 71
     2
176
     1
 72
     2
176
     1
 73
     0
176
     1
 90
        0
176
     1
 40
-0.6
176
     1
 41
-30.0
176
     1
 62
     5
 63
     7
421
 16777215
176
     1
 74
     1
176
     1
 91
        0
176
     1
 64
     7
176
     1
 65
   257
176
     1
 75
     1
176
     1
175
     1
176
     1
 42
1.0
176
     1
 92
        8
176
     1
 66
     8
424
  7895160
176
     1
 43
1.0
176
     1
 76
     1
176
     1
 77
     6
176
     1
 78
     2
176
     1
 67
     7
176
     1
 79
     5
176
     1
170
     0
176
     1
171
     0
176
     1
290
     0
176
     1
 93
       13
176
     1
 44
0.0
176
     1
173
     0
176
     1
  0
VISUALSTYLE
  5
37
102
{ACAD_REACTORS
330
2A
102
}
330
2A
100
AcDbVisualStyle
  2
Thicken
 70
    13
177
     2
291
     1
 71
     2
176
     1
 72
     2
176
     1
 73
     0
176
     1
 90
        0
176
     1
 40
-0.6
176
     1
 41
-30.0
176
     1
 62
     5
 63
     7
421
 16777215
176
     1
 74
     1
176
     1
 91
        4
176
     1
 64
     7
176
     1
 65
   257
176
     1
 75
     1
176
     1
175
     1
176
     1
 42
1.0
176
     1
 92
       12
176
     1
 66
     7
176
     1
 43
1.0
176
     1
 76
     1
176
     1
 77
     6
176
     1
 78
     2
176
     1
 67
     7
176
     1
 79
     5
176
     1
170
     0
176
     1
171
     0
176
     1
290
     0
176
     1
 93
        1
176
     1
 44
0.0
176
     1
173
     0
176
     1
  0
ENDSEC
  0
EOF
