  0
SECTION
  2
HEADER
  9
$ACADVER
  1
AC1024
  9
$ACADMAINTVER
 70
     6
  9
$DWGCODEPAGE
  3
ANSI_1252
  9
$INSBASE
 10
0.0
 20
0.0
 30
0.0
  9
$EXTMIN
 10
1.000000000000000E+20
 20
1.000000000000000E+20
 30
1.000000000000000E+20
  9
$EXTMAX
 10
-1.000000000000000E+20
 20
-1.000000000000000E+20
 30
-1.000000000000000E+20
  9
$LIMMIN
 10
0.0
 20
0.0
  9
$LIMMAX
 10
12.0
 20
9.0
  9
$ORTHOMODE
 70
     0
  9
$REGENMODE
 70
     1
  9
$FILLMODE
 70
     1
  9
$QTEXTMODE
 70
     0
  9
$MIRRTEXT
 70
     1
  9
$LTSCALE
 40
1.0
  9
$ATTMODE
 70
     1
  9
$TEXTSIZE
 40
0.2
  9
$TRACEWID
 40
0.05
  9
$TEXTSTYLE
  7
Standard
  9
$CLAYER
  8
0
  9
$CELTYPE
  6
ByLayer
  9
$CECOLOR
 62
   256
  9
$CELTSCALE
 40
1.0
  9
$DISPSILH
 70
     0
  9
$DIMSCALE
 40
1.0
  9
$DIMASZ
 40
0.18
  9
$DIMEXO
 40
0.0625
  9
$DIMDLI
 40
0.38
  9
$DIMRND
 40
0.0
  9
$DIMDLE
 40
0.0
  9
$DIMEXE
 40
0.18
  9
$DIMTP
 40
0.0
  9
$DIMTM
 40
0.0
  9
$DIMTXT
 40
0.18
  9
$DIMCEN
 40
0.09
  9
$DIMTSZ
 40
0.0
  9
$DIMTOL
 70
     0
  9
$DIMLIM
 70
     0
  9
$DIMTIH
 70
     1
  9
$DIMTOH
 70
     1
  9
$DIMSE1
 70
     0
  9
$DIMSE2
 70
     0
  9
$DIMTAD
 70
     0
  9
$DIMZIN
 70
     0
  9
$DIMBLK
  1

  9
$DIMASO
 70
     1
  9
$DIMSHO
 70
     1
  9
$DIMPOST
  1

  9
$DIMAPOST
  1

  9
$DIMALT
 70
     0
  9
$DIMALTD
 70
     2
  9
$DIMALTF
 40
25.4
  9
$DIMLFAC
 40
1.0
  9
$DIMTOFL
 70
     0
  9
$DIMTVP
 40
0.0
  9
$DIMTIX
 70
     0
  9
$DIMSOXD
 70
     0
  9
$DIMSAH
 70
     0
  9
$DIMBLK1
  1

  9
$DIMBLK2
  1

  9
$DIMSTYLE
  2
Standard
  9
$DIMCLRD
 70
     0
  9
$DIMCLRE
 70
     0
  9
$DIMCLRT
 70
     0
  9
$DIMTFAC
 40
1.0
  9
$DIMGAP
 40
0.09
  9
$DIMJUST
 70
     0
  9
$DIMSD1
 70
     0
  9
$DIMSD2
 70
     0
  9
$DIMTOLJ
 70
     1
  9
$DIMTZIN
 70
     0
  9
$DIMALTZ
 70
     0
  9
$DIMALTTZ
 70
     0
  9
$DIMUPT
 70
     0
  9
$DIMDEC
 70
     4
  9
$DIMTDEC
 70
     4
  9
$DIMALTU
 70
     2
  9
$DIMALTTD
 70
     2
  9
$DIMTXSTY
  7
Standard
  9
$DIMAUNIT
 70
     0
  9
$DIMADEC
 70
     0
  9
$DIMALTRND
 40
0.0
  9
$DIMAZIN
 70
     0
  9
$DIMDSEP
 70
    46
  9
$DIMATFIT
 70
     3
  9
$DIMFRAC
 70
     0
  9
$DIMLDRBLK
  1

  9
$DIMLUNIT
 70
     2
  9
$DIMLWD
 70
    -2
  9
$DIMLWE
 70
    -2
  9
$DIMTMOVE
 70
     0
  9
$DIMFXL
 40
1.0
  9
$DIMFXLON
 70
     0
  9
$DIMJOGANG
 40
0.7853981633974483
  9
$DIMTFILL
 70
     0
  9
$DIMTFILLCLR
 70
     0
  9
$DIMARCSYM
 70
     0
  9
$DIMLTYPE
  6

  9
$DIMLTEX1
  6

  9
$DIMLTEX2
  6

  9
$DIMTXTDIRECTION
 70
     0
  9
$LUNITS
 70
     2
  9
$LUPREC
 70
     4
  9
$SKETCHINC
 40
0.1
  9
$FILLETRAD
 40
0.5
  9
$AUNITS
 70
     0
  9
$AUPREC
 70
     0
  9
$MENU
  1
.
  9
$ELEVATION
 40
0.0
  9
$PELEVATION
 40
0.0
  9
$THICKNESS
 40
0.0
  9
$LIMCHECK
 70
     0
  9
$CHAMFERA
 40
0.5
  9
$CHAMFERB
 40
0.5
  9
$CHAMFERC
 40
1.0
  9
$CHAMFERD
 40
0.0
  9
$SKPOLY
 70
     0
  9
$TDCREATE
 40
2458965.894874167
  9
$TDUCREATE
 40
2458966.1032075
  9
$TDUPDATE
 40
2458965.894874236
  9
$TDUUPDATE
 40
2458966.10320757
  9
$TDINDWG
 40
0.0000000116
  9
$TDUSRTIMER
 40
0.0000000116
  9
$USRTIMER
 70
     1
  9
$ANGBASE
 50
0.0
  9
$ANGDIR
 70
     0
  9
$PDMODE
 70
     0
  9
$PDSIZE
 40
0.0
  9
$PLINEWID
 40
0.0
  9
$SPLFRAME
 70
     0
  9
$SPLINETYPE
 70
     6
  9
$SPLINESEGS
 70
     8
  9
$HANDSEED
  5
111
  9
$SURFTAB1
 70
     6
  9
$SURFTAB2
 70
     6
  9
$SURFTYPE
 70
     6
  9
$SURFU
 70
     6
  9
$SURFV
 70
     6
  9
$UCSBASE
  2

  9
$UCSNAME
  2

  9
$UCSORG
 10
0.0
 20
0.0
 30
0.0
  9
$UCSXDIR
 10
1.0
 20
0.0
 30
0.0
  9
$UCSYDIR
 10
0.0
 20
1.0
 30
0.0
  9
$UCSORTHOREF
  2

  9
$UCSORTHOVIEW
 70
     0
  9
$UCSORGTOP
 10
0.0
 20
0.0
 30
0.0
  9
$UCSORGBOTTOM
 10
0.0
 20
0.0
 30
0.0
  9
$UCSORGLEFT
 10
0.0
 20
0.0
 30
0.0
  9
$UCSORGRIGHT
 10
0.0
 20
0.0
 30
0.0
  9
$UCSORGFRONT
 10
0.0
 20
0.0
 30
0.0
  9
$UCSORGBACK
 10
0.0
 20
0.0
 30
0.0
  9
$PUCSBASE
  2

  9
$PUCSNAME
  2

  9
$PUCSORG
 10
0.0
 20
0.0
 30
0.0
  9
$PUCSXDIR
 10
1.0
 20
0.0
 30
0.0
  9
$PUCSYDIR
 10
0.0
 20
1.0
 30
0.0
  9
$PUCSORTHOREF
  2

  9
$PUCSORTHOVIEW
 70
     0
  9
$PUCSORGTOP
 10
0.0
 20
0.0
 30
0.0
  9
$PUCSORGBOTTOM
 10
0.0
 20
0.0
 30
0.0
  9
$PUCSORGLEFT
 10
0.0
 20
0.0
 30
0.0
  9
$PUCSORGRIGHT
 10
0.0
 20
0.0
 30
0.0
  9
$PUCSORGFRONT
 10
0.0
 20
0.0
 30
0.0
  9
$PUCSORGBACK
 10
0.0
 20
0.0
 30
0.0
  9
$USERI1
 70
     0
  9
$USERI2
 70
     0
  9
$USERI3
 70
     0
  9
$USERI4
 70
     0
  9
$USERI5
 70
     0
  9
$USERR1
 40
0.0
  9
$USERR2
 40
0.0
  9
$USERR3
 40
0.0
  9
$USERR4
 40
0.0
  9
$USERR5
 40
0.0
  9
$WORLDVIEW
 70
     1
  9
$SHADEDGE
 70
     3
  9
$SHADEDIF
 70
    70
  9
$TILEMODE
 70
     1
  9
$MAXACTVP
 70
    64
  9
$PINSBASE
 10
0.0
 20
0.0
 30
0.0
  9
$PLIMCHECK
 70
     0
  9
$PEXTMIN
 10
1.000000000000000E+20
 20
1.000000000000000E+20
 30
1.000000000000000E+20
  9
$PEXTMAX
 10
-1.000000000000000E+20
 20
-1.000000000000000E+20
 30
-1.000000000000000E+20
  9
$PLIMMIN
 10
0.0
 20
0.0
  9
$PLIMMAX
 10
12.0
 20
9.0
  9
$UNITMODE
 70
     0
  9
$VISRETAIN
 70
     1
  9
$PLINEGEN
 70
     0
  9
$PSLTSCALE
 70
     1
  9
$TREEDEPTH
 70
  3020
  9
$CMLSTYLE
  2
Standard
  9
$CMLJUST
 70
     0
  9
$CMLSCALE
 40
1.0
  9
$PROXYGRAPHICS
 70
     1
  9
$MEASUREMENT
 70
     0
  9
$CELWEIGHT
370
    -1
  9
$ENDCAPS
280
     0
  9
$JOINSTYLE
280
     0
  9
$LWDISPLAY
290
     1
  9
$INSUNITS
 70
     0
  9
$HYPERLINKBASE
  1

  9
$STYLESHEET
  1

  9
$XEDIT
290
     1
  9
$CEPSNTYPE
380
     0
  9
$PSTYLEMODE
290
     1
  9
$FINGERPRINTGUID
  2
{DFF13198-76B4-414B-98BE-96D2A1937B8A}
  9
$VERSIONGUID
  2
{FAEB1C32-E019-11D5-929B-00C0DF256EC4}
  9
$EXTNAMES
290
     1
  9
$PSVPSCALE
 40
0.0
  9
$OLESTARTUP
290
     0
  9
$SORTENTS
280
   127
  9
$INDEXCTL
280
     0
  9
$HIDETEXT
280
     1
  9
$XCLIPFRAME
280
     2
  9
$HALOGAP
280
     0
  9
$OBSCOLOR
 70
   257
  9
$OBSLTYPE
280
     0
  9
$INTERSECTIONDISPLAY
280
     0
  9
$INTERSECTIONCOLOR
 70
   257
  9
$DIMASSOC
280
     2
  9
$PROJECTNAME
  1

  9
$CAMERADISPLAY
290
     0
  9
$LENSLENGTH
 40
50.0
  9
$CAMERAHEIGHT
 40
0.0
  9
$STEPSPERSEC
 40
2.0
  9
$STEPSIZE
 40
6.0
  9
$3DDWFPREC
 40
2.0
  9
$PSOLWIDTH
 40
0.25
  9
$PSOLHEIGHT
 40
4.0
  9
$LOFTANG1
 40
1.570796326794897
  9
$LOFTANG2
 40
1.570796326794897
  9
$LOFTMAG1
 40
0.0
  9
$LOFTMAG2
 40
0.0
  9
$LOFTPARAM
 70
     7
  9
$LOFTNORMALS
280
     1
  9
$LATITUDE
 40
37.795
  9
$LONGITUDE
 40
-122.394
  9
$NORTHDIRECTION
 40
0.0
  9
$TIMEZONE
 70
 -8000
  9
$LIGHTGLYPHDISPLAY
280
     1
  9
$TILEMODELIGHTSYNCH
280
     1
  9
$CMATERIAL
347
3C
  9
$SOLIDHIST
280
     1
  9
$SHOWHIST
280
     1
  9
$DWFFRAME
280
     2
  9
$DGNFRAME
280
     2
  9
$REALWORLDSCALE
290
     1
  9
$INTERFERECOLOR
 62
   256
  9
$CSHADOW
280
     0
  9
$SHADOWPLANELOCATION
 40
0.0
  0
ENDSEC
  0
SECTION
  2
CLASSES
  0
CLASS
  1
ACDBDICTIONARYWDFLT
  2
AcDbDictionaryWithDefault
  3
ObjectDBX Classes
 90
        0
 91
        4
280
     0
281
     0
  0
CLASS
  1
VISUALSTYLE
  2
AcDbVisualStyle
  3
ObjectDBX Classes
 90
     4095
 91
        4
280
     0
281
     0
  0
CLASS
  1
MATERIAL
  2
AcDbMaterial
  3
ObjectDBX Classes
 90
     1153
 91
        4
280
     0
281
     0
  0
CLASS
  1
SUN
  2
AcDbSun
  3
SCENEOE
 90
     1024
 91
        4
280
     0
281
     0
  0
ENDSEC
  0
SECTION
  2
TABLES
  0
TABLE
  2
VPORT
  5
8
330
0
100
AcDbSymbolTable
 70
     1
  0
VPORT
  5
29
330
8
100
AcDbSymbolTableRecord
100
AcDbViewportTableRecord
  2
*Active
 70
     0
 10
0.0
 20
0.0
 11
1.0
 21
1.0
 12
0.0
 22
0.0
 13
0.0
 23
0.0
 14
0.5
 24
0.5
 15
0.5
 25
0.5
 16
0.0
 26
0.0
 36
1.0
 17
306.0
 27
396.0
 37
0.0
 40
792.0
 41
0.7727272727272727
 42
50.0
 43
0.0
 44
0.0
 50
0.0
 51
0.0
 71
     0
 72
   100
 73
     1
 74
     3
 75
     0
 76
     0
 77
     0
 78
     0
281
     0
 65
     1
110
0.0
120
0.0
130
0.0
111
1.0
121
0.0
131
0.0
112
0.0
122
1.0
132
0.0
 79
     0
146
0.0
 60
     3
 61
     5
292
     1
282
     1
141
0.0
142
0.0
 63
   250
361
3F
  0
ENDTAB
  0
TABLE
  2
LTYPE
  5
5
330
0
100
AcDbSymbolTable
 70
     9
  0
LTYPE
  5
14
330
5
100
AcDbSymbolTableRecord
100
AcDbLinetypeTableRecord
  2
ByBlock
 70
     0
  3

 72
    65
 73
     0
 40
0.0
  0
LTYPE
  5
15
330
5
100
AcDbSymbolTableRecord
100
AcDbLinetypeTableRecord
  2
ByLayer
 70
     0
  3

 72
    65
 73
     0
 40
0.0
  0
LTYPE
  5
16
330
5
100
AcDbSymbolTableRecord
100
AcDbLinetypeTableRecord
  2
Continuous
 70
     0
  3
Solid line
 72
    65
 73
     0
 40
0.0
  0
LTYPE
  5
47
330
5
100
AcDbSymbolTableRecord
100
AcDbLinetypeTableRecord
  2
AI-Linetype-1
 70
     0
  3
Adobe Illustrator Linetype No. 1
 72
    65
 73
     2
 40
20.0
 49
10.0
 74
     0
 49
-10.0
 74
     0
  0
LTYPE
  5
4C
330
5
100
AcDbSymbolTableRecord
100
AcDbLinetypeTableRecord
  2
AI-Linetype-2
 70
     0
  3
Adobe Illustrator Linetype No. 2
 72
    65
 73
     2
 40
20.0
 49
10.0
 74
     0
 49
-10.0
 74
     0
  0
LTYPE
  5
51
330
5
100
AcDbSymbolTableRecord
100
AcDbLinetypeTableRecord
  2
AI-Linetype-3
 70
     0
  3
Adobe Illustrator Linetype No. 3
 72
    65
 73
     2
 40
20.0
 49
10.0
 74
     0
 49
-10.0
 74
     0
  0
LTYPE
  5
56
330
5
100
AcDbSymbolTableRecord
100
AcDbLinetypeTableRecord
  2
AI-Linetype-4
 70
     0
  3
Adobe Illustrator Linetype No. 4
 72
    65
 73
     2
 40
20.0
 49
10.0
 74
     0
 49
-10.0
 74
     0
  0
LTYPE
  5
5B
330
5
100
AcDbSymbolTableRecord
100
AcDbLinetypeTableRecord
  2
AI-Linetype-5
 70
     0
  3
Adobe Illustrator Linetype No. 5
 72
    65
 73
     2
 40
20.0
 49
10.0
 74
     0
 49
-10.0
 74
     0
  0
LTYPE
  5
60
330
5
100
AcDbSymbolTableRecord
100
AcDbLinetypeTableRecord
  2
AI-Linetype-6
 70
     0
  3
Adobe Illustrator Linetype No. 6
 72
    65
 73
     2
 40
20.0
 49
10.0
 74
     0
 49
-10.0
 74
     0
  0
LTYPE
  5
65
330
5
100
AcDbSymbolTableRecord
100
AcDbLinetypeTableRecord
  2
AI-Linetype-7
 70
     0
  3
Adobe Illustrator Linetype No. 7
 72
    65
 73
     2
 40
20.0
 49
10.0
 74
     0
 49
-10.0
 74
     0
  0
LTYPE
  5
10D
330
5
100
AcDbSymbolTableRecord
100
AcDbLinetypeTableRecord
  2
AI-Linetype-8
 70
     0
  3
Adobe Illustrator Linetype No. 8
 72
    65
 73
     2
 40
20.0
 49
10.0
 74
     0
 49
-10.0
 74
     0
  0
ENDTAB
  0
TABLE
  2
LAYER
  5
2
330
0
100
AcDbSymbolTable
 70
     2
  0
LAYER
  5
10
330
2
100
AcDbSymbolTableRecord
100
AcDbLayerTableRecord
  2
0
 70
     0
 62
     7
  6
Continuous
370
    -3
390
F
347
3E
  0
LAYER
  5
40
330
2
100
AcDbSymbolTableRecord
100
AcDbLayerTableRecord
  2
Layer 4
 70
     0
 62
     7
  6
Continuous
370
    -3
390
F
347
3E
  0
ENDTAB
  0
TABLE
  2
STYLE
  5
3
330
0
100
AcDbSymbolTable
 70
     1
  0
STYLE
  5
11
330
3
100
AcDbSymbolTableRecord
100
AcDbTextStyleTableRecord
  2
Standard
 70
     0
 40
0.0
 41
1.0
 50
0.0
 71
     0
 42
0.2
  3
txt
  4

  0
ENDTAB
  0
TABLE
  2
VIEW
  5
6
330
0
100
AcDbSymbolTable
 70
     0
  0
ENDTAB
  0
TABLE
  2
UCS
  5
7
330
0
100
AcDbSymbolTable
 70
     0
  0
ENDTAB
  0
TABLE
  2
APPID
  5
9
330
0
100
AcDbSymbolTable
 70
     1
  0
APPID
  5
12
330
9
100
AcDbSymbolTableRecord
100
AcDbRegAppTableRecord
  2
ACAD
 70
     0
  0
ENDTAB
  0
TABLE
  2
DIMSTYLE
  5
A
330
0
100
AcDbSymbolTable
 70
     1
100
AcDbDimStyleTable
  0
DIMSTYLE
105
27
330
A
100
AcDbSymbolTableRecord
100
AcDbDimStyleTableRecord
  2
Standard
 70
     0
178
     0
340
11
  0
ENDTAB
  0
TABLE
  2
BLOCK_RECORD
  5
1
330
0
100
AcDbSymbolTable
 70
     3
  0
BLOCK_RECORD
  5
1F
330
1
100
AcDbSymbolTableRecord
100
AcDbBlockTableRecord
  2
*Model_Space
340
22
 70
     0
280
     1
281
     0
  0
BLOCK_RECORD
  5
1B
330
1
100
AcDbSymbolTableRecord
100
AcDbBlockTableRecord
  2
*Paper_Space
340
1E
 70
     0
280
     1
281
     0
  0
BLOCK_RECORD
  5
23
330
1
100
AcDbSymbolTableRecord
100
AcDbBlockTableRecord
  2
*Paper_Space0
340
26
 70
     0
280
     1
281
     0
  0
BLOCK_RECORD
  5
6B
330
1
100
AcDbSymbolTableRecord
100
AcDbBlockTableRecord
  2
block 2
340
0
102
{BLKREFS
331
6C
102
}
 70
     0
280
     1
281
     0
  0
BLOCK_RECORD
  5
97
330
1
100
AcDbSymbolTableRecord
100
AcDbBlockTableRecord
  2
block 3
340
0
102
{BLKREFS
331
98
102
}
 70
     0
280
     1
281
     0
  0
ENDTAB
  0
ENDSEC
  0
SECTION
  2
BLOCKS
  0
BLOCK
  5
20
330
1F
100
AcDbEntity
  8
0
100
AcDbBlockBegin
  2
*Model_Space
 70
     0
 10
0.0
 20
0.0
 30
0.0
  3
*Model_Space
  1

  0
ENDBLK
  5
21
330
1F
100
AcDbEntity
  8
0
100
AcDbBlockEnd
  0
BLOCK
  5
1C
330
1B
100
AcDbEntity
 67
     1
  8
0
100
AcDbBlockBegin
  2
*Paper_Space
 70
     0
 10
0.0
 20
0.0
 30
0.0
  3
*Paper_Space
  1

  0
ENDBLK
  5
1D
330
1B
100
AcDbEntity
 67
     1
  8
0
100
AcDbBlockEnd
  0
BLOCK
  5
24
330
23
100
AcDbEntity
  8
0
100
AcDbBlockBegin
  2
*Paper_Space0
 70
     0
 10
0.0
 20
0.0
 30
0.0
  3
*Paper_Space0
  1

  0
ENDBLK
  5
25
330
23
100
AcDbEntity
  8
0
100
AcDbBlockEnd
  0
BLOCK
  5
6D
330
6B
100
AcDbEntity
  8
0
100
AcDbBlockBegin
  2
block 2
 70
     0
 10
0.0
 20
0.0
 30
0.0
  3
block 2
  1

  0
SPLINE
  5
6F
330
6B
100
AcDbEntity
  8
Layer 4
370
     0
100
AcDbSpline
210
0.0
220
0.0
230
1.0
 70
    11
 71
     3
 72
    50
 73
    46
 74
     0
 42
0.0000000001
 43
0.0000000001
 12
1.0
 22
0.0
 32
0.0
 13
1.0
 23
0.0
 33
0.0
 40
0.0
 40
0.0
 40
0.0
 40
0.0
 40
1.0
 40
1.0
 40
1.0
 40
2.0
 40
2.0
 40
2.0
 40
3.0
 40
3.0
 40
3.0
 40
4.0
 40
4.0
 40
4.0
 40
5.0
 40
5.0
 40
5.0
 40
6.0
 40
6.0
 40
6.0
 40
7.0
 40
7.0
 40
7.0
 40
8.0
 40
8.0
 40
8.0
 40
9.0
 40
9.0
 40
9.0
 40
10.0
 40
10.0
 40
10.0
 40
11.0
 40
11.0
 40
11.0
 40
12.0
 40
12.0
 40
12.0
 40
13.0
 40
13.0
 40
13.0
 40
14.0
 40
14.0
 40
14.0
 40
15.0
 40
15.0
 40
15.0
 40
15.0
 10
108.9541015625
 20
287.421875
 30
0.0
 10
108.05908203125
 20
287.1005859375
 30
0.0
 10
106.2919921875
 20
286.572265625
 30
0.0
 10
104.20361328125
 20
286.572265625
 30
0.0
 10
101.86279296875
 20
286.572265625
 30
0.0
 10
99.93505859375
 20
287.169921875
 30
0.0
 10
98.42041015625
 20
288.615234375
 30
0.0
 10
97.08935546875
 20
289.900390625
 30
0.0
 10
96.26318359375
 20
291.9658203125
 30
0.0
 10
96.26318359375
 20
294.375
 30
0.0
 10
96.2861328125
 20
298.98828125
 30
0.0
 10
99.453125
 20
302.361328125
 30
0.0
 10
104.6396484375
 20
302.361328125
 30
0.0
 10
106.4296875
 20
302.361328125
 30
0.0
 10
107.82958984375
 20
301.9716796875
 30
0.0
 10
108.4951171875
 20
301.650390625
 30
0.0
 10
108.4951171875
 20
301.650390625
 30
0.0
 10
108.01318359375
 20
300.021484375
 30
0.0
 10
108.01318359375
 20
300.021484375
 30
0.0
 10
107.18701171875
 20
300.388671875
 30
0.0
 10
106.154296875
 20
300.6865234375
 30
0.0
 10
104.59375
 20
300.6865234375
 30
0.0
 10
100.830078125
 20
300.6865234375
 30
0.0
 10
98.37451171875
 20
298.345703125
 30
0.0
 10
98.37451171875
 20
294.466796875
 30
0.0
 10
98.37451171875
 20
290.54296875
 30
0.0
 10
100.73828125
 20
288.224609375
 30
0.0
 10
104.34130859375
 20
288.224609375
 30
0.0
 10
105.6494140625
 20
288.224609375
 30
0.0
 10
106.54443359375
 20
288.408203125
 30
0.0
 10
107.00341796875
 20
288.638671875
 30
0.0
 10
107.00341796875
 20
288.638671875
 30
0.0
 10
107.00341796875
 20
293.2509765625
 30
0.0
 10
107.00341796875
 20
293.2509765625
 30
0.0
 10
107.00341796875
 20
293.2509765625
 30
0.0
 10
103.859375
 20
293.2509765625
 30
0.0
 10
103.859375
 20
293.2509765625
 30
0.0
 10
103.859375
 20
293.2509765625
 30
0.0
 10
103.859375
 20
294.857421875
 30
0.0
 10
103.859375
 20
294.857421875
 30
0.0
 10
103.859375
 20
294.857421875
 30
0.0
 10
108.9541015625
 20
294.857421875
 30
0.0
 10
108.9541015625
 20
294.857421875
 30
0.0
 10
108.9541015625
 20
294.857421875
 30
0.0
 10
108.9541015625
 20
287.421875
 30
0.0
 10
108.9541015625
 20
287.421875
 30
0.0
  0
HATCH
  5
70
330
6B
100
AcDbEntity
  8
Layer 4
 62
   250
420
  2301728
100
AcDbHatch
 10
0.0
 20
0.0
 30
0.0
210
0.0
220
0.0
230
1.0
  2
SOLID
 70
     1
 71
     0
 91
        1
 92
        1
 93
        1
 72
     4
 94
        3
 73
     0
 74
     1
 95
       50
 96
       46
 40
0.0
 40
0.0
 40
0.0
 40
0.0
 40
1.0
 40
1.0
 40
1.0
 40
2.0
 40
2.0
 40
2.0
 40
3.0
 40
3.0
 40
3.0
 40
4.0
 40
4.0
 40
4.0
 40
5.0
 40
5.0
 40
5.0
 40
6.0
 40
6.0
 40
6.0
 40
7.0
 40
7.0
 40
7.0
 40
8.0
 40
8.0
 40
8.0
 40
9.0
 40
9.0
 40
9.0
 40
10.0
 40
10.0
 40
10.0
 40
11.0
 40
11.0
 40
11.0
 40
12.0
 40
12.0
 40
12.0
 40
13.0
 40
13.0
 40
13.0
 40
14.0
 40
14.0
 40
14.0
 40
15.0
 40
15.0
 40
15.0
 40
15.0
 10
108.9541015625
 20
287.421875
 10
108.05908203125
 20
287.1005859375
 10
106.2919921875
 20
286.572265625
 10
104.20361328125
 20
286.572265625
 10
101.86279296875
 20
286.572265625
 10
99.93505859375
 20
287.169921875
 10
98.42041015625
 20
288.615234375
 10
97.08935546875
 20
289.900390625
 10
96.26318359375
 20
291.9658203125
 10
96.26318359375
 20
294.375
 10
96.2861328125
 20
298.98828125
 10
99.453125
 20
302.361328125
 10
104.6396484375
 20
302.361328125
 10
106.4296875
 20
302.361328125
 10
107.82958984375
 20
301.9716796875
 10
108.4951171875
 20
301.650390625
 10
108.4951171875
 20
301.650390625
 10
108.01318359375
 20
300.021484375
 10
108.01318359375
 20
300.021484375
 10
107.18701171875
 20
300.388671875
 10
106.154296875
 20
300.6865234375
 10
104.59375
 20
300.6865234375
 10
100.830078125
 20
300.6865234375
 10
98.37451171875
 20
298.345703125
 10
98.37451171875
 20
294.466796875
 10
98.37451171875
 20
290.54296875
 10
100.73828125
 20
288.224609375
 10
104.34130859375
 20
288.224609375
 10
105.6494140625
 20
288.224609375
 10
106.54443359375
 20
288.408203125
 10
107.00341796875
 20
288.638671875
 10
107.00341796875
 20
288.638671875
 10
107.00341796875
 20
293.2509765625
 10
107.00341796875
 20
293.2509765625
 10
107.00341796875
 20
293.2509765625
 10
103.859375
 20
293.2509765625
 10
103.859375
 20
293.2509765625
 10
103.859375
 20
293.2509765625
 10
103.859375
 20
294.857421875
 10
103.859375
 20
294.857421875
 10
103.859375
 20
294.857421875
 10
108.9541015625
 20
294.857421875
 10
108.9541015625
 20
294.857421875
 10
108.9541015625
 20
294.857421875
 10
108.9541015625
 20
287.421875
 10
108.9541015625
 20
287.421875
 97
        0
 97
        0
 75
     2
 76
     1
 98
        0
  0
SPLINE
  5
71
330
6B
100
AcDbEntity
  8
Layer 4
370
     0
100
AcDbSpline
210
0.0
220
0.0
230
1.0
 70
    11
 71
     3
 72
    44
 73
    40
 74
     0
 42
0.0000000001
 43
0.0000000001
 12
1.0
 22
0.0
 32
0.0
 13
1.0
 23
0.0
 33
0.0
 40
0.0
 40
0.0
 40
0.0
 40
0.0
 40
1.0
 40
1.0
 40
1.0
 40
2.0
 40
2.0
 40
2.0
 40
3.0
 40
3.0
 40
3.0
 40
4.0
 40
4.0
 40
4.0
 40
5.0
 40
5.0
 40
5.0
 40
6.0
 40
6.0
 40
6.0
 40
7.0
 40
7.0
 40
7.0
 40
8.0
 40
8.0
 40
8.0
 40
9.0
 40
9.0
 40
9.0
 40
10.0
 40
10.0
 40
10.0
 40
11.0
 40
11.0
 40
11.0
 40
12.0
 40
12.0
 40
12.0
 40
13.0
 40
13.0
 40
13.0
 40
13.0
 10
111.93408203125
 20
294.375
 30
0.0
 10
111.93408203125
 20
295.68359375
 30
0.0
 10
111.9111328125
 20
296.80859375
 30
0.0
 10
111.84228515625
 20
297.8408203125
 30
0.0
 10
111.84228515625
 20
297.8408203125
 30
0.0
 10
113.609375
 20
297.8408203125
 30
0.0
 10
113.609375
 20
297.8408203125
 30
0.0
 10
113.609375
 20
297.8408203125
 30
0.0
 10
113.67822265625
 20
295.66015625
 30
0.0
 10
113.67822265625
 20
295.66015625
 30
0.0
 10
113.67822265625
 20
295.66015625
 30
0.0
 10
113.77001953125
 20
295.66015625
 30
0.0
 10
113.77001953125
 20
295.66015625
 30
0.0
 10
114.27490234375
 20
297.15234375
 30
0.0
 10
115.4912109375
 20
298.09375
 30
0.0
 10
116.84521484375
 20
298.09375
 30
0.0
 10
117.07470703125
 20
298.09375
 30
0.0
 10
117.2353515625
 20
298.0703125
 30
0.0
 10
117.4189453125
 20
298.0244140625
 30
0.0
 10
117.4189453125
 20
298.0244140625
 30
0.0
 10
117.4189453125
 20
296.119140625
 30
0.0
 10
117.4189453125
 20
296.119140625
 30
0.0
 10
117.21240234375
 20
296.166015625
 30
0.0
 10
117.005859375
 20
296.1884765625
 30
0.0
 10
116.73046875
 20
296.1884765625
 30
0.0
 10
115.3076171875
 20
296.1884765625
 30
0.0
 10
114.2978515625
 20
295.109375
 30
0.0
 10
114.0224609375
 20
293.595703125
 30
0.0
 10
113.9765625
 20
293.3203125
 30
0.0
 10
113.9306640625
 20
292.998046875
 30
0.0
 10
113.9306640625
 20
292.654296875
 30
0.0
 10
113.9306640625
 20
292.654296875
 30
0.0
 10
113.9306640625
 20
286.7333984375
 30
0.0
 10
113.9306640625
 20
286.7333984375
 30
0.0
 10
113.9306640625
 20
286.7333984375
 30
0.0
 10
111.93408203125
 20
286.7333984375
 30
0.0
 10
111.93408203125
 20
286.7333984375
 30
0.0
 10
111.93408203125
 20
286.7333984375
 30
0.0
 10
111.93408203125
 20
294.375
 30
0.0
 10
111.93408203125
 20
294.375
 30
0.0
  0
HATCH
  5
72
330
6B
100
AcDbEntity
  8
Layer 4
 62
   250
420
  2301728
100
AcDbHatch
 10
0.0
 20
0.0
 30
0.0
210
0.0
220
0.0
230
1.0
  2
SOLID
 70
     1
 71
     0
 91
        1
 92
        1
 93
        1
 72
     4
 94
        3
 73
     0
 74
     1
 95
       44
 96
       40
 40
0.0
 40
0.0
 40
0.0
 40
0.0
 40
1.0
 40
1.0
 40
1.0
 40
2.0
 40
2.0
 40
2.0
 40
3.0
 40
3.0
 40
3.0
 40
4.0
 40
4.0
 40
4.0
 40
5.0
 40
5.0
 40
5.0
 40
6.0
 40
6.0
 40
6.0
 40
7.0
 40
7.0
 40
7.0
 40
8.0
 40
8.0
 40
8.0
 40
9.0
 40
9.0
 40
9.0
 40
10.0
 40
10.0
 40
10.0
 40
11.0
 40
11.0
 40
11.0
 40
12.0
 40
12.0
 40
12.0
 40
13.0
 40
13.0
 40
13.0
 40
13.0
 10
111.93408203125
 20
294.375
 10
111.93408203125
 20
295.68359375
 10
111.9111328125
 20
296.80859375
 10
111.84228515625
 20
297.8408203125
 10
111.84228515625
 20
297.8408203125
 10
113.609375
 20
297.8408203125
 10
113.609375
 20
297.8408203125
 10
113.609375
 20
297.8408203125
 10
113.67822265625
 20
295.66015625
 10
113.67822265625
 20
295.66015625
 10
113.67822265625
 20
295.66015625
 10
113.77001953125
 20
295.66015625
 10
113.77001953125
 20
295.66015625
 10
114.27490234375
 20
297.15234375
 10
115.4912109375
 20
298.09375
 10
116.84521484375
 20
298.09375
 10
117.07470703125
 20
298.09375
 10
117.2353515625
 20
298.0703125
 10
117.4189453125
 20
298.0244140625
 10
117.4189453125
 20
298.0244140625
 10
117.4189453125
 20
296.119140625
 10
117.4189453125
 20
296.119140625
 10
117.21240234375
 20
296.166015625
 10
117.005859375
 20
296.1884765625
 10
116.73046875
 20
296.1884765625
 10
115.3076171875
 20
296.1884765625
 10
114.2978515625
 20
295.109375
 10
114.0224609375
 20
293.595703125
 10
113.9765625
 20
293.3203125
 10
113.9306640625
 20
292.998046875
 10
113.9306640625
 20
292.654296875
 10
113.9306640625
 20
292.654296875
 10
113.9306640625
 20
286.7333984375
 10
113.9306640625
 20
286.7333984375
 10
113.9306640625
 20
286.7333984375
 10
111.93408203125
 20
286.7333984375
 10
111.93408203125
 20
286.7333984375
 10
111.93408203125
 20
286.7333984375
 10
111.93408203125
 20
294.375
 10
111.93408203125
 20
294.375
 97
        0
 97
        0
 75
     2
 76
     1
 98
        0
  0
SPLINE
  5
73
330
6B
100
AcDbEntity
  8
Layer 4
370
     0
100
AcDbSpline
210
0.0
220
0.0
230
1.0
 70
    11
 71
     3
 72
    47
 73
    43
 74
     0
 42
0.0000000001
 43
0.0000000001
 12
1.0
 22
0.0
 32
0.0
 13
1.0
 23
0.0
 33
0.0
 40
0.0
 40
0.0
 40
0.0
 40
0.0
 40
1.0
 40
1.0
 40
1.0
 40
2.0
 40
2.0
 40
2.0
 40
3.0
 40
3.0
 40
3.0
 40
4.0
 40
4.0
 40
4.0
 40
5.0
 40
5.0
 40
5.0
 40
6.0
 40
6.0
 40
6.0
 40
7.0
 40
7.0
 40
7.0
 40
8.0
 40
8.0
 40
8.0
 40
9.0
 40
9.0
 40
9.0
 40
10.0
 40
10.0
 40
10.0
 40
11.0
 40
11.0
 40
11.0
 40
12.0
 40
12.0
 40
12.0
 40
13.0
 40
13.0
 40
13.0
 40
14.0
 40
14.0
 40
14.0
 40
14.0
 10
125.47265625
 20
286.7333984375
 30
0.0
 10
125.47265625
 20
286.7333984375
 30
0.0
 10
125.31201171875
 20
288.1328125
 30
0.0
 10
125.31201171875
 20
288.1328125
 30
0.0
 10
125.31201171875
 20
288.1328125
 30
0.0
 10
125.2431640625
 20
288.1328125
 30
0.0
 10
125.2431640625
 20
288.1328125
 30
0.0
 10
124.62353515625
 20
287.26171875
 30
0.0
 10
123.43017578125
 20
286.48046875
 30
0.0
 10
121.8466796875
 20
286.48046875
 30
0.0
 10
119.59765625
 20
286.48046875
 30
0.0
 10
118.4501953125
 20
288.064453125
 30
0.0
 10
118.4501953125
 20
289.6708984375
 30
0.0
 10
118.4501953125
 20
292.35546875
 30
0.0
 10
120.8369140625
 20
293.82421875
 30
0.0
 10
125.12841796875
 20
293.8017578125
 30
0.0
 10
125.12841796875
 20
293.8017578125
 30
0.0
 10
125.12841796875
 20
294.03125
 30
0.0
 10
125.12841796875
 20
294.03125
 30
0.0
 10
125.12841796875
 20
294.94921875
 30
0.0
 10
124.8759765625
 20
296.6015625
 30
0.0
 10
122.60400390625
 20
296.6015625
 30
0.0
 10
121.5712890625
 20
296.6015625
 30
0.0
 10
120.49267578125
 20
296.2802734375
 30
0.0
 10
119.71240234375
 20
295.775390625
 30
0.0
 10
119.71240234375
 20
295.775390625
 30
0.0
 10
119.25341796875
 20
297.1064453125
 30
0.0
 10
119.25341796875
 20
297.1064453125
 30
0.0
 10
120.17138671875
 20
297.703125
 30
0.0
 10
121.50244140625
 20
298.09375
 30
0.0
 10
122.90234375
 20
298.09375
 30
0.0
 10
126.298828125
 20
298.09375
 30
0.0
 10
127.125
 20
295.775390625
 30
0.0
 10
127.125
 20
293.548828125
 30
0.0
 10
127.125
 20
293.548828125
 30
0.0
 10
127.125
 20
289.3955078125
 30
0.0
 10
127.125
 20
289.3955078125
 30
0.0
 10
127.125
 20
288.431640625
 30
0.0
 10
127.1708984375
 20
287.490234375
 30
0.0
 10
127.30859375
 20
286.7333984375
 30
0.0
 10
127.30859375
 20
286.7333984375
 30
0.0
 10
125.47265625
 20
286.7333984375
 30
0.0
 10
125.47265625
 20
286.7333984375
 30
0.0
  0
SPLINE
  5
74
330
6B
100
AcDbEntity
  8
Layer 4
370
     0
100
AcDbSpline
210
0.0
220
0.0
230
1.0
 70
    11
 71
     3
 72
    20
 73
    16
 74
     0
 42
0.0000000001
 43
0.0000000001
 12
1.0
 22
0.0
 32
0.0
 13
1.0
 23
0.0
 33
0.0
 40
0.0
 40
0.0
 40
0.0
 40
0.0
 40
1.0
 40
1.0
 40
1.0
 40
2.0
 40
2.0
 40
2.0
 40
3.0
 40
3.0
 40
3.0
 40
4.0
 40
4.0
 40
4.0
 40
5.0
 40
5.0
 40
5.0
 40
5.0
 10
125.17431640625
 20
292.40234375
 30
0.0
 10
122.97119140625
 20
292.447265625
 30
0.0
 10
120.4697265625
 20
292.0576171875
 30
0.0
 10
120.4697265625
 20
289.900390625
 30
0.0
 10
120.4697265625
 20
288.591796875
 30
0.0
 10
121.341796875
 20
287.97265625
 30
0.0
 10
122.37451171875
 20
287.97265625
 30
0.0
 10
123.8203125
 20
287.97265625
 30
0.0
 10
124.73828125
 20
288.890625
 30
0.0
 10
125.0595703125
 20
289.83203125
 30
0.0
 10
125.12841796875
 20
290.0380859375
 30
0.0
 10
125.17431640625
 20
290.267578125
 30
0.0
 10
125.17431640625
 20
290.474609375
 30
0.0
 10
125.17431640625
 20
290.474609375
 30
0.0
 10
125.17431640625
 20
292.40234375
 30
0.0
 10
125.17431640625
 20
292.40234375
 30
0.0
  0
HATCH
  5
75
330
6B
100
AcDbEntity
  8
Layer 4
 62
   250
420
  2301728
100
AcDbHatch
 10
0.0
 20
0.0
 30
0.0
210
0.0
220
0.0
230
1.0
  2
SOLID
 70
     1
 71
     0
 91
        2
 92
        1
 93
        1
 72
     4
 94
        3
 73
     0
 74
     1
 95
       47
 96
       43
 40
0.0
 40
0.0
 40
0.0
 40
0.0
 40
1.0
 40
1.0
 40
1.0
 40
2.0
 40
2.0
 40
2.0
 40
3.0
 40
3.0
 40
3.0
 40
4.0
 40
4.0
 40
4.0
 40
5.0
 40
5.0
 40
5.0
 40
6.0
 40
6.0
 40
6.0
 40
7.0
 40
7.0
 40
7.0
 40
8.0
 40
8.0
 40
8.0
 40
9.0
 40
9.0
 40
9.0
 40
10.0
 40
10.0
 40
10.0
 40
11.0
 40
11.0
 40
11.0
 40
12.0
 40
12.0
 40
12.0
 40
13.0
 40
13.0
 40
13.0
 40
14.0
 40
14.0
 40
14.0
 40
14.0
 10
125.47265625
 20
286.7333984375
 10
125.47265625
 20
286.7333984375
 10
125.31201171875
 20
288.1328125
 10
125.31201171875
 20
288.1328125
 10
125.31201171875
 20
288.1328125
 10
125.2431640625
 20
288.1328125
 10
125.2431640625
 20
288.1328125
 10
124.62353515625
 20
287.26171875
 10
123.43017578125
 20
286.48046875
 10
121.8466796875
 20
286.48046875
 10
119.59765625
 20
286.48046875
 10
118.4501953125
 20
288.064453125
 10
118.4501953125
 20
289.6708984375
 10
118.4501953125
 20
292.35546875
 10
120.8369140625
 20
293.82421875
 10
125.12841796875
 20
293.8017578125
 10
125.12841796875
 20
293.8017578125
 10
125.12841796875
 20
294.03125
 10
125.12841796875
 20
294.03125
 10
125.12841796875
 20
294.94921875
 10
124.8759765625
 20
296.6015625
 10
122.60400390625
 20
296.6015625
 10
121.5712890625
 20
296.6015625
 10
120.49267578125
 20
296.2802734375
 10
119.71240234375
 20
295.775390625
 10
119.71240234375
 20
295.775390625
 10
119.25341796875
 20
297.1064453125
 10
119.25341796875
 20
297.1064453125
 10
120.17138671875
 20
297.703125
 10
121.50244140625
 20
298.09375
 10
122.90234375
 20
298.09375
 10
126.298828125
 20
298.09375
 10
127.125
 20
295.775390625
 10
127.125
 20
293.548828125
 10
127.125
 20
293.548828125
 10
127.125
 20
289.3955078125
 10
127.125
 20
289.3955078125
 10
127.125
 20
288.431640625
 10
127.1708984375
 20
287.490234375
 10
127.30859375
 20
286.7333984375
 10
127.30859375
 20
286.7333984375
 10
125.47265625
 20
286.7333984375
 10
125.47265625
 20
286.7333984375
 97
        0
 97
        0
 92
        1
 93
        1
 72
     4
 94
        3
 73
     0
 74
     1
 95
       20
 96
       16
 40
0.0
 40
0.0
 40
0.0
 40
0.0
 40
1.0
 40
1.0
 40
1.0
 40
2.0
 40
2.0
 40
2.0
 40
3.0
 40
3.0
 40
3.0
 40
4.0
 40
4.0
 40
4.0
 40
5.0
 40
5.0
 40
5.0
 40
5.0
 10
125.17431640625
 20
292.40234375
 10
122.97119140625
 20
292.447265625
 10
120.4697265625
 20
292.0576171875
 10
120.4697265625
 20
289.900390625
 10
120.4697265625
 20
288.591796875
 10
121.341796875
 20
287.97265625
 10
122.37451171875
 20
287.97265625
 10
123.8203125
 20
287.97265625
 10
124.73828125
 20
288.890625
 10
125.0595703125
 20
289.83203125
 10
125.12841796875
 20
290.0380859375
 10
125.17431640625
 20
290.267578125
 10
125.17431640625
 20
290.474609375
 10
125.17431640625
 20
290.474609375
 10
125.17431640625
 20
292.40234375
 10
125.17431640625
 20
292.40234375
 97
        0
 97
        0
 75
     2
 76
     1
 98
        0
  0
SPLINE
  5
76
330
6B
100
AcDbEntity
  8
Layer 4
370
     0
100
AcDbSpline
210
0.0
220
0.0
230
1.0
 70
    11
 71
     3
 72
    17
 73
    13
 74
     0
 42
0.0000000001
 43
0.0000000001
 12
1.0
 22
0.0
 32
0.0
 13
1.0
 23
0.0
 33
0.0
 40
0.0
 40
0.0
 40
0.0
 40
0.0
 40
1.0
 40
1.0
 40
1.0
 40
2.0
 40
2.0
 40
2.0
 40
3.0
 40
3.0
 40
3.0
 40
4.0
 40
4.0
 40
4.0
 40
4.0
 10
132.6298828125
 20
300.9619140625
 30
0.0
 10
132.65283203125
 20
300.2734375
 30
0.0
 10
132.14794921875
 20
299.72265625
 30
0.0
 10
131.3447265625
 20
299.72265625
 30
0.0
 10
130.63330078125
 20
299.72265625
 30
0.0
 10
130.12841796875
 20
300.2734375
 30
0.0
 10
130.12841796875
 20
300.9619140625
 30
0.0
 10
130.12841796875
 20
301.673828125
 30
0.0
 10
130.65625
 20
302.224609375
 30
0.0
 10
131.390625
 20
302.224609375
 30
0.0
 10
132.14794921875
 20
302.224609375
 30
0.0
 10
132.6298828125
 20
301.673828125
 30
0.0
 10
132.6298828125
 20
300.9619140625
 30
0.0
  0
POLYLINE
  5
77
330
6B
100
AcDbEntity
  8
Layer 4
370
     0
100
AcDb2dPolyline
 66
     1
 10
0.0
 20
0.0
 30
0.0
  0
VERTEX
  5
78
330
77
100
AcDbEntity
  8
Layer 4
370
     0
100
AcDbVertex
100
AcDb2dVertex
 10
130.380859375
 20
286.7333984375
 30
0.0
  0
VERTEX
  5
79
330
77
100
AcDbEntity
  8
Layer 4
370
     0
100
AcDbVertex
100
AcDb2dVertex
 10
130.380859375
 20
297.8408203125
 30
0.0
  0
VERTEX
  5
7A
330
77
100
AcDbEntity
  8
Layer 4
370
     0
100
AcDbVertex
100
AcDb2dVertex
 10
132.400390625
 20
297.8408203125
 30
0.0
  0
VERTEX
  5
7B
330
77
100
AcDbEntity
  8
Layer 4
370
     0
100
AcDbVertex
100
AcDb2dVertex
 10
132.400390625
 20
286.7333984375
 30
0.0
  0
VERTEX
  5
7C
330
77
100
AcDbEntity
  8
Layer 4
370
     0
100
AcDbVertex
100
AcDb2dVertex
 10
130.380859375
 20
286.7333984375
 30
0.0
  0
SEQEND
  5
7D
330
77
100
AcDbEntity
  8
Layer 4
370
     0
  0
HATCH
  5
7E
330
6B
100
AcDbEntity
  8
Layer 4
 62
   250
420
  2301728
100
AcDbHatch
 10
0.0
 20
0.0
 30
0.0
210
0.0
220
0.0
230
1.0
  2
SOLID
 70
     1
 71
     0
 91
        2
 92
        1
 93
        1
 72
     4
 94
        3
 73
     0
 74
     1
 95
       17
 96
       13
 40
0.0
 40
0.0
 40
0.0
 40
0.0
 40
1.0
 40
1.0
 40
1.0
 40
2.0
 40
2.0
 40
2.0
 40
3.0
 40
3.0
 40
3.0
 40
4.0
 40
4.0
 40
4.0
 40
4.0
 10
132.6298828125
 20
300.9619140625
 10
132.65283203125
 20
300.2734375
 10
132.14794921875
 20
299.72265625
 10
131.3447265625
 20
299.72265625
 10
130.63330078125
 20
299.72265625
 10
130.12841796875
 20
300.2734375
 10
130.12841796875
 20
300.9619140625
 10
130.12841796875
 20
301.673828125
 10
130.65625
 20
302.224609375
 10
131.390625
 20
302.224609375
 10
132.14794921875
 20
302.224609375
 10
132.6298828125
 20
301.673828125
 10
132.6298828125
 20
300.9619140625
 97
        0
 97
        0
 92
        1
 93
        4
 72
     1
 10
130.380859375
 20
286.7333984375
 11
130.380859375
 21
297.8408203125
 72
     1
 10
130.380859375
 20
297.8408203125
 11
132.400390625
 21
297.8408203125
 72
     1
 10
132.400390625
 20
297.8408203125
 11
132.400390625
 21
286.7333984375
 72
     1
 10
132.400390625
 20
286.7333984375
 11
130.380859375
 21
286.7333984375
 97
        0
 75
     2
 76
     1
 98
        0
  0
SPLINE
  5
7F
330
6B
100
AcDbEntity
  8
Layer 4
370
     0
100
AcDbSpline
210
0.0
220
0.0
230
1.0
 70
    11
 71
     3
 72
    50
 73
    46
 74
     0
 42
0.0000000001
 43
0.0000000001
 12
1.0
 22
0.0
 32
0.0
 13
1.0
 23
0.0
 33
0.0
 40
0.0
 40
0.0
 40
0.0
 40
0.0
 40
1.0
 40
1.0
 40
1.0
 40
2.0
 40
2.0
 40
2.0
 40
3.0
 40
3.0
 40
3.0
 40
4.0
 40
4.0
 40
4.0
 40
5.0
 40
5.0
 40
5.0
 40
6.0
 40
6.0
 40
6.0
 40
7.0
 40
7.0
 40
7.0
 40
8.0
 40
8.0
 40
8.0
 40
9.0
 40
9.0
 40
9.0
 40
10.0
 40
10.0
 40
10.0
 40
11.0
 40
11.0
 40
11.0
 40
12.0
 40
12.0
 40
12.0
 40
13.0
 40
13.0
 40
13.0
 40
14.0
 40
14.0
 40
14.0
 40
15.0
 40
15.0
 40
15.0
 40
15.0
 10
135.75
 20
294.833984375
 30
0.0
 10
135.75
 20
295.982421875
 30
0.0
 10
135.72705078125
 20
296.9228515625
 30
0.0
 10
135.658203125
 20
297.8408203125
 30
0.0
 10
135.658203125
 20
297.8408203125
 30
0.0
 10
137.4482421875
 20
297.8408203125
 30
0.0
 10
137.4482421875
 20
297.8408203125
 30
0.0
 10
137.4482421875
 20
297.8408203125
 30
0.0
 10
137.56298828125
 20
296.0048828125
 30
0.0
 10
137.56298828125
 20
296.0048828125
 30
0.0
 10
137.56298828125
 20
296.0048828125
 30
0.0
 10
137.60888671875
 20
296.0048828125
 30
0.0
 10
137.60888671875
 20
296.0048828125
 30
0.0
 10
138.15966796875
 20
297.060546875
 30
0.0
 10
139.44482421875
 20
298.09375
 30
0.0
 10
141.28076171875
 20
298.09375
 30
0.0
 10
142.818359375
 20
298.09375
 30
0.0
 10
145.205078125
 20
297.17578125
 30
0.0
 10
145.205078125
 20
293.365234375
 30
0.0
 10
145.205078125
 20
293.365234375
 30
0.0
 10
145.205078125
 20
286.7333984375
 30
0.0
 10
145.205078125
 20
286.7333984375
 30
0.0
 10
145.205078125
 20
286.7333984375
 30
0.0
 10
143.185546875
 20
286.7333984375
 30
0.0
 10
143.185546875
 20
286.7333984375
 30
0.0
 10
143.185546875
 20
286.7333984375
 30
0.0
 10
143.185546875
 20
293.13671875
 30
0.0
 10
143.185546875
 20
293.13671875
 30
0.0
 10
143.185546875
 20
294.92578125
 30
0.0
 10
142.52001953125
 20
296.41796875
 30
0.0
 10
140.615234375
 20
296.41796875
 30
0.0
 10
139.2841796875
 20
296.41796875
 30
0.0
 10
138.25146484375
 20
295.4765625
 30
0.0
 10
137.9072265625
 20
294.3525390625
 30
0.0
 10
137.8154296875
 20
294.099609375
 30
0.0
 10
137.76953125
 20
293.755859375
 30
0.0
 10
137.76953125
 20
293.412109375
 30
0.0
 10
137.76953125
 20
293.412109375
 30
0.0
 10
137.76953125
 20
286.7333984375
 30
0.0
 10
137.76953125
 20
286.7333984375
 30
0.0
 10
137.76953125
 20
286.7333984375
 30
0.0
 10
135.75
 20
286.7333984375
 30
0.0
 10
135.75
 20
286.7333984375
 30
0.0
 10
135.75
 20
286.7333984375
 30
0.0
 10
135.75
 20
294.833984375
 30
0.0
 10
135.75
 20
294.833984375
 30
0.0
  0
HATCH
  5
80
330
6B
100
AcDbEntity
  8
Layer 4
 62
   250
420
  2301728
100
AcDbHatch
 10
0.0
 20
0.0
 30
0.0
210
0.0
220
0.0
230
1.0
  2
SOLID
 70
     1
 71
     0
 91
        1
 92
        1
 93
        1
 72
     4
 94
        3
 73
     0
 74
     1
 95
       50
 96
       46
 40
0.0
 40
0.0
 40
0.0
 40
0.0
 40
1.0
 40
1.0
 40
1.0
 40
2.0
 40
2.0
 40
2.0
 40
3.0
 40
3.0
 40
3.0
 40
4.0
 40
4.0
 40
4.0
 40
5.0
 40
5.0
 40
5.0
 40
6.0
 40
6.0
 40
6.0
 40
7.0
 40
7.0
 40
7.0
 40
8.0
 40
8.0
 40
8.0
 40
9.0
 40
9.0
 40
9.0
 40
10.0
 40
10.0
 40
10.0
 40
11.0
 40
11.0
 40
11.0
 40
12.0
 40
12.0
 40
12.0
 40
13.0
 40
13.0
 40
13.0
 40
14.0
 40
14.0
 40
14.0
 40
15.0
 40
15.0
 40
15.0
 40
15.0
 10
135.75
 20
294.833984375
 10
135.75
 20
295.982421875
 10
135.72705078125
 20
296.9228515625
 10
135.658203125
 20
297.8408203125
 10
135.658203125
 20
297.8408203125
 10
137.4482421875
 20
297.8408203125
 10
137.4482421875
 20
297.8408203125
 10
137.4482421875
 20
297.8408203125
 10
137.56298828125
 20
296.0048828125
 10
137.56298828125
 20
296.0048828125
 10
137.56298828125
 20
296.0048828125
 10
137.60888671875
 20
296.0048828125
 10
137.60888671875
 20
296.0048828125
 10
138.15966796875
 20
297.060546875
 10
139.44482421875
 20
298.09375
 10
141.28076171875
 20
298.09375
 10
142.818359375
 20
298.09375
 10
145.205078125
 20
297.17578125
 10
145.205078125
 20
293.365234375
 10
145.205078125
 20
293.365234375
 10
145.205078125
 20
286.7333984375
 10
145.205078125
 20
286.7333984375
 10
145.205078125
 20
286.7333984375
 10
143.185546875
 20
286.7333984375
 10
143.185546875
 20
286.7333984375
 10
143.185546875
 20
286.7333984375
 10
143.185546875
 20
293.13671875
 10
143.185546875
 20
293.13671875
 10
143.185546875
 20
294.92578125
 10
142.52001953125
 20
296.41796875
 10
140.615234375
 20
296.41796875
 10
139.2841796875
 20
296.41796875
 10
138.25146484375
 20
295.4765625
 10
137.9072265625
 20
294.3525390625
 10
137.8154296875
 20
294.099609375
 10
137.76953125
 20
293.755859375
 10
137.76953125
 20
293.412109375
 10
137.76953125
 20
293.412109375
 10
137.76953125
 20
286.7333984375
 10
137.76953125
 20
286.7333984375
 10
137.76953125
 20
286.7333984375
 10
135.75
 20
286.7333984375
 10
135.75
 20
286.7333984375
 10
135.75
 20
286.7333984375
 10
135.75
 20
294.833984375
 10
135.75
 20
294.833984375
 97
        0
 97
        0
 75
     2
 76
     1
 98
        0
  0
POLYLINE
  5
81
330
6B
100
AcDbEntity
  8
Layer 4
370
     0
100
AcDb2dPolyline
 66
     1
 10
0.0
 20
0.0
 30
0.0
  0
VERTEX
  5
82
330
81
100
AcDbEntity
  8
Layer 4
370
     0
100
AcDbVertex
100
AcDb2dVertex
 10
107.72412109375
 20
275.494140625
 30
0.0
  0
VERTEX
  5
83
330
81
100
AcDbEntity
  8
Layer 4
370
     0
100
AcDbVertex
100
AcDb2dVertex
 10
109.74365234375
 20
275.494140625
 30
0.0
  0
VERTEX
  5
84
330
81
100
AcDbEntity
  8
Layer 4
370
     0
100
AcDbVertex
100
AcDb2dVertex
 10
109.74365234375
 20
259.2001953125
 30
0.0
  0
VERTEX
  5
85
330
81
100
AcDbEntity
  8
Layer 4
370
     0
100
AcDbVertex
100
AcDb2dVertex
 10
107.72412109375
 20
259.2001953125
 30
0.0
  0
VERTEX
  5
86
330
81
100
AcDbEntity
  8
Layer 4
370
     0
100
AcDbVertex
100
AcDb2dVertex
 10
107.72412109375
 20
275.494140625
 30
0.0
  0
SEQEND
  5
87
330
81
100
AcDbEntity
  8
Layer 4
370
     0
  0
HATCH
  5
88
330
6B
100
AcDbEntity
  8
Layer 4
 62
   250
420
  2301728
100
AcDbHatch
 10
0.0
 20
0.0
 30
0.0
210
0.0
220
0.0
230
1.0
  2
SOLID
 70
     1
 71
     0
 91
        1
 92
        1
 93
        4
 72
     1
 10
107.72412109375
 20
275.494140625
 11
109.74365234375
 21
275.494140625
 72
     1
 10
109.74365234375
 20
275.494140625
 11
109.74365234375
 21
259.2001953125
 72
     1
 10
109.74365234375
 20
259.2001953125
 11
107.72412109375
 21
259.2001953125
 72
     1
 10
107.72412109375
 20
259.2001953125
 11
107.72412109375
 21
275.494140625
 97
        0
 75
     2
 76
     1
 98
        0
  0
SPLINE
  5
89
330
6B
100
AcDbEntity
  8
Layer 4
370
     0
100
AcDbSpline
210
0.0
220
0.0
230
1.0
 70
    11
 71
     3
 72
    17
 73
    13
 74
     0
 42
0.0000000001
 43
0.0000000001
 12
1.0
 22
0.0
 32
0.0
 13
1.0
 23
0.0
 33
0.0
 40
0.0
 40
0.0
 40
0.0
 40
0.0
 40
1.0
 40
1.0
 40
1.0
 40
2.0
 40
2.0
 40
2.0
 40
3.0
 40
3.0
 40
3.0
 40
4.0
 40
4.0
 40
4.0
 40
4.0
 10
115.3876953125
 20
273.4287109375
 30
0.0
 10
115.41064453125
 20
272.740234375
 30
0.0
 10
114.90576171875
 20
272.189453125
 30
0.0
 10
114.1025390625
 20
272.189453125
 30
0.0
 10
113.39111328125
 20
272.189453125
 30
0.0
 10
112.88623046875
 20
272.740234375
 30
0.0
 10
112.88623046875
 20
273.4287109375
 30
0.0
 10
112.88623046875
 20
274.140625
 30
0.0
 10
113.4140625
 20
274.69140625
 30
0.0
 10
114.1484375
 20
274.69140625
 30
0.0
 10
114.90576171875
 20
274.69140625
 30
0.0
 10
115.3876953125
 20
274.140625
 30
0.0
 10
115.3876953125
 20
273.4287109375
 30
0.0
  0
POLYLINE
  5
8A
330
6B
100
AcDbEntity
  8
Layer 4
370
     0
100
AcDb2dPolyline
 66
     1
 10
0.0
 20
0.0
 30
0.0
  0
VERTEX
  5
8B
330
8A
100
AcDbEntity
  8
Layer 4
370
     0
100
AcDbVertex
100
AcDb2dVertex
 10
113.138671875
 20
259.2001953125
 30
0.0
  0
VERTEX
  5
8C
330
8A
100
AcDbEntity
  8
Layer 4
370
     0
100
AcDbVertex
100
AcDb2dVertex
 10
113.138671875
 20
270.3076171875
 30
0.0
  0
VERTEX
  5
8D
330
8A
100
AcDbEntity
  8
Layer 4
370
     0
100
AcDbVertex
100
AcDb2dVertex
 10
115.158203125
 20
270.3076171875
 30
0.0
  0
VERTEX
  5
8E
330
8A
100
AcDbEntity
  8
Layer 4
370
     0
100
AcDbVertex
100
AcDb2dVertex
 10
115.158203125
 20
259.2001953125
 30
0.0
  0
VERTEX
  5
8F
330
8A
100
AcDbEntity
  8
Layer 4
370
     0
100
AcDbVertex
100
AcDb2dVertex
 10
113.138671875
 20
259.2001953125
 30
0.0
  0
SEQEND
  5
90
330
8A
100
AcDbEntity
  8
Layer 4
370
     0
  0
HATCH
  5
91
330
6B
100
AcDbEntity
  8
Layer 4
 62
   250
420
  2301728
100
AcDbHatch
 10
0.0
 20
0.0
 30
0.0
210
0.0
220
0.0
230
1.0
  2
SOLID
 70
     1
 71
     0
 91
        2
 92
        1
 93
        1
 72
     4
 94
        3
 73
     0
 74
     1
 95
       17
 96
       13
 40
0.0
 40
0.0
 40
0.0
 40
0.0
 40
1.0
 40
1.0
 40
1.0
 40
2.0
 40
2.0
 40
2.0
 40
3.0
 40
3.0
 40
3.0
 40
4.0
 40
4.0
 40
4.0
 40
4.0
 10
115.3876953125
 20
273.4287109375
 10
115.41064453125
 20
272.740234375
 10
114.90576171875
 20
272.189453125
 10
114.1025390625
 20
272.189453125
 10
113.39111328125
 20
272.189453125
 10
112.88623046875
 20
272.740234375
 10
112.88623046875
 20
273.4287109375
 10
112.88623046875
 20
274.140625
 10
113.4140625
 20
274.69140625
 10
114.1484375
 20
274.69140625
 10
114.90576171875
 20
274.69140625
 10
115.3876953125
 20
274.140625
 10
115.3876953125
 20
273.4287109375
 97
        0
 97
        0
 92
        1
 93
        4
 72
     1
 10
113.138671875
 20
259.2001953125
 11
113.138671875
 21
270.3076171875
 72
     1
 10
113.138671875
 20
270.3076171875
 11
115.158203125
 21
270.3076171875
 72
     1
 10
115.158203125
 20
270.3076171875
 11
115.158203125
 21
259.2001953125
 72
     1
 10
115.158203125
 20
259.2001953125
 11
113.138671875
 21
259.2001953125
 97
        0
 75
     2
 76
     1
 98
        0
  0
SPLINE
  5
92
330
6B
100
AcDbEntity
  8
Layer 4
370
     0
100
AcDbSpline
210
0.0
220
0.0
230
1.0
 70
    11
 71
     3
 72
    50
 73
    46
 74
     0
 42
0.0000000001
 43
0.0000000001
 12
1.0
 22
0.0
 32
0.0
 13
1.0
 23
0.0
 33
0.0
 40
0.0
 40
0.0
 40
0.0
 40
0.0
 40
1.0
 40
1.0
 40
1.0
 40
2.0
 40
2.0
 40
2.0
 40
3.0
 40
3.0
 40
3.0
 40
4.0
 40
4.0
 40
4.0
 40
5.0
 40
5.0
 40
5.0
 40
6.0
 40
6.0
 40
6.0
 40
7.0
 40
7.0
 40
7.0
 40
8.0
 40
8.0
 40
8.0
 40
9.0
 40
9.0
 40
9.0
 40
10.0
 40
10.0
 40
10.0
 40
11.0
 40
11.0
 40
11.0
 40
12.0
 40
12.0
 40
12.0
 40
13.0
 40
13.0
 40
13.0
 40
14.0
 40
14.0
 40
14.0
 40
15.0
 40
15.0
 40
15.0
 40
15.0
 10
118.50732421875
 20
267.30078125
 30
0.0
 10
118.50732421875
 20
268.44921875
 30
0.0
 10
118.484375
 20
269.3896484375
 30
0.0
 10
118.41552734375
 20
270.3076171875
 30
0.0
 10
118.41552734375
 20
270.3076171875
 30
0.0
 10
120.20556640625
 20
270.3076171875
 30
0.0
 10
120.20556640625
 20
270.3076171875
 30
0.0
 10
120.20556640625
 20
270.3076171875
 30
0.0
 10
120.3203125
 20
268.4716796875
 30
0.0
 10
120.3203125
 20
268.4716796875
 30
0.0
 10
120.3203125
 20
268.4716796875
 30
0.0
 10
120.3662109375
 20
268.4716796875
 30
0.0
 10
120.3662109375
 20
268.4716796875
 30
0.0
 10
120.9169921875
 20
269.52734375
 30
0.0
 10
122.2021484375
 20
270.560546875
 30
0.0
 10
124.0380859375
 20
270.560546875
 30
0.0
 10
125.57568359375
 20
270.560546875
 30
0.0
 10
127.96240234375
 20
269.642578125
 30
0.0
 10
127.96240234375
 20
265.83203125
 30
0.0
 10
127.96240234375
 20
265.83203125
 30
0.0
 10
127.96240234375
 20
259.2001953125
 30
0.0
 10
127.96240234375
 20
259.2001953125
 30
0.0
 10
127.96240234375
 20
259.2001953125
 30
0.0
 10
125.94287109375
 20
259.2001953125
 30
0.0
 10
125.94287109375
 20
259.2001953125
 30
0.0
 10
125.94287109375
 20
259.2001953125
 30
0.0
 10
125.94287109375
 20
265.603515625
 30
0.0
 10
125.94287109375
 20
265.603515625
 30
0.0
 10
125.94287109375
 20
267.392578125
 30
0.0
 10
125.27734375
 20
268.884765625
 30
0.0
 10
123.37255859375
 20
268.884765625
 30
0.0
 10
122.04150390625
 20
268.884765625
 30
0.0
 10
121.0087890625
 20
267.943359375
 30
0.0
 10
120.66455078125
 20
266.8193359375
 30
0.0
 10
120.57275390625
 20
266.56640625
 30
0.0
 10
120.52685546875
 20
266.22265625
 30
0.0
 10
120.52685546875
 20
265.87890625
 30
0.0
 10
120.52685546875
 20
265.87890625
 30
0.0
 10
120.52685546875
 20
259.2001953125
 30
0.0
 10
120.52685546875
 20
259.2001953125
 30
0.0
 10
120.52685546875
 20
259.2001953125
 30
0.0
 10
118.50732421875
 20
259.2001953125
 30
0.0
 10
118.50732421875
 20
259.2001953125
 30
0.0
 10
118.50732421875
 20
259.2001953125
 30
0.0
 10
118.50732421875
 20
267.30078125
 30
0.0
 10
118.50732421875
 20
267.30078125
 30
0.0
  0
HATCH
  5
93
330
6B
100
AcDbEntity
  8
Layer 4
 62
   250
420
  2301728
100
AcDbHatch
 10
0.0
 20
0.0
 30
0.0
210
0.0
220
0.0
230
1.0
  2
SOLID
 70
     1
 71
     0
 91
        1
 92
        1
 93
        1
 72
     4
 94
        3
 73
     0
 74
     1
 95
       50
 96
       46
 40
0.0
 40
0.0
 40
0.0
 40
0.0
 40
1.0
 40
1.0
 40
1.0
 40
2.0
 40
2.0
 40
2.0
 40
3.0
 40
3.0
 40
3.0
 40
4.0
 40
4.0
 40
4.0
 40
5.0
 40
5.0
 40
5.0
 40
6.0
 40
6.0
 40
6.0
 40
7.0
 40
7.0
 40
7.0
 40
8.0
 40
8.0
 40
8.0
 40
9.0
 40
9.0
 40
9.0
 40
10.0
 40
10.0
 40
10.0
 40
11.0
 40
11.0
 40
11.0
 40
12.0
 40
12.0
 40
12.0
 40
13.0
 40
13.0
 40
13.0
 40
14.0
 40
14.0
 40
14.0
 40
15.0
 40
15.0
 40
15.0
 40
15.0
 10
118.50732421875
 20
267.30078125
 10
118.50732421875
 20
268.44921875
 10
118.484375
 20
269.3896484375
 10
118.41552734375
 20
270.3076171875
 10
118.41552734375
 20
270.3076171875
 10
120.20556640625
 20
270.3076171875
 10
120.20556640625
 20
270.3076171875
 10
120.20556640625
 20
270.3076171875
 10
120.3203125
 20
268.4716796875
 10
120.3203125
 20
268.4716796875
 10
120.3203125
 20
268.4716796875
 10
120.3662109375
 20
268.4716796875
 10
120.3662109375
 20
268.4716796875
 10
120.9169921875
 20
269.52734375
 10
122.2021484375
 20
270.560546875
 10
124.0380859375
 20
270.560546875
 10
125.57568359375
 20
270.560546875
 10
127.96240234375
 20
269.642578125
 10
127.96240234375
 20
265.83203125
 10
127.96240234375
 20
265.83203125
 10
127.96240234375
 20
259.2001953125
 10
127.96240234375
 20
259.2001953125
 10
127.96240234375
 20
259.2001953125
 10
125.94287109375
 20
259.2001953125
 10
125.94287109375
 20
259.2001953125
 10
125.94287109375
 20
259.2001953125
 10
125.94287109375
 20
265.603515625
 10
125.94287109375
 20
265.603515625
 10
125.94287109375
 20
267.392578125
 10
125.27734375
 20
268.884765625
 10
123.37255859375
 20
268.884765625
 10
122.04150390625
 20
268.884765625
 10
121.0087890625
 20
267.943359375
 10
120.66455078125
 20
266.8193359375
 10
120.57275390625
 20
266.56640625
 10
120.52685546875
 20
266.22265625
 10
120.52685546875
 20
265.87890625
 10
120.52685546875
 20
265.87890625
 10
120.52685546875
 20
259.2001953125
 10
120.52685546875
 20
259.2001953125
 10
120.52685546875
 20
259.2001953125
 10
118.50732421875
 20
259.2001953125
 10
118.50732421875
 20
259.2001953125
 10
118.50732421875
 20
259.2001953125
 10
118.50732421875
 20
267.30078125
 10
118.50732421875
 20
267.30078125
 97
        0
 97
        0
 75
     2
 76
     1
 98
        0
  0
SPLINE
  5
94
330
6B
100
AcDbEntity
  8
Layer 4
370
     0
100
AcDbSpline
210
0.0
220
0.0
230
1.0
 70
    11
 71
     3
 72
    32
 73
    28
 74
     0
 42
0.0000000001
 43
0.0000000001
 12
1.0
 22
0.0
 32
0.0
 13
1.0
 23
0.0
 33
0.0
 40
0.0
 40
0.0
 40
0.0
 40
0.0
 40
1.0
 40
1.0
 40
1.0
 40
2.0
 40
2.0
 40
2.0
 40
3.0
 40
3.0
 40
3.0
 40
4.0
 40
4.0
 40
4.0
 40
5.0
 40
5.0
 40
5.0
 40
6.0
 40
6.0
 40
6.0
 40
7.0
 40
7.0
 40
7.0
 40
8.0
 40
8.0
 40
8.0
 40
9.0
 40
9.0
 40
9.0
 40
9.0
 10
132.36572265625
 20
264.38671875
 30
0.0
 10
132.41162109375
 20
261.65625
 30
0.0
 10
134.15576171875
 20
260.53125
 30
0.0
 10
136.17529296875
 20
260.53125
 30
0.0
 10
137.62109375
 20
260.53125
 30
0.0
 10
138.4931640625
 20
260.783203125
 30
0.0
 10
139.25048828125
 20
261.10546875
 30
0.0
 10
139.25048828125
 20
261.10546875
 30
0.0
 10
139.5947265625
 20
259.6591796875
 30
0.0
 10
139.5947265625
 20
259.6591796875
 30
0.0
 10
138.88330078125
 20
259.337890625
 30
0.0
 10
137.6669921875
 20
258.970703125
 30
0.0
 10
135.89990234375
 20
258.970703125
 30
0.0
 10
132.48046875
 20
258.970703125
 30
0.0
 10
130.43798828125
 20
261.2197265625
 30
0.0
 10
130.43798828125
 20
264.5703125
 30
0.0
 10
130.43798828125
 20
267.9208984375
 30
0.0
 10
132.41162109375
 20
270.560546875
 30
0.0
 10
135.6474609375
 20
270.560546875
 30
0.0
 10
139.2734375
 20
270.560546875
 30
0.0
 10
140.2373046875
 20
267.3701171875
 30
0.0
 10
140.2373046875
 20
265.328125
 30
0.0
 10
140.2373046875
 20
264.9140625
 30
0.0
 10
140.19140625
 20
264.59375
 30
0.0
 10
140.16845703125
 20
264.38671875
 30
0.0
 10
140.16845703125
 20
264.38671875
 30
0.0
 10
132.36572265625
 20
264.38671875
 30
0.0
 10
132.36572265625
 20
264.38671875
 30
0.0
  0
SPLINE
  5
95
330
6B
100
AcDbEntity
  8
Layer 4
370
     0
100
AcDbSpline
210
0.0
220
0.0
230
1.0
 70
    11
 71
     3
 72
    14
 73
    10
 74
     0
 42
0.0000000001
 43
0.0000000001
 12
1.0
 22
0.0
 32
0.0
 13
1.0
 23
0.0
 33
0.0
 40
0.0
 40
0.0
 40
0.0
 40
0.0
 40
1.0
 40
1.0
 40
1.0
 40
2.0
 40
2.0
 40
2.0
 40
3.0
 40
3.0
 40
3.0
 40
3.0
 10
138.28662109375
 20
265.83203125
 30
0.0
 10
138.3095703125
 20
267.1171875
 30
0.0
 10
137.7587890625
 20
269.1142578125
 30
0.0
 10
135.48681640625
 20
269.1142578125
 30
0.0
 10
133.4443359375
 20
269.1142578125
 30
0.0
 10
132.54931640625
 20
267.232421875
 30
0.0
 10
132.388671875
 20
265.83203125
 30
0.0
 10
132.388671875
 20
265.83203125
 30
0.0
 10
138.28662109375
 20
265.83203125
 30
0.0
 10
138.28662109375
 20
265.83203125
 30
0.0
  0
HATCH
  5
96
330
6B
100
AcDbEntity
  8
Layer 4
 62
   250
420
  2301728
100
AcDbHatch
 10
0.0
 20
0.0
 30
0.0
210
0.0
220
0.0
230
1.0
  2
SOLID
 70
     1
 71
     0
 91
        2
 92
        1
 93
        1
 72
     4
 94
        3
 73
     0
 74
     1
 95
       32
 96
       28
 40
0.0
 40
0.0
 40
0.0
 40
0.0
 40
1.0
 40
1.0
 40
1.0
 40
2.0
 40
2.0
 40
2.0
 40
3.0
 40
3.0
 40
3.0
 40
4.0
 40
4.0
 40
4.0
 40
5.0
 40
5.0
 40
5.0
 40
6.0
 40
6.0
 40
6.0
 40
7.0
 40
7.0
 40
7.0
 40
8.0
 40
8.0
 40
8.0
 40
9.0
 40
9.0
 40
9.0
 40
9.0
 10
132.36572265625
 20
264.38671875
 10
132.41162109375
 20
261.65625
 10
134.15576171875
 20
260.53125
 10
136.17529296875
 20
260.53125
 10
137.62109375
 20
260.53125
 10
138.4931640625
 20
260.783203125
 10
139.25048828125
 20
261.10546875
 10
139.25048828125
 20
261.10546875
 10
139.5947265625
 20
259.6591796875
 10
139.5947265625
 20
259.6591796875
 10
138.88330078125
 20
259.337890625
 10
137.6669921875
 20
258.970703125
 10
135.89990234375
 20
258.970703125
 10
132.48046875
 20
258.970703125
 10
130.43798828125
 20
261.2197265625
 10
130.43798828125
 20
264.5703125
 10
130.43798828125
 20
267.9208984375
 10
132.41162109375
 20
270.560546875
 10
135.6474609375
 20
270.560546875
 10
139.2734375
 20
270.560546875
 10
140.2373046875
 20
267.3701171875
 10
140.2373046875
 20
265.328125
 10
140.2373046875
 20
264.9140625
 10
140.19140625
 20
264.59375
 10
140.16845703125
 20
264.38671875
 10
140.16845703125
 20
264.38671875
 10
132.36572265625
 20
264.38671875
 10
132.36572265625
 20
264.38671875
 97
        0
 97
        0
 92
        1
 93
        1
 72
     4
 94
        3
 73
     0
 74
     1
 95
       14
 96
       10
 40
0.0
 40
0.0
 40
0.0
 40
0.0
 40
1.0
 40
1.0
 40
1.0
 40
2.0
 40
2.0
 40
2.0
 40
3.0
 40
3.0
 40
3.0
 40
3.0
 10
138.28662109375
 20
265.83203125
 10
138.3095703125
 20
267.1171875
 10
137.7587890625
 20
269.1142578125
 10
135.48681640625
 20
269.1142578125
 10
133.4443359375
 20
269.1142578125
 10
132.54931640625
 20
267.232421875
 10
132.388671875
 20
265.83203125
 10
132.388671875
 20
265.83203125
 10
138.28662109375
 20
265.83203125
 10
138.28662109375
 20
265.83203125
 97
        0
 97
        0
 75
     2
 76
     1
 98
        0
  0
ENDBLK
  5
6E
330
6B
100
AcDbEntity
  8
0
100
AcDbBlockEnd
  0
BLOCK
  5
99
330
97
100
AcDbEntity
  8
0
100
AcDbBlockBegin
  2
block 3
 70
     0
 10
0.0
 20
0.0
 30
0.0
  3
block 3
  1

  0
POLYLINE
  5
9B
330
97
100
AcDbEntity
  8
Layer 4
370
     0
100
AcDb2dPolyline
 66
     1
 10
0.0
 20
0.0
 30
0.0
  0
VERTEX
  5
9C
330
9B
100
AcDbEntity
  8
Layer 4
370
     0
100
AcDbVertex
100
AcDb2dVertex
 10
123.29248046875
 20
460.9248046875
 30
0.0
  0
VERTEX
  5
9D
330
9B
100
AcDbEntity
  8
Layer 4
370
     0
100
AcDbVertex
100
AcDb2dVertex
 10
146.48388671875
 20
460.9248046875
 30
0.0
  0
VERTEX
  5
9E
330
9B
100
AcDbEntity
  8
Layer 4
370
     0
100
AcDbVertex
100
AcDb2dVertex
 10
146.48388671875
 20
457.931640625
 30
0.0
  0
VERTEX
  5
9F
330
9B
100
AcDbEntity
  8
Layer 4
370
     0
100
AcDbVertex
100
AcDb2dVertex
 10
123.29248046875
 20
457.931640625
 30
0.0
  0
VERTEX
  5
A0
330
9B
100
AcDbEntity
  8
Layer 4
370
     0
100
AcDbVertex
100
AcDb2dVertex
 10
123.29248046875
 20
460.9248046875
 30
0.0
  0
SEQEND
  5
A1
330
9B
100
AcDbEntity
  8
Layer 4
370
     0
  0
HATCH
  5
A2
330
97
100
AcDbEntity
  8
Layer 4
 62
   250
420
  2301728
100
AcDbHatch
 10
0.0
 20
0.0
 30
0.0
210
0.0
220
0.0
230
1.0
  2
SOLID
 70
     1
 71
     0
 91
        1
 92
        1
 93
        4
 72
     1
 10
123.29248046875
 20
460.9248046875
 11
146.48388671875
 21
460.9248046875
 72
     1
 10
146.48388671875
 20
460.9248046875
 11
146.48388671875
 21
457.931640625
 72
     1
 10
146.48388671875
 20
457.931640625
 11
123.29248046875
 21
457.931640625
 72
     1
 10
123.29248046875
 20
457.931640625
 11
123.29248046875
 21
460.9248046875
 97
        0
 75
     2
 76
     1
 98
        0
  0
POLYLINE
  5
A3
330
97
100
AcDbEntity
  8
Layer 4
370
     0
100
AcDb2dPolyline
 66
     1
 10
0.0
 20
0.0
 30
0.0
  0
VERTEX
  5
A4
330
A3
100
AcDbEntity
  8
Layer 4
370
     0
100
AcDbVertex
100
AcDb2dVertex
 10
122.0537109375
 20
466.3974609375
 30
0.0
  0
VERTEX
  5
A5
330
A3
100
AcDbEntity
  8
Layer 4
370
     0
100
AcDbVertex
100
AcDb2dVertex
 10
122.0537109375
 20
469.42529296875
 30
0.0
  0
VERTEX
  5
A6
330
A3
100
AcDbEntity
  8
Layer 4
370
     0
100
AcDbVertex
100
AcDb2dVertex
 10
146.48388671875
 20
469.42529296875
 30
0.0
  0
VERTEX
  5
A7
330
A3
100
AcDbEntity
  8
Layer 4
370
     0
100
AcDbVertex
100
AcDb2dVertex
 10
146.48388671875
 20
466.3974609375
 30
0.0
  0
VERTEX
  5
A8
330
A3
100
AcDbEntity
  8
Layer 4
370
     0
100
AcDbVertex
100
AcDb2dVertex
 10
122.0537109375
 20
466.3974609375
 30
0.0
  0
SEQEND
  5
A9
330
A3
100
AcDbEntity
  8
Layer 4
370
     0
  0
HATCH
  5
AA
330
97
100
AcDbEntity
  8
Layer 4
 62
   250
420
  2301728
100
AcDbHatch
 10
0.0
 20
0.0
 30
0.0
210
0.0
220
0.0
230
1.0
  2
SOLID
 70
     1
 71
     0
 91
        1
 92
        1
 93
        4
 72
     1
 10
122.0537109375
 20
466.3974609375
 11
122.0537109375
 21
469.42529296875
 72
     1
 10
122.0537109375
 20
469.42529296875
 11
146.48388671875
 21
469.42529296875
 72
     1
 10
146.48388671875
 20
469.42529296875
 11
146.48388671875
 21
466.3974609375
 72
     1
 10
146.48388671875
 20
466.3974609375
 11
122.0537109375
 21
466.3974609375
 97
        0
 75
     2
 76
     1
 98
        0
  0
POLYLINE
  5
AB
330
97
100
AcDbEntity
  8
Layer 4
370
     0
100
AcDb2dPolyline
 66
     1
 10
0.0
 20
0.0
 30
0.0
  0
VERTEX
  5
AC
330
AB
100
AcDbEntity
  8
Layer 4
370
     0
100
AcDbVertex
100
AcDb2dVertex
 10
122.0537109375
 20
474.51953125
 30
0.0
  0
VERTEX
  5
AD
330
AB
100
AcDbEntity
  8
Layer 4
370
     0
100
AcDbVertex
100
AcDb2dVertex
 10
122.0537109375
 20
477.54736328125
 30
0.0
  0
VERTEX
  5
AE
330
AB
100
AcDbEntity
  8
Layer 4
370
     0
100
AcDbVertex
100
AcDb2dVertex
 10
146.48388671875
 20
477.54736328125
 30
0.0
  0
VERTEX
  5
AF
330
AB
100
AcDbEntity
  8
Layer 4
370
     0
100
AcDbVertex
100
AcDb2dVertex
 10
146.48388671875
 20
474.51953125
 30
0.0
  0
VERTEX
  5
B0
330
AB
100
AcDbEntity
  8
Layer 4
370
     0
100
AcDbVertex
100
AcDb2dVertex
 10
122.0537109375
 20
474.51953125
 30
0.0
  0
SEQEND
  5
B1
330
AB
100
AcDbEntity
  8
Layer 4
370
     0
  0
HATCH
  5
B2
330
97
100
AcDbEntity
  8
Layer 4
 62
   250
420
  2301728
100
AcDbHatch
 10
0.0
 20
0.0
 30
0.0
210
0.0
220
0.0
230
1.0
  2
SOLID
 70
     1
 71
     0
 91
        1
 92
        1
 93
        4
 72
     1
 10
122.0537109375
 20
474.51953125
 11
122.0537109375
 21
477.54736328125
 72
     1
 10
122.0537109375
 20
477.54736328125
 11
146.48388671875
 21
477.54736328125
 72
     1
 10
146.48388671875
 20
477.54736328125
 11
146.48388671875
 21
474.51953125
 72
     1
 10
146.48388671875
 20
474.51953125
 11
122.0537109375
 21
474.51953125
 97
        0
 75
     2
 76
     1
 98
        0
  0
SPLINE
  5
B3
330
97
100
AcDbEntity
  8
Layer 4
370
     0
100
AcDbSpline
210
0.0
220
0.0
230
1.0
 70
    11
 71
     3
 72
    17
 73
    13
 74
     0
 42
0.0000000001
 43
0.0000000001
 12
1.0
 22
0.0
 32
0.0
 13
1.0
 23
0.0
 33
0.0
 40
0.0
 40
0.0
 40
0.0
 40
0.0
 40
1.0
 40
1.0
 40
1.0
 40
2.0
 40
2.0
 40
2.0
 40
3.0
 40
3.0
 40
3.0
 40
4.0
 40
4.0
 40
4.0
 40
4.0
 10
125.150390625
 20
486.01318359375
 30
0.0
 10
126.1826171875
 20
486.0478515625
 30
0.0
 10
127.0087890625
 20
485.29052734375
 30
0.0
 10
127.0087890625
 20
484.08642578125
 30
0.0
 10
127.0087890625
 20
483.01953125
 30
0.0
 10
126.1826171875
 20
482.2626953125
 30
0.0
 10
125.150390625
 20
482.2626953125
 30
0.0
 10
124.083984375
 20
482.2626953125
 30
0.0
 10
123.25830078125
 20
483.05419921875
 30
0.0
 10
123.25830078125
 20
484.1552734375
 30
0.0
 10
123.25830078125
 20
485.29052734375
 30
0.0
 10
124.083984375
 20
486.01318359375
 30
0.0
 10
125.150390625
 20
486.01318359375
 30
0.0
  0
POLYLINE
  5
B4
330
97
100
AcDbEntity
  8
Layer 4
370
     0
100
AcDb2dPolyline
 66
     1
 10
0.0
 20
0.0
 30
0.0
  0
VERTEX
  5
B5
330
B4
100
AcDbEntity
  8
Layer 4
370
     0
100
AcDbVertex
100
AcDb2dVertex
 10
146.48388671875
 20
482.64111328125
 30
0.0
  0
VERTEX
  5
B6
330
B4
100
AcDbEntity
  8
Layer 4
370
     0
100
AcDbVertex
100
AcDb2dVertex
 10
129.830078125
 20
482.64111328125
 30
0.0
  0
VERTEX
  5
B7
330
B4
100
AcDbEntity
  8
Layer 4
370
     0
100
AcDbVertex
100
AcDb2dVertex
 10
129.830078125
 20
485.6689453125
 30
0.0
  0
VERTEX
  5
B8
330
B4
100
AcDbEntity
  8
Layer 4
370
     0
100
AcDbVertex
100
AcDb2dVertex
 10
146.48388671875
 20
485.6689453125
 30
0.0
  0
VERTEX
  5
B9
330
B4
100
AcDbEntity
  8
Layer 4
370
     0
100
AcDbVertex
100
AcDb2dVertex
 10
146.48388671875
 20
482.64111328125
 30
0.0
  0
SEQEND
  5
BA
330
B4
100
AcDbEntity
  8
Layer 4
370
     0
  0
HATCH
  5
BB
330
97
100
AcDbEntity
  8
Layer 4
 62
   250
420
  2301728
100
AcDbHatch
 10
0.0
 20
0.0
 30
0.0
210
0.0
220
0.0
230
1.0
  2
SOLID
 70
     1
 71
     0
 91
        2
 92
        1
 93
        1
 72
     4
 94
        3
 73
     0
 74
     1
 95
       17
 96
       13
 40
0.0
 40
0.0
 40
0.0
 40
0.0
 40
1.0
 40
1.0
 40
1.0
 40
2.0
 40
2.0
 40
2.0
 40
3.0
 40
3.0
 40
3.0
 40
4.0
 40
4.0
 40
4.0
 40
4.0
 10
125.150390625
 20
486.01318359375
 10
126.1826171875
 20
486.0478515625
 10
127.0087890625
 20
485.29052734375
 10
127.0087890625
 20
484.08642578125
 10
127.0087890625
 20
483.01953125
 10
126.1826171875
 20
482.2626953125
 10
125.150390625
 20
482.2626953125
 10
124.083984375
 20
482.2626953125
 10
123.25830078125
 20
483.05419921875
 10
123.25830078125
 20
484.1552734375
 10
123.25830078125
 20
485.29052734375
 10
124.083984375
 20
486.01318359375
 10
125.150390625
 20
486.01318359375
 97
        0
 97
        0
 92
        1
 93
        4
 72
     1
 10
146.48388671875
 20
482.64111328125
 11
129.830078125
 21
482.64111328125
 72
     1
 10
129.830078125
 20
482.64111328125
 11
129.830078125
 21
485.6689453125
 72
     1
 10
129.830078125
 20
485.6689453125
 11
146.48388671875
 21
485.6689453125
 72
     1
 10
146.48388671875
 20
485.6689453125
 11
146.48388671875
 21
482.64111328125
 97
        0
 75
     2
 76
     1
 98
        0
  0
SPLINE
  5
BC
330
97
100
AcDbEntity
  8
Layer 4
370
     0
100
AcDbSpline
210
0.0
220
0.0
230
1.0
 70
    11
 71
     3
 72
    50
 73
    46
 74
     0
 42
0.0000000001
 43
0.0000000001
 12
1.0
 22
0.0
 32
0.0
 13
1.0
 23
0.0
 33
0.0
 40
0.0
 40
0.0
 40
0.0
 40
0.0
 40
1.0
 40
1.0
 40
1.0
 40
2.0
 40
2.0
 40
2.0
 40
3.0
 40
3.0
 40
3.0
 40
4.0
 40
4.0
 40
4.0
 40
5.0
 40
5.0
 40
5.0
 40
6.0
 40
6.0
 40
6.0
 40
7.0
 40
7.0
 40
7.0
 40
8.0
 40
8.0
 40
8.0
 40
9.0
 40
9.0
 40
9.0
 40
10.0
 40
10.0
 40
10.0
 40
11.0
 40
11.0
 40
11.0
 40
12.0
 40
12.0
 40
12.0
 40
13.0
 40
13.0
 40
13.0
 40
14.0
 40
14.0
 40
14.0
 40
15.0
 40
15.0
 40
15.0
 40
15.0
 10
134.337890625
 20
490.6943359375
 30
0.0
 10
132.6171875
 20
490.6943359375
 30
0.0
 10
131.20654296875
 20
490.66015625
 30
0.0
 10
129.830078125
 20
490.556640625
 30
0.0
 10
129.830078125
 20
490.556640625
 30
0.0
 10
129.830078125
 20
493.24072265625
 30
0.0
 10
129.830078125
 20
493.24072265625
 30
0.0
 10
129.830078125
 20
493.24072265625
 30
0.0
 10
132.5830078125
 20
493.41259765625
 30
0.0
 10
132.5830078125
 20
493.41259765625
 30
0.0
 10
132.5830078125
 20
493.41259765625
 30
0.0
 10
132.5830078125
 20
493.4814453125
 30
0.0
 10
132.5830078125
 20
493.4814453125
 30
0.0
 10
131.0
 20
494.30712890625
 30
0.0
 10
129.45166015625
 20
496.234375
 30
0.0
 10
129.45166015625
 20
498.98681640625
 30
0.0
 10
129.45166015625
 20
501.29248046875
 30
0.0
 10
130.828125
 20
504.87060546875
 30
0.0
 10
136.5400390625
 20
504.87060546875
 30
0.0
 10
136.5400390625
 20
504.87060546875
 30
0.0
 10
146.48388671875
 20
504.87060546875
 30
0.0
 10
146.48388671875
 20
504.87060546875
 30
0.0
 10
146.48388671875
 20
504.87060546875
 30
0.0
 10
146.48388671875
 20
501.8427734375
 30
0.0
 10
146.48388671875
 20
501.8427734375
 30
0.0
 10
146.48388671875
 20
501.8427734375
 30
0.0
 10
136.8837890625
 20
501.8427734375
 30
0.0
 10
136.8837890625
 20
501.8427734375
 30
0.0
 10
134.2001953125
 20
501.8427734375
 30
0.0
 10
131.96337890625
 20
500.8447265625
 30
0.0
 10
131.96337890625
 20
497.9892578125
 30
0.0
 10
131.96337890625
 20
495.9931640625
 30
0.0
 10
133.3740234375
 20
494.44482421875
 30
0.0
 10
135.06005859375
 20
493.9287109375
 30
0.0
 10
135.43896484375
 20
493.791015625
 30
0.0
 10
135.955078125
 20
493.72216796875
 30
0.0
 10
136.47119140625
 20
493.72216796875
 30
0.0
 10
136.47119140625
 20
493.72216796875
 30
0.0
 10
146.48388671875
 20
493.72216796875
 30
0.0
 10
146.48388671875
 20
493.72216796875
 30
0.0
 10
146.48388671875
 20
493.72216796875
 30
0.0
 10
146.48388671875
 20
490.6943359375
 30
0.0
 10
146.48388671875
 20
490.6943359375
 30
0.0
 10
146.48388671875
 20
490.6943359375
 30
0.0
 10
134.337890625
 20
490.6943359375
 30
0.0
 10
134.337890625
 20
490.6943359375
 30
0.0
  0
HATCH
  5
BD
330
97
100
AcDbEntity
  8
Layer 4
 62
   250
420
  2301728
100
AcDbHatch
 10
0.0
 20
0.0
 30
0.0
210
0.0
220
0.0
230
1.0
  2
SOLID
 70
     1
 71
     0
 91
        1
 92
        1
 93
        1
 72
     4
 94
        3
 73
     0
 74
     1
 95
       50
 96
       46
 40
0.0
 40
0.0
 40
0.0
 40
0.0
 40
1.0
 40
1.0
 40
1.0
 40
2.0
 40
2.0
 40
2.0
 40
3.0
 40
3.0
 40
3.0
 40
4.0
 40
4.0
 40
4.0
 40
5.0
 40
5.0
 40
5.0
 40
6.0
 40
6.0
 40
6.0
 40
7.0
 40
7.0
 40
7.0
 40
8.0
 40
8.0
 40
8.0
 40
9.0
 40
9.0
 40
9.0
 40
10.0
 40
10.0
 40
10.0
 40
11.0
 40
11.0
 40
11.0
 40
12.0
 40
12.0
 40
12.0
 40
13.0
 40
13.0
 40
13.0
 40
14.0
 40
14.0
 40
14.0
 40
15.0
 40
15.0
 40
15.0
 40
15.0
 10
134.337890625
 20
490.6943359375
 10
132.6171875
 20
490.6943359375
 10
131.20654296875
 20
490.66015625
 10
129.830078125
 20
490.556640625
 10
129.830078125
 20
490.556640625
 10
129.830078125
 20
493.24072265625
 10
129.830078125
 20
493.24072265625
 10
129.830078125
 20
493.24072265625
 10
132.5830078125
 20
493.41259765625
 10
132.5830078125
 20
493.41259765625
 10
132.5830078125
 20
493.41259765625
 10
132.5830078125
 20
493.4814453125
 10
132.5830078125
 20
493.4814453125
 10
131.0
 20
494.30712890625
 10
129.45166015625
 20
496.234375
 10
129.45166015625
 20
498.98681640625
 10
129.45166015625
 20
501.29248046875
 10
130.828125
 20
504.87060546875
 10
136.5400390625
 20
504.87060546875
 10
136.5400390625
 20
504.87060546875
 10
146.48388671875
 20
504.87060546875
 10
146.48388671875
 20
504.87060546875
 10
146.48388671875
 20
504.87060546875
 10
146.48388671875
 20
501.8427734375
 10
146.48388671875
 20
501.8427734375
 10
146.48388671875
 20
501.8427734375
 10
136.8837890625
 20
501.8427734375
 10
136.8837890625
 20
501.8427734375
 10
134.2001953125
 20
501.8427734375
 10
131.96337890625
 20
500.8447265625
 10
131.96337890625
 20
497.9892578125
 10
131.96337890625
 20
495.9931640625
 10
133.3740234375
 20
494.44482421875
 10
135.06005859375
 20
493.9287109375
 10
135.43896484375
 20
493.791015625
 10
135.955078125
 20
493.72216796875
 10
136.47119140625
 20
493.72216796875
 10
136.47119140625
 20
493.72216796875
 10
146.48388671875
 20
493.72216796875
 10
146.48388671875
 20
493.72216796875
 10
146.48388671875
 20
493.72216796875
 10
146.48388671875
 20
490.6943359375
 10
146.48388671875
 20
490.6943359375
 10
146.48388671875
 20
490.6943359375
 10
134.337890625
 20
490.6943359375
 10
134.337890625
 20
490.6943359375
 97
        0
 97
        0
 75
     2
 76
     1
 98
        0
  0
SPLINE
  5
BE
330
97
100
AcDbEntity
  8
Layer 4
370
     0
100
AcDbSpline
210
0.0
220
0.0
230
1.0
 70
    11
 71
     3
 72
    17
 73
    13
 74
     0
 42
0.0000000001
 43
0.0000000001
 12
1.0
 22
0.0
 32
0.0
 13
1.0
 23
0.0
 33
0.0
 40
0.0
 40
0.0
 40
0.0
 40
0.0
 40
1.0
 40
1.0
 40
1.0
 40
2.0
 40
2.0
 40
2.0
 40
3.0
 40
3.0
 40
3.0
 40
4.0
 40
4.0
 40
4.0
 40
4.0
 10
138.01953125
 20
524.8662109375
 30
0.0
 10
144.1787109375
 20
524.8662109375
 30
0.0
 10
146.8623046875
 20
520.59912109375
 30
0.0
 10
146.8623046875
 20
516.57373046875
 30
0.0
 10
146.8623046875
 20
512.06591796875
 30
0.0
 10
143.55908203125
 20
508.5908203125
 30
0.0
 10
138.29443359375
 20
508.5908203125
 30
0.0
 10
132.72021484375
 20
508.5908203125
 30
0.0
 10
129.45166015625
 20
512.23828125
 30
0.0
 10
129.45166015625
 20
516.8486328125
 30
0.0
 10
129.45166015625
 20
521.63134765625
 30
0.0
 10
132.9267578125
 20
524.8662109375
 30
0.0
 10
138.01953125
 20
524.8662109375
 30
0.0
  0
SPLINE
  5
BF
330
97
100
AcDbEntity
  8
Layer 4
370
     0
100
AcDbSpline
210
0.0
220
0.0
230
1.0
 70
    11
 71
     3
 72
    17
 73
    13
 74
     0
 42
0.0000000001
 43
0.0000000001
 12
1.0
 22
0.0
 32
0.0
 13
1.0
 23
0.0
 33
0.0
 40
0.0
 40
0.0
 40
0.0
 40
0.0
 40
1.0
 40
1.0
 40
1.0
 40
2.0
 40
2.0
 40
2.0
 40
3.0
 40
3.0
 40
3.0
 40
4.0
 40
4.0
 40
4.0
 40
4.0
 10
138.19140625
 20
511.6533203125
 30
0.0
 10
141.8388671875
 20
511.6533203125
 30
0.0
 10
144.59130859375
 20
513.751953125
 30
0.0
 10
144.59130859375
 20
516.7109375
 30
0.0
 10
144.59130859375
 20
519.6015625
 30
0.0
 10
141.873046875
 20
521.76904296875
 30
0.0
 10
138.12255859375
 20
521.76904296875
 30
0.0
 10
135.30126953125
 20
521.76904296875
 30
0.0
 10
131.72265625
 20
520.3583984375
 30
0.0
 10
131.72265625
 20
516.77978515625
 30
0.0
 10
131.72265625
 20
513.20166015625
 30
0.0
 10
135.02587890625
 20
511.6533203125
 30
0.0
 10
138.19140625
 20
511.6533203125
 30
0.0
  0
HATCH
  5
C0
330
97
100
AcDbEntity
  8
Layer 4
 62
   250
420
  2301728
100
AcDbHatch
 10
0.0
 20
0.0
 30
0.0
210
0.0
220
0.0
230
1.0
  2
SOLID
 70
     1
 71
     0
 91
        2
 92
        1
 93
        1
 72
     4
 94
        3
 73
     0
 74
     1
 95
       17
 96
       13
 40
0.0
 40
0.0
 40
0.0
 40
0.0
 40
1.0
 40
1.0
 40
1.0
 40
2.0
 40
2.0
 40
2.0
 40
3.0
 40
3.0
 40
3.0
 40
4.0
 40
4.0
 40
4.0
 40
4.0
 10
138.01953125
 20
524.8662109375
 10
144.1787109375
 20
524.8662109375
 10
146.8623046875
 20
520.59912109375
 10
146.8623046875
 20
516.57373046875
 10
146.8623046875
 20
512.06591796875
 10
143.55908203125
 20
508.5908203125
 10
138.29443359375
 20
508.5908203125
 10
132.72021484375
 20
508.5908203125
 10
129.45166015625
 20
512.23828125
 10
129.45166015625
 20
516.8486328125
 10
129.45166015625
 20
521.63134765625
 10
132.9267578125
 20
524.8662109375
 10
138.01953125
 20
524.8662109375
 97
        0
 97
        0
 92
        1
 93
        1
 72
     4
 94
        3
 73
     0
 74
     1
 95
       17
 96
       13
 40
0.0
 40
0.0
 40
0.0
 40
0.0
 40
1.0
 40
1.0
 40
1.0
 40
2.0
 40
2.0
 40
2.0
 40
3.0
 40
3.0
 40
3.0
 40
4.0
 40
4.0
 40
4.0
 40
4.0
 10
138.19140625
 20
511.6533203125
 10
141.8388671875
 20
511.6533203125
 10
144.59130859375
 20
513.751953125
 10
144.59130859375
 20
516.7109375
 10
144.59130859375
 20
519.6015625
 10
141.873046875
 20
521.76904296875
 10
138.12255859375
 20
521.76904296875
 10
135.30126953125
 20
521.76904296875
 10
131.72265625
 20
520.3583984375
 10
131.72265625
 20
516.77978515625
 10
131.72265625
 20
513.20166015625
 10
135.02587890625
 20
511.6533203125
 10
138.19140625
 20
511.6533203125
 97
        0
 97
        0
 75
     2
 76
     1
 98
        0
  0
SPLINE
  5
C1
330
97
100
AcDbEntity
  8
Layer 4
370
     0
100
AcDbSpline
210
0.0
220
0.0
230
1.0
 70
    11
 71
     3
 72
    17
 73
    13
 74
     0
 42
0.0000000001
 43
0.0000000001
 12
1.0
 22
0.0
 32
0.0
 13
1.0
 23
0.0
 33
0.0
 40
0.0
 40
0.0
 40
0.0
 40
0.0
 40
1.0
 40
1.0
 40
1.0
 40
2.0
 40
2.0
 40
2.0
 40
3.0
 40
3.0
 40
3.0
 40
4.0
 40
4.0
 40
4.0
 40
4.0
 10
125.150390625
 20
532.0615234375
 30
0.0
 10
126.1826171875
 20
532.09619140625
 30
0.0
 10
127.0087890625
 20
531.3388671875
 30
0.0
 10
127.0087890625
 20
530.134765625
 30
0.0
 10
127.0087890625
 20
529.06787109375
 30
0.0
 10
126.1826171875
 20
528.31103515625
 30
0.0
 10
125.150390625
 20
528.31103515625
 30
0.0
 10
124.083984375
 20
528.31103515625
 30
0.0
 10
123.25830078125
 20
529.1025390625
 30
0.0
 10
123.25830078125
 20
530.20361328125
 30
0.0
 10
123.25830078125
 20
531.3388671875
 30
0.0
 10
124.083984375
 20
532.0615234375
 30
0.0
 10
125.150390625
 20
532.0615234375
 30
0.0
  0
POLYLINE
  5
C2
330
97
100
AcDbEntity
  8
Layer 4
370
     0
100
AcDb2dPolyline
 66
     1
 10
0.0
 20
0.0
 30
0.0
  0
VERTEX
  5
C3
330
C2
100
AcDbEntity
  8
Layer 4
370
     0
100
AcDbVertex
100
AcDb2dVertex
 10
146.48388671875
 20
528.689453125
 30
0.0
  0
VERTEX
  5
C4
330
C2
100
AcDbEntity
  8
Layer 4
370
     0
100
AcDbVertex
100
AcDb2dVertex
 10
129.830078125
 20
528.689453125
 30
0.0
  0
VERTEX
  5
C5
330
C2
100
AcDbEntity
  8
Layer 4
370
     0
100
AcDbVertex
100
AcDb2dVertex
 10
129.830078125
 20
531.71728515625
 30
0.0
  0
VERTEX
  5
C6
330
C2
100
AcDbEntity
  8
Layer 4
370
     0
100
AcDbVertex
100
AcDb2dVertex
 10
146.48388671875
 20
531.71728515625
 30
0.0
  0
VERTEX
  5
C7
330
C2
100
AcDbEntity
  8
Layer 4
370
     0
100
AcDbVertex
100
AcDb2dVertex
 10
146.48388671875
 20
528.689453125
 30
0.0
  0
SEQEND
  5
C8
330
C2
100
AcDbEntity
  8
Layer 4
370
     0
  0
HATCH
  5
C9
330
97
100
AcDbEntity
  8
Layer 4
 62
   250
420
  2301728
100
AcDbHatch
 10
0.0
 20
0.0
 30
0.0
210
0.0
220
0.0
230
1.0
  2
SOLID
 70
     1
 71
     0
 91
        2
 92
        1
 93
        1
 72
     4
 94
        3
 73
     0
 74
     1
 95
       17
 96
       13
 40
0.0
 40
0.0
 40
0.0
 40
0.0
 40
1.0
 40
1.0
 40
1.0
 40
2.0
 40
2.0
 40
2.0
 40
3.0
 40
3.0
 40
3.0
 40
4.0
 40
4.0
 40
4.0
 40
4.0
 10
125.150390625
 20
532.0615234375
 10
126.1826171875
 20
532.09619140625
 10
127.0087890625
 20
531.3388671875
 10
127.0087890625
 20
530.134765625
 10
127.0087890625
 20
529.06787109375
 10
126.1826171875
 20
528.31103515625
 10
125.150390625
 20
528.31103515625
 10
124.083984375
 20
528.31103515625
 10
123.25830078125
 20
529.1025390625
 10
123.25830078125
 20
530.20361328125
 10
123.25830078125
 20
531.3388671875
 10
124.083984375
 20
532.0615234375
 10
125.150390625
 20
532.0615234375
 97
        0
 97
        0
 92
        1
 93
        4
 72
     1
 10
146.48388671875
 20
528.689453125
 11
129.830078125
 21
528.689453125
 72
     1
 10
129.830078125
 20
528.689453125
 11
129.830078125
 21
531.71728515625
 72
     1
 10
129.830078125
 20
531.71728515625
 11
146.48388671875
 21
531.71728515625
 72
     1
 10
146.48388671875
 20
531.71728515625
 11
146.48388671875
 21
528.689453125
 97
        0
 75
     2
 76
     1
 98
        0
  0
SPLINE
  5
CA
330
97
100
AcDbEntity
  8
Layer 4
370
     0
100
AcDbSpline
210
0.0
220
0.0
230
1.0
 70
    11
 71
     3
 72
    47
 73
    43
 74
     0
 42
0.0000000001
 43
0.0000000001
 12
1.0
 22
0.0
 32
0.0
 13
1.0
 23
0.0
 33
0.0
 40
0.0
 40
0.0
 40
0.0
 40
0.0
 40
1.0
 40
1.0
 40
1.0
 40
2.0
 40
2.0
 40
2.0
 40
3.0
 40
3.0
 40
3.0
 40
4.0
 40
4.0
 40
4.0
 40
5.0
 40
5.0
 40
5.0
 40
6.0
 40
6.0
 40
6.0
 40
7.0
 40
7.0
 40
7.0
 40
8.0
 40
8.0
 40
8.0
 40
9.0
 40
9.0
 40
9.0
 40
10.0
 40
10.0
 40
10.0
 40
11.0
 40
11.0
 40
11.0
 40
12.0
 40
12.0
 40
12.0
 40
13.0
 40
13.0
 40
13.0
 40
14.0
 40
14.0
 40
14.0
 40
14.0
 10
143.38720703125
 20
536.32958984375
 30
0.0
 10
143.97216796875
 20
537.22412109375
 30
0.0
 10
144.59130859375
 20
538.806640625
 30
0.0
 10
144.59130859375
 20
540.32080078125
 30
0.0
 10
144.59130859375
 20
542.52294921875
 30
0.0
 10
143.490234375
 20
543.55517578125
 30
0.0
 10
142.11376953125
 20
543.55517578125
 30
0.0
 10
140.6689453125
 20
543.55517578125
 30
0.0
 10
139.87744140625
 20
542.69482421875
 30
0.0
 10
139.0517578125
 20
540.45849609375
 30
0.0
 10
137.98486328125
 20
537.46484375
 30
0.0
 10
136.33349609375
 20
536.05419921875
 30
0.0
 10
134.337890625
 20
536.05419921875
 30
0.0
 10
131.65380859375
 20
536.05419921875
 30
0.0
 10
129.45166015625
 20
538.2216796875
 30
0.0
 10
129.45166015625
 20
541.80029296875
 30
0.0
 10
129.45166015625
 20
543.486328125
 30
0.0
 10
129.93359375
 20
544.9658203125
 30
0.0
 10
130.48388671875
 20
545.89501953125
 30
0.0
 10
130.48388671875
 20
545.89501953125
 30
0.0
 10
132.68603515625
 20
545.13818359375
 30
0.0
 10
132.68603515625
 20
545.13818359375
 30
0.0
 10
132.27294921875
 20
544.484375
 30
0.0
 10
131.72265625
 20
543.27978515625
 30
0.0
 10
131.72265625
 20
541.7314453125
 30
0.0
 10
131.72265625
 20
539.9423828125
 30
0.0
 10
132.7548828125
 20
538.9443359375
 30
0.0
 10
133.99365234375
 20
538.9443359375
 30
0.0
 10
135.3701171875
 20
538.9443359375
 30
0.0
 10
135.9892578125
 20
539.9423828125
 30
0.0
 10
136.81494140625
 20
542.10986328125
 30
0.0
 10
137.916015625
 20
545.00048828125
 30
0.0
 10
139.361328125
 20
546.47998046875
 30
0.0
 10
141.8388671875
 20
546.47998046875
 30
0.0
 10
144.763671875
 20
546.47998046875
 30
0.0
 10
146.828125
 20
544.208984375
 30
0.0
 10
146.828125
 20
540.251953125
 30
0.0
 10
146.828125
 20
538.42822265625
 30
0.0
 10
146.380859375
 20
536.7421875
 30
0.0
 10
145.6923828125
 20
535.572265625
 30
0.0
 10
145.6923828125
 20
535.572265625
 30
0.0
 10
143.38720703125
 20
536.32958984375
 30
0.0
 10
143.38720703125
 20
536.32958984375
 30
0.0
  0
HATCH
  5
CB
330
97
100
AcDbEntity
  8
Layer 4
 62
   250
420
  2301728
100
AcDbHatch
 10
0.0
 20
0.0
 30
0.0
210
0.0
220
0.0
230
1.0
  2
SOLID
 70
     1
 71
     0
 91
        1
 92
        1
 93
        1
 72
     4
 94
        3
 73
     0
 74
     1
 95
       47
 96
       43
 40
0.0
 40
0.0
 40
0.0
 40
0.0
 40
1.0
 40
1.0
 40
1.0
 40
2.0
 40
2.0
 40
2.0
 40
3.0
 40
3.0
 40
3.0
 40
4.0
 40
4.0
 40
4.0
 40
5.0
 40
5.0
 40
5.0
 40
6.0
 40
6.0
 40
6.0
 40
7.0
 40
7.0
 40
7.0
 40
8.0
 40
8.0
 40
8.0
 40
9.0
 40
9.0
 40
9.0
 40
10.0
 40
10.0
 40
10.0
 40
11.0
 40
11.0
 40
11.0
 40
12.0
 40
12.0
 40
12.0
 40
13.0
 40
13.0
 40
13.0
 40
14.0
 40
14.0
 40
14.0
 40
14.0
 10
143.38720703125
 20
536.32958984375
 10
143.97216796875
 20
537.22412109375
 10
144.59130859375
 20
538.806640625
 10
144.59130859375
 20
540.32080078125
 10
144.59130859375
 20
542.52294921875
 10
143.490234375
 20
543.55517578125
 10
142.11376953125
 20
543.55517578125
 10
140.6689453125
 20
543.55517578125
 10
139.87744140625
 20
542.69482421875
 10
139.0517578125
 20
540.45849609375
 10
137.98486328125
 20
537.46484375
 10
136.33349609375
 20
536.05419921875
 10
134.337890625
 20
536.05419921875
 10
131.65380859375
 20
536.05419921875
 10
129.45166015625
 20
538.2216796875
 10
129.45166015625
 20
541.80029296875
 10
129.45166015625
 20
543.486328125
 10
129.93359375
 20
544.9658203125
 10
130.48388671875
 20
545.89501953125
 10
130.48388671875
 20
545.89501953125
 10
132.68603515625
 20
545.13818359375
 10
132.68603515625
 20
545.13818359375
 10
132.27294921875
 20
544.484375
 10
131.72265625
 20
543.27978515625
 10
131.72265625
 20
541.7314453125
 10
131.72265625
 20
539.9423828125
 10
132.7548828125
 20
538.9443359375
 10
133.99365234375
 20
538.9443359375
 10
135.3701171875
 20
538.9443359375
 10
135.9892578125
 20
539.9423828125
 10
136.81494140625
 20
542.10986328125
 10
137.916015625
 20
545.00048828125
 10
139.361328125
 20
546.47998046875
 10
141.8388671875
 20
546.47998046875
 10
144.763671875
 20
546.47998046875
 10
146.828125
 20
544.208984375
 10
146.828125
 20
540.251953125
 10
146.828125
 20
538.42822265625
 10
146.380859375
 20
536.7421875
 10
145.6923828125
 20
535.572265625
 10
145.6923828125
 20
535.572265625
 10
143.38720703125
 20
536.32958984375
 10
143.38720703125
 20
536.32958984375
 97
        0
 97
        0
 75
     2
 76
     1
 98
        0
  0
SPLINE
  5
CC
330
97
100
AcDbEntity
  8
Layer 4
370
     0
100
AcDbSpline
210
0.0
220
0.0
230
1.0
 70
    11
 71
     3
 72
    41
 73
    37
 74
     0
 42
0.0000000001
 43
0.0000000001
 12
1.0
 22
0.0
 32
0.0
 13
1.0
 23
0.0
 33
0.0
 40
0.0
 40
0.0
 40
0.0
 40
0.0
 40
1.0
 40
1.0
 40
1.0
 40
2.0
 40
2.0
 40
2.0
 40
3.0
 40
3.0
 40
3.0
 40
4.0
 40
4.0
 40
4.0
 40
5.0
 40
5.0
 40
5.0
 40
6.0
 40
6.0
 40
6.0
 40
7.0
 40
7.0
 40
7.0
 40
8.0
 40
8.0
 40
8.0
 40
9.0
 40
9.0
 40
9.0
 40
10.0
 40
10.0
 40
10.0
 40
11.0
 40
11.0
 40
11.0
 40
12.0
 40
12.0
 40
12.0
 40
12.0
 10
135.2666015625
 20
550.37109375
 30
0.0
 10
133.13330078125
 20
550.37109375
 30
0.0
 10
131.4130859375
 20
550.30224609375
 30
0.0
 10
129.830078125
 20
550.2333984375
 30
0.0
 10
129.830078125
 20
550.2333984375
 30
0.0
 10
129.830078125
 20
552.95166015625
 30
0.0
 10
129.830078125
 20
552.95166015625
 30
0.0
 10
129.830078125
 20
552.95166015625
 30
0.0
 10
132.68603515625
 20
553.08935546875
 30
0.0
 10
132.68603515625
 20
553.08935546875
 30
0.0
 10
132.68603515625
 20
553.08935546875
 30
0.0
 10
132.68603515625
 20
553.158203125
 30
0.0
 10
132.68603515625
 20
553.158203125
 30
0.0
 10
130.65576171875
 20
554.39697265625
 30
0.0
 10
129.45166015625
 20
556.3583984375
 30
0.0
 10
129.45166015625
 20
559.07666015625
 30
0.0
 10
129.45166015625
 20
563.1025390625
 30
0.0
 10
132.85791015625
 20
566.13037109375
 30
0.0
 10
137.916015625
 20
566.13037109375
 30
0.0
 10
143.9033203125
 20
566.13037109375
 30
0.0
 10
146.8623046875
 20
562.48291015625
 30
0.0
 10
146.8623046875
 20
558.560546875
 30
0.0
 10
146.8623046875
 20
556.3583984375
 30
0.0
 10
145.89892578125
 20
554.431640625
 30
0.0
 10
144.24755859375
 20
553.43359375
 30
0.0
 10
144.24755859375
 20
553.43359375
 30
0.0
 10
144.24755859375
 20
553.36474609375
 30
0.0
 10
144.24755859375
 20
553.36474609375
 30
0.0
 10
144.24755859375
 20
553.36474609375
 30
0.0
 10
153.296875
 20
553.36474609375
 30
0.0
 10
153.296875
 20
553.36474609375
 30
0.0
 10
153.296875
 20
553.36474609375
 30
0.0
 10
153.296875
 20
550.37109375
 30
0.0
 10
153.296875
 20
550.37109375
 30
0.0
 10
153.296875
 20
550.37109375
 30
0.0
 10
135.2666015625
 20
550.37109375
 30
0.0
 10
135.2666015625
 20
550.37109375
 30
0.0
  0
SPLINE
  5
CD
330
97
100
AcDbEntity
  8
Layer 4
370
     0
100
AcDbSpline
210
0.0
220
0.0
230
1.0
 70
    11
 71
     3
 72
    26
 73
    22
 74
     0
 42
0.0000000001
 43
0.0000000001
 12
1.0
 22
0.0
 32
0.0
 13
1.0
 23
0.0
 33
0.0
 40
0.0
 40
0.0
 40
0.0
 40
0.0
 40
1.0
 40
1.0
 40
1.0
 40
2.0
 40
2.0
 40
2.0
 40
3.0
 40
3.0
 40
3.0
 40
4.0
 40
4.0
 40
4.0
 40
5.0
 40
5.0
 40
5.0
 40
6.0
 40
6.0
 40
6.0
 40
7.0
 40
7.0
 40
7.0
 40
7.0
 10
139.70556640625
 20
553.36474609375
 30
0.0
 10
140.15283203125
 20
553.36474609375
 30
0.0
 10
140.5654296875
 20
553.43359375
 30
0.0
 10
140.9443359375
 20
553.50244140625
 30
0.0
 10
143.04296875
 20
554.052734375
 30
0.0
 10
144.48828125
 20
555.87646484375
 30
0.0
 10
144.48828125
 20
558.04443359375
 30
0.0
 10
144.48828125
 20
561.244140625
 30
0.0
 10
141.873046875
 20
563.1025390625
 30
0.0
 10
138.0537109375
 20
563.1025390625
 30
0.0
 10
134.71630859375
 20
563.1025390625
 30
0.0
 10
131.8603515625
 20
561.34765625
 30
0.0
 10
131.8603515625
 20
558.1474609375
 30
0.0
 10
131.8603515625
 20
556.0830078125
 30
0.0
 10
133.33984375
 20
554.15625
 30
0.0
 10
135.61083984375
 20
553.5712890625
 30
0.0
 10
135.9892578125
 20
553.4677734375
 30
0.0
 10
136.4365234375
 20
553.36474609375
 30
0.0
 10
136.849609375
 20
553.36474609375
 30
0.0
 10
136.849609375
 20
553.36474609375
 30
0.0
 10
139.70556640625
 20
553.36474609375
 30
0.0
 10
139.70556640625
 20
553.36474609375
 30
0.0
  0
HATCH
  5
CE
330
97
100
AcDbEntity
  8
Layer 4
 62
   250
420
  2301728
100
AcDbHatch
 10
0.0
 20
0.0
 30
0.0
210
0.0
220
0.0
230
1.0
  2
SOLID
 70
     1
 71
     0
 91
        2
 92
        1
 93
        1
 72
     4
 94
        3
 73
     0
 74
     1
 95
       41
 96
       37
 40
0.0
 40
0.0
 40
0.0
 40
0.0
 40
1.0
 40
1.0
 40
1.0
 40
2.0
 40
2.0
 40
2.0
 40
3.0
 40
3.0
 40
3.0
 40
4.0
 40
4.0
 40
4.0
 40
5.0
 40
5.0
 40
5.0
 40
6.0
 40
6.0
 40
6.0
 40
7.0
 40
7.0
 40
7.0
 40
8.0
 40
8.0
 40
8.0
 40
9.0
 40
9.0
 40
9.0
 40
10.0
 40
10.0
 40
10.0
 40
11.0
 40
11.0
 40
11.0
 40
12.0
 40
12.0
 40
12.0
 40
12.0
 10
135.2666015625
 20
550.37109375
 10
133.13330078125
 20
550.37109375
 10
131.4130859375
 20
550.30224609375
 10
129.830078125
 20
550.2333984375
 10
129.830078125
 20
550.2333984375
 10
129.830078125
 20
552.95166015625
 10
129.830078125
 20
552.95166015625
 10
129.830078125
 20
552.95166015625
 10
132.68603515625
 20
553.08935546875
 10
132.68603515625
 20
553.08935546875
 10
132.68603515625
 20
553.08935546875
 10
132.68603515625
 20
553.158203125
 10
132.68603515625
 20
553.158203125
 10
130.65576171875
 20
554.39697265625
 10
129.45166015625
 20
556.3583984375
 10
129.45166015625
 20
559.07666015625
 10
129.45166015625
 20
563.1025390625
 10
132.85791015625
 20
566.13037109375
 10
137.916015625
 20
566.13037109375
 10
143.9033203125
 20
566.13037109375
 10
146.8623046875
 20
562.48291015625
 10
146.8623046875
 20
558.560546875
 10
146.8623046875
 20
556.3583984375
 10
145.89892578125
 20
554.431640625
 10
144.24755859375
 20
553.43359375
 10
144.24755859375
 20
553.43359375
 10
144.24755859375
 20
553.36474609375
 10
144.24755859375
 20
553.36474609375
 10
144.24755859375
 20
553.36474609375
 10
153.296875
 20
553.36474609375
 10
153.296875
 20
553.36474609375
 10
153.296875
 20
553.36474609375
 10
153.296875
 20
550.37109375
 10
153.296875
 20
550.37109375
 10
153.296875
 20
550.37109375
 10
135.2666015625
 20
550.37109375
 10
135.2666015625
 20
550.37109375
 97
        0
 97
        0
 92
        1
 93
        1
 72
     4
 94
        3
 73
     0
 74
     1
 95
       26
 96
       22
 40
0.0
 40
0.0
 40
0.0
 40
0.0
 40
1.0
 40
1.0
 40
1.0
 40
2.0
 40
2.0
 40
2.0
 40
3.0
 40
3.0
 40
3.0
 40
4.0
 40
4.0
 40
4.0
 40
5.0
 40
5.0
 40
5.0
 40
6.0
 40
6.0
 40
6.0
 40
7.0
 40
7.0
 40
7.0
 40
7.0
 10
139.70556640625
 20
553.36474609375
 10
140.15283203125
 20
553.36474609375
 10
140.5654296875
 20
553.43359375
 10
140.9443359375
 20
553.50244140625
 10
143.04296875
 20
554.052734375
 10
144.48828125
 20
555.87646484375
 10
144.48828125
 20
558.04443359375
 10
144.48828125
 20
561.244140625
 10
141.873046875
 20
563.1025390625
 10
138.0537109375
 20
563.1025390625
 10
134.71630859375
 20
563.1025390625
 10
131.8603515625
 20
561.34765625
 10
131.8603515625
 20
558.1474609375
 10
131.8603515625
 20
556.0830078125
 10
133.33984375
 20
554.15625
 10
135.61083984375
 20
553.5712890625
 10
135.9892578125
 20
553.4677734375
 10
136.4365234375
 20
553.36474609375
 10
136.849609375
 20
553.36474609375
 10
136.849609375
 20
553.36474609375
 10
139.70556640625
 20
553.36474609375
 10
139.70556640625
 20
553.36474609375
 97
        0
 97
        0
 75
     2
 76
     1
 98
        0
  0
SPLINE
  5
CF
330
97
100
AcDbEntity
  8
Layer 4
370
     0
100
AcDbSpline
210
0.0
220
0.0
230
1.0
 70
    11
 71
     3
 72
    41
 73
    37
 74
     0
 42
0.0000000001
 43
0.0000000001
 12
1.0
 22
0.0
 32
0.0
 13
1.0
 23
0.0
 33
0.0
 40
0.0
 40
0.0
 40
0.0
 40
0.0
 40
1.0
 40
1.0
 40
1.0
 40
2.0
 40
2.0
 40
2.0
 40
3.0
 40
3.0
 40
3.0
 40
4.0
 40
4.0
 40
4.0
 40
5.0
 40
5.0
 40
5.0
 40
6.0
 40
6.0
 40
6.0
 40
7.0
 40
7.0
 40
7.0
 40
8.0
 40
8.0
 40
8.0
 40
9.0
 40
9.0
 40
9.0
 40
10.0
 40
10.0
 40
10.0
 40
11.0
 40
11.0
 40
11.0
 40
12.0
 40
12.0
 40
12.0
 40
12.0
 10
135.2666015625
 20
569.953125
 30
0.0
 10
133.13330078125
 20
569.953125
 30
0.0
 10
131.4130859375
 20
569.88427734375
 30
0.0
 10
129.830078125
 20
569.8154296875
 30
0.0
 10
129.830078125
 20
569.8154296875
 30
0.0
 10
129.830078125
 20
572.53369140625
 30
0.0
 10
129.830078125
 20
572.53369140625
 30
0.0
 10
129.830078125
 20
572.53369140625
 30
0.0
 10
132.68603515625
 20
572.67138671875
 30
0.0
 10
132.68603515625
 20
572.67138671875
 30
0.0
 10
132.68603515625
 20
572.67138671875
 30
0.0
 10
132.68603515625
 20
572.740234375
 30
0.0
 10
132.68603515625
 20
572.740234375
 30
0.0
 10
130.65576171875
 20
573.97900390625
 30
0.0
 10
129.45166015625
 20
575.9404296875
 30
0.0
 10
129.45166015625
 20
578.65869140625
 30
0.0
 10
129.45166015625
 20
582.6845703125
 30
0.0
 10
132.85791015625
 20
585.71240234375
 30
0.0
 10
137.916015625
 20
585.71240234375
 30
0.0
 10
143.9033203125
 20
585.71240234375
 30
0.0
 10
146.8623046875
 20
582.06494140625
 30
0.0
 10
146.8623046875
 20
578.142578125
 30
0.0
 10
146.8623046875
 20
575.9404296875
 30
0.0
 10
145.89892578125
 20
574.013671875
 30
0.0
 10
144.24755859375
 20
573.015625
 30
0.0
 10
144.24755859375
 20
573.015625
 30
0.0
 10
144.24755859375
 20
572.94677734375
 30
0.0
 10
144.24755859375
 20
572.94677734375
 30
0.0
 10
144.24755859375
 20
572.94677734375
 30
0.0
 10
153.296875
 20
572.94677734375
 30
0.0
 10
153.296875
 20
572.94677734375
 30
0.0
 10
153.296875
 20
572.94677734375
 30
0.0
 10
153.296875
 20
569.953125
 30
0.0
 10
153.296875
 20
569.953125
 30
0.0
 10
153.296875
 20
569.953125
 30
0.0
 10
135.2666015625
 20
569.953125
 30
0.0
 10
135.2666015625
 20
569.953125
 30
0.0
  0
SPLINE
  5
D0
330
97
100
AcDbEntity
  8
Layer 4
370
     0
100
AcDbSpline
210
0.0
220
0.0
230
1.0
 70
    11
 71
     3
 72
    26
 73
    22
 74
     0
 42
0.0000000001
 43
0.0000000001
 12
1.0
 22
0.0
 32
0.0
 13
1.0
 23
0.0
 33
0.0
 40
0.0
 40
0.0
 40
0.0
 40
0.0
 40
1.0
 40
1.0
 40
1.0
 40
2.0
 40
2.0
 40
2.0
 40
3.0
 40
3.0
 40
3.0
 40
4.0
 40
4.0
 40
4.0
 40
5.0
 40
5.0
 40
5.0
 40
6.0
 40
6.0
 40
6.0
 40
7.0
 40
7.0
 40
7.0
 40
7.0
 10
139.70556640625
 20
572.94677734375
 30
0.0
 10
140.15283203125
 20
572.94677734375
 30
0.0
 10
140.5654296875
 20
573.015625
 30
0.0
 10
140.9443359375
 20
573.08447265625
 30
0.0
 10
143.04296875
 20
573.634765625
 30
0.0
 10
144.48828125
 20
575.45849609375
 30
0.0
 10
144.48828125
 20
577.62646484375
 30
0.0
 10
144.48828125
 20
580.826171875
 30
0.0
 10
141.873046875
 20
582.6845703125
 30
0.0
 10
138.0537109375
 20
582.6845703125
 30
0.0
 10
134.71630859375
 20
582.6845703125
 30
0.0
 10
131.8603515625
 20
580.9296875
 30
0.0
 10
131.8603515625
 20
577.7294921875
 30
0.0
 10
131.8603515625
 20
575.6650390625
 30
0.0
 10
133.33984375
 20
573.73828125
 30
0.0
 10
135.61083984375
 20
573.1533203125
 30
0.0
 10
135.9892578125
 20
573.0498046875
 30
0.0
 10
136.4365234375
 20
572.94677734375
 30
0.0
 10
136.849609375
 20
572.94677734375
 30
0.0
 10
136.849609375
 20
572.94677734375
 30
0.0
 10
139.70556640625
 20
572.94677734375
 30
0.0
 10
139.70556640625
 20
572.94677734375
 30
0.0
  0
HATCH
  5
D1
330
97
100
AcDbEntity
  8
Layer 4
 62
   250
420
  2301728
100
AcDbHatch
 10
0.0
 20
0.0
 30
0.0
210
0.0
220
0.0
230
1.0
  2
SOLID
 70
     1
 71
     0
 91
        2
 92
        1
 93
        1
 72
     4
 94
        3
 73
     0
 74
     1
 95
       41
 96
       37
 40
0.0
 40
0.0
 40
0.0
 40
0.0
 40
1.0
 40
1.0
 40
1.0
 40
2.0
 40
2.0
 40
2.0
 40
3.0
 40
3.0
 40
3.0
 40
4.0
 40
4.0
 40
4.0
 40
5.0
 40
5.0
 40
5.0
 40
6.0
 40
6.0
 40
6.0
 40
7.0
 40
7.0
 40
7.0
 40
8.0
 40
8.0
 40
8.0
 40
9.0
 40
9.0
 40
9.0
 40
10.0
 40
10.0
 40
10.0
 40
11.0
 40
11.0
 40
11.0
 40
12.0
 40
12.0
 40
12.0
 40
12.0
 10
135.2666015625
 20
569.953125
 10
133.13330078125
 20
569.953125
 10
131.4130859375
 20
569.88427734375
 10
129.830078125
 20
569.8154296875
 10
129.830078125
 20
569.8154296875
 10
129.830078125
 20
572.53369140625
 10
129.830078125
 20
572.53369140625
 10
129.830078125
 20
572.53369140625
 10
132.68603515625
 20
572.67138671875
 10
132.68603515625
 20
572.67138671875
 10
132.68603515625
 20
572.67138671875
 10
132.68603515625
 20
572.740234375
 10
132.68603515625
 20
572.740234375
 10
130.65576171875
 20
573.97900390625
 10
129.45166015625
 20
575.9404296875
 10
129.45166015625
 20
578.65869140625
 10
129.45166015625
 20
582.6845703125
 10
132.85791015625
 20
585.71240234375
 10
137.916015625
 20
585.71240234375
 10
143.9033203125
 20
585.71240234375
 10
146.8623046875
 20
582.06494140625
 10
146.8623046875
 20
578.142578125
 10
146.8623046875
 20
575.9404296875
 10
145.89892578125
 20
574.013671875
 10
144.24755859375
 20
573.015625
 10
144.24755859375
 20
573.015625
 10
144.24755859375
 20
572.94677734375
 10
144.24755859375
 20
572.94677734375
 10
144.24755859375
 20
572.94677734375
 10
153.296875
 20
572.94677734375
 10
153.296875
 20
572.94677734375
 10
153.296875
 20
572.94677734375
 10
153.296875
 20
569.953125
 10
153.296875
 20
569.953125
 10
153.296875
 20
569.953125
 10
135.2666015625
 20
569.953125
 10
135.2666015625
 20
569.953125
 97
        0
 97
        0
 92
        1
 93
        1
 72
     4
 94
        3
 73
     0
 74
     1
 95
       26
 96
       22
 40
0.0
 40
0.0
 40
0.0
 40
0.0
 40
1.0
 40
1.0
 40
1.0
 40
2.0
 40
2.0
 40
2.0
 40
3.0
 40
3.0
 40
3.0
 40
4.0
 40
4.0
 40
4.0
 40
5.0
 40
5.0
 40
5.0
 40
6.0
 40
6.0
 40
6.0
 40
7.0
 40
7.0
 40
7.0
 40
7.0
 10
139.70556640625
 20
572.94677734375
 10
140.15283203125
 20
572.94677734375
 10
140.5654296875
 20
573.015625
 10
140.9443359375
 20
573.08447265625
 10
143.04296875
 20
573.634765625
 10
144.48828125
 20
575.45849609375
 10
144.48828125
 20
577.62646484375
 10
144.48828125
 20
580.826171875
 10
141.873046875
 20
582.6845703125
 10
138.0537109375
 20
582.6845703125
 10
134.71630859375
 20
582.6845703125
 10
131.8603515625
 20
580.9296875
 10
131.8603515625
 20
577.7294921875
 10
131.8603515625
 20
575.6650390625
 10
133.33984375
 20
573.73828125
 10
135.61083984375
 20
573.1533203125
 10
135.9892578125
 20
573.0498046875
 10
136.4365234375
 20
572.94677734375
 10
136.849609375
 20
572.94677734375
 10
136.849609375
 20
572.94677734375
 10
139.70556640625
 20
572.94677734375
 10
139.70556640625
 20
572.94677734375
 97
        0
 97
        0
 75
     2
 76
     1
 98
        0
  0
SPLINE
  5
D2
330
97
100
AcDbEntity
  8
Layer 4
370
     0
100
AcDbSpline
210
0.0
220
0.0
230
1.0
 70
    11
 71
     3
 72
    32
 73
    28
 74
     0
 42
0.0000000001
 43
0.0000000001
 12
1.0
 22
0.0
 32
0.0
 13
1.0
 23
0.0
 33
0.0
 40
0.0
 40
0.0
 40
0.0
 40
0.0
 40
1.0
 40
1.0
 40
1.0
 40
2.0
 40
2.0
 40
2.0
 40
3.0
 40
3.0
 40
3.0
 40
4.0
 40
4.0
 40
4.0
 40
5.0
 40
5.0
 40
5.0
 40
6.0
 40
6.0
 40
6.0
 40
7.0
 40
7.0
 40
7.0
 40
8.0
 40
8.0
 40
8.0
 40
9.0
 40
9.0
 40
9.0
 40
9.0
 10
138.70751953125
 20
591.22119140625
 30
0.0
 10
142.80224609375
 20
591.2900390625
 30
0.0
 10
144.48828125
 20
593.9052734375
 30
0.0
 10
144.48828125
 20
596.93310546875
 30
0.0
 10
144.48828125
 20
599.10107421875
 30
0.0
 10
144.10986328125
 20
600.408203125
 30
0.0
 10
143.6279296875
 20
601.5439453125
 30
0.0
 10
143.6279296875
 20
601.5439453125
 30
0.0
 10
145.7958984375
 20
602.06005859375
 30
0.0
 10
145.7958984375
 20
602.06005859375
 30
0.0
 10
146.27734375
 20
600.9931640625
 30
0.0
 10
146.828125
 20
599.16943359375
 30
0.0
 10
146.828125
 20
596.52001953125
 30
0.0
 10
146.828125
 20
591.3935546875
 30
0.0
 10
143.4560546875
 20
588.3310546875
 30
0.0
 10
138.43212890625
 20
588.3310546875
 30
0.0
 10
133.40869140625
 20
588.3310546875
 30
0.0
 10
129.45166015625
 20
591.2900390625
 30
0.0
 10
129.45166015625
 20
596.1416015625
 30
0.0
 10
129.45166015625
 20
601.578125
 30
0.0
 10
134.234375
 20
603.0234375
 30
0.0
 10
137.296875
 20
603.0234375
 30
0.0
 10
137.916015625
 20
603.0234375
 30
0.0
 10
138.39794921875
 20
602.95458984375
 30
0.0
 10
138.70751953125
 20
602.92041015625
 30
0.0
 10
138.70751953125
 20
602.92041015625
 30
0.0
 10
138.70751953125
 20
591.22119140625
 30
0.0
 10
138.70751953125
 20
591.22119140625
 30
0.0
  0
SPLINE
  5
D3
330
97
100
AcDbEntity
  8
Layer 4
370
     0
100
AcDbSpline
210
0.0
220
0.0
230
1.0
 70
    11
 71
     3
 72
    14
 73
    10
 74
     0
 42
0.0000000001
 43
0.0000000001
 12
1.0
 22
0.0
 32
0.0
 13
1.0
 23
0.0
 33
0.0
 40
0.0
 40
0.0
 40
0.0
 40
0.0
 40
1.0
 40
1.0
 40
1.0
 40
2.0
 40
2.0
 40
2.0
 40
3.0
 40
3.0
 40
3.0
 40
3.0
 10
136.5400390625
 20
600.0986328125
 30
0.0
 10
134.61279296875
 20
600.13330078125
 30
0.0
 10
131.61962890625
 20
599.30712890625
 30
0.0
 10
131.61962890625
 20
595.90087890625
 30
0.0
 10
131.61962890625
 20
592.83837890625
 30
0.0
 10
134.44091796875
 20
591.49658203125
 30
0.0
 10
136.5400390625
 20
591.255859375
 30
0.0
 10
136.5400390625
 20
591.255859375
 30
0.0
 10
136.5400390625
 20
600.0986328125
 30
0.0
 10
136.5400390625
 20
600.0986328125
 30
0.0
  0
HATCH
  5
D4
330
97
100
AcDbEntity
  8
Layer 4
 62
   250
420
  2301728
100
AcDbHatch
 10
0.0
 20
0.0
 30
0.0
210
0.0
220
0.0
230
1.0
  2
SOLID
 70
     1
 71
     0
 91
        2
 92
        1
 93
        1
 72
     4
 94
        3
 73
     0
 74
     1
 95
       32
 96
       28
 40
0.0
 40
0.0
 40
0.0
 40
0.0
 40
1.0
 40
1.0
 40
1.0
 40
2.0
 40
2.0
 40
2.0
 40
3.0
 40
3.0
 40
3.0
 40
4.0
 40
4.0
 40
4.0
 40
5.0
 40
5.0
 40
5.0
 40
6.0
 40
6.0
 40
6.0
 40
7.0
 40
7.0
 40
7.0
 40
8.0
 40
8.0
 40
8.0
 40
9.0
 40
9.0
 40
9.0
 40
9.0
 10
138.70751953125
 20
591.22119140625
 10
142.80224609375
 20
591.2900390625
 10
144.48828125
 20
593.9052734375
 10
144.48828125
 20
596.93310546875
 10
144.48828125
 20
599.10107421875
 10
144.10986328125
 20
600.408203125
 10
143.6279296875
 20
601.5439453125
 10
143.6279296875
 20
601.5439453125
 10
145.7958984375
 20
602.06005859375
 10
145.7958984375
 20
602.06005859375
 10
146.27734375
 20
600.9931640625
 10
146.828125
 20
599.16943359375
 10
146.828125
 20
596.52001953125
 10
146.828125
 20
591.3935546875
 10
143.4560546875
 20
588.3310546875
 10
138.43212890625
 20
588.3310546875
 10
133.40869140625
 20
588.3310546875
 10
129.45166015625
 20
591.2900390625
 10
129.45166015625
 20
596.1416015625
 10
129.45166015625
 20
601.578125
 10
134.234375
 20
603.0234375
 10
137.296875
 20
603.0234375
 10
137.916015625
 20
603.0234375
 10
138.39794921875
 20
602.95458984375
 10
138.70751953125
 20
602.92041015625
 10
138.70751953125
 20
602.92041015625
 10
138.70751953125
 20
591.22119140625
 10
138.70751953125
 20
591.22119140625
 97
        0
 97
        0
 92
        1
 93
        1
 72
     4
 94
        3
 73
     0
 74
     1
 95
       14
 96
       10
 40
0.0
 40
0.0
 40
0.0
 40
0.0
 40
1.0
 40
1.0
 40
1.0
 40
2.0
 40
2.0
 40
2.0
 40
3.0
 40
3.0
 40
3.0
 40
3.0
 10
136.5400390625
 20
600.0986328125
 10
134.61279296875
 20
600.13330078125
 10
131.61962890625
 20
599.30712890625
 10
131.61962890625
 20
595.90087890625
 10
131.61962890625
 20
592.83837890625
 10
134.44091796875
 20
591.49658203125
 10
136.5400390625
 20
591.255859375
 10
136.5400390625
 20
591.255859375
 10
136.5400390625
 20
600.0986328125
 10
136.5400390625
 20
600.0986328125
 97
        0
 97
        0
 75
     2
 76
     1
 98
        0
  0
SPLINE
  5
D5
330
97
100
AcDbEntity
  8
Layer 4
370
     0
100
AcDbSpline
210
0.0
220
0.0
230
1.0
 70
    11
 71
     3
 72
    17
 73
    13
 74
     0
 42
0.0000000001
 43
0.0000000001
 12
1.0
 22
0.0
 32
0.0
 13
1.0
 23
0.0
 33
0.0
 40
0.0
 40
0.0
 40
0.0
 40
0.0
 40
1.0
 40
1.0
 40
1.0
 40
2.0
 40
2.0
 40
2.0
 40
3.0
 40
3.0
 40
3.0
 40
4.0
 40
4.0
 40
4.0
 40
4.0
 10
144.69482421875
 20
605.64208984375
 30
0.0
 10
143.42138671875
 20
605.64208984375
 30
0.0
 10
142.52685546875
 20
606.50244140625
 30
0.0
 10
142.52685546875
 20
607.70703125
 30
0.0
 10
142.52685546875
 20
608.9111328125
 30
0.0
 10
143.42138671875
 20
609.73681640625
 30
0.0
 10
144.69482421875
 20
609.73681640625
 30
0.0
 10
145.93310546875
 20
609.73681640625
 30
0.0
 10
146.8623046875
 20
608.9453125
 30
0.0
 10
146.8623046875
 20
607.67236328125
 30
0.0
 10
146.8623046875
 20
606.46826171875
 30
0.0
 10
145.93310546875
 20
605.64208984375
 30
0.0
 10
144.69482421875
 20
605.64208984375
 30
0.0
  0
HATCH
  5
D6
330
97
100
AcDbEntity
  8
Layer 4
 62
   250
420
  2301728
100
AcDbHatch
 10
0.0
 20
0.0
 30
0.0
210
0.0
220
0.0
230
1.0
  2
SOLID
 70
     1
 71
     0
 91
        1
 92
        1
 93
        1
 72
     4
 94
        3
 73
     0
 74
     1
 95
       17
 96
       13
 40
0.0
 40
0.0
 40
0.0
 40
0.0
 40
1.0
 40
1.0
 40
1.0
 40
2.0
 40
2.0
 40
2.0
 40
3.0
 40
3.0
 40
3.0
 40
4.0
 40
4.0
 40
4.0
 40
4.0
 10
144.69482421875
 20
605.64208984375
 10
143.42138671875
 20
605.64208984375
 10
142.52685546875
 20
606.50244140625
 10
142.52685546875
 20
607.70703125
 10
142.52685546875
 20
608.9111328125
 10
143.42138671875
 20
609.73681640625
 10
144.69482421875
 20
609.73681640625
 10
145.93310546875
 20
609.73681640625
 10
146.8623046875
 20
608.9453125
 10
146.8623046875
 20
607.67236328125
 10
146.8623046875
 20
606.46826171875
 10
145.93310546875
 20
605.64208984375
 10
144.69482421875
 20
605.64208984375
 97
        0
 97
        0
 75
     2
 76
     1
 98
        0
  0
SPLINE
  5
D7
330
97
100
AcDbEntity
  8
Layer 4
370
     0
100
AcDbSpline
210
0.0
220
0.0
230
1.0
 70
    11
 71
     3
 72
    17
 73
    13
 74
     0
 42
0.0000000001
 43
0.0000000001
 12
1.0
 22
0.0
 32
0.0
 13
1.0
 23
0.0
 33
0.0
 40
0.0
 40
0.0
 40
0.0
 40
0.0
 40
1.0
 40
1.0
 40
1.0
 40
2.0
 40
2.0
 40
2.0
 40
3.0
 40
3.0
 40
3.0
 40
4.0
 40
4.0
 40
4.0
 40
4.0
 10
138.01953125
 20
628.5595703125
 30
0.0
 10
144.1787109375
 20
628.5595703125
 30
0.0
 10
146.8623046875
 20
624.29248046875
 30
0.0
 10
146.8623046875
 20
620.26708984375
 30
0.0
 10
146.8623046875
 20
615.75927734375
 30
0.0
 10
143.55908203125
 20
612.2841796875
 30
0.0
 10
138.29443359375
 20
612.2841796875
 30
0.0
 10
132.72021484375
 20
612.2841796875
 30
0.0
 10
129.45166015625
 20
615.931640625
 30
0.0
 10
129.45166015625
 20
620.5419921875
 30
0.0
 10
129.45166015625
 20
625.32470703125
 30
0.0
 10
132.9267578125
 20
628.5595703125
 30
0.0
 10
138.01953125
 20
628.5595703125
 30
0.0
  0
SPLINE
  5
D8
330
97
100
AcDbEntity
  8
Layer 4
370
     0
100
AcDbSpline
210
0.0
220
0.0
230
1.0
 70
    11
 71
     3
 72
    17
 73
    13
 74
     0
 42
0.0000000001
 43
0.0000000001
 12
1.0
 22
0.0
 32
0.0
 13
1.0
 23
0.0
 33
0.0
 40
0.0
 40
0.0
 40
0.0
 40
0.0
 40
1.0
 40
1.0
 40
1.0
 40
2.0
 40
2.0
 40
2.0
 40
3.0
 40
3.0
 40
3.0
 40
4.0
 40
4.0
 40
4.0
 40
4.0
 10
138.19140625
 20
615.3466796875
 30
0.0
 10
141.8388671875
 20
615.3466796875
 30
0.0
 10
144.59130859375
 20
617.4453125
 30
0.0
 10
144.59130859375
 20
620.404296875
 30
0.0
 10
144.59130859375
 20
623.294921875
 30
0.0
 10
141.873046875
 20
625.46240234375
 30
0.0
 10
138.12255859375
 20
625.46240234375
 30
0.0
 10
135.30126953125
 20
625.46240234375
 30
0.0
 10
131.72265625
 20
624.0517578125
 30
0.0
 10
131.72265625
 20
620.47314453125
 30
0.0
 10
131.72265625
 20
616.89501953125
 30
0.0
 10
135.02587890625
 20
615.3466796875
 30
0.0
 10
138.19140625
 20
615.3466796875
 30
0.0
  0
HATCH
  5
D9
330
97
100
AcDbEntity
  8
Layer 4
 62
   250
420
  2301728
100
AcDbHatch
 10
0.0
 20
0.0
 30
0.0
210
0.0
220
0.0
230
1.0
  2
SOLID
 70
     1
 71
     0
 91
        2
 92
        1
 93
        1
 72
     4
 94
        3
 73
     0
 74
     1
 95
       17
 96
       13
 40
0.0
 40
0.0
 40
0.0
 40
0.0
 40
1.0
 40
1.0
 40
1.0
 40
2.0
 40
2.0
 40
2.0
 40
3.0
 40
3.0
 40
3.0
 40
4.0
 40
4.0
 40
4.0
 40
4.0
 10
138.01953125
 20
628.5595703125
 10
144.1787109375
 20
628.5595703125
 10
146.8623046875
 20
624.29248046875
 10
146.8623046875
 20
620.26708984375
 10
146.8623046875
 20
615.75927734375
 10
143.55908203125
 20
612.2841796875
 10
138.29443359375
 20
612.2841796875
 10
132.72021484375
 20
612.2841796875
 10
129.45166015625
 20
615.931640625
 10
129.45166015625
 20
620.5419921875
 10
129.45166015625
 20
625.32470703125
 10
132.9267578125
 20
628.5595703125
 10
138.01953125
 20
628.5595703125
 97
        0
 97
        0
 92
        1
 93
        1
 72
     4
 94
        3
 73
     0
 74
     1
 95
       17
 96
       13
 40
0.0
 40
0.0
 40
0.0
 40
0.0
 40
1.0
 40
1.0
 40
1.0
 40
2.0
 40
2.0
 40
2.0
 40
3.0
 40
3.0
 40
3.0
 40
4.0
 40
4.0
 40
4.0
 40
4.0
 10
138.19140625
 20
615.3466796875
 10
141.8388671875
 20
615.3466796875
 10
144.59130859375
 20
617.4453125
 10
144.59130859375
 20
620.404296875
 10
144.59130859375
 20
623.294921875
 10
141.873046875
 20
625.46240234375
 10
138.12255859375
 20
625.46240234375
 10
135.30126953125
 20
625.46240234375
 10
131.72265625
 20
624.0517578125
 10
131.72265625
 20
620.47314453125
 10
131.72265625
 20
616.89501953125
 10
135.02587890625
 20
615.3466796875
 10
138.19140625
 20
615.3466796875
 97
        0
 97
        0
 75
     2
 76
     1
 98
        0
  0
SPLINE
  5
DA
330
97
100
AcDbEntity
  8
Layer 4
370
     0
100
AcDbSpline
210
0.0
220
0.0
230
1.0
 70
    11
 71
     3
 72
    44
 73
    40
 74
     0
 42
0.0000000001
 43
0.0000000001
 12
1.0
 22
0.0
 32
0.0
 13
1.0
 23
0.0
 33
0.0
 40
0.0
 40
0.0
 40
0.0
 40
0.0
 40
1.0
 40
1.0
 40
1.0
 40
2.0
 40
2.0
 40
2.0
 40
3.0
 40
3.0
 40
3.0
 40
4.0
 40
4.0
 40
4.0
 40
5.0
 40
5.0
 40
5.0
 40
6.0
 40
6.0
 40
6.0
 40
7.0
 40
7.0
 40
7.0
 40
8.0
 40
8.0
 40
8.0
 40
9.0
 40
9.0
 40
9.0
 40
10.0
 40
10.0
 40
10.0
 40
11.0
 40
11.0
 40
11.0
 40
12.0
 40
12.0
 40
12.0
 40
13.0
 40
13.0
 40
13.0
 40
13.0
 10
135.02587890625
 20
632.38232421875
 30
0.0
 10
133.064453125
 20
632.38232421875
 30
0.0
 10
131.37841796875
 20
632.34814453125
 30
0.0
 10
129.830078125
 20
632.24462890625
 30
0.0
 10
129.830078125
 20
632.24462890625
 30
0.0
 10
129.830078125
 20
634.89404296875
 30
0.0
 10
129.830078125
 20
634.89404296875
 30
0.0
 10
129.830078125
 20
634.89404296875
 30
0.0
 10
133.09912109375
 20
634.99755859375
 30
0.0
 10
133.09912109375
 20
634.99755859375
 30
0.0
 10
133.09912109375
 20
634.99755859375
 30
0.0
 10
133.09912109375
 20
635.13525390625
 30
0.0
 10
133.09912109375
 20
635.13525390625
 30
0.0
 10
130.8623046875
 20
635.89208984375
 30
0.0
 10
129.45166015625
 20
637.7158203125
 30
0.0
 10
129.45166015625
 20
639.74609375
 30
0.0
 10
129.45166015625
 20
640.08984375
 30
0.0
 10
129.48583984375
 20
640.3310546875
 30
0.0
 10
129.5546875
 20
640.60595703125
 30
0.0
 10
129.5546875
 20
640.60595703125
 30
0.0
 10
132.41064453125
 20
640.60595703125
 30
0.0
 10
132.41064453125
 20
640.60595703125
 30
0.0
 10
132.341796875
 20
640.29638671875
 30
0.0
 10
132.3076171875
 20
639.98681640625
 30
0.0
 10
132.3076171875
 20
639.57373046875
 30
0.0
 10
132.3076171875
 20
637.4404296875
 30
0.0
 10
133.9248046875
 20
635.9267578125
 30
0.0
 10
136.19580078125
 20
635.513671875
 30
0.0
 10
136.6083984375
 20
635.44482421875
 30
0.0
 10
137.09033203125
 20
635.3759765625
 30
0.0
 10
137.6064453125
 20
635.3759765625
 30
0.0
 10
137.6064453125
 20
635.3759765625
 30
0.0
 10
146.48388671875
 20
635.3759765625
 30
0.0
 10
146.48388671875
 20
635.3759765625
 30
0.0
 10
146.48388671875
 20
635.3759765625
 30
0.0
 10
146.48388671875
 20
632.38232421875
 30
0.0
 10
146.48388671875
 20
632.38232421875
 30
0.0
 10
146.48388671875
 20
632.38232421875
 30
0.0
 10
135.02587890625
 20
632.38232421875
 30
0.0
 10
135.02587890625
 20
632.38232421875
 30
0.0
  0
HATCH
  5
DB
330
97
100
AcDbEntity
  8
Layer 4
 62
   250
420
  2301728
100
AcDbHatch
 10
0.0
 20
0.0
 30
0.0
210
0.0
220
0.0
230
1.0
  2
SOLID
 70
     1
 71
     0
 91
        1
 92
        1
 93
        1
 72
     4
 94
        3
 73
     0
 74
     1
 95
       44
 96
       40
 40
0.0
 40
0.0
 40
0.0
 40
0.0
 40
1.0
 40
1.0
 40
1.0
 40
2.0
 40
2.0
 40
2.0
 40
3.0
 40
3.0
 40
3.0
 40
4.0
 40
4.0
 40
4.0
 40
5.0
 40
5.0
 40
5.0
 40
6.0
 40
6.0
 40
6.0
 40
7.0
 40
7.0
 40
7.0
 40
8.0
 40
8.0
 40
8.0
 40
9.0
 40
9.0
 40
9.0
 40
10.0
 40
10.0
 40
10.0
 40
11.0
 40
11.0
 40
11.0
 40
12.0
 40
12.0
 40
12.0
 40
13.0
 40
13.0
 40
13.0
 40
13.0
 10
135.02587890625
 20
632.38232421875
 10
133.064453125
 20
632.38232421875
 10
131.37841796875
 20
632.34814453125
 10
129.830078125
 20
632.24462890625
 10
129.830078125
 20
632.24462890625
 10
129.830078125
 20
634.89404296875
 10
129.830078125
 20
634.89404296875
 10
129.830078125
 20
634.89404296875
 10
133.09912109375
 20
634.99755859375
 10
133.09912109375
 20
634.99755859375
 10
133.09912109375
 20
634.99755859375
 10
133.09912109375
 20
635.13525390625
 10
133.09912109375
 20
635.13525390625
 10
130.8623046875
 20
635.89208984375
 10
129.45166015625
 20
637.7158203125
 10
129.45166015625
 20
639.74609375
 10
129.45166015625
 20
640.08984375
 10
129.48583984375
 20
640.3310546875
 10
129.5546875
 20
640.60595703125
 10
129.5546875
 20
640.60595703125
 10
132.41064453125
 20
640.60595703125
 10
132.41064453125
 20
640.60595703125
 10
132.341796875
 20
640.29638671875
 10
132.3076171875
 20
639.98681640625
 10
132.3076171875
 20
639.57373046875
 10
132.3076171875
 20
637.4404296875
 10
133.9248046875
 20
635.9267578125
 10
136.19580078125
 20
635.513671875
 10
136.6083984375
 20
635.44482421875
 10
137.09033203125
 20
635.3759765625
 10
137.6064453125
 20
635.3759765625
 10
137.6064453125
 20
635.3759765625
 10
146.48388671875
 20
635.3759765625
 10
146.48388671875
 20
635.3759765625
 10
146.48388671875
 20
635.3759765625
 10
146.48388671875
 20
632.38232421875
 10
146.48388671875
 20
632.38232421875
 10
146.48388671875
 20
632.38232421875
 10
135.02587890625
 20
632.38232421875
 10
135.02587890625
 20
632.38232421875
 97
        0
 97
        0
 75
     2
 76
     1
 98
        0
  0
SPLINE
  5
DC
330
97
100
AcDbEntity
  8
Layer 4
370
     0
100
AcDbSpline
210
0.0
220
0.0
230
1.0
 70
    11
 71
     3
 72
    56
 73
    52
 74
     0
 42
0.0000000001
 43
0.0000000001
 12
1.0
 22
0.0
 32
0.0
 13
1.0
 23
0.0
 33
0.0
 40
0.0
 40
0.0
 40
0.0
 40
0.0
 40
1.0
 40
1.0
 40
1.0
 40
2.0
 40
2.0
 40
2.0
 40
3.0
 40
3.0
 40
3.0
 40
4.0
 40
4.0
 40
4.0
 40
5.0
 40
5.0
 40
5.0
 40
6.0
 40
6.0
 40
6.0
 40
7.0
 40
7.0
 40
7.0
 40
8.0
 40
8.0
 40
8.0
 40
9.0
 40
9.0
 40
9.0
 40
10.0
 40
10.0
 40
10.0
 40
11.0
 40
11.0
 40
11.0
 40
12.0
 40
12.0
 40
12.0
 40
13.0
 40
13.0
 40
13.0
 40
14.0
 40
14.0
 40
14.0
 40
15.0
 40
15.0
 40
15.0
 40
16.0
 40
16.0
 40
16.0
 40
17.0
 40
17.0
 40
17.0
 40
17.0
 10
129.830078125
 20
657.7099609375
 30
0.0
 10
131.03466796875
 20
657.64111328125
 30
0.0
 10
132.37646484375
 20
657.572265625
 30
0.0
 10
134.40625
 20
657.572265625
 30
0.0
 10
134.40625
 20
657.572265625
 30
0.0
 10
144.0751953125
 20
657.572265625
 30
0.0
 10
144.0751953125
 20
657.572265625
 30
0.0
 10
147.89453125
 20
657.572265625
 30
0.0
 10
150.234375
 20
656.8154296875
 30
0.0
 10
151.6796875
 20
655.19775390625
 30
0.0
 10
153.193359375
 20
653.58056640625
 30
0.0
 10
153.67529296875
 20
651.2412109375
 30
0.0
 10
153.67529296875
 20
649.14208984375
 30
0.0
 10
153.67529296875
 20
647.146484375
 30
0.0
 10
153.193359375
 20
644.9443359375
 30
0.0
 10
152.298828125
 20
643.6025390625
 30
0.0
 10
152.298828125
 20
643.6025390625
 30
0.0
 10
149.99365234375
 20
644.359375
 30
0.0
 10
149.99365234375
 20
644.359375
 30
0.0
 10
150.681640625
 20
645.46044921875
 30
0.0
 10
151.30126953125
 20
647.1806640625
 30
0.0
 10
151.30126953125
 20
649.2451171875
 30
0.0
 10
151.30126953125
 20
652.34228515625
 30
0.0
 10
149.68408203125
 20
654.61328125
 30
0.0
 10
145.48583984375
 20
654.61328125
 30
0.0
 10
145.48583984375
 20
654.61328125
 30
0.0
 10
143.6279296875
 20
654.61328125
 30
0.0
 10
143.6279296875
 20
654.61328125
 30
0.0
 10
143.6279296875
 20
654.61328125
 30
0.0
 10
143.6279296875
 20
654.54443359375
 30
0.0
 10
143.6279296875
 20
654.54443359375
 30
0.0
 10
145.17626953125
 20
653.615234375
 30
0.0
 10
146.4150390625
 20
651.826171875
 30
0.0
 10
146.4150390625
 20
649.2451171875
 30
0.0
 10
146.4150390625
 20
645.1162109375
 30
0.0
 10
142.9052734375
 20
642.1572265625
 30
0.0
 10
138.29443359375
 20
642.1572265625
 30
0.0
 10
132.65185546875
 20
642.1572265625
 30
0.0
 10
129.45166015625
 20
645.8388671875
 30
0.0
 10
129.45166015625
 20
649.658203125
 30
0.0
 10
129.45166015625
 20
652.54833984375
 30
0.0
 10
130.9658203125
 20
654.13134765625
 30
0.0
 10
132.341796875
 20
654.85400390625
 30
0.0
 10
132.341796875
 20
654.85400390625
 30
0.0
 10
132.341796875
 20
654.9228515625
 30
0.0
 10
132.341796875
 20
654.9228515625
 30
0.0
 10
132.341796875
 20
654.9228515625
 30
0.0
 10
129.830078125
 20
655.060546875
 30
0.0
 10
129.830078125
 20
655.060546875
 30
0.0
 10
129.830078125
 20
655.060546875
 30
0.0
 10
129.830078125
 20
657.7099609375
 30
0.0
 10
129.830078125
 20
657.7099609375
 30
0.0
  0
SPLINE
  5
DD
330
97
100
AcDbEntity
  8
Layer 4
370
     0
100
AcDbSpline
210
0.0
220
0.0
230
1.0
 70
    11
 71
     3
 72
    26
 73
    22
 74
     0
 42
0.0000000001
 43
0.0000000001
 12
1.0
 22
0.0
 32
0.0
 13
1.0
 23
0.0
 33
0.0
 40
0.0
 40
0.0
 40
0.0
 40
0.0
 40
1.0
 40
1.0
 40
1.0
 40
2.0
 40
2.0
 40
2.0
 40
3.0
 40
3.0
 40
3.0
 40
4.0
 40
4.0
 40
4.0
 40
5.0
 40
5.0
 40
5.0
 40
6.0
 40
6.0
 40
6.0
 40
7.0
 40
7.0
 40
7.0
 40
7.0
 10
136.40234375
 20
654.57861328125
 30
0.0
 10
135.88623046875
 20
654.57861328125
 30
0.0
 10
135.43896484375
 20
654.54443359375
 30
0.0
 10
135.02587890625
 20
654.40673828125
 30
0.0
 10
133.27099609375
 20
653.85595703125
 30
0.0
 10
131.82568359375
 20
652.37646484375
 30
0.0
 10
131.82568359375
 20
650.17431640625
 30
0.0
 10
131.82568359375
 20
647.2841796875
 30
0.0
 10
134.26904296875
 20
645.2197265625
 30
0.0
 10
138.12255859375
 20
645.2197265625
 30
0.0
 10
141.3916015625
 20
645.2197265625
 30
0.0
 10
144.10986328125
 20
646.87109375
 30
0.0
 10
144.10986328125
 20
650.14013671875
 30
0.0
 10
144.10986328125
 20
651.998046875
 30
0.0
 10
142.93994140625
 20
653.68408203125
 30
0.0
 10
141.0126953125
 20
654.337890625
 30
0.0
 10
140.49658203125
 20
654.509765625
 30
0.0
 10
139.91162109375
 20
654.57861328125
 30
0.0
 10
139.3955078125
 20
654.57861328125
 30
0.0
 10
139.3955078125
 20
654.57861328125
 30
0.0
 10
136.40234375
 20
654.57861328125
 30
0.0
 10
136.40234375
 20
654.57861328125
 30
0.0
  0
HATCH
  5
DE
330
97
100
AcDbEntity
  8
Layer 4
 62
   250
420
  2301728
100
AcDbHatch
 10
0.0
 20
0.0
 30
0.0
210
0.0
220
0.0
230
1.0
  2
SOLID
 70
     1
 71
     0
 91
        2
 92
        1
 93
        1
 72
     4
 94
        3
 73
     0
 74
     1
 95
       56
 96
       52
 40
0.0
 40
0.0
 40
0.0
 40
0.0
 40
1.0
 40
1.0
 40
1.0
 40
2.0
 40
2.0
 40
2.0
 40
3.0
 40
3.0
 40
3.0
 40
4.0
 40
4.0
 40
4.0
 40
5.0
 40
5.0
 40
5.0
 40
6.0
 40
6.0
 40
6.0
 40
7.0
 40
7.0
 40
7.0
 40
8.0
 40
8.0
 40
8.0
 40
9.0
 40
9.0
 40
9.0
 40
10.0
 40
10.0
 40
10.0
 40
11.0
 40
11.0
 40
11.0
 40
12.0
 40
12.0
 40
12.0
 40
13.0
 40
13.0
 40
13.0
 40
14.0
 40
14.0
 40
14.0
 40
15.0
 40
15.0
 40
15.0
 40
16.0
 40
16.0
 40
16.0
 40
17.0
 40
17.0
 40
17.0
 40
17.0
 10
129.830078125
 20
657.7099609375
 10
131.03466796875
 20
657.64111328125
 10
132.37646484375
 20
657.572265625
 10
134.40625
 20
657.572265625
 10
134.40625
 20
657.572265625
 10
144.0751953125
 20
657.572265625
 10
144.0751953125
 20
657.572265625
 10
147.89453125
 20
657.572265625
 10
150.234375
 20
656.8154296875
 10
151.6796875
 20
655.19775390625
 10
153.193359375
 20
653.58056640625
 10
153.67529296875
 20
651.2412109375
 10
153.67529296875
 20
649.14208984375
 10
153.67529296875
 20
647.146484375
 10
153.193359375
 20
644.9443359375
 10
152.298828125
 20
643.6025390625
 10
152.298828125
 20
643.6025390625
 10
149.99365234375
 20
644.359375
 10
149.99365234375
 20
644.359375
 10
150.681640625
 20
645.46044921875
 10
151.30126953125
 20
647.1806640625
 10
151.30126953125
 20
649.2451171875
 10
151.30126953125
 20
652.34228515625
 10
149.68408203125
 20
654.61328125
 10
145.48583984375
 20
654.61328125
 10
145.48583984375
 20
654.61328125
 10
143.6279296875
 20
654.61328125
 10
143.6279296875
 20
654.61328125
 10
143.6279296875
 20
654.61328125
 10
143.6279296875
 20
654.54443359375
 10
143.6279296875
 20
654.54443359375
 10
145.17626953125
 20
653.615234375
 10
146.4150390625
 20
651.826171875
 10
146.4150390625
 20
649.2451171875
 10
146.4150390625
 20
645.1162109375
 10
142.9052734375
 20
642.1572265625
 10
138.29443359375
 20
642.1572265625
 10
132.65185546875
 20
642.1572265625
 10
129.45166015625
 20
645.8388671875
 10
129.45166015625
 20
649.658203125
 10
129.45166015625
 20
652.54833984375
 10
130.9658203125
 20
654.13134765625
 10
132.341796875
 20
654.85400390625
 10
132.341796875
 20
654.85400390625
 10
132.341796875
 20
654.9228515625
 10
132.341796875
 20
654.9228515625
 10
132.341796875
 20
654.9228515625
 10
129.830078125
 20
655.060546875
 10
129.830078125
 20
655.060546875
 10
129.830078125
 20
655.060546875
 10
129.830078125
 20
657.7099609375
 10
129.830078125
 20
657.7099609375
 97
        0
 97
        0
 92
        1
 93
        1
 72
     4
 94
        3
 73
     0
 74
     1
 95
       26
 96
       22
 40
0.0
 40
0.0
 40
0.0
 40
0.0
 40
1.0
 40
1.0
 40
1.0
 40
2.0
 40
2.0
 40
2.0
 40
3.0
 40
3.0
 40
3.0
 40
4.0
 40
4.0
 40
4.0
 40
5.0
 40
5.0
 40
5.0
 40
6.0
 40
6.0
 40
6.0
 40
7.0
 40
7.0
 40
7.0
 40
7.0
 10
136.40234375
 20
654.57861328125
 10
135.88623046875
 20
654.57861328125
 10
135.43896484375
 20
654.54443359375
 10
135.02587890625
 20
654.40673828125
 10
133.27099609375
 20
653.85595703125
 10
131.82568359375
 20
652.37646484375
 10
131.82568359375
 20
650.17431640625
 10
131.82568359375
 20
647.2841796875
 10
134.26904296875
 20
645.2197265625
 10
138.12255859375
 20
645.2197265625
 10
141.3916015625
 20
645.2197265625
 10
144.10986328125
 20
646.87109375
 10
144.10986328125
 20
650.14013671875
 10
144.10986328125
 20
651.998046875
 10
142.93994140625
 20
653.68408203125
 10
141.0126953125
 20
654.337890625
 10
140.49658203125
 20
654.509765625
 10
139.91162109375
 20
654.57861328125
 10
139.3955078125
 20
654.57861328125
 10
139.3955078125
 20
654.57861328125
 10
136.40234375
 20
654.57861328125
 10
136.40234375
 20
654.57861328125
 97
        0
 97
        0
 75
     2
 76
     1
 98
        0
  0
ENDBLK
  5
9A
330
97
100
AcDbEntity
  8
0
100
AcDbBlockEnd
  0
ENDSEC
  0
SECTION
  2
ENTITIES
  0
POLYLINE
  5
41
330
1F
100
AcDbEntity
  8
Layer 4
  6
AI-Linetype-1
 62
   250
420
  2301728
370
    35
100
AcDb2dPolyline
 66
     1
 10
0.0
 20
0.0
 30
0.0
  0
VERTEX
  5
42
330
41
100
AcDbEntity
  8
Layer 4
  6
AI-Linetype-1
 62
   250
420
  2301728
370
    35
100
AcDbVertex
100
AcDb2dVertex
 10
536.0
 20
99.0
 30
0.0
  0
VERTEX
  5
43
330
41
100
AcDbEntity
  8
Layer 4
  6
AI-Linetype-1
 62
   250
420
  2301728
370
    35
100
AcDbVertex
100
AcDb2dVertex
 10
76.0
 20
99.0
 30
0.0
  0
VERTEX
  5
44
330
41
100
AcDbEntity
  8
Layer 4
  6
AI-Linetype-1
 62
   250
420
  2301728
370
    35
100
AcDbVertex
100
AcDb2dVertex
 10
76.0
 20
693.0
 30
0.0
  0
VERTEX
  5
45
330
41
100
AcDbEntity
  8
Layer 4
  6
AI-Linetype-1
 62
   250
420
  2301728
370
    35
100
AcDbVertex
100
AcDb2dVertex
 10
536.0
 20
693.0
 30
0.0
  0
VERTEX
  5
46
330
41
100
AcDbEntity
  8
Layer 4
  6
AI-Linetype-1
 62
   250
420
  2301728
370
    35
100
AcDbVertex
100
AcDb2dVertex
 10
536.0
 20
99.0
 30
0.0
  0
SEQEND
  5
48
330
41
100
AcDbEntity
  8
Layer 4
  6
AI-Linetype-1
 62
   250
420
  2301728
370
    35
  0
POLYLINE
  5
49
330
1F
100
AcDbEntity
  8
Layer 4
  6
AI-Linetype-2
 62
   250
420
  2301728
370
    35
100
AcDb2dPolyline
 66
     1
 10
0.0
 20
0.0
 30
0.0
  0
VERTEX
  5
4A
330
49
100
AcDbEntity
  8
Layer 4
  6
AI-Linetype-2
 62
   250
420
  2301728
370
    35
100
AcDbVertex
100
AcDb2dVertex
 10
196.7659574468107
 20
720.1833850107614
 30
0.0
  0
VERTEX
  5
4B
330
49
100
AcDbEntity
  8
Layer 4
  6
AI-Linetype-2
 62
   250
420
  2301728
370
    35
100
AcDbVertex
100
AcDb2dVertex
 10
196.7659581823518
 20
72.0
 30
0.0
  0
SEQEND
  5
4D
330
49
100
AcDbEntity
  8
Layer 4
  6
AI-Linetype-2
 62
   250
420
  2301728
370
    35
  0
POLYLINE
  5
4E
330
1F
100
AcDbEntity
  8
Layer 4
  6
AI-Linetype-3
 62
   250
420
  2301728
370
    35
100
AcDb2dPolyline
 66
     1
 10
0.0
 20
0.0
 30
0.0
  0
VERTEX
  5
4F
330
4E
100
AcDbEntity
  8
Layer 4
  6
AI-Linetype-3
 62
   250
420
  2301728
370
    35
100
AcDbVertex
100
AcDb2dVertex
 10
233.7659575866774
 20
710.2127659574471
 30
0.0
  0
VERTEX
  5
50
330
4E
100
AcDbEntity
  8
Layer 4
  6
AI-Linetype-3
 62
   250
420
  2301728
370
    35
100
AcDbVertex
100
AcDb2dVertex
 10
233.7659583222185
 20
72.15026811925054
 30
0.0
  0
SEQEND
  5
52
330
4E
100
AcDbEntity
  8
Layer 4
  6
AI-Linetype-3
 62
   250
420
  2301728
370
    35
  0
POLYLINE
  5
53
330
1F
100
AcDbEntity
  8
Layer 4
  6
AI-Linetype-4
 62
   250
420
  2301728
370
    35
100
AcDb2dPolyline
 66
     1
 10
0.0
 20
0.0
 30
0.0
  0
VERTEX
  5
54
330
53
100
AcDbEntity
  8
Layer 4
  6
AI-Linetype-4
 62
   250
420
  2301728
370
    35
100
AcDbVertex
100
AcDb2dVertex
 10
309.0212762279752
 20
720.1833850107614
 30
0.0
  0
VERTEX
  5
55
330
53
100
AcDbEntity
  8
Layer 4
  6
AI-Linetype-4
 62
   250
420
  2301728
370
    35
100
AcDbVertex
100
AcDb2dVertex
 10
309.0212769635164
 20
71.46808510638402
 30
0.0
  0
SEQEND
  5
57
330
53
100
AcDbEntity
  8
Layer 4
  6
AI-Linetype-4
 62
   250
420
  2301728
370
    35
  0
POLYLINE
  5
58
330
1F
100
AcDbEntity
  8
Layer 4
  6
AI-Linetype-5
 62
   250
420
  2301728
370
    35
100
AcDb2dPolyline
 66
     1
 10
0.0
 20
0.0
 30
0.0
  0
VERTEX
  5
59
330
58
100
AcDbEntity
  8
Layer 4
  6
AI-Linetype-5
 62
   250
420
  2301728
370
    35
100
AcDbVertex
100
AcDb2dVertex
 10
343.4680851948397
 20
710.9801545915761
 30
0.0
  0
VERTEX
  5
5A
330
58
100
AcDbEntity
  8
Layer 4
  6
AI-Linetype-5
 62
   250
420
  2301728
370
    35
100
AcDbVertex
100
AcDb2dVertex
 10
343.4680859303808
 20
72.44813899595101
 30
0.0
  0
SEQEND
  5
5C
330
58
100
AcDbEntity
  8
Layer 4
  6
AI-Linetype-5
 62
   250
420
  2301728
370
    35
  0
POLYLINE
  5
5D
330
1F
100
AcDbEntity
  8
Layer 4
  6
AI-Linetype-6
 62
   250
420
  2301728
370
    35
100
AcDb2dPolyline
 66
     1
 10
0.0
 20
0.0
 30
0.0
  0
VERTEX
  5
5E
330
5D
100
AcDbEntity
  8
Layer 4
  6
AI-Linetype-6
 62
   250
420
  2301728
370
    35
100
AcDbVertex
100
AcDb2dVertex
 10
416.170212871315
 20
720.0090330652229
 30
0.0
  0
VERTEX
  5
5F
330
5D
100
AcDbEntity
  8
Layer 4
  6
AI-Linetype-6
 62
   250
420
  2301728
370
    35
100
AcDbVertex
100
AcDb2dVertex
 10
416.1702136068561
 20
71.4481408926622
 30
0.0
  0
SEQEND
  5
61
330
5D
100
AcDbEntity
  8
Layer 4
  6
AI-Linetype-6
 62
   250
420
  2301728
370
    35
  0
POLYLINE
  5
62
330
1F
100
AcDbEntity
  8
Layer 4
  6
AI-Linetype-7
 62
   250
420
  2301728
370
    35
100
AcDb2dPolyline
 66
     1
 10
0.0
 20
0.0
 30
0.0
  0
VERTEX
  5
63
330
62
100
AcDbEntity
  8
Layer 4
  6
AI-Linetype-7
 62
   250
420
  2301728
370
    35
100
AcDbVertex
100
AcDb2dVertex
 10
450.170212800891
 20
710.2127659574471
 30
0.0
  0
VERTEX
  5
64
330
62
100
AcDbEntity
  8
Layer 4
  6
AI-Linetype-7
 62
   250
420
  2301728
370
    35
100
AcDbVertex
100
AcDb2dVertex
 10
450.1702135364321
 20
72.15159010435309
 30
0.0
  0
SEQEND
  5
66
330
62
100
AcDbEntity
  8
Layer 4
  6
AI-Linetype-7
 62
   250
420
  2301728
370
    35
  0
POLYLINE
  5
67
330
1F
100
AcDbEntity
  8
Layer 4
 62
     7
420
 16777215
370
    30
100
AcDb2dPolyline
 66
     1
 10
0.0
 20
0.0
 30
0.0
  0
VERTEX
  5
68
330
67
100
AcDbEntity
  8
Layer 4
 62
     7
420
 16777215
370
    30
100
AcDbVertex
100
AcDb2dVertex
 10
154.2633715752436
 20
321.3977590854447
 30
0.0
  0
VERTEX
  5
69
330
67
100
AcDbEntity
  8
Layer 4
 62
     7
420
 16777215
370
    30
100
AcDbVertex
100
AcDb2dVertex
 10
86.25647941234365
 20
321.6025264114705
 30
0.0
  0
SEQEND
  5
6A
330
67
100
AcDbEntity
  8
Layer 4
 62
     7
420
 16777215
370
    30
  0
INSERT
  5
6C
330
1F
100
AcDbEntity
  8
Layer 4
100
AcDbBlockReference
  2
block 2
 10
0.0
 20
0.0
 30
0.0
  0
INSERT
  5
98
330
1F
100
AcDbEntity
  8
Layer 4
100
AcDbBlockReference
  2
block 3
 10
0.0
 20
0.0
 30
0.0
  0
POLYLINE
  5
DF
330
1F
100
AcDbEntity
  8
Layer 4
 62
     7
420
 16777215
370
    30
100
AcDb2dPolyline
 66
     1
 10
0.0
 20
0.0
 30
0.0
  0
VERTEX
  5
E0
330
DF
100
AcDbEntity
  8
Layer 4
 62
     7
420
 16777215
370
    30
100
AcDbVertex
100
AcDb2dVertex
 10
54.0
 20
720.0
 30
0.0
  0
VERTEX
  5
E1
330
DF
100
AcDbEntity
  8
Layer 4
 62
     7
420
 16777215
370
    30
100
AcDbVertex
100
AcDb2dVertex
 10
157.2558809338134
 20
719.8855122373488
 30
0.0
  0
VERTEX
  5
E2
330
DF
100
AcDbEntity
  8
Layer 4
 62
     7
420
 16777215
370
    30
100
AcDbVertex
100
AcDb2dVertex
 10
162.9690171071134
 20
710.9801545915761
 30
0.0
  0
VERTEX
  5
E3
330
DF
100
AcDbEntity
  8
Layer 4
 62
     7
420
 16777215
370
    30
100
AcDbVertex
100
AcDb2dVertex
 10
169.4720925657912
 20
719.2808751720249
 30
0.0
  0
VERTEX
  5
E4
330
DF
100
AcDbEntity
  8
Layer 4
 62
     7
420
 16777215
370
    30
100
AcDbVertex
100
AcDb2dVertex
 10
228.6578516308218
 20
719.8855122373488
 30
0.0
  0
VERTEX
  5
E5
330
DF
100
AcDbEntity
  8
Layer 4
 62
     7
420
 16777215
370
    30
100
AcDbVertex
100
AcDb2dVertex
 10
234.7659583222185
 20
710.2127659574471
 30
0.0
  0
VERTEX
  5
E6
330
DF
100
AcDbEntity
  8
Layer 4
 62
     7
420
 16777215
370
    30
100
AcDbVertex
100
AcDb2dVertex
 10
240.8740632627996
 20
719.2808751720249
 30
0.0
  0
VERTEX
  5
E7
330
DF
100
AcDbEntity
  8
Layer 4
 62
     7
420
 16777215
370
    30
100
AcDbVertex
100
AcDb2dVertex
 10
264.3599792892974
 20
719.8855122373488
 30
0.0
  0
VERTEX
  5
E8
330
DF
100
AcDbEntity
  8
Layer 4
 62
     7
420
 16777215
370
    30
100
AcDbVertex
100
AcDb2dVertex
 10
270.0731154625973
 20
710.9801545915761
 30
0.0
  0
VERTEX
  5
E9
330
DF
100
AcDbEntity
  8
Layer 4
 62
     7
420
 16777215
370
    30
100
AcDbVertex
100
AcDb2dVertex
 10
276.5761909212752
 20
720.0
 30
0.0
  0
VERTEX
  5
EA
330
DF
100
AcDbEntity
  8
Layer 4
 62
     7
420
 16777215
370
    30
100
AcDbVertex
100
AcDb2dVertex
 10
336.3599792892983
 20
720.1833850107614
 30
0.0
  0
VERTEX
  5
EB
330
DF
100
AcDbEntity
  8
Layer 4
 62
     7
420
 16777215
370
    30
100
AcDbVertex
100
AcDb2dVertex
 10
343.4680851948397
 20
710.9801545915761
 30
0.0
  0
VERTEX
  5
EC
330
DF
100
AcDbEntity
  8
Layer 4
 62
     7
420
 16777215
370
    30
100
AcDbVertex
100
AcDb2dVertex
 10
348.5761909212761
 20
720.0
 30
0.0
  0
VERTEX
  5
ED
330
DF
100
AcDbEntity
  8
Layer 4
 62
     7
420
 16777215
370
    30
100
AcDbVertex
100
AcDb2dVertex
 10
372.0621077908672
 20
719.8855122373488
 30
0.0
  0
VERTEX
  5
EE
330
DF
100
AcDbEntity
  8
Layer 4
 62
     7
420
 16777215
370
    30
100
AcDbVertex
100
AcDb2dVertex
 10
378.1702136068561
 20
710.2127659574471
 30
0.0
  0
VERTEX
  5
EF
330
DF
100
AcDbEntity
  8
Layer 4
 62
     7
420
 16777215
370
    30
100
AcDbVertex
100
AcDb2dVertex
 10
384.278319422845
 20
720.1502681192505
 30
0.0
  0
VERTEX
  5
F0
330
DF
100
AcDbEntity
  8
Layer 4
 62
     7
420
 16777215
370
    30
100
AcDbVertex
100
AcDb2dVertex
 10
444.0621077204432
 20
719.8855122373488
 30
0.0
  0
VERTEX
  5
F1
330
DF
100
AcDbEntity
  8
Layer 4
 62
     7
420
 16777215
370
    30
100
AcDbVertex
100
AcDb2dVertex
 10
450.1702135364321
 20
710.2127659574471
 30
0.0
  0
VERTEX
  5
F2
330
DF
100
AcDbEntity
  8
Layer 4
 62
     7
420
 16777215
370
    30
100
AcDbVertex
100
AcDb2dVertex
 10
457.8297872340536
 20
720.1502681192505
 30
0.0
  0
VERTEX
  5
F3
330
DF
100
AcDbEntity
  8
Layer 4
 62
     7
420
 16777215
370
    30
100
AcDbVertex
100
AcDb2dVertex
 10
558.9361705902556
 20
719.4481408926631
 30
0.0
  0
VERTEX
  5
F4
330
DF
100
AcDbEntity
  8
Layer 4
 62
     7
420
 16777215
370
    30
100
AcDbVertex
100
AcDb2dVertex
 10
558.0
 20
72.0
 30
0.0
  0
VERTEX
  5
F5
330
DF
100
AcDbEntity
  8
Layer 4
 62
     7
420
 16777215
370
    30
100
AcDbVertex
100
AcDb2dVertex
 10
456.278319352421
 20
72.31753383988689
 30
0.0
  0
VERTEX
  5
F6
330
DF
100
AcDbEntity
  8
Layer 4
 62
     7
420
 16777215
370
    30
100
AcDbVertex
100
AcDb2dVertex
 10
449.7752438937423
 20
80.6182544203366
 30
0.0
  0
VERTEX
  5
F7
330
DF
100
AcDbEntity
  8
Layer 4
 62
     7
420
 16777215
370
    30
100
AcDbVertex
100
AcDb2dVertex
 10
444.0621077204432
 20
71.71289677456298
 30
0.0
  0
VERTEX
  5
F8
330
DF
100
AcDbEntity
  8
Layer 4
 62
     7
420
 16777215
370
    30
100
AcDbVertex
100
AcDb2dVertex
 10
384.278319422845
 20
72.31753383988689
 30
0.0
  0
VERTEX
  5
F9
330
DF
100
AcDbEntity
  8
Layer 4
 62
     7
420
 16777215
370
    30
100
AcDbVertex
100
AcDb2dVertex
 10
378.1702136068561
 20
80.11410332097512
 30
0.0
  0
VERTEX
  5
FA
330
DF
100
AcDbEntity
  8
Layer 4
 62
     7
420
 16777215
370
    30
100
AcDbVertex
100
AcDb2dVertex
 10
372.0621077908672
 20
71.71289677456298
 30
0.0
  0
VERTEX
  5
FB
330
DF
100
AcDbEntity
  8
Layer 4
 62
     7
420
 16777215
370
    30
100
AcDbVertex
100
AcDb2dVertex
 10
349.5761909212761
 20
72.31753383988689
 30
0.0
  0
VERTEX
  5
FC
330
DF
100
AcDbEntity
  8
Layer 4
 62
     7
420
 16777215
370
    30
100
AcDbVertex
100
AcDb2dVertex
 10
343.0731154625973
 20
80.6182544203366
 30
0.0
  0
VERTEX
  5
FD
330
DF
100
AcDbEntity
  8
Layer 4
 62
     7
420
 16777215
370
    30
100
AcDbVertex
100
AcDb2dVertex
 10
337.3599792892983
 20
71.71289677456298
 30
0.0
  0
VERTEX
  5
FE
330
DF
100
AcDbEntity
  8
Layer 4
 62
     7
420
 16777215
370
    30
100
AcDbVertex
100
AcDb2dVertex
 10
277.1293827795052
 20
72.15026811925054
 30
0.0
  0
VERTEX
  5
FF
330
DF
100
AcDbEntity
  8
Layer 4
 62
     7
420
 16777215
370
    30
100
AcDbVertex
100
AcDb2dVertex
 10
271.0212769635164
 20
81.32038164692494
 30
0.0
  0
VERTEX
  5
100
330
DF
100
AcDbEntity
  8
Layer 4
 62
     7
420
 16777215
370
    30
100
AcDbVertex
100
AcDb2dVertex
 10
263.5319148936278
 20
71.71289677456298
 30
0.0
  0
VERTEX
  5
101
330
DF
100
AcDbEntity
  8
Layer 4
 62
     7
420
 16777215
370
    30
100
AcDbVertex
100
AcDb2dVertex
 10
240.8740632627996
 20
72.15026811925054
 30
0.0
  0
VERTEX
  5
102
330
DF
100
AcDbEntity
  8
Layer 4
 62
     7
420
 16777215
370
    30
100
AcDbVertex
100
AcDb2dVertex
 10
233.9205456527734
 20
80.6182544203366
 30
0.0
  0
VERTEX
  5
103
330
DF
100
AcDbEntity
  8
Layer 4
 62
     7
420
 16777215
370
    30
100
AcDbVertex
100
AcDb2dVertex
 10
228.6578516308218
 20
72.41502400115132
 30
0.0
  0
VERTEX
  5
104
330
DF
100
AcDbEntity
  8
Layer 4
 62
     7
420
 16777215
370
    30
100
AcDbVertex
100
AcDb2dVertex
 10
168.8740632627996
 20
72.15026811925054
 30
0.0
  0
VERTEX
  5
105
330
DF
100
AcDbEntity
  8
Layer 4
 62
     7
420
 16777215
370
    30
100
AcDbVertex
100
AcDb2dVertex
 10
162.3709878041209
 20
81.32038164692494
 30
0.0
  0
VERTEX
  5
106
330
DF
100
AcDbEntity
  8
Layer 4
 62
     7
420
 16777215
370
    30
100
AcDbVertex
100
AcDb2dVertex
 10
156.6578516308218
 20
71.71289677456298
 30
0.0
  0
VERTEX
  5
107
330
DF
100
AcDbEntity
  8
Layer 4
 62
     7
420
 16777215
370
    30
100
AcDbVertex
100
AcDb2dVertex
 10
54.0
 20
72.0
 30
0.0
  0
VERTEX
  5
108
330
DF
100
AcDbEntity
  8
Layer 4
 62
     7
420
 16777215
370
    30
100
AcDbVertex
100
AcDb2dVertex
 10
54.0
 20
720.0
 30
0.0
  0
SEQEND
  5
109
330
DF
100
AcDbEntity
  8
Layer 4
 62
     7
420
 16777215
370
    30
  0
POLYLINE
  5
10A
330
1F
100
AcDbEntity
  8
Layer 4
  6
AI-Linetype-8
 62
   250
420
  2301728
370
    35
100
AcDb2dPolyline
 66
     1
 10
0.0
 20
0.0
 30
0.0
  0
VERTEX
  5
10B
330
10A
100
AcDbEntity
  8
Layer 4
  6
AI-Linetype-8
 62
   250
420
  2301728
370
    35
100
AcDbVertex
100
AcDb2dVertex
 10
53.99924304781143
 20
395.8510598432949
 30
0.0
  0
VERTEX
  5
10C
330
10A
100
AcDbEntity
  8
Layer 4
  6
AI-Linetype-8
 62
   250
420
  2301728
370
    35
100
AcDbVertex
100
AcDb2dVertex
 10
558.936150519181
 20
395.8510605497358
 30
0.0
  0
SEQEND
  5
10E
330
10A
100
AcDbEntity
  8
Layer 4
  6
AI-Linetype-8
 62
   250
420
  2301728
370
    35
  0
ENDSEC
  0
SECTION
  2
OBJECTS
  0
DICTIONARY
  5
C
330
0
100
AcDbDictionary
281
     1
  3
ACAD_GROUP
350
D
  3
ACAD_LAYOUT
350
1A
  3
ACAD_MATERIAL
350
3B
  3
ACAD_MLEADERSTYLE
350
110
  3
ACAD_MLINESTYLE
350
17
  3
ACAD_PLOTSETTINGS
350
19
  3
ACAD_PLOTSTYLENAME
350
E
  3
ACAD_TABLESTYLE
350
10F
  3
ACAD_VISUALSTYLE
350
2A
  0
SUN
  5
3F
330
29
100
AcDbSun
 90
        1
290
     0
 63
     7
421
 16777215
 40
1.0
291
     1
 91
  2455826
 92
 54000000
292
     0
 70
     2
 71
   256
280
     1
  0
DICTIONARY
  5
D
102
{ACAD_REACTORS
330
C
102
}
330
C
100
AcDbDictionary
281
     1
  0
DICTIONARY
  5
1A
102
{ACAD_REACTORS
330
C
102
}
330
C
100
AcDbDictionary
281
     1
  3
Layout1
350
1E
  3
Layout2
350
26
  3
Model
350
22
  0
DICTIONARY
  5
3B
102
{ACAD_REACTORS
330
C
102
}
330
C
100
AcDbDictionary
281
     1
  3
ByBlock
350
3D
  3
ByLayer
350
3C
  3
Global
350
3E
  0
DICTIONARY
  5
110
102
{ACAD_REACTORS
330
C
102
}
330
C
100
AcDbDictionary
281
     1
  0
DICTIONARY
  5
17
102
{ACAD_REACTORS
330
C
102
}
330
C
100
AcDbDictionary
281
     1
  3
Standard
350
18
  0
DICTIONARY
  5
19
102
{ACAD_REACTORS
330
C
102
}
330
C
100
AcDbDictionary
281
     1
  0
ACDBDICTIONARYWDFLT
  5
E
102
{ACAD_REACTORS
330
C
102
}
330
C
100
AcDbDictionary
281
     1
  3
Normal
350
F
100
AcDbDictionaryWithDefault
340
F
  0
DICTIONARY
  5
10F
102
{ACAD_REACTORS
330
C
102
}
330
C
100
AcDbDictionary
281
     1
  0
DICTIONARY
  5
2A
102
{ACAD_REACTORS
330
C
102
}
330
C
100
AcDbDictionary
281
     1
  3
2dWireframe
350
2F
  3
3D Hidden
350
31
  3
3dWireframe
350
30
  3
Basic
350
32
  3
Brighten
350
36
  3
ColorChange
350
3A
  3
Conceptual
350
34
  3
Dim
350
35
  3
Facepattern
350
39
  3
Flat
350
2B
  3
FlatWithEdges
350
2C
  3
Gouraud
350
2D
  3
GouraudWithEdges
350
2E
  3
Linepattern
350
38
  3
Realistic
350
33
  3
Thicken
350
37
  0
LAYOUT
  5
1E
102
{ACAD_REACTORS
330
1A
102
}
330
1A
100
AcDbPlotSettings
  1

  2
none_device
  4

  6

 40
0.0
 41
0.0
 42
0.0
 43
0.0
 44
0.0
 45
0.0
 46
0.0
 47
0.0
 48
0.0
 49
0.0
140
0.0
141
0.0
142
1.0
143
1.0
 70
   688
 72
     0
 73
     0
 74
     5
  7

 75
    16
 76
     0
 77
     2
 78
   300
147
1.0
148
0.0
149
0.0
100
AcDbLayout
  1
Layout1
 70
     1
 71
     1
 10
0.0
 20
0.0
 11
12.0
 21
9.0
 12
0.0
 22
0.0
 32
0.0
 14
1.000000000000000E+20
 24
1.000000000000000E+20
 34
1.000000000000000E+20
 15
-1.000000000000000E+20
 25
-1.000000000000000E+20
 35
-1.000000000000000E+20
146
0.0
 13
0.0
 23
0.0
 33
0.0
 16
1.0
 26
0.0
 36
0.0
 17
0.0
 27
1.0
 37
0.0
 76
     0
330
1B
  0
LAYOUT
  5
26
102
{ACAD_REACTORS
330
1A
102
}
330
1A
100
AcDbPlotSettings
  1

  2
none_device
  4

  6

 40
0.0
 41
0.0
 42
0.0
 43
0.0
 44
0.0
 45
0.0
 46
0.0
 47
0.0
 48
0.0
 49
0.0
140
0.0
141
0.0
142
1.0
143
1.0
 70
   688
 72
     0
 73
     0
 74
     5
  7

 75
    16
 76
     0
 77
     2
 78
   300
147
1.0
148
0.0
149
0.0
100
AcDbLayout
  1
Layout2
 70
     1
 71
     2
 10
0.0
 20
0.0
 11
0.0
 21
0.0
 12
0.0
 22
0.0
 32
0.0
 14
0.0
 24
0.0
 34
0.0
 15
0.0
 25
0.0
 35
0.0
146
0.0
 13
0.0
 23
0.0
 33
0.0
 16
1.0
 26
0.0
 36
0.0
 17
0.0
 27
1.0
 37
0.0
 76
     0
330
23
  0
LAYOUT
  5
22
102
{ACAD_REACTORS
330
1A
102
}
330
1A
100
AcDbPlotSettings
  1

  2
none_device
  4

  6

 40
0.0
 41
0.0
 42
0.0
 43
0.0
 44
0.0
 45
0.0
 46
0.0
 47
0.0
 48
0.0
 49
0.0
140
0.0
141
0.0
142
1.0
143
1.0
 70
  1712
 72
     0
 73
     0
 74
     0
  7

 75
     0
 76
     0
 77
     2
 78
   300
147
1.0
148
0.0
149
0.0
100
AcDbLayout
  1
Model
 70
     1
 71
     0
 10
0.0
 20
0.0
 11
12.0
 21
9.0
 12
0.0
 22
0.0
 32
0.0
 14
1.000000000000000E+20
 24
1.000000000000000E+20
 34
1.000000000000000E+20
 15
-1.000000000000000E+20
 25
-1.000000000000000E+20
 35
-1.000000000000000E+20
146
0.0
 13
0.0
 23
0.0
 33
0.0
 16
1.0
 26
0.0
 36
0.0
 17
0.0
 27
1.0
 37
0.0
 76
     0
330
1F
331
29
  0
MATERIAL
  5
3D
102
{ACAD_REACTORS
330
3B
102
}
330
3B
100
AcDbMaterial
  1
ByBlock
 72
     1
 94
      127
  0
MATERIAL
  5
3C
102
{ACAD_REACTORS
330
3B
102
}
330
3B
100
AcDbMaterial
  1
ByLayer
 72
     1
 94
      127
  0
MATERIAL
  5
3E
102
{ACAD_REACTORS
330
3B
102
}
330
3B
100
AcDbMaterial
  1
Global
 72
     1
 94
      127
  0
MLINESTYLE
  5
18
102
{ACAD_REACTORS
330
17
102
}
330
17
100
AcDbMlineStyle
  2
Standard
 70
     0
  3

 62
   256
 51
90.0
 52
90.0
 71
     2
 49
0.5
 62
   256
  6
BYLAYER
 49
-0.5
 62
   256
  6
BYLAYER
  0
ACDBPLACEHOLDER
  5
F
102
{ACAD_REACTORS
330
E
102
}
330
E
  0
VISUALSTYLE
  5
2F
102
{ACAD_REACTORS
330
2A
102
}
330
2A
100
AcDbVisualStyle
  2
2dWireframe
 70
     4
177
     2
291
     0
 71
     0
176
     1
 72
     2
176
     1
 73
     0
176
     1
 90
        0
176
     1
 40
-0.6
176
     1
 41
-30.0
176
     1
 62
     5
 63
     7
421
 16777215
176
     1
 74
     1
176
     1
 91
        4
176
     1
 64
     7
176
     1
 65
   257
176
     1
 75
     1
176
     1
175
     1
176
     1
 42
1.0
176
     1
 92
        0
176
     1
 66
   257
176
     1
 43
1.0
176
     1
 76
     1
176
     1
 77
     6
176
     1
 78
     2
176
     1
 67
     7
176
     1
 79
     5
176
     1
170
     0
176
     1
171
     0
176
     1
290
     0
176
     1
 93
        1
176
     1
 44
0.0
176
     1
173
     0
176
     1
  0
VISUALSTYLE
  5
31
102
{ACAD_REACTORS
330
2A
102
}
330
2A
100
AcDbVisualStyle
  2
3D Hidden
 70
     6
177
     2
291
     0
 71
     1
176
     1
 72
     2
176
     1
 73
     2
176
     1
 90
        0
176
     1
 40
-0.6
176
     1
 41
-30.0
176
     1
 62
     5
 63
     7
421
 16777215
176
     1
 74
     2
176
     1
 91
        2
176
     1
 64
     7
176
     1
 65
   257
176
     1
 75
     2
176
     1
175
     1
176
     1
 42
40.0
176
     1
 92
        0
176
     1
 66
   257
176
     1
 43
1.0
176
     1
 76
     1
176
     1
 77
     6
176
     1
 78
     2
176
     1
 67
     7
176
     1
 79
     3
176
     1
170
     0
176
     1
171
     0
176
     1
290
     0
176
     1
 93
        1
176
     1
 44
0.0
176
     1
173
     0
176
     1
  0
VISUALSTYLE
  5
30
102
{ACAD_REACTORS
330
2A
102
}
330
2A
100
AcDbVisualStyle
  2
3dWireframe
 70
     5
177
     2
291
     0
 71
     0
176
     1
 72
     2
176
     1
 73
     0
176
     1
 90
        0
176
     1
 40
-0.6
176
     1
 41
-30.0
176
     1
 62
     5
 63
     7
421
 16777215
176
     1
 74
     1
176
     1
 91
        4
176
     1
 64
     7
176
     1
 65
   257
176
     1
 75
     1
176
     1
175
     1
176
     1
 42
1.0
176
     1
 92
        0
176
     1
 66
   257
176
     1
 43
1.0
176
     1
 76
     1
176
     1
 77
     6
176
     1
 78
     2
176
     1
 67
     7
176
     1
 79
     5
176
     1
170
     0
176
     1
171
     0
176
     1
290
     0
176
     1
 93
        1
176
     1
 44
0.0
176
     1
173
     0
176
     1
  0
VISUALSTYLE
  5
32
102
{ACAD_REACTORS
330
2A
102
}
330
2A
100
AcDbVisualStyle
  2
Basic
 70
     7
177
     2
291
     1
 71
     1
176
     1
 72
     0
176
     1
 73
     1
176
     1
 90
        0
176
     1
 40
-0.6
176
     1
 41
-30.0
176
     1
 62
     5
 63
     7
421
 16777215
176
     1
 74
     0
176
     1
 91
        4
176
     1
 64
     7
176
     1
 65
   257
176
     1
 75
     1
176
     1
175
     1
176
     1
 42
1.0
176
     1
 92
        8
176
     1
 66
     7
176
     1
 43
1.0
176
     1
 76
     1
176
     1
 77
     6
176
     1
 78
     2
176
     1
 67
     7
176
     1
 79
     5
176
     1
170
     0
176
     1
171
     0
176
     1
290
     0
176
     1
 93
        1
176
     1
 44
0.0
176
     1
173
     0
176
     1
  0
VISUALSTYLE
  5
36
102
{ACAD_REACTORS
330
2A
102
}
330
2A
100
AcDbVisualStyle
  2
Brighten
 70
    12
177
     2
291
     1
 71
     2
176
     1
 72
     2
176
     1
 73
     0
176
     1
 90
        0
176
     1
 40
-0.6
176
     1
 41
-30.0
176
     1
 62
     5
 63
     7
421
 16777215
176
     1
 74
     1
176
     1
 91
        4
176
     1
 64
     7
176
     1
 65
   257
176
     1
 75
     1
176
     1
175
     1
176
     1
 42
1.0
176
     1
 92
        8
176
     1
 66
     7
176
     1
 43
1.0
176
     1
 76
     1
176
     1
 77
     6
176
     1
 78
     2
176
     1
 67
     7
176
     1
 79
     5
176
     1
170
     0
176
     1
171
     0
176
     1
290
     0
176
     1
 93
        1
176
     1
 44
50.0
176
     1
173
     0
176
     1
  0
VISUALSTYLE
  5
3A
102
{ACAD_REACTORS
330
2A
102
}
330
2A
100
AcDbVisualStyle
  2
ColorChange
 70
    16
177
     2
291
     1
 71
     2
176
     1
 72
     2
176
     1
 73
     3
176
     1
 90
        0
176
     1
 40
-0.6
176
     1
 41
-30.0
176
     1
 62
     5
 63
     8
421
  8421504
176
     1
 74
     1
176
     1
 91
        4
176
     1
 64
     7
176
     1
 65
   257
176
     1
 75
     1
176
     1
175
     1
176
     1
 42
1.0
176
     1
 92
        8
176
     1
 66
     8
424
  8421504
176
     1
 43
1.0
176
     1
 76
     1
176
     1
 77
     6
176
     1
 78
     2
176
     1
 67
     7
176
     1
 79
     5
176
     1
170
     0
176
     1
171
     0
176
     1
290
     0
176
     1
 93
        1
176
     1
 44
0.0
176
     1
173
     0
176
     1
  0
VISUALSTYLE
  5
34
102
{ACAD_REACTORS
330
2A
102
}
330
2A
100
AcDbVisualStyle
  2
Conceptual
 70
     9
177
     2
291
     0
 71
     3
176
     1
 72
     2
176
     1
 73
     0
176
     1
 90
        0
176
     1
 40
-0.6
176
     1
 41
-30.0
176
     1
 62
     5
 63
     7
421
 16777215
176
     1
 74
     2
176
     1
 91
        2
176
     1
 64
     7
176
     1
 65
   257
176
     1
 75
     1
176
     1
175
     1
176
     1
 42
40.0
176
     1
 92
        8
176
     1
 66
     7
176
     1
 43
1.0
176
     1
 76
     1
176
     1
 77
     6
176
     1
 78
     2
176
     1
 67
     7
176
     1
 79
     3
176
     1
170
     0
176
     1
171
     0
176
     1
290
     0
176
     1
 93
        1
176
     1
 44
0.0
176
     1
173
     0
176
     1
  0
VISUALSTYLE
  5
35
102
{ACAD_REACTORS
330
2A
102
}
330
2A
100
AcDbVisualStyle
  2
Dim
 70
    11
177
     2
291
     1
 71
     2
176
     1
 72
     2
176
     1
 73
     0
176
     1
 90
        0
176
     1
 40
-0.6
176
     1
 41
-30.0
176
     1
 62
     5
 63
     7
421
 16777215
176
     1
 74
     1
176
     1
 91
        4
176
     1
 64
     7
176
     1
 65
   257
176
     1
 75
     1
176
     1
175
     1
176
     1
 42
1.0
176
     1
 92
        8
176
     1
 66
     7
176
     1
 43
1.0
176
     1
 76
     1
176
     1
 77
     6
176
     1
 78
     2
176
     1
 67
     7
176
     1
 79
     5
176
     1
170
     0
176
     1
171
     0
176
     1
290
     0
176
     1
 93
        1
176
     1
 44
-50.0
176
     1
173
     0
176
     1
  0
VISUALSTYLE
  5
39
102
{ACAD_REACTORS
330
2A
102
}
330
2A
100
AcDbVisualStyle
  2
Facepattern
 70
    15
177
     2
291
     1
 71
     2
176
     1
 72
     2
176
     1
 73
     0
176
     1
 90
        0
176
     1
 40
-0.6
176
     1
 41
-30.0
176
     1
 62
     5
 63
     7
421
 16777215
176
     1
 74
     1
176
     1
 91
        4
176
     1
 64
     7
176
     1
 65
   257
176
     1
 75
     1
176
     1
175
     1
176
     1
 42
1.0
176
     1
 92
        8
176
     1
 66
     7
176
     1
 43
1.0
176
     1
 76
     1
176
     1
 77
     6
176
     1
 78
     2
176
     1
 67
     7
176
     1
 79
     5
176
     1
170
     0
176
     1
171
     0
176
     1
290
     0
176
     1
 93
        1
176
     1
 44
0.0
176
     1
173
     0
176
     1
  0
VISUALSTYLE
  5
2B
102
{ACAD_REACTORS
330
2A
102
}
330
2A
100
AcDbVisualStyle
  2
Flat
 70
     0
177
     2
291
     1
 71
     2
176
     1
 72
     1
176
     1
 73
     1
176
     1
 90
        2
176
     1
 40
-0.6
176
     1
 41
30.0
176
     1
 62
     5
 63
     7
421
 16777215
176
     1
 74
     0
176
     1
 91
        4
176
     1
 64
     7
176
     1
 65
   257
176
     1
 75
     1
176
     1
175
     1
176
     1
 42
1.0
176
     1
 92
        8
176
     1
 66
     7
176
     1
 43
1.0
176
     1
 76
     1
176
     1
 77
     6
176
     1
 78
     2
176
     1
 67
     7
176
     1
 79
     5
176
     1
170
     0
176
     1
171
     0
176
     1
290
     0
176
     1
 93
       13
176
     1
 44
0.0
176
     1
173
     0
176
     1
  0
VISUALSTYLE
  5
2C
102
{ACAD_REACTORS
330
2A
102
}
330
2A
100
AcDbVisualStyle
  2
FlatWithEdges
 70
     1
177
     2
291
     1
 71
     2
176
     1
 72
     1
176
     1
 73
     1
176
     1
 90
        2
176
     1
 40
-0.6
176
     1
 41
30.0
176
     1
 62
     5
 63
     7
421
 16777215
176
     1
 74
     1
176
     1
 91
        4
176
     1
 64
     7
176
     1
 65
   257
176
     1
 75
     1
176
     1
175
     1
176
     1
 42
1.0
176
     1
 92
        0
176
     1
 66
   257
176
     1
 43
1.0
176
     1
 76
     1
176
     1
 77
     6
176
     1
 78
     2
176
     1
 67
     7
176
     1
 79
     5
176
     1
170
     0
176
     1
171
     0
176
     1
290
     0
176
     1
 93
       13
176
     1
 44
0.0
176
     1
173
     0
176
     1
  0
VISUALSTYLE
  5
2D
102
{ACAD_REACTORS
330
2A
102
}
330
2A
100
AcDbVisualStyle
  2
Gouraud
 70
     2
177
     2
291
     1
 71
     2
176
     1
 72
     2
176
     1
 73
     1
176
     1
 90
        2
176
     1
 40
-0.6
176
     1
 41
30.0
176
     1
 62
     5
 63
     7
421
 16777215
176
     1
 74
     0
176
     1
 91
        4
176
     1
 64
     7
176
     1
 65
   257
176
     1
 75
     1
176
     1
175
     1
176
     1
 42
1.0
176
     1
 92
        0
176
     1
 66
     7
176
     1
 43
1.0
176
     1
 76
     1
176
     1
 77
     6
176
     1
 78
     2
176
     1
 67
     7
176
     1
 79
     5
176
     1
170
     0
176
     1
171
     0
176
     1
290
     0
176
     1
 93
       13
176
     1
 44
0.0
176
     1
173
     0
176
     1
  0
VISUALSTYLE
  5
2E
102
{ACAD_REACTORS
330
2A
102
}
330
2A
100
AcDbVisualStyle
  2
GouraudWithEdges
 70
     3
177
     2
291
     1
 71
     2
176
     1
 72
     2
176
     1
 73
     1
176
     1
 90
        2
176
     1
 40
-0.6
176
     1
 41
30.0
176
     1
 62
     5
 63
     7
421
 16777215
176
     1
 74
     1
176
     1
 91
        4
176
     1
 64
     7
176
     1
 65
   257
176
     1
 75
     1
176
     1
175
     1
176
     1
 42
1.0
176
     1
 92
        0
176
     1
 66
   257
176
     1
 43
1.0
176
     1
 76
     1
176
     1
 77
     6
176
     1
 78
     2
176
     1
 67
     7
176
     1
 79
     5
176
     1
170
     0
176
     1
171
     0
176
     1
290
     0
176
     1
 93
       13
176
     1
 44
0.0
176
     1
173
     0
176
     1
  0
VISUALSTYLE
  5
38
102
{ACAD_REACTORS
330
2A
102
}
330
2A
100
AcDbVisualStyle
  2
Linepattern
 70
    14
177
     2
291
     1
 71
     2
176
     1
 72
     2
176
     1
 73
     0
176
     1
 90
        0
176
     1
 40
-0.6
176
     1
 41
-30.0
176
     1
 62
     5
 63
     7
421
 16777215
176
     1
 74
     1
176
     1
 91
        4
176
     1
 64
     7
176
     1
 65
   257
176
     1
 75
     7
176
     1
175
     7
176
     1
 42
1.0
176
     1
 92
        8
176
     1
 66
     7
176
     1
 43
1.0
176
     1
 76
     1
176
     1
 77
     6
176
     1
 78
     2
176
     1
 67
     7
176
     1
 79
     5
176
     1
170
     0
176
     1
171
     0
176
     1
290
     0
176
     1
 93
        1
176
     1
 44
0.0
176
     1
173
     0
176
     1
  0
VISUALSTYLE
  5
33
102
{ACAD_REACTORS
330
2A
102
}
330
2A
100
AcDbVisualStyle
  2
Realistic
 70
     8
177
     2
291
     0
 71
     2
176
     1
 72
     2
176
     1
 73
     0
176
     1
 90
        0
176
     1
 40
-0.6
176
     1
 41
-30.0
176
     1
 62
     5
 63
     7
421
 16777215
176
     1
 74
     1
176
     1
 91
        0
176
     1
 64
     7
176
     1
 65
   257
176
     1
 75
     1
176
     1
175
     1
176
     1
 42
1.0
176
     1
 92
        8
176
     1
 66
     8
424
  7895160
176
     1
 43
1.0
176
     1
 76
     1
176
     1
 77
     6
176
     1
 78
     2
176
     1
 67
     7
176
     1
 79
     5
176
     1
170
     0
176
     1
171
     0
176
     1
290
     0
176
     1
 93
       13
176
     1
 44
0.0
176
     1
173
     0
176
     1
  0
VISUALSTYLE
  5
37
102
{ACAD_REACTORS
330
2A
102
}
330
2A
100
AcDbVisualStyle
  2
Thicken
 70
    13
177
     2
291
     1
 71
     2
176
     1
 72
     2
176
     1
 73
     0
176
     1
 90
        0
176
     1
 40
-0.6
176
     1
 41
-30.0
176
     1
 62
     5
 63
     7
421
 16777215
176
     1
 74
     1
176
     1
 91
        4
176
     1
 64
     7
176
     1
 65
   257
176
     1
 75
     1
176
     1
175
     1
176
     1
 42
1.0
176
     1
 92
       12
176
     1
 66
     7
176
     1
 43
1.0
176
     1
 76
     1
176
     1
 77
     6
176
     1
 78
     2
176
     1
 67
     7
176
     1
 79
     5
176
     1
170
     0
176
     1
171
     0
176
     1
290
     0
176
     1
 93
        1
176
     1
 44
0.0
176
     1
173
     0
176
     1
  0
ENDSEC
  0
EOF
